G04 (created by PCBNEW (22-Jun-2014 BZR 4027)-stable) date Wed 20 Dec 2017 05:06:28 PM CST*
%MOIN*%
G04 Gerber Fmt 3.4, Leading zero omitted, Abs format*
%FSLAX34Y34*%
G01*
G70*
G90*
G04 APERTURE LIST*
%ADD10C,0.00393701*%
%ADD11R,0.0787402X0.149606*%
%ADD12R,0.0787402X0.0590551*%
%ADD13R,0.0472441X0.0295276*%
%ADD14R,0.0787402X0.177165*%
%ADD15R,0.177165X0.0787402*%
%ADD16R,0.0787402X0.0944882*%
%ADD17R,0.0295276X0.0472441*%
%ADD18R,0.0787402X0.0787402*%
%ADD19R,0.0393701X0.0787402*%
%ADD20R,0.055X0.055*%
%ADD21C,0.055*%
%ADD22R,0.0110236X0.0590551*%
%ADD23R,0.019685X0.0590551*%
%ADD24R,0.0590551X0.019685*%
%ADD25R,0.0590551X0.0110236*%
%ADD26C,0.023622*%
%ADD27C,0.00708661*%
%ADD28C,0.01*%
G04 APERTURE END LIST*
G54D10*
G54D11*
X64739Y-56560D03*
G54D12*
X67220Y-56560D03*
X67220Y-55654D03*
X67220Y-57465D03*
G54D13*
X95854Y-55280D03*
X95105Y-55280D03*
G54D14*
X71727Y-50400D03*
X72672Y-50400D03*
X90072Y-50400D03*
X89127Y-50400D03*
X90072Y-56400D03*
X89127Y-56400D03*
X71727Y-56400D03*
X72672Y-56400D03*
G54D15*
X92600Y-52927D03*
X92600Y-53872D03*
X75200Y-52927D03*
X75200Y-53872D03*
X69200Y-52927D03*
X69200Y-53872D03*
X86600Y-52927D03*
X86600Y-53872D03*
G54D16*
X79942Y-51450D03*
X81557Y-51450D03*
G54D13*
X81874Y-50250D03*
X81125Y-50250D03*
X79625Y-50250D03*
X80374Y-50250D03*
G54D17*
X94300Y-56045D03*
X94300Y-56794D03*
X78300Y-55675D03*
X78300Y-56424D03*
G54D13*
X80674Y-52650D03*
X79925Y-52650D03*
X81605Y-57420D03*
X82354Y-57420D03*
G54D17*
X83050Y-53975D03*
X83050Y-54724D03*
G54D18*
X95100Y-57260D03*
X95100Y-56060D03*
X97100Y-56060D03*
X97100Y-57260D03*
X64700Y-50120D03*
X64700Y-48920D03*
X66700Y-48920D03*
X66700Y-50120D03*
X95100Y-50120D03*
X95100Y-48920D03*
X97100Y-48920D03*
X97100Y-50120D03*
X76600Y-59700D03*
X76600Y-58500D03*
X78600Y-58500D03*
X78600Y-59700D03*
X83100Y-59700D03*
X83100Y-58500D03*
X85100Y-58500D03*
X85100Y-59700D03*
X95100Y-59700D03*
X95100Y-58500D03*
X97100Y-58500D03*
X97100Y-59700D03*
X92100Y-59700D03*
X92100Y-58500D03*
X94100Y-58500D03*
X94100Y-59700D03*
X64700Y-59700D03*
X64700Y-58500D03*
X66700Y-58500D03*
X66700Y-59700D03*
X67700Y-59700D03*
X67700Y-58500D03*
X69700Y-58500D03*
X69700Y-59700D03*
G54D19*
X79550Y-59600D03*
X80200Y-59600D03*
X80850Y-59600D03*
X81500Y-59600D03*
X82150Y-59600D03*
G54D20*
X82320Y-49240D03*
G54D21*
X81320Y-49240D03*
X80320Y-49240D03*
X79320Y-49240D03*
G54D22*
X81192Y-53307D03*
X80995Y-53307D03*
X80798Y-53307D03*
X80601Y-53307D03*
X80404Y-53307D03*
G54D23*
X81822Y-53307D03*
G54D22*
X81585Y-53307D03*
X81388Y-53307D03*
G54D24*
X78957Y-53927D03*
G54D25*
X78957Y-54164D03*
X78957Y-54361D03*
X78957Y-54557D03*
X78957Y-54754D03*
X78957Y-54951D03*
X78957Y-55148D03*
X78957Y-55345D03*
G54D23*
X79577Y-56792D03*
G54D22*
X79814Y-56792D03*
X80011Y-56792D03*
X80207Y-56792D03*
X80404Y-56792D03*
X80601Y-56792D03*
X80798Y-56792D03*
X80995Y-56792D03*
G54D24*
X82442Y-56172D03*
G54D25*
X82442Y-55935D03*
X82442Y-55738D03*
X82442Y-55542D03*
X82442Y-55345D03*
X82442Y-55148D03*
X82442Y-54951D03*
X82442Y-54754D03*
G54D22*
X80207Y-53307D03*
X80011Y-53307D03*
X79814Y-53307D03*
G54D23*
X79577Y-53307D03*
G54D25*
X78957Y-55542D03*
X78957Y-55738D03*
X78957Y-55935D03*
G54D24*
X78957Y-56172D03*
G54D22*
X81192Y-56792D03*
X81388Y-56792D03*
X81585Y-56792D03*
G54D23*
X81822Y-56792D03*
G54D25*
X82442Y-54557D03*
X82442Y-54361D03*
X82442Y-54164D03*
G54D24*
X82442Y-53927D03*
G54D13*
X70565Y-58660D03*
X71314Y-58660D03*
G54D26*
X95860Y-54940D03*
X67760Y-56560D03*
X81580Y-57680D03*
X79440Y-55940D03*
X79340Y-52260D03*
X70560Y-59020D03*
X66620Y-55660D03*
X79540Y-59020D03*
X83380Y-54740D03*
X82760Y-52980D03*
X85520Y-52960D03*
X82354Y-56830D03*
X80200Y-56140D03*
X91580Y-52927D03*
X91580Y-50400D03*
X96620Y-59700D03*
X96640Y-57260D03*
X65940Y-57420D03*
X65940Y-59720D03*
X83640Y-59700D03*
X69200Y-59700D03*
X76060Y-59700D03*
X69200Y-52320D03*
X75200Y-52320D03*
X95120Y-54940D03*
X80980Y-54240D03*
X81780Y-53940D03*
X81380Y-53940D03*
X81240Y-58660D03*
X71760Y-58660D03*
X80980Y-53900D03*
X80480Y-51460D03*
G54D27*
X95860Y-54940D02*
X95854Y-54940D01*
X95854Y-54940D02*
X95860Y-54940D01*
X95860Y-54940D02*
X95854Y-54940D01*
X95854Y-52180D02*
X95854Y-52054D01*
X95820Y-52020D02*
X95640Y-52020D01*
X95854Y-52054D02*
X95820Y-52020D01*
X83050Y-53975D02*
X83050Y-52991D01*
X83050Y-52991D02*
X83160Y-52881D01*
X83160Y-52881D02*
X84878Y-52881D01*
X84878Y-52881D02*
X84981Y-52778D01*
X84981Y-52778D02*
X84981Y-52080D01*
X84981Y-52080D02*
X85041Y-52020D01*
X85041Y-52020D02*
X95640Y-52020D01*
X95854Y-52174D02*
X95854Y-52180D01*
X95854Y-52180D02*
X95854Y-54940D01*
X95854Y-54940D02*
X95854Y-55280D01*
X95640Y-52020D02*
X95700Y-52020D01*
X67760Y-56560D02*
X67220Y-56560D01*
X81605Y-57420D02*
X81605Y-57654D01*
X81580Y-57680D02*
X81605Y-57654D01*
X78957Y-55935D02*
X79435Y-55935D01*
X79435Y-55935D02*
X79440Y-55940D01*
X80674Y-52650D02*
X80674Y-52314D01*
X79041Y-49518D02*
X79320Y-49240D01*
X79041Y-52180D02*
X79041Y-49518D01*
X79121Y-52260D02*
X79041Y-52180D01*
X80620Y-52260D02*
X79340Y-52260D01*
X79340Y-52260D02*
X79121Y-52260D01*
X80674Y-52314D02*
X80620Y-52260D01*
X80404Y-53307D02*
X80404Y-52919D01*
X80404Y-52919D02*
X80674Y-52650D01*
X78957Y-55935D02*
X78559Y-55935D01*
X78559Y-55935D02*
X78300Y-55675D01*
X82442Y-54164D02*
X82861Y-54164D01*
X82861Y-54164D02*
X83050Y-53975D01*
X81585Y-56792D02*
X81585Y-57399D01*
X81585Y-57399D02*
X81605Y-57420D01*
X70565Y-58660D02*
X70565Y-59014D01*
X70565Y-59014D02*
X70560Y-59020D01*
X66620Y-55660D02*
X67214Y-55660D01*
X67214Y-55660D02*
X67220Y-55654D01*
X66620Y-55660D02*
X66625Y-55654D01*
X79550Y-59600D02*
X79550Y-59030D01*
X79550Y-59030D02*
X79540Y-59020D01*
X92491Y-55148D02*
X92531Y-55148D01*
X92600Y-53872D02*
X92600Y-55040D01*
X92491Y-55148D02*
X82442Y-55148D01*
X92600Y-55080D02*
X92600Y-55040D01*
X92531Y-55148D02*
X92600Y-55080D01*
X82442Y-55345D02*
X89065Y-55345D01*
X89127Y-55407D02*
X89127Y-56400D01*
X89065Y-55345D02*
X89127Y-55407D01*
X95100Y-58500D02*
X97100Y-58500D01*
X82442Y-55542D02*
X87482Y-55542D01*
X95100Y-57840D02*
X95100Y-58500D01*
X95040Y-57780D02*
X95100Y-57840D01*
X87600Y-57780D02*
X95040Y-57780D01*
X87540Y-57720D02*
X87600Y-57780D01*
X87540Y-55600D02*
X87540Y-57720D01*
X87482Y-55542D02*
X87540Y-55600D01*
X92100Y-58500D02*
X94100Y-58500D01*
X82442Y-55738D02*
X87357Y-55738D01*
X92100Y-58000D02*
X92100Y-58500D01*
X92021Y-57921D02*
X92100Y-58000D01*
X87481Y-57921D02*
X92021Y-57921D01*
X87398Y-57838D02*
X87481Y-57921D01*
X87398Y-55780D02*
X87398Y-57838D01*
X87357Y-55738D02*
X87398Y-55780D01*
X80360Y-57638D02*
X75680Y-57638D01*
X75680Y-57638D02*
X69261Y-57638D01*
X69200Y-57920D02*
X69140Y-57980D01*
X69200Y-57700D02*
X69200Y-57920D01*
X69261Y-57638D02*
X69200Y-57700D01*
X66880Y-57980D02*
X69140Y-57980D01*
X80404Y-57593D02*
X80360Y-57638D01*
X80404Y-57593D02*
X80404Y-56792D01*
X66700Y-58080D02*
X66700Y-58020D01*
X66700Y-58500D02*
X66700Y-58080D01*
X66740Y-57980D02*
X66880Y-57980D01*
X66700Y-58020D02*
X66740Y-57980D01*
X66880Y-57980D02*
X66800Y-57980D01*
X64700Y-58500D02*
X66700Y-58500D01*
X75780Y-57780D02*
X69780Y-57780D01*
X69700Y-57860D02*
X69700Y-58500D01*
X69780Y-57780D02*
X69700Y-57860D01*
X67700Y-58500D02*
X69700Y-58500D01*
X80601Y-57738D02*
X80601Y-56792D01*
X80560Y-57780D02*
X80601Y-57738D01*
X75780Y-57780D02*
X80560Y-57780D01*
X80011Y-56792D02*
X80011Y-57303D01*
X72672Y-57292D02*
X72672Y-56400D01*
X72734Y-57354D02*
X72672Y-57292D01*
X79960Y-57354D02*
X72734Y-57354D01*
X80011Y-57303D02*
X79960Y-57354D01*
X80320Y-49240D02*
X80320Y-48801D01*
X90072Y-48832D02*
X90072Y-50400D01*
X89981Y-48741D02*
X90072Y-48832D01*
X80380Y-48741D02*
X89981Y-48741D01*
X80320Y-48801D02*
X80380Y-48741D01*
X83380Y-54740D02*
X83364Y-54724D01*
X83364Y-54724D02*
X83050Y-54724D01*
X82442Y-54754D02*
X82074Y-54754D01*
X82052Y-53927D02*
X82442Y-53927D01*
X82020Y-53960D02*
X82052Y-53927D01*
X82020Y-54700D02*
X82020Y-53960D01*
X82074Y-54754D02*
X82020Y-54700D01*
X82442Y-53927D02*
X82592Y-53927D01*
X82592Y-53927D02*
X82760Y-53760D01*
X82760Y-53760D02*
X82760Y-52980D01*
X85520Y-52960D02*
X85552Y-52927D01*
X85552Y-52927D02*
X86600Y-52927D01*
X80207Y-56112D02*
X80207Y-56132D01*
X80200Y-56140D02*
X80207Y-56132D01*
X80140Y-56172D02*
X80147Y-56172D01*
X80207Y-53307D02*
X80207Y-56072D01*
X80140Y-56172D02*
X78957Y-56172D01*
X80207Y-56112D02*
X80207Y-56072D01*
X80147Y-56172D02*
X80207Y-56112D01*
X95100Y-57260D02*
X97100Y-57260D01*
X83100Y-59700D02*
X82250Y-59700D01*
X82250Y-59700D02*
X82150Y-59600D01*
X65940Y-59720D02*
X65940Y-59700D01*
X65940Y-59700D02*
X65940Y-59720D01*
X65940Y-59720D02*
X65940Y-59700D01*
X67220Y-57465D02*
X65985Y-57465D01*
X65972Y-52927D02*
X69200Y-52927D01*
X65940Y-52960D02*
X65972Y-52927D01*
X65940Y-57420D02*
X65940Y-52960D01*
X65985Y-57465D02*
X65940Y-57420D01*
X82354Y-57420D02*
X82354Y-58605D01*
X82150Y-58810D02*
X82150Y-59600D01*
X82354Y-58605D02*
X82150Y-58810D01*
X93740Y-56794D02*
X93740Y-52980D01*
X93687Y-52927D02*
X92600Y-52927D01*
X93740Y-52980D02*
X93687Y-52927D01*
X94300Y-56794D02*
X93740Y-56794D01*
X93740Y-56794D02*
X90466Y-56794D01*
X90466Y-56794D02*
X90072Y-56400D01*
X76600Y-59700D02*
X76060Y-59700D01*
X75200Y-52927D02*
X75200Y-52320D01*
X69200Y-52927D02*
X71727Y-52927D01*
X71727Y-50400D02*
X71727Y-52940D01*
X71727Y-52940D02*
X71727Y-56400D01*
X80374Y-50250D02*
X80374Y-49294D01*
X80374Y-49294D02*
X80320Y-49240D01*
X66700Y-50120D02*
X71447Y-50120D01*
X71447Y-50120D02*
X71727Y-50400D01*
X69200Y-52927D02*
X69200Y-52320D01*
X69200Y-52320D02*
X69200Y-50460D01*
X69200Y-50460D02*
X69260Y-50400D01*
X69260Y-50400D02*
X71727Y-50400D01*
X64700Y-59700D02*
X65940Y-59700D01*
X65940Y-59700D02*
X66700Y-59700D01*
X66700Y-59700D02*
X67700Y-59700D01*
X67700Y-59700D02*
X69200Y-59700D01*
X69200Y-59700D02*
X69700Y-59700D01*
X76600Y-59700D02*
X78600Y-59700D01*
X81500Y-59600D02*
X82150Y-59600D01*
X82150Y-59600D02*
X82250Y-59700D01*
X82250Y-59700D02*
X83640Y-59700D01*
X83640Y-59700D02*
X85100Y-59700D01*
X64700Y-50120D02*
X66700Y-50120D01*
X90072Y-50400D02*
X91580Y-50400D01*
X91580Y-50400D02*
X92600Y-50400D01*
X92600Y-50400D02*
X94820Y-50400D01*
X94820Y-50400D02*
X95100Y-50120D01*
X86600Y-52927D02*
X91580Y-52927D01*
X91580Y-52927D02*
X92600Y-52927D01*
X94300Y-56794D02*
X94300Y-57180D01*
X94380Y-57260D02*
X96640Y-57260D01*
X96640Y-57260D02*
X97100Y-57260D01*
X94300Y-57180D02*
X94380Y-57260D01*
X95100Y-50120D02*
X97100Y-50120D01*
X92100Y-59700D02*
X94100Y-59700D01*
X94100Y-59700D02*
X95100Y-59700D01*
X95100Y-59700D02*
X96620Y-59700D01*
X96620Y-59700D02*
X97100Y-59700D01*
X80374Y-50250D02*
X81125Y-50250D01*
X80207Y-53307D02*
X80207Y-52931D01*
X80207Y-52931D02*
X79925Y-52650D01*
X78957Y-56172D02*
X78551Y-56172D01*
X78551Y-56172D02*
X78300Y-56424D01*
X82442Y-54754D02*
X83019Y-54754D01*
X83019Y-54754D02*
X83050Y-54724D01*
X81822Y-56792D02*
X82292Y-56792D01*
X82354Y-56854D02*
X82354Y-56830D01*
X82292Y-56792D02*
X82354Y-56854D01*
X82354Y-56830D02*
X82354Y-57420D01*
X64700Y-48920D02*
X66700Y-48920D01*
X78957Y-53927D02*
X78907Y-53927D01*
X67020Y-48600D02*
X66700Y-48920D01*
X78680Y-48600D02*
X67020Y-48600D01*
X78758Y-48678D02*
X78680Y-48600D01*
X78758Y-53778D02*
X78758Y-48678D01*
X78907Y-53927D02*
X78758Y-53778D01*
X69200Y-53872D02*
X69200Y-57420D01*
X80207Y-57428D02*
X80140Y-57496D01*
X80140Y-57496D02*
X69276Y-57496D01*
X69276Y-57496D02*
X69200Y-57420D01*
X80207Y-57428D02*
X80207Y-56792D01*
X95100Y-48920D02*
X97100Y-48920D01*
X79577Y-53307D02*
X78967Y-53307D01*
X94780Y-48600D02*
X95100Y-48920D01*
X78960Y-48600D02*
X94780Y-48600D01*
X78900Y-48660D02*
X78960Y-48600D01*
X78900Y-53240D02*
X78900Y-48660D01*
X78967Y-53307D02*
X78900Y-53240D01*
X78957Y-54951D02*
X75251Y-54951D01*
X75200Y-54900D02*
X75200Y-53872D01*
X75251Y-54951D02*
X75200Y-54900D01*
X80601Y-53307D02*
X80601Y-53861D01*
X95105Y-54954D02*
X95105Y-55280D01*
X95120Y-54940D02*
X95105Y-54954D01*
X80601Y-53861D02*
X80980Y-54240D01*
X95100Y-56060D02*
X97100Y-56060D01*
X94300Y-56045D02*
X95085Y-56045D01*
X95105Y-56025D02*
X95105Y-55280D01*
X95085Y-56045D02*
X95105Y-56025D01*
X76600Y-58500D02*
X78600Y-58500D01*
X78600Y-58500D02*
X80720Y-58500D01*
X80798Y-58421D02*
X80798Y-56792D01*
X80720Y-58500D02*
X80798Y-58421D01*
X83100Y-58500D02*
X85100Y-58500D01*
X82442Y-55935D02*
X85035Y-55935D01*
X85100Y-56000D02*
X85100Y-58500D01*
X85035Y-55935D02*
X85100Y-56000D01*
X81852Y-56172D02*
X81780Y-56100D01*
X81780Y-56100D02*
X81780Y-53940D01*
X82442Y-56172D02*
X81852Y-56172D01*
X81388Y-53948D02*
X81380Y-53940D01*
X81388Y-56792D02*
X81388Y-53948D01*
X78957Y-55148D02*
X72748Y-55148D01*
X72672Y-55072D02*
X72672Y-50400D01*
X72748Y-55148D02*
X72672Y-55072D01*
X80900Y-58760D02*
X80915Y-58760D01*
X80995Y-58680D02*
X80995Y-58584D01*
X80200Y-59600D02*
X80200Y-58820D01*
X80995Y-58584D02*
X80995Y-58564D01*
X80260Y-58760D02*
X80820Y-58760D01*
X80200Y-58820D02*
X80260Y-58760D01*
X80820Y-58760D02*
X80900Y-58760D01*
X80915Y-58760D02*
X80995Y-58680D01*
X80995Y-58560D02*
X80995Y-56792D01*
X71314Y-58660D02*
X71760Y-58660D01*
X81240Y-58660D02*
X81192Y-58660D01*
X81192Y-58660D02*
X81200Y-58660D01*
X81200Y-58660D02*
X81192Y-58660D01*
X81100Y-58980D02*
X81140Y-58980D01*
X81060Y-58980D02*
X81100Y-58980D01*
X80850Y-59600D02*
X80850Y-59030D01*
X80900Y-58980D02*
X81060Y-58980D01*
X80850Y-59030D02*
X80900Y-58980D01*
X81192Y-58927D02*
X81192Y-58660D01*
X81192Y-58660D02*
X81192Y-56792D01*
X81140Y-58980D02*
X81192Y-58927D01*
X81192Y-56792D02*
X81192Y-58887D01*
X81585Y-53307D02*
X81585Y-52774D01*
X84900Y-50400D02*
X89127Y-50400D01*
X84840Y-50460D02*
X84900Y-50400D01*
X84840Y-52680D02*
X84840Y-50460D01*
X84780Y-52740D02*
X84840Y-52680D01*
X81620Y-52740D02*
X84780Y-52740D01*
X81585Y-52774D02*
X81620Y-52740D01*
X80995Y-53307D02*
X80995Y-52944D01*
X81400Y-51607D02*
X81557Y-51450D01*
X81400Y-52820D02*
X81400Y-51607D01*
X81380Y-52840D02*
X81400Y-52820D01*
X81100Y-52840D02*
X81380Y-52840D01*
X80995Y-52944D02*
X81100Y-52840D01*
X81874Y-50250D02*
X81874Y-51133D01*
X81874Y-51133D02*
X81557Y-51450D01*
X80798Y-53718D02*
X80980Y-53900D01*
X80798Y-53307D02*
X80798Y-53718D01*
X80470Y-51450D02*
X79942Y-51450D01*
X80480Y-51460D02*
X80470Y-51450D01*
X79625Y-50250D02*
X79625Y-51133D01*
X79625Y-51133D02*
X79942Y-51450D01*
X82442Y-54361D02*
X86538Y-54361D01*
X86600Y-54300D02*
X86600Y-53872D01*
X86538Y-54361D02*
X86600Y-54300D01*
G54D10*
G36*
X79431Y-57198D02*
X78250Y-57198D01*
X78250Y-56847D01*
X78250Y-56474D01*
X77964Y-56474D01*
X77902Y-56536D01*
X77902Y-56709D01*
X77940Y-56801D01*
X78010Y-56872D01*
X78102Y-56910D01*
X78201Y-56910D01*
X78187Y-56910D01*
X78250Y-56847D01*
X78250Y-57198D01*
X73187Y-57198D01*
X73187Y-55490D01*
X73168Y-55445D01*
X73134Y-55411D01*
X73090Y-55393D01*
X73042Y-55393D01*
X72341Y-55393D01*
X72333Y-55372D01*
X72262Y-55302D01*
X72170Y-55264D01*
X71840Y-55264D01*
X71777Y-55326D01*
X71777Y-56350D01*
X71785Y-56350D01*
X71785Y-56450D01*
X71777Y-56450D01*
X71777Y-56457D01*
X71677Y-56457D01*
X71677Y-56450D01*
X71677Y-56350D01*
X71677Y-55326D01*
X71677Y-51473D01*
X71677Y-50450D01*
X71677Y-50350D01*
X71677Y-49326D01*
X71615Y-49264D01*
X71284Y-49264D01*
X71192Y-49302D01*
X71122Y-49372D01*
X71083Y-49464D01*
X71083Y-49563D01*
X71083Y-50287D01*
X71146Y-50350D01*
X71677Y-50350D01*
X71677Y-50450D01*
X71146Y-50450D01*
X71083Y-50512D01*
X71083Y-51236D01*
X71083Y-51335D01*
X71122Y-51427D01*
X71192Y-51497D01*
X71284Y-51535D01*
X71615Y-51535D01*
X71677Y-51473D01*
X71677Y-55326D01*
X71615Y-55264D01*
X71284Y-55264D01*
X71192Y-55302D01*
X71122Y-55372D01*
X71083Y-55464D01*
X71083Y-55563D01*
X71083Y-56287D01*
X71146Y-56350D01*
X71677Y-56350D01*
X71677Y-56450D01*
X71146Y-56450D01*
X71083Y-56512D01*
X71083Y-57236D01*
X71083Y-57335D01*
X71085Y-57340D01*
X69356Y-57340D01*
X69356Y-54387D01*
X70109Y-54387D01*
X70154Y-54368D01*
X70188Y-54334D01*
X70206Y-54290D01*
X70206Y-54242D01*
X70206Y-53541D01*
X70227Y-53533D01*
X70297Y-53463D01*
X70335Y-53371D01*
X70335Y-53271D01*
X70335Y-52583D01*
X70335Y-52483D01*
X70297Y-52392D01*
X70227Y-52321D01*
X70135Y-52283D01*
X69312Y-52283D01*
X69250Y-52346D01*
X69250Y-52877D01*
X70273Y-52877D01*
X70335Y-52815D01*
X70335Y-52583D01*
X70335Y-53271D01*
X70335Y-53040D01*
X70273Y-52977D01*
X69250Y-52977D01*
X69250Y-52985D01*
X69150Y-52985D01*
X69150Y-52977D01*
X69150Y-52877D01*
X69150Y-52346D01*
X69087Y-52283D01*
X68264Y-52283D01*
X68172Y-52321D01*
X68102Y-52392D01*
X68064Y-52483D01*
X68064Y-52583D01*
X68064Y-52815D01*
X68126Y-52877D01*
X69150Y-52877D01*
X69150Y-52977D01*
X68126Y-52977D01*
X68064Y-53040D01*
X68064Y-53271D01*
X68064Y-53371D01*
X68102Y-53463D01*
X68172Y-53533D01*
X68193Y-53541D01*
X68193Y-54290D01*
X68211Y-54334D01*
X68245Y-54368D01*
X68290Y-54386D01*
X68338Y-54387D01*
X69043Y-54387D01*
X69043Y-57420D01*
X69055Y-57479D01*
X69089Y-57530D01*
X69118Y-57559D01*
X69089Y-57589D01*
X69055Y-57640D01*
X69043Y-57700D01*
X69043Y-57823D01*
X67999Y-57823D01*
X67999Y-56512D01*
X67962Y-56424D01*
X67895Y-56357D01*
X67807Y-56321D01*
X67734Y-56321D01*
X67734Y-56240D01*
X67734Y-55925D01*
X67734Y-55335D01*
X67716Y-55290D01*
X67682Y-55256D01*
X67638Y-55238D01*
X67589Y-55238D01*
X67343Y-55238D01*
X67343Y-50464D01*
X67343Y-49775D01*
X67343Y-49676D01*
X67305Y-49584D01*
X67235Y-49514D01*
X67143Y-49476D01*
X66812Y-49476D01*
X66750Y-49538D01*
X66750Y-50070D01*
X67281Y-50070D01*
X67343Y-50007D01*
X67343Y-49775D01*
X67343Y-50464D01*
X67343Y-50232D01*
X67281Y-50170D01*
X66750Y-50170D01*
X66750Y-50701D01*
X66812Y-50763D01*
X67143Y-50763D01*
X67235Y-50725D01*
X67305Y-50655D01*
X67343Y-50563D01*
X67343Y-50464D01*
X67343Y-55238D01*
X66802Y-55238D01*
X66758Y-55256D01*
X66724Y-55290D01*
X66705Y-55335D01*
X66705Y-55383D01*
X66705Y-55436D01*
X66667Y-55421D01*
X66650Y-55421D01*
X66650Y-50701D01*
X66650Y-50170D01*
X66650Y-50070D01*
X66650Y-49538D01*
X66587Y-49476D01*
X66256Y-49476D01*
X66164Y-49514D01*
X66094Y-49584D01*
X66056Y-49676D01*
X66056Y-49775D01*
X66056Y-50007D01*
X66118Y-50070D01*
X66650Y-50070D01*
X66650Y-50170D01*
X66118Y-50170D01*
X66056Y-50232D01*
X66056Y-50464D01*
X66056Y-50563D01*
X66094Y-50655D01*
X66164Y-50725D01*
X66256Y-50763D01*
X66587Y-50763D01*
X66650Y-50701D01*
X66650Y-55421D01*
X66572Y-55420D01*
X66484Y-55457D01*
X66417Y-55524D01*
X66381Y-55612D01*
X66380Y-55707D01*
X66417Y-55795D01*
X66484Y-55862D01*
X66572Y-55898D01*
X66667Y-55899D01*
X66705Y-55883D01*
X66705Y-55973D01*
X66723Y-56018D01*
X66757Y-56052D01*
X66802Y-56070D01*
X66850Y-56070D01*
X67637Y-56070D01*
X67682Y-56052D01*
X67716Y-56018D01*
X67734Y-55973D01*
X67734Y-55925D01*
X67734Y-56240D01*
X67716Y-56196D01*
X67682Y-56162D01*
X67638Y-56143D01*
X67589Y-56143D01*
X66802Y-56143D01*
X66758Y-56162D01*
X66724Y-56196D01*
X66705Y-56240D01*
X66705Y-56288D01*
X66705Y-56879D01*
X66723Y-56923D01*
X66736Y-56936D01*
X66685Y-56958D01*
X66614Y-57028D01*
X66576Y-57120D01*
X66576Y-57219D01*
X66576Y-57353D01*
X66638Y-57415D01*
X67170Y-57415D01*
X67170Y-57407D01*
X67270Y-57407D01*
X67270Y-57415D01*
X67801Y-57415D01*
X67863Y-57353D01*
X67863Y-57219D01*
X67863Y-57120D01*
X67825Y-57028D01*
X67755Y-56958D01*
X67703Y-56936D01*
X67716Y-56923D01*
X67734Y-56879D01*
X67734Y-56831D01*
X67734Y-56798D01*
X67807Y-56799D01*
X67895Y-56762D01*
X67962Y-56695D01*
X67998Y-56607D01*
X67999Y-56512D01*
X67999Y-57823D01*
X67858Y-57823D01*
X67863Y-57810D01*
X67863Y-57711D01*
X67863Y-57578D01*
X67801Y-57515D01*
X67270Y-57515D01*
X67270Y-57523D01*
X67170Y-57523D01*
X67170Y-57515D01*
X66638Y-57515D01*
X66576Y-57578D01*
X66576Y-57711D01*
X66576Y-57810D01*
X66609Y-57889D01*
X66589Y-57909D01*
X66555Y-57960D01*
X66550Y-57985D01*
X66282Y-57985D01*
X66237Y-58003D01*
X66203Y-58037D01*
X66185Y-58082D01*
X66185Y-58130D01*
X66185Y-58343D01*
X65343Y-58343D01*
X65343Y-50464D01*
X65343Y-49775D01*
X65343Y-49676D01*
X65305Y-49584D01*
X65235Y-49514D01*
X65143Y-49476D01*
X64812Y-49476D01*
X64750Y-49538D01*
X64750Y-50070D01*
X65281Y-50070D01*
X65343Y-50007D01*
X65343Y-49775D01*
X65343Y-50464D01*
X65343Y-50232D01*
X65281Y-50170D01*
X64750Y-50170D01*
X64750Y-50701D01*
X64812Y-50763D01*
X65143Y-50763D01*
X65235Y-50725D01*
X65305Y-50655D01*
X65343Y-50563D01*
X65343Y-50464D01*
X65343Y-58343D01*
X65214Y-58343D01*
X65214Y-58082D01*
X65196Y-58037D01*
X65162Y-58003D01*
X65117Y-57985D01*
X65069Y-57985D01*
X64350Y-57985D01*
X64350Y-57428D01*
X64370Y-57428D01*
X65157Y-57428D01*
X65201Y-57410D01*
X65235Y-57376D01*
X65254Y-57332D01*
X65254Y-57284D01*
X65254Y-55788D01*
X65236Y-55743D01*
X65202Y-55709D01*
X65157Y-55691D01*
X65109Y-55691D01*
X64350Y-55691D01*
X64350Y-50763D01*
X64587Y-50763D01*
X64650Y-50701D01*
X64650Y-50170D01*
X64642Y-50170D01*
X64642Y-50070D01*
X64650Y-50070D01*
X64650Y-49538D01*
X64587Y-49476D01*
X64350Y-49476D01*
X64350Y-49434D01*
X65117Y-49434D01*
X65162Y-49416D01*
X65196Y-49382D01*
X65214Y-49337D01*
X65214Y-49289D01*
X65214Y-49076D01*
X66185Y-49076D01*
X66185Y-49337D01*
X66203Y-49382D01*
X66237Y-49416D01*
X66282Y-49434D01*
X66330Y-49434D01*
X67117Y-49434D01*
X67162Y-49416D01*
X67196Y-49382D01*
X67214Y-49337D01*
X67214Y-49289D01*
X67214Y-48756D01*
X78601Y-48756D01*
X78601Y-53723D01*
X78594Y-53727D01*
X78560Y-53760D01*
X78541Y-53805D01*
X78541Y-53853D01*
X78541Y-54050D01*
X78548Y-54067D01*
X78541Y-54084D01*
X78541Y-54132D01*
X78541Y-54243D01*
X78549Y-54262D01*
X78541Y-54281D01*
X78541Y-54329D01*
X78541Y-54440D01*
X78549Y-54459D01*
X78541Y-54478D01*
X78541Y-54526D01*
X78541Y-54636D01*
X78549Y-54656D01*
X78541Y-54675D01*
X78541Y-54723D01*
X78541Y-54795D01*
X75356Y-54795D01*
X75356Y-54387D01*
X76109Y-54387D01*
X76154Y-54368D01*
X76188Y-54334D01*
X76206Y-54290D01*
X76206Y-54242D01*
X76206Y-53541D01*
X76227Y-53533D01*
X76297Y-53463D01*
X76335Y-53371D01*
X76335Y-53271D01*
X76335Y-52583D01*
X76335Y-52483D01*
X76297Y-52392D01*
X76227Y-52321D01*
X76135Y-52283D01*
X75312Y-52283D01*
X75250Y-52346D01*
X75250Y-52877D01*
X76273Y-52877D01*
X76335Y-52815D01*
X76335Y-52583D01*
X76335Y-53271D01*
X76335Y-53040D01*
X76273Y-52977D01*
X75250Y-52977D01*
X75250Y-52985D01*
X75150Y-52985D01*
X75150Y-52977D01*
X75150Y-52877D01*
X75150Y-52346D01*
X75087Y-52283D01*
X74264Y-52283D01*
X74172Y-52321D01*
X74102Y-52392D01*
X74064Y-52483D01*
X74064Y-52583D01*
X74064Y-52815D01*
X74126Y-52877D01*
X75150Y-52877D01*
X75150Y-52977D01*
X74126Y-52977D01*
X74064Y-53040D01*
X74064Y-53271D01*
X74064Y-53371D01*
X74102Y-53463D01*
X74172Y-53533D01*
X74193Y-53541D01*
X74193Y-54290D01*
X74211Y-54334D01*
X74245Y-54368D01*
X74290Y-54386D01*
X74338Y-54387D01*
X75043Y-54387D01*
X75043Y-54900D01*
X75055Y-54959D01*
X75077Y-54992D01*
X72828Y-54992D01*
X72828Y-51406D01*
X73090Y-51406D01*
X73134Y-51388D01*
X73168Y-51354D01*
X73186Y-51309D01*
X73187Y-51261D01*
X73187Y-49490D01*
X73168Y-49445D01*
X73134Y-49411D01*
X73090Y-49393D01*
X73042Y-49393D01*
X72341Y-49393D01*
X72333Y-49372D01*
X72262Y-49302D01*
X72170Y-49264D01*
X71840Y-49264D01*
X71777Y-49326D01*
X71777Y-50350D01*
X71785Y-50350D01*
X71785Y-50450D01*
X71777Y-50450D01*
X71777Y-51473D01*
X71840Y-51535D01*
X72170Y-51535D01*
X72262Y-51497D01*
X72333Y-51427D01*
X72341Y-51406D01*
X72516Y-51406D01*
X72516Y-55072D01*
X72528Y-55132D01*
X72561Y-55182D01*
X72637Y-55258D01*
X72637Y-55258D01*
X72688Y-55292D01*
X72688Y-55292D01*
X72698Y-55294D01*
X72748Y-55304D01*
X78541Y-55304D01*
X78541Y-55314D01*
X78541Y-55362D01*
X78516Y-55337D01*
X78471Y-55318D01*
X78423Y-55318D01*
X78128Y-55318D01*
X78083Y-55337D01*
X78049Y-55371D01*
X78031Y-55415D01*
X78031Y-55463D01*
X78031Y-55936D01*
X78042Y-55962D01*
X78010Y-55975D01*
X77940Y-56046D01*
X77902Y-56138D01*
X77902Y-56311D01*
X77964Y-56374D01*
X78250Y-56374D01*
X78250Y-56366D01*
X78350Y-56366D01*
X78350Y-56374D01*
X78357Y-56374D01*
X78357Y-56474D01*
X78350Y-56474D01*
X78350Y-56847D01*
X78412Y-56910D01*
X78398Y-56910D01*
X78497Y-56910D01*
X78589Y-56872D01*
X78659Y-56801D01*
X78697Y-56709D01*
X78697Y-56536D01*
X78681Y-56520D01*
X78712Y-56520D01*
X78845Y-56520D01*
X78907Y-56457D01*
X78907Y-56221D01*
X78900Y-56221D01*
X78900Y-56122D01*
X78907Y-56122D01*
X78907Y-56114D01*
X79007Y-56114D01*
X79007Y-56122D01*
X79015Y-56122D01*
X79015Y-56221D01*
X79007Y-56221D01*
X79007Y-56457D01*
X79070Y-56520D01*
X79203Y-56520D01*
X79303Y-56520D01*
X79358Y-56497D01*
X79358Y-56520D01*
X79358Y-57111D01*
X79377Y-57155D01*
X79410Y-57189D01*
X79431Y-57198D01*
X79431Y-57198D01*
G37*
G54D28*
X79431Y-57198D02*
X78250Y-57198D01*
X78250Y-56847D01*
X78250Y-56474D01*
X77964Y-56474D01*
X77902Y-56536D01*
X77902Y-56709D01*
X77940Y-56801D01*
X78010Y-56872D01*
X78102Y-56910D01*
X78201Y-56910D01*
X78187Y-56910D01*
X78250Y-56847D01*
X78250Y-57198D01*
X73187Y-57198D01*
X73187Y-55490D01*
X73168Y-55445D01*
X73134Y-55411D01*
X73090Y-55393D01*
X73042Y-55393D01*
X72341Y-55393D01*
X72333Y-55372D01*
X72262Y-55302D01*
X72170Y-55264D01*
X71840Y-55264D01*
X71777Y-55326D01*
X71777Y-56350D01*
X71785Y-56350D01*
X71785Y-56450D01*
X71777Y-56450D01*
X71777Y-56457D01*
X71677Y-56457D01*
X71677Y-56450D01*
X71677Y-56350D01*
X71677Y-55326D01*
X71677Y-51473D01*
X71677Y-50450D01*
X71677Y-50350D01*
X71677Y-49326D01*
X71615Y-49264D01*
X71284Y-49264D01*
X71192Y-49302D01*
X71122Y-49372D01*
X71083Y-49464D01*
X71083Y-49563D01*
X71083Y-50287D01*
X71146Y-50350D01*
X71677Y-50350D01*
X71677Y-50450D01*
X71146Y-50450D01*
X71083Y-50512D01*
X71083Y-51236D01*
X71083Y-51335D01*
X71122Y-51427D01*
X71192Y-51497D01*
X71284Y-51535D01*
X71615Y-51535D01*
X71677Y-51473D01*
X71677Y-55326D01*
X71615Y-55264D01*
X71284Y-55264D01*
X71192Y-55302D01*
X71122Y-55372D01*
X71083Y-55464D01*
X71083Y-55563D01*
X71083Y-56287D01*
X71146Y-56350D01*
X71677Y-56350D01*
X71677Y-56450D01*
X71146Y-56450D01*
X71083Y-56512D01*
X71083Y-57236D01*
X71083Y-57335D01*
X71085Y-57340D01*
X69356Y-57340D01*
X69356Y-54387D01*
X70109Y-54387D01*
X70154Y-54368D01*
X70188Y-54334D01*
X70206Y-54290D01*
X70206Y-54242D01*
X70206Y-53541D01*
X70227Y-53533D01*
X70297Y-53463D01*
X70335Y-53371D01*
X70335Y-53271D01*
X70335Y-52583D01*
X70335Y-52483D01*
X70297Y-52392D01*
X70227Y-52321D01*
X70135Y-52283D01*
X69312Y-52283D01*
X69250Y-52346D01*
X69250Y-52877D01*
X70273Y-52877D01*
X70335Y-52815D01*
X70335Y-52583D01*
X70335Y-53271D01*
X70335Y-53040D01*
X70273Y-52977D01*
X69250Y-52977D01*
X69250Y-52985D01*
X69150Y-52985D01*
X69150Y-52977D01*
X69150Y-52877D01*
X69150Y-52346D01*
X69087Y-52283D01*
X68264Y-52283D01*
X68172Y-52321D01*
X68102Y-52392D01*
X68064Y-52483D01*
X68064Y-52583D01*
X68064Y-52815D01*
X68126Y-52877D01*
X69150Y-52877D01*
X69150Y-52977D01*
X68126Y-52977D01*
X68064Y-53040D01*
X68064Y-53271D01*
X68064Y-53371D01*
X68102Y-53463D01*
X68172Y-53533D01*
X68193Y-53541D01*
X68193Y-54290D01*
X68211Y-54334D01*
X68245Y-54368D01*
X68290Y-54386D01*
X68338Y-54387D01*
X69043Y-54387D01*
X69043Y-57420D01*
X69055Y-57479D01*
X69089Y-57530D01*
X69118Y-57559D01*
X69089Y-57589D01*
X69055Y-57640D01*
X69043Y-57700D01*
X69043Y-57823D01*
X67999Y-57823D01*
X67999Y-56512D01*
X67962Y-56424D01*
X67895Y-56357D01*
X67807Y-56321D01*
X67734Y-56321D01*
X67734Y-56240D01*
X67734Y-55925D01*
X67734Y-55335D01*
X67716Y-55290D01*
X67682Y-55256D01*
X67638Y-55238D01*
X67589Y-55238D01*
X67343Y-55238D01*
X67343Y-50464D01*
X67343Y-49775D01*
X67343Y-49676D01*
X67305Y-49584D01*
X67235Y-49514D01*
X67143Y-49476D01*
X66812Y-49476D01*
X66750Y-49538D01*
X66750Y-50070D01*
X67281Y-50070D01*
X67343Y-50007D01*
X67343Y-49775D01*
X67343Y-50464D01*
X67343Y-50232D01*
X67281Y-50170D01*
X66750Y-50170D01*
X66750Y-50701D01*
X66812Y-50763D01*
X67143Y-50763D01*
X67235Y-50725D01*
X67305Y-50655D01*
X67343Y-50563D01*
X67343Y-50464D01*
X67343Y-55238D01*
X66802Y-55238D01*
X66758Y-55256D01*
X66724Y-55290D01*
X66705Y-55335D01*
X66705Y-55383D01*
X66705Y-55436D01*
X66667Y-55421D01*
X66650Y-55421D01*
X66650Y-50701D01*
X66650Y-50170D01*
X66650Y-50070D01*
X66650Y-49538D01*
X66587Y-49476D01*
X66256Y-49476D01*
X66164Y-49514D01*
X66094Y-49584D01*
X66056Y-49676D01*
X66056Y-49775D01*
X66056Y-50007D01*
X66118Y-50070D01*
X66650Y-50070D01*
X66650Y-50170D01*
X66118Y-50170D01*
X66056Y-50232D01*
X66056Y-50464D01*
X66056Y-50563D01*
X66094Y-50655D01*
X66164Y-50725D01*
X66256Y-50763D01*
X66587Y-50763D01*
X66650Y-50701D01*
X66650Y-55421D01*
X66572Y-55420D01*
X66484Y-55457D01*
X66417Y-55524D01*
X66381Y-55612D01*
X66380Y-55707D01*
X66417Y-55795D01*
X66484Y-55862D01*
X66572Y-55898D01*
X66667Y-55899D01*
X66705Y-55883D01*
X66705Y-55973D01*
X66723Y-56018D01*
X66757Y-56052D01*
X66802Y-56070D01*
X66850Y-56070D01*
X67637Y-56070D01*
X67682Y-56052D01*
X67716Y-56018D01*
X67734Y-55973D01*
X67734Y-55925D01*
X67734Y-56240D01*
X67716Y-56196D01*
X67682Y-56162D01*
X67638Y-56143D01*
X67589Y-56143D01*
X66802Y-56143D01*
X66758Y-56162D01*
X66724Y-56196D01*
X66705Y-56240D01*
X66705Y-56288D01*
X66705Y-56879D01*
X66723Y-56923D01*
X66736Y-56936D01*
X66685Y-56958D01*
X66614Y-57028D01*
X66576Y-57120D01*
X66576Y-57219D01*
X66576Y-57353D01*
X66638Y-57415D01*
X67170Y-57415D01*
X67170Y-57407D01*
X67270Y-57407D01*
X67270Y-57415D01*
X67801Y-57415D01*
X67863Y-57353D01*
X67863Y-57219D01*
X67863Y-57120D01*
X67825Y-57028D01*
X67755Y-56958D01*
X67703Y-56936D01*
X67716Y-56923D01*
X67734Y-56879D01*
X67734Y-56831D01*
X67734Y-56798D01*
X67807Y-56799D01*
X67895Y-56762D01*
X67962Y-56695D01*
X67998Y-56607D01*
X67999Y-56512D01*
X67999Y-57823D01*
X67858Y-57823D01*
X67863Y-57810D01*
X67863Y-57711D01*
X67863Y-57578D01*
X67801Y-57515D01*
X67270Y-57515D01*
X67270Y-57523D01*
X67170Y-57523D01*
X67170Y-57515D01*
X66638Y-57515D01*
X66576Y-57578D01*
X66576Y-57711D01*
X66576Y-57810D01*
X66609Y-57889D01*
X66589Y-57909D01*
X66555Y-57960D01*
X66550Y-57985D01*
X66282Y-57985D01*
X66237Y-58003D01*
X66203Y-58037D01*
X66185Y-58082D01*
X66185Y-58130D01*
X66185Y-58343D01*
X65343Y-58343D01*
X65343Y-50464D01*
X65343Y-49775D01*
X65343Y-49676D01*
X65305Y-49584D01*
X65235Y-49514D01*
X65143Y-49476D01*
X64812Y-49476D01*
X64750Y-49538D01*
X64750Y-50070D01*
X65281Y-50070D01*
X65343Y-50007D01*
X65343Y-49775D01*
X65343Y-50464D01*
X65343Y-50232D01*
X65281Y-50170D01*
X64750Y-50170D01*
X64750Y-50701D01*
X64812Y-50763D01*
X65143Y-50763D01*
X65235Y-50725D01*
X65305Y-50655D01*
X65343Y-50563D01*
X65343Y-50464D01*
X65343Y-58343D01*
X65214Y-58343D01*
X65214Y-58082D01*
X65196Y-58037D01*
X65162Y-58003D01*
X65117Y-57985D01*
X65069Y-57985D01*
X64350Y-57985D01*
X64350Y-57428D01*
X64370Y-57428D01*
X65157Y-57428D01*
X65201Y-57410D01*
X65235Y-57376D01*
X65254Y-57332D01*
X65254Y-57284D01*
X65254Y-55788D01*
X65236Y-55743D01*
X65202Y-55709D01*
X65157Y-55691D01*
X65109Y-55691D01*
X64350Y-55691D01*
X64350Y-50763D01*
X64587Y-50763D01*
X64650Y-50701D01*
X64650Y-50170D01*
X64642Y-50170D01*
X64642Y-50070D01*
X64650Y-50070D01*
X64650Y-49538D01*
X64587Y-49476D01*
X64350Y-49476D01*
X64350Y-49434D01*
X65117Y-49434D01*
X65162Y-49416D01*
X65196Y-49382D01*
X65214Y-49337D01*
X65214Y-49289D01*
X65214Y-49076D01*
X66185Y-49076D01*
X66185Y-49337D01*
X66203Y-49382D01*
X66237Y-49416D01*
X66282Y-49434D01*
X66330Y-49434D01*
X67117Y-49434D01*
X67162Y-49416D01*
X67196Y-49382D01*
X67214Y-49337D01*
X67214Y-49289D01*
X67214Y-48756D01*
X78601Y-48756D01*
X78601Y-53723D01*
X78594Y-53727D01*
X78560Y-53760D01*
X78541Y-53805D01*
X78541Y-53853D01*
X78541Y-54050D01*
X78548Y-54067D01*
X78541Y-54084D01*
X78541Y-54132D01*
X78541Y-54243D01*
X78549Y-54262D01*
X78541Y-54281D01*
X78541Y-54329D01*
X78541Y-54440D01*
X78549Y-54459D01*
X78541Y-54478D01*
X78541Y-54526D01*
X78541Y-54636D01*
X78549Y-54656D01*
X78541Y-54675D01*
X78541Y-54723D01*
X78541Y-54795D01*
X75356Y-54795D01*
X75356Y-54387D01*
X76109Y-54387D01*
X76154Y-54368D01*
X76188Y-54334D01*
X76206Y-54290D01*
X76206Y-54242D01*
X76206Y-53541D01*
X76227Y-53533D01*
X76297Y-53463D01*
X76335Y-53371D01*
X76335Y-53271D01*
X76335Y-52583D01*
X76335Y-52483D01*
X76297Y-52392D01*
X76227Y-52321D01*
X76135Y-52283D01*
X75312Y-52283D01*
X75250Y-52346D01*
X75250Y-52877D01*
X76273Y-52877D01*
X76335Y-52815D01*
X76335Y-52583D01*
X76335Y-53271D01*
X76335Y-53040D01*
X76273Y-52977D01*
X75250Y-52977D01*
X75250Y-52985D01*
X75150Y-52985D01*
X75150Y-52977D01*
X75150Y-52877D01*
X75150Y-52346D01*
X75087Y-52283D01*
X74264Y-52283D01*
X74172Y-52321D01*
X74102Y-52392D01*
X74064Y-52483D01*
X74064Y-52583D01*
X74064Y-52815D01*
X74126Y-52877D01*
X75150Y-52877D01*
X75150Y-52977D01*
X74126Y-52977D01*
X74064Y-53040D01*
X74064Y-53271D01*
X74064Y-53371D01*
X74102Y-53463D01*
X74172Y-53533D01*
X74193Y-53541D01*
X74193Y-54290D01*
X74211Y-54334D01*
X74245Y-54368D01*
X74290Y-54386D01*
X74338Y-54387D01*
X75043Y-54387D01*
X75043Y-54900D01*
X75055Y-54959D01*
X75077Y-54992D01*
X72828Y-54992D01*
X72828Y-51406D01*
X73090Y-51406D01*
X73134Y-51388D01*
X73168Y-51354D01*
X73186Y-51309D01*
X73187Y-51261D01*
X73187Y-49490D01*
X73168Y-49445D01*
X73134Y-49411D01*
X73090Y-49393D01*
X73042Y-49393D01*
X72341Y-49393D01*
X72333Y-49372D01*
X72262Y-49302D01*
X72170Y-49264D01*
X71840Y-49264D01*
X71777Y-49326D01*
X71777Y-50350D01*
X71785Y-50350D01*
X71785Y-50450D01*
X71777Y-50450D01*
X71777Y-51473D01*
X71840Y-51535D01*
X72170Y-51535D01*
X72262Y-51497D01*
X72333Y-51427D01*
X72341Y-51406D01*
X72516Y-51406D01*
X72516Y-55072D01*
X72528Y-55132D01*
X72561Y-55182D01*
X72637Y-55258D01*
X72637Y-55258D01*
X72688Y-55292D01*
X72688Y-55292D01*
X72698Y-55294D01*
X72748Y-55304D01*
X78541Y-55304D01*
X78541Y-55314D01*
X78541Y-55362D01*
X78516Y-55337D01*
X78471Y-55318D01*
X78423Y-55318D01*
X78128Y-55318D01*
X78083Y-55337D01*
X78049Y-55371D01*
X78031Y-55415D01*
X78031Y-55463D01*
X78031Y-55936D01*
X78042Y-55962D01*
X78010Y-55975D01*
X77940Y-56046D01*
X77902Y-56138D01*
X77902Y-56311D01*
X77964Y-56374D01*
X78250Y-56374D01*
X78250Y-56366D01*
X78350Y-56366D01*
X78350Y-56374D01*
X78357Y-56374D01*
X78357Y-56474D01*
X78350Y-56474D01*
X78350Y-56847D01*
X78412Y-56910D01*
X78398Y-56910D01*
X78497Y-56910D01*
X78589Y-56872D01*
X78659Y-56801D01*
X78697Y-56709D01*
X78697Y-56536D01*
X78681Y-56520D01*
X78712Y-56520D01*
X78845Y-56520D01*
X78907Y-56457D01*
X78907Y-56221D01*
X78900Y-56221D01*
X78900Y-56122D01*
X78907Y-56122D01*
X78907Y-56114D01*
X79007Y-56114D01*
X79007Y-56122D01*
X79015Y-56122D01*
X79015Y-56221D01*
X79007Y-56221D01*
X79007Y-56457D01*
X79070Y-56520D01*
X79203Y-56520D01*
X79303Y-56520D01*
X79358Y-56497D01*
X79358Y-56520D01*
X79358Y-57111D01*
X79377Y-57155D01*
X79410Y-57189D01*
X79431Y-57198D01*
G54D10*
G36*
X79983Y-52700D02*
X79975Y-52700D01*
X79975Y-52707D01*
X79875Y-52707D01*
X79875Y-52700D01*
X79502Y-52700D01*
X79439Y-52762D01*
X79439Y-52748D01*
X79439Y-52847D01*
X79458Y-52891D01*
X79455Y-52891D01*
X79411Y-52910D01*
X79377Y-52944D01*
X79358Y-52988D01*
X79358Y-53036D01*
X79358Y-53151D01*
X79056Y-53151D01*
X79056Y-52400D01*
X79061Y-52404D01*
X79061Y-52404D01*
X79071Y-52406D01*
X79121Y-52416D01*
X79158Y-52416D01*
X79204Y-52462D01*
X79292Y-52498D01*
X79387Y-52499D01*
X79439Y-52477D01*
X79439Y-52551D01*
X79439Y-52537D01*
X79502Y-52600D01*
X79875Y-52600D01*
X79875Y-52592D01*
X79975Y-52592D01*
X79975Y-52600D01*
X79983Y-52600D01*
X79983Y-52700D01*
X79983Y-52700D01*
G37*
G54D28*
X79983Y-52700D02*
X79975Y-52700D01*
X79975Y-52707D01*
X79875Y-52707D01*
X79875Y-52700D01*
X79502Y-52700D01*
X79439Y-52762D01*
X79439Y-52748D01*
X79439Y-52847D01*
X79458Y-52891D01*
X79455Y-52891D01*
X79411Y-52910D01*
X79377Y-52944D01*
X79358Y-52988D01*
X79358Y-53036D01*
X79358Y-53151D01*
X79056Y-53151D01*
X79056Y-52400D01*
X79061Y-52404D01*
X79061Y-52404D01*
X79071Y-52406D01*
X79121Y-52416D01*
X79158Y-52416D01*
X79204Y-52462D01*
X79292Y-52498D01*
X79387Y-52499D01*
X79439Y-52477D01*
X79439Y-52551D01*
X79439Y-52537D01*
X79502Y-52600D01*
X79875Y-52600D01*
X79875Y-52592D01*
X79975Y-52592D01*
X79975Y-52600D01*
X79983Y-52600D01*
X79983Y-52700D01*
G54D10*
G36*
X80642Y-58343D02*
X79114Y-58343D01*
X79114Y-58082D01*
X79096Y-58037D01*
X79062Y-58003D01*
X79017Y-57985D01*
X78969Y-57985D01*
X78182Y-57985D01*
X78137Y-58003D01*
X78103Y-58037D01*
X78085Y-58082D01*
X78085Y-58130D01*
X78085Y-58343D01*
X77114Y-58343D01*
X77114Y-58082D01*
X77096Y-58037D01*
X77062Y-58003D01*
X77017Y-57985D01*
X76969Y-57985D01*
X76182Y-57985D01*
X76137Y-58003D01*
X76103Y-58037D01*
X76085Y-58082D01*
X76085Y-58130D01*
X76085Y-58917D01*
X76103Y-58962D01*
X76137Y-58996D01*
X76182Y-59014D01*
X76230Y-59014D01*
X77017Y-59014D01*
X77062Y-58996D01*
X77096Y-58962D01*
X77114Y-58917D01*
X77114Y-58869D01*
X77114Y-58656D01*
X78085Y-58656D01*
X78085Y-58917D01*
X78103Y-58962D01*
X78137Y-58996D01*
X78182Y-59014D01*
X78230Y-59014D01*
X79017Y-59014D01*
X79062Y-58996D01*
X79096Y-58962D01*
X79114Y-58917D01*
X79114Y-58869D01*
X79114Y-58656D01*
X80142Y-58656D01*
X80089Y-58709D01*
X80055Y-58760D01*
X80043Y-58820D01*
X80043Y-59085D01*
X79979Y-59085D01*
X79934Y-59103D01*
X79900Y-59137D01*
X79882Y-59182D01*
X79882Y-59230D01*
X79882Y-60017D01*
X79895Y-60049D01*
X79854Y-60049D01*
X79867Y-60017D01*
X79867Y-59969D01*
X79867Y-59182D01*
X79849Y-59137D01*
X79815Y-59103D01*
X79771Y-59085D01*
X79778Y-59067D01*
X79779Y-58972D01*
X79742Y-58884D01*
X79675Y-58817D01*
X79587Y-58781D01*
X79492Y-58780D01*
X79404Y-58817D01*
X79337Y-58884D01*
X79301Y-58972D01*
X79300Y-59067D01*
X79311Y-59092D01*
X79284Y-59103D01*
X79250Y-59137D01*
X79232Y-59182D01*
X79232Y-59228D01*
X79205Y-59164D01*
X79135Y-59094D01*
X79043Y-59056D01*
X78712Y-59056D01*
X78650Y-59118D01*
X78650Y-59650D01*
X78657Y-59650D01*
X78657Y-59750D01*
X78650Y-59750D01*
X78650Y-59757D01*
X78550Y-59757D01*
X78550Y-59750D01*
X78550Y-59650D01*
X78550Y-59118D01*
X78487Y-59056D01*
X78156Y-59056D01*
X78064Y-59094D01*
X77994Y-59164D01*
X77956Y-59256D01*
X77956Y-59355D01*
X77956Y-59587D01*
X78018Y-59650D01*
X78550Y-59650D01*
X78550Y-59750D01*
X78018Y-59750D01*
X77956Y-59812D01*
X77956Y-60044D01*
X77956Y-60049D01*
X77243Y-60049D01*
X77243Y-60044D01*
X77243Y-59355D01*
X77243Y-59256D01*
X77205Y-59164D01*
X77135Y-59094D01*
X77043Y-59056D01*
X76712Y-59056D01*
X76650Y-59118D01*
X76650Y-59650D01*
X77181Y-59650D01*
X77243Y-59587D01*
X77243Y-59355D01*
X77243Y-60044D01*
X77243Y-59812D01*
X77181Y-59750D01*
X76650Y-59750D01*
X76650Y-59757D01*
X76550Y-59757D01*
X76550Y-59750D01*
X76550Y-59650D01*
X76550Y-59118D01*
X76487Y-59056D01*
X76156Y-59056D01*
X76064Y-59094D01*
X75994Y-59164D01*
X75956Y-59256D01*
X75956Y-59355D01*
X75956Y-59587D01*
X76018Y-59650D01*
X76550Y-59650D01*
X76550Y-59750D01*
X76018Y-59750D01*
X75956Y-59812D01*
X75956Y-60044D01*
X75956Y-60049D01*
X71999Y-60049D01*
X71999Y-58612D01*
X71962Y-58524D01*
X71895Y-58457D01*
X71807Y-58421D01*
X71712Y-58420D01*
X71653Y-58445D01*
X71652Y-58443D01*
X71618Y-58409D01*
X71574Y-58391D01*
X71526Y-58391D01*
X71053Y-58391D01*
X71009Y-58409D01*
X70975Y-58443D01*
X70956Y-58488D01*
X70956Y-58536D01*
X70956Y-58831D01*
X70975Y-58876D01*
X71009Y-58910D01*
X71053Y-58928D01*
X71101Y-58928D01*
X71574Y-58928D01*
X71618Y-58910D01*
X71652Y-58876D01*
X71653Y-58874D01*
X71712Y-58898D01*
X71807Y-58899D01*
X71895Y-58862D01*
X71962Y-58795D01*
X71998Y-58707D01*
X71999Y-58612D01*
X71999Y-60049D01*
X70343Y-60049D01*
X70343Y-60044D01*
X70343Y-59355D01*
X70343Y-59256D01*
X70305Y-59164D01*
X70235Y-59094D01*
X70143Y-59056D01*
X69812Y-59056D01*
X69750Y-59118D01*
X69750Y-59650D01*
X70281Y-59650D01*
X70343Y-59587D01*
X70343Y-59355D01*
X70343Y-60044D01*
X70343Y-59812D01*
X70281Y-59750D01*
X69750Y-59750D01*
X69750Y-59757D01*
X69650Y-59757D01*
X69650Y-59750D01*
X69650Y-59650D01*
X69650Y-59118D01*
X69587Y-59056D01*
X69256Y-59056D01*
X69164Y-59094D01*
X69094Y-59164D01*
X69056Y-59256D01*
X69056Y-59355D01*
X69056Y-59587D01*
X69118Y-59650D01*
X69650Y-59650D01*
X69650Y-59750D01*
X69118Y-59750D01*
X69056Y-59812D01*
X69056Y-60044D01*
X69056Y-60049D01*
X68343Y-60049D01*
X68343Y-60044D01*
X68343Y-59355D01*
X68343Y-59256D01*
X68305Y-59164D01*
X68235Y-59094D01*
X68143Y-59056D01*
X67812Y-59056D01*
X67750Y-59118D01*
X67750Y-59650D01*
X68281Y-59650D01*
X68343Y-59587D01*
X68343Y-59355D01*
X68343Y-60044D01*
X68343Y-59812D01*
X68281Y-59750D01*
X67750Y-59750D01*
X67750Y-59757D01*
X67650Y-59757D01*
X67650Y-59750D01*
X67650Y-59650D01*
X67650Y-59118D01*
X67587Y-59056D01*
X67256Y-59056D01*
X67200Y-59079D01*
X67143Y-59056D01*
X66812Y-59056D01*
X66750Y-59118D01*
X66750Y-59650D01*
X67118Y-59650D01*
X67281Y-59650D01*
X67650Y-59650D01*
X67650Y-59750D01*
X67281Y-59750D01*
X67118Y-59750D01*
X66750Y-59750D01*
X66750Y-59757D01*
X66650Y-59757D01*
X66650Y-59750D01*
X66650Y-59650D01*
X66650Y-59118D01*
X66587Y-59056D01*
X66256Y-59056D01*
X66164Y-59094D01*
X66094Y-59164D01*
X66056Y-59256D01*
X66056Y-59355D01*
X66056Y-59587D01*
X66118Y-59650D01*
X66650Y-59650D01*
X66650Y-59750D01*
X66118Y-59750D01*
X66056Y-59812D01*
X66056Y-60044D01*
X66056Y-60049D01*
X65343Y-60049D01*
X65343Y-60044D01*
X65343Y-59355D01*
X65343Y-59256D01*
X65305Y-59164D01*
X65235Y-59094D01*
X65143Y-59056D01*
X64812Y-59056D01*
X64750Y-59118D01*
X64750Y-59650D01*
X65281Y-59650D01*
X65343Y-59587D01*
X65343Y-59355D01*
X65343Y-60044D01*
X65343Y-59812D01*
X65281Y-59750D01*
X64750Y-59750D01*
X64750Y-59757D01*
X64650Y-59757D01*
X64650Y-59750D01*
X64642Y-59750D01*
X64642Y-59650D01*
X64650Y-59650D01*
X64650Y-59118D01*
X64587Y-59056D01*
X64350Y-59056D01*
X64350Y-59014D01*
X65117Y-59014D01*
X65162Y-58996D01*
X65196Y-58962D01*
X65214Y-58917D01*
X65214Y-58869D01*
X65214Y-58656D01*
X66185Y-58656D01*
X66185Y-58917D01*
X66203Y-58962D01*
X66237Y-58996D01*
X66282Y-59014D01*
X66330Y-59014D01*
X67117Y-59014D01*
X67162Y-58996D01*
X67196Y-58962D01*
X67199Y-58952D01*
X67203Y-58962D01*
X67237Y-58996D01*
X67282Y-59014D01*
X67330Y-59014D01*
X68117Y-59014D01*
X68162Y-58996D01*
X68196Y-58962D01*
X68214Y-58917D01*
X68214Y-58869D01*
X68214Y-58656D01*
X69185Y-58656D01*
X69185Y-58917D01*
X69203Y-58962D01*
X69237Y-58996D01*
X69282Y-59014D01*
X69330Y-59014D01*
X70117Y-59014D01*
X70162Y-58996D01*
X70196Y-58962D01*
X70214Y-58917D01*
X70214Y-58869D01*
X70214Y-58845D01*
X70227Y-58876D01*
X70261Y-58910D01*
X70305Y-58928D01*
X70339Y-58928D01*
X70321Y-58972D01*
X70320Y-59067D01*
X70357Y-59155D01*
X70424Y-59222D01*
X70512Y-59258D01*
X70607Y-59259D01*
X70695Y-59222D01*
X70762Y-59155D01*
X70798Y-59067D01*
X70799Y-58972D01*
X70780Y-58928D01*
X70826Y-58928D01*
X70870Y-58910D01*
X70904Y-58876D01*
X70923Y-58831D01*
X70923Y-58783D01*
X70923Y-58488D01*
X70904Y-58443D01*
X70870Y-58409D01*
X70826Y-58391D01*
X70778Y-58391D01*
X70305Y-58391D01*
X70261Y-58409D01*
X70227Y-58443D01*
X70214Y-58474D01*
X70214Y-58082D01*
X70196Y-58037D01*
X70162Y-58003D01*
X70117Y-57985D01*
X70069Y-57985D01*
X69856Y-57985D01*
X69856Y-57936D01*
X75780Y-57936D01*
X80560Y-57936D01*
X80560Y-57936D01*
X80619Y-57924D01*
X80642Y-57909D01*
X80642Y-58343D01*
X80642Y-58343D01*
G37*
G54D28*
X80642Y-58343D02*
X79114Y-58343D01*
X79114Y-58082D01*
X79096Y-58037D01*
X79062Y-58003D01*
X79017Y-57985D01*
X78969Y-57985D01*
X78182Y-57985D01*
X78137Y-58003D01*
X78103Y-58037D01*
X78085Y-58082D01*
X78085Y-58130D01*
X78085Y-58343D01*
X77114Y-58343D01*
X77114Y-58082D01*
X77096Y-58037D01*
X77062Y-58003D01*
X77017Y-57985D01*
X76969Y-57985D01*
X76182Y-57985D01*
X76137Y-58003D01*
X76103Y-58037D01*
X76085Y-58082D01*
X76085Y-58130D01*
X76085Y-58917D01*
X76103Y-58962D01*
X76137Y-58996D01*
X76182Y-59014D01*
X76230Y-59014D01*
X77017Y-59014D01*
X77062Y-58996D01*
X77096Y-58962D01*
X77114Y-58917D01*
X77114Y-58869D01*
X77114Y-58656D01*
X78085Y-58656D01*
X78085Y-58917D01*
X78103Y-58962D01*
X78137Y-58996D01*
X78182Y-59014D01*
X78230Y-59014D01*
X79017Y-59014D01*
X79062Y-58996D01*
X79096Y-58962D01*
X79114Y-58917D01*
X79114Y-58869D01*
X79114Y-58656D01*
X80142Y-58656D01*
X80089Y-58709D01*
X80055Y-58760D01*
X80043Y-58820D01*
X80043Y-59085D01*
X79979Y-59085D01*
X79934Y-59103D01*
X79900Y-59137D01*
X79882Y-59182D01*
X79882Y-59230D01*
X79882Y-60017D01*
X79895Y-60049D01*
X79854Y-60049D01*
X79867Y-60017D01*
X79867Y-59969D01*
X79867Y-59182D01*
X79849Y-59137D01*
X79815Y-59103D01*
X79771Y-59085D01*
X79778Y-59067D01*
X79779Y-58972D01*
X79742Y-58884D01*
X79675Y-58817D01*
X79587Y-58781D01*
X79492Y-58780D01*
X79404Y-58817D01*
X79337Y-58884D01*
X79301Y-58972D01*
X79300Y-59067D01*
X79311Y-59092D01*
X79284Y-59103D01*
X79250Y-59137D01*
X79232Y-59182D01*
X79232Y-59228D01*
X79205Y-59164D01*
X79135Y-59094D01*
X79043Y-59056D01*
X78712Y-59056D01*
X78650Y-59118D01*
X78650Y-59650D01*
X78657Y-59650D01*
X78657Y-59750D01*
X78650Y-59750D01*
X78650Y-59757D01*
X78550Y-59757D01*
X78550Y-59750D01*
X78550Y-59650D01*
X78550Y-59118D01*
X78487Y-59056D01*
X78156Y-59056D01*
X78064Y-59094D01*
X77994Y-59164D01*
X77956Y-59256D01*
X77956Y-59355D01*
X77956Y-59587D01*
X78018Y-59650D01*
X78550Y-59650D01*
X78550Y-59750D01*
X78018Y-59750D01*
X77956Y-59812D01*
X77956Y-60044D01*
X77956Y-60049D01*
X77243Y-60049D01*
X77243Y-60044D01*
X77243Y-59355D01*
X77243Y-59256D01*
X77205Y-59164D01*
X77135Y-59094D01*
X77043Y-59056D01*
X76712Y-59056D01*
X76650Y-59118D01*
X76650Y-59650D01*
X77181Y-59650D01*
X77243Y-59587D01*
X77243Y-59355D01*
X77243Y-60044D01*
X77243Y-59812D01*
X77181Y-59750D01*
X76650Y-59750D01*
X76650Y-59757D01*
X76550Y-59757D01*
X76550Y-59750D01*
X76550Y-59650D01*
X76550Y-59118D01*
X76487Y-59056D01*
X76156Y-59056D01*
X76064Y-59094D01*
X75994Y-59164D01*
X75956Y-59256D01*
X75956Y-59355D01*
X75956Y-59587D01*
X76018Y-59650D01*
X76550Y-59650D01*
X76550Y-59750D01*
X76018Y-59750D01*
X75956Y-59812D01*
X75956Y-60044D01*
X75956Y-60049D01*
X71999Y-60049D01*
X71999Y-58612D01*
X71962Y-58524D01*
X71895Y-58457D01*
X71807Y-58421D01*
X71712Y-58420D01*
X71653Y-58445D01*
X71652Y-58443D01*
X71618Y-58409D01*
X71574Y-58391D01*
X71526Y-58391D01*
X71053Y-58391D01*
X71009Y-58409D01*
X70975Y-58443D01*
X70956Y-58488D01*
X70956Y-58536D01*
X70956Y-58831D01*
X70975Y-58876D01*
X71009Y-58910D01*
X71053Y-58928D01*
X71101Y-58928D01*
X71574Y-58928D01*
X71618Y-58910D01*
X71652Y-58876D01*
X71653Y-58874D01*
X71712Y-58898D01*
X71807Y-58899D01*
X71895Y-58862D01*
X71962Y-58795D01*
X71998Y-58707D01*
X71999Y-58612D01*
X71999Y-60049D01*
X70343Y-60049D01*
X70343Y-60044D01*
X70343Y-59355D01*
X70343Y-59256D01*
X70305Y-59164D01*
X70235Y-59094D01*
X70143Y-59056D01*
X69812Y-59056D01*
X69750Y-59118D01*
X69750Y-59650D01*
X70281Y-59650D01*
X70343Y-59587D01*
X70343Y-59355D01*
X70343Y-60044D01*
X70343Y-59812D01*
X70281Y-59750D01*
X69750Y-59750D01*
X69750Y-59757D01*
X69650Y-59757D01*
X69650Y-59750D01*
X69650Y-59650D01*
X69650Y-59118D01*
X69587Y-59056D01*
X69256Y-59056D01*
X69164Y-59094D01*
X69094Y-59164D01*
X69056Y-59256D01*
X69056Y-59355D01*
X69056Y-59587D01*
X69118Y-59650D01*
X69650Y-59650D01*
X69650Y-59750D01*
X69118Y-59750D01*
X69056Y-59812D01*
X69056Y-60044D01*
X69056Y-60049D01*
X68343Y-60049D01*
X68343Y-60044D01*
X68343Y-59355D01*
X68343Y-59256D01*
X68305Y-59164D01*
X68235Y-59094D01*
X68143Y-59056D01*
X67812Y-59056D01*
X67750Y-59118D01*
X67750Y-59650D01*
X68281Y-59650D01*
X68343Y-59587D01*
X68343Y-59355D01*
X68343Y-60044D01*
X68343Y-59812D01*
X68281Y-59750D01*
X67750Y-59750D01*
X67750Y-59757D01*
X67650Y-59757D01*
X67650Y-59750D01*
X67650Y-59650D01*
X67650Y-59118D01*
X67587Y-59056D01*
X67256Y-59056D01*
X67200Y-59079D01*
X67143Y-59056D01*
X66812Y-59056D01*
X66750Y-59118D01*
X66750Y-59650D01*
X67118Y-59650D01*
X67281Y-59650D01*
X67650Y-59650D01*
X67650Y-59750D01*
X67281Y-59750D01*
X67118Y-59750D01*
X66750Y-59750D01*
X66750Y-59757D01*
X66650Y-59757D01*
X66650Y-59750D01*
X66650Y-59650D01*
X66650Y-59118D01*
X66587Y-59056D01*
X66256Y-59056D01*
X66164Y-59094D01*
X66094Y-59164D01*
X66056Y-59256D01*
X66056Y-59355D01*
X66056Y-59587D01*
X66118Y-59650D01*
X66650Y-59650D01*
X66650Y-59750D01*
X66118Y-59750D01*
X66056Y-59812D01*
X66056Y-60044D01*
X66056Y-60049D01*
X65343Y-60049D01*
X65343Y-60044D01*
X65343Y-59355D01*
X65343Y-59256D01*
X65305Y-59164D01*
X65235Y-59094D01*
X65143Y-59056D01*
X64812Y-59056D01*
X64750Y-59118D01*
X64750Y-59650D01*
X65281Y-59650D01*
X65343Y-59587D01*
X65343Y-59355D01*
X65343Y-60044D01*
X65343Y-59812D01*
X65281Y-59750D01*
X64750Y-59750D01*
X64750Y-59757D01*
X64650Y-59757D01*
X64650Y-59750D01*
X64642Y-59750D01*
X64642Y-59650D01*
X64650Y-59650D01*
X64650Y-59118D01*
X64587Y-59056D01*
X64350Y-59056D01*
X64350Y-59014D01*
X65117Y-59014D01*
X65162Y-58996D01*
X65196Y-58962D01*
X65214Y-58917D01*
X65214Y-58869D01*
X65214Y-58656D01*
X66185Y-58656D01*
X66185Y-58917D01*
X66203Y-58962D01*
X66237Y-58996D01*
X66282Y-59014D01*
X66330Y-59014D01*
X67117Y-59014D01*
X67162Y-58996D01*
X67196Y-58962D01*
X67199Y-58952D01*
X67203Y-58962D01*
X67237Y-58996D01*
X67282Y-59014D01*
X67330Y-59014D01*
X68117Y-59014D01*
X68162Y-58996D01*
X68196Y-58962D01*
X68214Y-58917D01*
X68214Y-58869D01*
X68214Y-58656D01*
X69185Y-58656D01*
X69185Y-58917D01*
X69203Y-58962D01*
X69237Y-58996D01*
X69282Y-59014D01*
X69330Y-59014D01*
X70117Y-59014D01*
X70162Y-58996D01*
X70196Y-58962D01*
X70214Y-58917D01*
X70214Y-58869D01*
X70214Y-58845D01*
X70227Y-58876D01*
X70261Y-58910D01*
X70305Y-58928D01*
X70339Y-58928D01*
X70321Y-58972D01*
X70320Y-59067D01*
X70357Y-59155D01*
X70424Y-59222D01*
X70512Y-59258D01*
X70607Y-59259D01*
X70695Y-59222D01*
X70762Y-59155D01*
X70798Y-59067D01*
X70799Y-58972D01*
X70780Y-58928D01*
X70826Y-58928D01*
X70870Y-58910D01*
X70904Y-58876D01*
X70923Y-58831D01*
X70923Y-58783D01*
X70923Y-58488D01*
X70904Y-58443D01*
X70870Y-58409D01*
X70826Y-58391D01*
X70778Y-58391D01*
X70305Y-58391D01*
X70261Y-58409D01*
X70227Y-58443D01*
X70214Y-58474D01*
X70214Y-58082D01*
X70196Y-58037D01*
X70162Y-58003D01*
X70117Y-57985D01*
X70069Y-57985D01*
X69856Y-57985D01*
X69856Y-57936D01*
X75780Y-57936D01*
X80560Y-57936D01*
X80560Y-57936D01*
X80619Y-57924D01*
X80642Y-57909D01*
X80642Y-58343D01*
G54D10*
G36*
X81232Y-56375D02*
X81223Y-56375D01*
X81113Y-56375D01*
X81093Y-56383D01*
X81074Y-56376D01*
X81026Y-56375D01*
X80916Y-56375D01*
X80896Y-56383D01*
X80877Y-56376D01*
X80829Y-56375D01*
X80719Y-56375D01*
X80700Y-56383D01*
X80680Y-56376D01*
X80632Y-56375D01*
X80522Y-56375D01*
X80503Y-56383D01*
X80483Y-56376D01*
X80435Y-56375D01*
X80325Y-56375D01*
X80306Y-56383D01*
X80287Y-56376D01*
X80239Y-56375D01*
X80128Y-56375D01*
X80109Y-56383D01*
X80090Y-56376D01*
X80042Y-56375D01*
X79931Y-56375D01*
X79912Y-56383D01*
X79893Y-56376D01*
X79845Y-56375D01*
X79735Y-56375D01*
X79717Y-56383D01*
X79700Y-56376D01*
X79652Y-56375D01*
X79480Y-56375D01*
X79503Y-56319D01*
X79503Y-56283D01*
X79441Y-56222D01*
X79503Y-56222D01*
X79503Y-56172D01*
X79575Y-56142D01*
X79642Y-56075D01*
X79678Y-55987D01*
X79679Y-55892D01*
X79642Y-55804D01*
X79575Y-55737D01*
X79487Y-55701D01*
X79392Y-55700D01*
X79374Y-55708D01*
X79374Y-55659D01*
X79366Y-55640D01*
X79373Y-55621D01*
X79374Y-55573D01*
X79374Y-55463D01*
X79366Y-55443D01*
X79373Y-55424D01*
X79374Y-55376D01*
X79374Y-55266D01*
X79366Y-55246D01*
X79373Y-55227D01*
X79374Y-55179D01*
X79374Y-55069D01*
X79366Y-55050D01*
X79373Y-55030D01*
X79374Y-54982D01*
X79374Y-54872D01*
X79366Y-54853D01*
X79373Y-54833D01*
X79374Y-54785D01*
X79374Y-54675D01*
X79366Y-54656D01*
X79373Y-54637D01*
X79374Y-54589D01*
X79374Y-54478D01*
X79366Y-54459D01*
X79373Y-54440D01*
X79374Y-54392D01*
X79374Y-54281D01*
X79366Y-54262D01*
X79373Y-54243D01*
X79374Y-54195D01*
X79374Y-54085D01*
X79366Y-54067D01*
X79373Y-54050D01*
X79374Y-54002D01*
X79374Y-53805D01*
X79355Y-53761D01*
X79321Y-53727D01*
X79277Y-53708D01*
X79229Y-53708D01*
X78914Y-53708D01*
X78914Y-53453D01*
X78917Y-53454D01*
X78967Y-53464D01*
X79358Y-53464D01*
X79358Y-53627D01*
X79377Y-53671D01*
X79410Y-53705D01*
X79455Y-53723D01*
X79503Y-53724D01*
X79700Y-53724D01*
X79717Y-53716D01*
X79734Y-53723D01*
X79782Y-53724D01*
X79893Y-53724D01*
X79912Y-53716D01*
X79931Y-53723D01*
X79932Y-53723D01*
X79940Y-53744D01*
X80011Y-53815D01*
X80103Y-53853D01*
X80117Y-53853D01*
X80180Y-53790D01*
X80180Y-53643D01*
X80186Y-53627D01*
X80187Y-53579D01*
X80187Y-53250D01*
X80228Y-53250D01*
X80228Y-53627D01*
X80235Y-53643D01*
X80235Y-53790D01*
X80297Y-53853D01*
X80312Y-53853D01*
X80404Y-53815D01*
X80445Y-53774D01*
X80445Y-53861D01*
X80457Y-53921D01*
X80491Y-53972D01*
X80741Y-54222D01*
X80740Y-54287D01*
X80777Y-54375D01*
X80844Y-54442D01*
X80932Y-54478D01*
X81027Y-54479D01*
X81115Y-54442D01*
X81182Y-54375D01*
X81218Y-54287D01*
X81219Y-54192D01*
X81182Y-54104D01*
X81147Y-54069D01*
X81167Y-54050D01*
X81177Y-54075D01*
X81232Y-54130D01*
X81232Y-56375D01*
X81232Y-56375D01*
G37*
G54D28*
X81232Y-56375D02*
X81223Y-56375D01*
X81113Y-56375D01*
X81093Y-56383D01*
X81074Y-56376D01*
X81026Y-56375D01*
X80916Y-56375D01*
X80896Y-56383D01*
X80877Y-56376D01*
X80829Y-56375D01*
X80719Y-56375D01*
X80700Y-56383D01*
X80680Y-56376D01*
X80632Y-56375D01*
X80522Y-56375D01*
X80503Y-56383D01*
X80483Y-56376D01*
X80435Y-56375D01*
X80325Y-56375D01*
X80306Y-56383D01*
X80287Y-56376D01*
X80239Y-56375D01*
X80128Y-56375D01*
X80109Y-56383D01*
X80090Y-56376D01*
X80042Y-56375D01*
X79931Y-56375D01*
X79912Y-56383D01*
X79893Y-56376D01*
X79845Y-56375D01*
X79735Y-56375D01*
X79717Y-56383D01*
X79700Y-56376D01*
X79652Y-56375D01*
X79480Y-56375D01*
X79503Y-56319D01*
X79503Y-56283D01*
X79441Y-56222D01*
X79503Y-56222D01*
X79503Y-56172D01*
X79575Y-56142D01*
X79642Y-56075D01*
X79678Y-55987D01*
X79679Y-55892D01*
X79642Y-55804D01*
X79575Y-55737D01*
X79487Y-55701D01*
X79392Y-55700D01*
X79374Y-55708D01*
X79374Y-55659D01*
X79366Y-55640D01*
X79373Y-55621D01*
X79374Y-55573D01*
X79374Y-55463D01*
X79366Y-55443D01*
X79373Y-55424D01*
X79374Y-55376D01*
X79374Y-55266D01*
X79366Y-55246D01*
X79373Y-55227D01*
X79374Y-55179D01*
X79374Y-55069D01*
X79366Y-55050D01*
X79373Y-55030D01*
X79374Y-54982D01*
X79374Y-54872D01*
X79366Y-54853D01*
X79373Y-54833D01*
X79374Y-54785D01*
X79374Y-54675D01*
X79366Y-54656D01*
X79373Y-54637D01*
X79374Y-54589D01*
X79374Y-54478D01*
X79366Y-54459D01*
X79373Y-54440D01*
X79374Y-54392D01*
X79374Y-54281D01*
X79366Y-54262D01*
X79373Y-54243D01*
X79374Y-54195D01*
X79374Y-54085D01*
X79366Y-54067D01*
X79373Y-54050D01*
X79374Y-54002D01*
X79374Y-53805D01*
X79355Y-53761D01*
X79321Y-53727D01*
X79277Y-53708D01*
X79229Y-53708D01*
X78914Y-53708D01*
X78914Y-53453D01*
X78917Y-53454D01*
X78967Y-53464D01*
X79358Y-53464D01*
X79358Y-53627D01*
X79377Y-53671D01*
X79410Y-53705D01*
X79455Y-53723D01*
X79503Y-53724D01*
X79700Y-53724D01*
X79717Y-53716D01*
X79734Y-53723D01*
X79782Y-53724D01*
X79893Y-53724D01*
X79912Y-53716D01*
X79931Y-53723D01*
X79932Y-53723D01*
X79940Y-53744D01*
X80011Y-53815D01*
X80103Y-53853D01*
X80117Y-53853D01*
X80180Y-53790D01*
X80180Y-53643D01*
X80186Y-53627D01*
X80187Y-53579D01*
X80187Y-53250D01*
X80228Y-53250D01*
X80228Y-53627D01*
X80235Y-53643D01*
X80235Y-53790D01*
X80297Y-53853D01*
X80312Y-53853D01*
X80404Y-53815D01*
X80445Y-53774D01*
X80445Y-53861D01*
X80457Y-53921D01*
X80491Y-53972D01*
X80741Y-54222D01*
X80740Y-54287D01*
X80777Y-54375D01*
X80844Y-54442D01*
X80932Y-54478D01*
X81027Y-54479D01*
X81115Y-54442D01*
X81182Y-54375D01*
X81218Y-54287D01*
X81219Y-54192D01*
X81182Y-54104D01*
X81147Y-54069D01*
X81167Y-54050D01*
X81177Y-54075D01*
X81232Y-54130D01*
X81232Y-56375D01*
G54D10*
G36*
X82714Y-54774D02*
X82713Y-54775D01*
X82384Y-54775D01*
X82384Y-54733D01*
X82652Y-54733D01*
X82652Y-54774D01*
X82714Y-54774D01*
X82714Y-54774D01*
G37*
G54D28*
X82714Y-54774D02*
X82713Y-54775D01*
X82384Y-54775D01*
X82384Y-54733D01*
X82652Y-54733D01*
X82652Y-54774D01*
X82714Y-54774D01*
G54D10*
G36*
X82929Y-52896D02*
X82905Y-52931D01*
X82893Y-52991D01*
X82893Y-53618D01*
X82880Y-53618D01*
X82879Y-53617D01*
X82787Y-53579D01*
X82687Y-53579D01*
X82554Y-53579D01*
X82492Y-53642D01*
X82492Y-53878D01*
X82500Y-53878D01*
X82500Y-53977D01*
X82492Y-53977D01*
X82492Y-53985D01*
X82392Y-53985D01*
X82392Y-53977D01*
X82384Y-53977D01*
X82384Y-53878D01*
X82392Y-53878D01*
X82392Y-53642D01*
X82329Y-53579D01*
X82196Y-53579D01*
X82096Y-53579D01*
X82041Y-53602D01*
X82041Y-53579D01*
X82041Y-52988D01*
X82022Y-52944D01*
X81989Y-52910D01*
X81955Y-52896D01*
X82929Y-52896D01*
X82929Y-52896D01*
G37*
G54D28*
X82929Y-52896D02*
X82905Y-52931D01*
X82893Y-52991D01*
X82893Y-53618D01*
X82880Y-53618D01*
X82879Y-53617D01*
X82787Y-53579D01*
X82687Y-53579D01*
X82554Y-53579D01*
X82492Y-53642D01*
X82492Y-53878D01*
X82500Y-53878D01*
X82500Y-53977D01*
X82492Y-53977D01*
X82492Y-53985D01*
X82392Y-53985D01*
X82392Y-53977D01*
X82384Y-53977D01*
X82384Y-53878D01*
X82392Y-53878D01*
X82392Y-53642D01*
X82329Y-53579D01*
X82196Y-53579D01*
X82096Y-53579D01*
X82041Y-53602D01*
X82041Y-53579D01*
X82041Y-52988D01*
X82022Y-52944D01*
X81989Y-52910D01*
X81955Y-52896D01*
X82929Y-52896D01*
G54D10*
G36*
X97449Y-55545D02*
X97050Y-55545D01*
X97050Y-50701D01*
X97050Y-50170D01*
X97050Y-50070D01*
X97050Y-49538D01*
X96987Y-49476D01*
X96656Y-49476D01*
X96564Y-49514D01*
X96494Y-49584D01*
X96456Y-49676D01*
X96456Y-49775D01*
X96456Y-50007D01*
X96518Y-50070D01*
X97050Y-50070D01*
X97050Y-50170D01*
X96518Y-50170D01*
X96456Y-50232D01*
X96456Y-50464D01*
X96456Y-50563D01*
X96494Y-50655D01*
X96564Y-50725D01*
X96656Y-50763D01*
X96987Y-50763D01*
X97050Y-50701D01*
X97050Y-55545D01*
X96682Y-55545D01*
X96637Y-55563D01*
X96603Y-55597D01*
X96585Y-55642D01*
X96585Y-55690D01*
X96585Y-55903D01*
X95614Y-55903D01*
X95614Y-55642D01*
X95596Y-55597D01*
X95562Y-55563D01*
X95517Y-55545D01*
X95469Y-55545D01*
X95373Y-55545D01*
X95410Y-55530D01*
X95444Y-55496D01*
X95463Y-55451D01*
X95463Y-55403D01*
X95463Y-55108D01*
X95444Y-55063D01*
X95410Y-55029D01*
X95366Y-55011D01*
X95349Y-55011D01*
X95358Y-54987D01*
X95359Y-54892D01*
X95322Y-54804D01*
X95255Y-54737D01*
X95167Y-54701D01*
X95072Y-54700D01*
X94984Y-54737D01*
X94917Y-54804D01*
X94881Y-54892D01*
X94880Y-54987D01*
X94890Y-55011D01*
X94845Y-55011D01*
X94801Y-55029D01*
X94767Y-55063D01*
X94748Y-55108D01*
X94748Y-55156D01*
X94748Y-55451D01*
X94767Y-55496D01*
X94801Y-55530D01*
X94838Y-55545D01*
X94682Y-55545D01*
X94637Y-55563D01*
X94603Y-55597D01*
X94585Y-55642D01*
X94585Y-55690D01*
X94585Y-55889D01*
X94568Y-55889D01*
X94568Y-55785D01*
X94550Y-55741D01*
X94516Y-55707D01*
X94471Y-55688D01*
X94423Y-55688D01*
X94128Y-55688D01*
X94083Y-55707D01*
X94049Y-55741D01*
X94031Y-55785D01*
X94031Y-55833D01*
X94031Y-56306D01*
X94042Y-56332D01*
X94010Y-56345D01*
X93940Y-56416D01*
X93902Y-56508D01*
X93902Y-56681D01*
X93964Y-56744D01*
X94250Y-56744D01*
X94250Y-56736D01*
X94350Y-56736D01*
X94350Y-56744D01*
X94357Y-56744D01*
X94357Y-56844D01*
X94350Y-56844D01*
X94350Y-57217D01*
X94412Y-57280D01*
X94398Y-57280D01*
X94456Y-57280D01*
X94456Y-57310D01*
X94518Y-57310D01*
X94456Y-57372D01*
X94456Y-57604D01*
X94456Y-57623D01*
X94250Y-57623D01*
X94250Y-57217D01*
X94250Y-56844D01*
X93964Y-56844D01*
X93902Y-56906D01*
X93902Y-57079D01*
X93940Y-57171D01*
X94010Y-57242D01*
X94102Y-57280D01*
X94201Y-57280D01*
X94187Y-57280D01*
X94250Y-57217D01*
X94250Y-57623D01*
X90716Y-57623D01*
X90716Y-57236D01*
X90716Y-56512D01*
X90653Y-56450D01*
X90122Y-56450D01*
X90122Y-57473D01*
X90184Y-57535D01*
X90515Y-57535D01*
X90607Y-57497D01*
X90677Y-57427D01*
X90716Y-57335D01*
X90716Y-57236D01*
X90716Y-57623D01*
X87696Y-57623D01*
X87696Y-55600D01*
X87686Y-55550D01*
X87684Y-55540D01*
X87684Y-55540D01*
X87658Y-55501D01*
X88613Y-55501D01*
X88612Y-55538D01*
X88612Y-57309D01*
X88631Y-57354D01*
X88665Y-57388D01*
X88709Y-57406D01*
X88757Y-57406D01*
X89458Y-57406D01*
X89466Y-57427D01*
X89537Y-57497D01*
X89629Y-57535D01*
X89959Y-57535D01*
X90022Y-57473D01*
X90022Y-56450D01*
X90014Y-56450D01*
X90014Y-56350D01*
X90022Y-56350D01*
X90022Y-56342D01*
X90122Y-56342D01*
X90122Y-56350D01*
X90653Y-56350D01*
X90716Y-56287D01*
X90716Y-55563D01*
X90716Y-55464D01*
X90677Y-55372D01*
X90610Y-55304D01*
X92491Y-55304D01*
X92531Y-55304D01*
X92531Y-55304D01*
X92591Y-55292D01*
X92642Y-55258D01*
X92710Y-55190D01*
X92710Y-55190D01*
X92744Y-55139D01*
X92744Y-55139D01*
X92746Y-55129D01*
X92756Y-55080D01*
X92756Y-55080D01*
X92756Y-55040D01*
X92756Y-54387D01*
X93509Y-54387D01*
X93554Y-54368D01*
X93588Y-54334D01*
X93606Y-54290D01*
X93606Y-54242D01*
X93606Y-53541D01*
X93627Y-53533D01*
X93697Y-53463D01*
X93735Y-53371D01*
X93735Y-53271D01*
X93735Y-52583D01*
X93735Y-52483D01*
X93697Y-52392D01*
X93627Y-52321D01*
X93535Y-52283D01*
X92712Y-52283D01*
X92650Y-52346D01*
X92650Y-52877D01*
X93673Y-52877D01*
X93735Y-52815D01*
X93735Y-52583D01*
X93735Y-53271D01*
X93735Y-53040D01*
X93673Y-52977D01*
X92650Y-52977D01*
X92650Y-52985D01*
X92550Y-52985D01*
X92550Y-52977D01*
X92550Y-52877D01*
X92550Y-52346D01*
X92487Y-52283D01*
X91664Y-52283D01*
X91572Y-52321D01*
X91502Y-52392D01*
X91464Y-52483D01*
X91464Y-52583D01*
X91464Y-52815D01*
X91526Y-52877D01*
X92550Y-52877D01*
X92550Y-52977D01*
X91526Y-52977D01*
X91464Y-53040D01*
X91464Y-53271D01*
X91464Y-53371D01*
X91502Y-53463D01*
X91572Y-53533D01*
X91593Y-53541D01*
X91593Y-54290D01*
X91611Y-54334D01*
X91645Y-54368D01*
X91690Y-54386D01*
X91738Y-54387D01*
X92443Y-54387D01*
X92443Y-54992D01*
X83447Y-54992D01*
X83447Y-54836D01*
X83385Y-54774D01*
X83100Y-54774D01*
X83100Y-54781D01*
X83000Y-54781D01*
X83000Y-54774D01*
X82992Y-54774D01*
X82992Y-54674D01*
X83000Y-54674D01*
X83000Y-54666D01*
X83100Y-54666D01*
X83100Y-54674D01*
X83385Y-54674D01*
X83447Y-54611D01*
X83447Y-54517D01*
X86538Y-54517D01*
X86538Y-54517D01*
X86598Y-54505D01*
X86649Y-54471D01*
X86710Y-54410D01*
X86726Y-54387D01*
X87509Y-54387D01*
X87554Y-54368D01*
X87588Y-54334D01*
X87606Y-54290D01*
X87606Y-54242D01*
X87606Y-53541D01*
X87627Y-53533D01*
X87697Y-53463D01*
X87735Y-53371D01*
X87735Y-53271D01*
X87735Y-52583D01*
X87735Y-52483D01*
X87697Y-52392D01*
X87627Y-52321D01*
X87535Y-52283D01*
X86712Y-52283D01*
X86650Y-52346D01*
X86650Y-52877D01*
X87673Y-52877D01*
X87735Y-52815D01*
X87735Y-52583D01*
X87735Y-53271D01*
X87735Y-53040D01*
X87673Y-52977D01*
X86650Y-52977D01*
X86650Y-52985D01*
X86550Y-52985D01*
X86550Y-52977D01*
X86550Y-52877D01*
X86550Y-52346D01*
X86487Y-52283D01*
X85664Y-52283D01*
X85572Y-52321D01*
X85502Y-52392D01*
X85464Y-52483D01*
X85464Y-52583D01*
X85464Y-52815D01*
X85526Y-52877D01*
X86550Y-52877D01*
X86550Y-52977D01*
X85526Y-52977D01*
X85464Y-53040D01*
X85464Y-53271D01*
X85464Y-53371D01*
X85502Y-53463D01*
X85572Y-53533D01*
X85593Y-53541D01*
X85593Y-54204D01*
X83318Y-54204D01*
X83318Y-54188D01*
X83318Y-53715D01*
X83300Y-53671D01*
X83266Y-53637D01*
X83221Y-53618D01*
X83206Y-53618D01*
X83206Y-53056D01*
X83224Y-53038D01*
X84878Y-53038D01*
X84878Y-53038D01*
X84938Y-53026D01*
X84988Y-52992D01*
X85092Y-52888D01*
X85092Y-52888D01*
X85114Y-52854D01*
X85126Y-52838D01*
X85126Y-52838D01*
X85138Y-52778D01*
X85138Y-52778D01*
X85138Y-52176D01*
X95640Y-52176D01*
X95697Y-52176D01*
X95697Y-52180D01*
X95697Y-54764D01*
X95657Y-54804D01*
X95621Y-54892D01*
X95620Y-54987D01*
X95630Y-55011D01*
X95593Y-55011D01*
X95549Y-55029D01*
X95515Y-55063D01*
X95496Y-55108D01*
X95496Y-55156D01*
X95496Y-55451D01*
X95515Y-55496D01*
X95549Y-55530D01*
X95593Y-55548D01*
X95641Y-55548D01*
X96114Y-55548D01*
X96158Y-55530D01*
X96192Y-55496D01*
X96211Y-55451D01*
X96211Y-55403D01*
X96211Y-55108D01*
X96192Y-55063D01*
X96158Y-55029D01*
X96114Y-55011D01*
X96089Y-55011D01*
X96098Y-54987D01*
X96099Y-54892D01*
X96062Y-54804D01*
X96010Y-54752D01*
X96010Y-52180D01*
X96010Y-52174D01*
X96010Y-52054D01*
X95998Y-51994D01*
X95964Y-51943D01*
X95930Y-51909D01*
X95879Y-51875D01*
X95820Y-51863D01*
X95743Y-51863D01*
X95743Y-50464D01*
X95743Y-49775D01*
X95743Y-49676D01*
X95705Y-49584D01*
X95635Y-49514D01*
X95543Y-49476D01*
X95212Y-49476D01*
X95150Y-49538D01*
X95150Y-50070D01*
X95681Y-50070D01*
X95743Y-50007D01*
X95743Y-49775D01*
X95743Y-50464D01*
X95743Y-50232D01*
X95681Y-50170D01*
X95150Y-50170D01*
X95150Y-50701D01*
X95212Y-50763D01*
X95543Y-50763D01*
X95635Y-50725D01*
X95705Y-50655D01*
X95743Y-50563D01*
X95743Y-50464D01*
X95743Y-51863D01*
X95700Y-51863D01*
X95640Y-51863D01*
X95050Y-51863D01*
X95050Y-50701D01*
X95050Y-50170D01*
X95050Y-50070D01*
X95050Y-49538D01*
X94987Y-49476D01*
X94656Y-49476D01*
X94564Y-49514D01*
X94494Y-49584D01*
X94456Y-49676D01*
X94456Y-49775D01*
X94456Y-50007D01*
X94518Y-50070D01*
X95050Y-50070D01*
X95050Y-50170D01*
X94518Y-50170D01*
X94456Y-50232D01*
X94456Y-50464D01*
X94456Y-50563D01*
X94494Y-50655D01*
X94564Y-50725D01*
X94656Y-50763D01*
X94987Y-50763D01*
X95050Y-50701D01*
X95050Y-51863D01*
X90716Y-51863D01*
X90716Y-51236D01*
X90716Y-49563D01*
X90716Y-49464D01*
X90677Y-49372D01*
X90607Y-49302D01*
X90515Y-49264D01*
X90184Y-49264D01*
X90122Y-49326D01*
X90122Y-50350D01*
X90653Y-50350D01*
X90716Y-50287D01*
X90716Y-49563D01*
X90716Y-51236D01*
X90716Y-50512D01*
X90653Y-50450D01*
X90122Y-50450D01*
X90122Y-51473D01*
X90184Y-51535D01*
X90515Y-51535D01*
X90607Y-51497D01*
X90677Y-51427D01*
X90716Y-51335D01*
X90716Y-51236D01*
X90716Y-51863D01*
X85041Y-51863D01*
X84996Y-51872D01*
X84996Y-50556D01*
X88612Y-50556D01*
X88612Y-51309D01*
X88631Y-51354D01*
X88665Y-51388D01*
X88709Y-51406D01*
X88757Y-51406D01*
X89458Y-51406D01*
X89466Y-51427D01*
X89537Y-51497D01*
X89629Y-51535D01*
X89959Y-51535D01*
X90022Y-51473D01*
X90022Y-50450D01*
X90014Y-50450D01*
X90014Y-50350D01*
X90022Y-50350D01*
X90022Y-49326D01*
X89959Y-49264D01*
X89629Y-49264D01*
X89537Y-49302D01*
X89466Y-49372D01*
X89458Y-49393D01*
X88709Y-49393D01*
X88665Y-49411D01*
X88631Y-49445D01*
X88613Y-49490D01*
X88612Y-49538D01*
X88612Y-50243D01*
X84900Y-50243D01*
X84850Y-50253D01*
X84840Y-50255D01*
X84789Y-50289D01*
X84729Y-50349D01*
X84695Y-50400D01*
X84683Y-50460D01*
X84683Y-52583D01*
X82715Y-52583D01*
X82715Y-49491D01*
X82715Y-48941D01*
X82697Y-48896D01*
X82663Y-48862D01*
X82619Y-48844D01*
X82571Y-48844D01*
X82021Y-48844D01*
X81976Y-48862D01*
X81942Y-48896D01*
X81924Y-48940D01*
X81924Y-48988D01*
X81924Y-49538D01*
X81942Y-49583D01*
X81976Y-49617D01*
X82020Y-49635D01*
X82068Y-49635D01*
X82618Y-49635D01*
X82663Y-49617D01*
X82697Y-49583D01*
X82715Y-49539D01*
X82715Y-49491D01*
X82715Y-52583D01*
X81620Y-52583D01*
X81560Y-52595D01*
X81556Y-52598D01*
X81556Y-52043D01*
X81974Y-52043D01*
X82019Y-52024D01*
X82053Y-51990D01*
X82071Y-51946D01*
X82071Y-51898D01*
X82071Y-50953D01*
X82053Y-50909D01*
X82030Y-50886D01*
X82030Y-50518D01*
X82134Y-50518D01*
X82178Y-50500D01*
X82212Y-50466D01*
X82231Y-50421D01*
X82231Y-50373D01*
X82231Y-50078D01*
X82212Y-50033D01*
X82178Y-49999D01*
X82134Y-49981D01*
X82086Y-49981D01*
X81715Y-49981D01*
X81715Y-49161D01*
X81655Y-49016D01*
X81544Y-48904D01*
X81399Y-48844D01*
X81241Y-48844D01*
X81096Y-48904D01*
X80984Y-49015D01*
X80924Y-49160D01*
X80924Y-49318D01*
X80984Y-49463D01*
X81095Y-49575D01*
X81240Y-49635D01*
X81398Y-49635D01*
X81543Y-49575D01*
X81655Y-49464D01*
X81715Y-49319D01*
X81715Y-49161D01*
X81715Y-49981D01*
X81613Y-49981D01*
X81587Y-49992D01*
X81574Y-49960D01*
X81503Y-49890D01*
X81411Y-49852D01*
X81238Y-49852D01*
X81175Y-49914D01*
X81175Y-50200D01*
X81183Y-50200D01*
X81183Y-50300D01*
X81175Y-50300D01*
X81175Y-50585D01*
X81238Y-50647D01*
X81411Y-50647D01*
X81503Y-50609D01*
X81574Y-50539D01*
X81587Y-50507D01*
X81613Y-50518D01*
X81661Y-50518D01*
X81717Y-50518D01*
X81717Y-50856D01*
X81139Y-50856D01*
X81095Y-50875D01*
X81075Y-50894D01*
X81075Y-50585D01*
X81075Y-50300D01*
X81075Y-50200D01*
X81075Y-49914D01*
X81013Y-49852D01*
X80849Y-49852D01*
X80849Y-49315D01*
X80838Y-49107D01*
X80780Y-48967D01*
X80687Y-48942D01*
X80390Y-49240D01*
X80687Y-49537D01*
X80780Y-49512D01*
X80849Y-49315D01*
X80849Y-49852D01*
X80840Y-49852D01*
X80750Y-49889D01*
X80659Y-49852D01*
X80617Y-49852D01*
X80617Y-49607D01*
X80320Y-49310D01*
X80249Y-49381D01*
X80249Y-49240D01*
X79952Y-48942D01*
X79859Y-48967D01*
X79790Y-49164D01*
X79801Y-49372D01*
X79859Y-49512D01*
X79952Y-49537D01*
X80249Y-49240D01*
X80249Y-49381D01*
X80022Y-49607D01*
X80047Y-49700D01*
X80244Y-49769D01*
X80452Y-49758D01*
X80592Y-49700D01*
X80617Y-49607D01*
X80617Y-49852D01*
X80486Y-49852D01*
X80424Y-49914D01*
X80424Y-50200D01*
X80702Y-50200D01*
X80797Y-50200D01*
X81075Y-50200D01*
X81075Y-50300D01*
X80797Y-50300D01*
X80702Y-50300D01*
X80424Y-50300D01*
X80424Y-50585D01*
X80486Y-50647D01*
X80659Y-50647D01*
X80750Y-50610D01*
X80840Y-50647D01*
X81013Y-50647D01*
X81075Y-50585D01*
X81075Y-50894D01*
X81060Y-50909D01*
X81042Y-50953D01*
X81042Y-51001D01*
X81042Y-51946D01*
X81060Y-51990D01*
X81094Y-52024D01*
X81139Y-52043D01*
X81187Y-52043D01*
X81243Y-52043D01*
X81243Y-52683D01*
X81100Y-52683D01*
X81040Y-52695D01*
X81031Y-52701D01*
X81031Y-52478D01*
X81012Y-52433D01*
X80978Y-52399D01*
X80934Y-52381D01*
X80886Y-52381D01*
X80830Y-52381D01*
X80830Y-52314D01*
X80818Y-52254D01*
X80784Y-52203D01*
X80730Y-52149D01*
X80719Y-52141D01*
X80719Y-51412D01*
X80682Y-51324D01*
X80615Y-51257D01*
X80527Y-51221D01*
X80457Y-51221D01*
X80457Y-50953D01*
X80439Y-50909D01*
X80405Y-50875D01*
X80360Y-50856D01*
X80312Y-50856D01*
X79782Y-50856D01*
X79782Y-50518D01*
X79886Y-50518D01*
X79912Y-50507D01*
X79925Y-50539D01*
X79996Y-50609D01*
X80088Y-50647D01*
X80261Y-50647D01*
X80324Y-50585D01*
X80324Y-50300D01*
X80316Y-50300D01*
X80316Y-50200D01*
X80324Y-50200D01*
X80324Y-49914D01*
X80261Y-49852D01*
X80088Y-49852D01*
X79996Y-49890D01*
X79925Y-49960D01*
X79912Y-49992D01*
X79886Y-49981D01*
X79838Y-49981D01*
X79365Y-49981D01*
X79321Y-49999D01*
X79287Y-50033D01*
X79268Y-50078D01*
X79268Y-50126D01*
X79268Y-50421D01*
X79287Y-50466D01*
X79321Y-50500D01*
X79365Y-50518D01*
X79413Y-50518D01*
X79469Y-50518D01*
X79469Y-50886D01*
X79446Y-50909D01*
X79428Y-50953D01*
X79428Y-51001D01*
X79428Y-51946D01*
X79446Y-51990D01*
X79480Y-52024D01*
X79525Y-52043D01*
X79573Y-52043D01*
X80360Y-52043D01*
X80404Y-52024D01*
X80439Y-51990D01*
X80457Y-51946D01*
X80457Y-51898D01*
X80457Y-51698D01*
X80527Y-51699D01*
X80615Y-51662D01*
X80682Y-51595D01*
X80718Y-51507D01*
X80719Y-51412D01*
X80719Y-52141D01*
X80679Y-52115D01*
X80620Y-52103D01*
X79521Y-52103D01*
X79475Y-52057D01*
X79387Y-52021D01*
X79292Y-52020D01*
X79204Y-52057D01*
X79198Y-52064D01*
X79198Y-49617D01*
X79240Y-49635D01*
X79398Y-49635D01*
X79543Y-49575D01*
X79655Y-49464D01*
X79715Y-49319D01*
X79715Y-49161D01*
X79655Y-49016D01*
X79544Y-48904D01*
X79399Y-48844D01*
X79241Y-48844D01*
X79096Y-48904D01*
X79056Y-48943D01*
X79056Y-48756D01*
X80103Y-48756D01*
X80047Y-48779D01*
X80022Y-48872D01*
X80320Y-49169D01*
X80617Y-48872D01*
X80592Y-48779D01*
X80527Y-48756D01*
X94585Y-48756D01*
X94585Y-49337D01*
X94603Y-49382D01*
X94637Y-49416D01*
X94682Y-49434D01*
X94730Y-49434D01*
X95517Y-49434D01*
X95562Y-49416D01*
X95596Y-49382D01*
X95614Y-49337D01*
X95614Y-49289D01*
X95614Y-49076D01*
X96585Y-49076D01*
X96585Y-49337D01*
X96603Y-49382D01*
X96637Y-49416D01*
X96682Y-49434D01*
X96730Y-49434D01*
X97449Y-49434D01*
X97449Y-49476D01*
X97212Y-49476D01*
X97150Y-49538D01*
X97150Y-50070D01*
X97157Y-50070D01*
X97157Y-50170D01*
X97150Y-50170D01*
X97150Y-50701D01*
X97212Y-50763D01*
X97449Y-50763D01*
X97449Y-55545D01*
X97449Y-55545D01*
G37*
G54D28*
X97449Y-55545D02*
X97050Y-55545D01*
X97050Y-50701D01*
X97050Y-50170D01*
X97050Y-50070D01*
X97050Y-49538D01*
X96987Y-49476D01*
X96656Y-49476D01*
X96564Y-49514D01*
X96494Y-49584D01*
X96456Y-49676D01*
X96456Y-49775D01*
X96456Y-50007D01*
X96518Y-50070D01*
X97050Y-50070D01*
X97050Y-50170D01*
X96518Y-50170D01*
X96456Y-50232D01*
X96456Y-50464D01*
X96456Y-50563D01*
X96494Y-50655D01*
X96564Y-50725D01*
X96656Y-50763D01*
X96987Y-50763D01*
X97050Y-50701D01*
X97050Y-55545D01*
X96682Y-55545D01*
X96637Y-55563D01*
X96603Y-55597D01*
X96585Y-55642D01*
X96585Y-55690D01*
X96585Y-55903D01*
X95614Y-55903D01*
X95614Y-55642D01*
X95596Y-55597D01*
X95562Y-55563D01*
X95517Y-55545D01*
X95469Y-55545D01*
X95373Y-55545D01*
X95410Y-55530D01*
X95444Y-55496D01*
X95463Y-55451D01*
X95463Y-55403D01*
X95463Y-55108D01*
X95444Y-55063D01*
X95410Y-55029D01*
X95366Y-55011D01*
X95349Y-55011D01*
X95358Y-54987D01*
X95359Y-54892D01*
X95322Y-54804D01*
X95255Y-54737D01*
X95167Y-54701D01*
X95072Y-54700D01*
X94984Y-54737D01*
X94917Y-54804D01*
X94881Y-54892D01*
X94880Y-54987D01*
X94890Y-55011D01*
X94845Y-55011D01*
X94801Y-55029D01*
X94767Y-55063D01*
X94748Y-55108D01*
X94748Y-55156D01*
X94748Y-55451D01*
X94767Y-55496D01*
X94801Y-55530D01*
X94838Y-55545D01*
X94682Y-55545D01*
X94637Y-55563D01*
X94603Y-55597D01*
X94585Y-55642D01*
X94585Y-55690D01*
X94585Y-55889D01*
X94568Y-55889D01*
X94568Y-55785D01*
X94550Y-55741D01*
X94516Y-55707D01*
X94471Y-55688D01*
X94423Y-55688D01*
X94128Y-55688D01*
X94083Y-55707D01*
X94049Y-55741D01*
X94031Y-55785D01*
X94031Y-55833D01*
X94031Y-56306D01*
X94042Y-56332D01*
X94010Y-56345D01*
X93940Y-56416D01*
X93902Y-56508D01*
X93902Y-56681D01*
X93964Y-56744D01*
X94250Y-56744D01*
X94250Y-56736D01*
X94350Y-56736D01*
X94350Y-56744D01*
X94357Y-56744D01*
X94357Y-56844D01*
X94350Y-56844D01*
X94350Y-57217D01*
X94412Y-57280D01*
X94398Y-57280D01*
X94456Y-57280D01*
X94456Y-57310D01*
X94518Y-57310D01*
X94456Y-57372D01*
X94456Y-57604D01*
X94456Y-57623D01*
X94250Y-57623D01*
X94250Y-57217D01*
X94250Y-56844D01*
X93964Y-56844D01*
X93902Y-56906D01*
X93902Y-57079D01*
X93940Y-57171D01*
X94010Y-57242D01*
X94102Y-57280D01*
X94201Y-57280D01*
X94187Y-57280D01*
X94250Y-57217D01*
X94250Y-57623D01*
X90716Y-57623D01*
X90716Y-57236D01*
X90716Y-56512D01*
X90653Y-56450D01*
X90122Y-56450D01*
X90122Y-57473D01*
X90184Y-57535D01*
X90515Y-57535D01*
X90607Y-57497D01*
X90677Y-57427D01*
X90716Y-57335D01*
X90716Y-57236D01*
X90716Y-57623D01*
X87696Y-57623D01*
X87696Y-55600D01*
X87686Y-55550D01*
X87684Y-55540D01*
X87684Y-55540D01*
X87658Y-55501D01*
X88613Y-55501D01*
X88612Y-55538D01*
X88612Y-57309D01*
X88631Y-57354D01*
X88665Y-57388D01*
X88709Y-57406D01*
X88757Y-57406D01*
X89458Y-57406D01*
X89466Y-57427D01*
X89537Y-57497D01*
X89629Y-57535D01*
X89959Y-57535D01*
X90022Y-57473D01*
X90022Y-56450D01*
X90014Y-56450D01*
X90014Y-56350D01*
X90022Y-56350D01*
X90022Y-56342D01*
X90122Y-56342D01*
X90122Y-56350D01*
X90653Y-56350D01*
X90716Y-56287D01*
X90716Y-55563D01*
X90716Y-55464D01*
X90677Y-55372D01*
X90610Y-55304D01*
X92491Y-55304D01*
X92531Y-55304D01*
X92531Y-55304D01*
X92591Y-55292D01*
X92642Y-55258D01*
X92710Y-55190D01*
X92710Y-55190D01*
X92744Y-55139D01*
X92744Y-55139D01*
X92746Y-55129D01*
X92756Y-55080D01*
X92756Y-55080D01*
X92756Y-55040D01*
X92756Y-54387D01*
X93509Y-54387D01*
X93554Y-54368D01*
X93588Y-54334D01*
X93606Y-54290D01*
X93606Y-54242D01*
X93606Y-53541D01*
X93627Y-53533D01*
X93697Y-53463D01*
X93735Y-53371D01*
X93735Y-53271D01*
X93735Y-52583D01*
X93735Y-52483D01*
X93697Y-52392D01*
X93627Y-52321D01*
X93535Y-52283D01*
X92712Y-52283D01*
X92650Y-52346D01*
X92650Y-52877D01*
X93673Y-52877D01*
X93735Y-52815D01*
X93735Y-52583D01*
X93735Y-53271D01*
X93735Y-53040D01*
X93673Y-52977D01*
X92650Y-52977D01*
X92650Y-52985D01*
X92550Y-52985D01*
X92550Y-52977D01*
X92550Y-52877D01*
X92550Y-52346D01*
X92487Y-52283D01*
X91664Y-52283D01*
X91572Y-52321D01*
X91502Y-52392D01*
X91464Y-52483D01*
X91464Y-52583D01*
X91464Y-52815D01*
X91526Y-52877D01*
X92550Y-52877D01*
X92550Y-52977D01*
X91526Y-52977D01*
X91464Y-53040D01*
X91464Y-53271D01*
X91464Y-53371D01*
X91502Y-53463D01*
X91572Y-53533D01*
X91593Y-53541D01*
X91593Y-54290D01*
X91611Y-54334D01*
X91645Y-54368D01*
X91690Y-54386D01*
X91738Y-54387D01*
X92443Y-54387D01*
X92443Y-54992D01*
X83447Y-54992D01*
X83447Y-54836D01*
X83385Y-54774D01*
X83100Y-54774D01*
X83100Y-54781D01*
X83000Y-54781D01*
X83000Y-54774D01*
X82992Y-54774D01*
X82992Y-54674D01*
X83000Y-54674D01*
X83000Y-54666D01*
X83100Y-54666D01*
X83100Y-54674D01*
X83385Y-54674D01*
X83447Y-54611D01*
X83447Y-54517D01*
X86538Y-54517D01*
X86538Y-54517D01*
X86598Y-54505D01*
X86649Y-54471D01*
X86710Y-54410D01*
X86726Y-54387D01*
X87509Y-54387D01*
X87554Y-54368D01*
X87588Y-54334D01*
X87606Y-54290D01*
X87606Y-54242D01*
X87606Y-53541D01*
X87627Y-53533D01*
X87697Y-53463D01*
X87735Y-53371D01*
X87735Y-53271D01*
X87735Y-52583D01*
X87735Y-52483D01*
X87697Y-52392D01*
X87627Y-52321D01*
X87535Y-52283D01*
X86712Y-52283D01*
X86650Y-52346D01*
X86650Y-52877D01*
X87673Y-52877D01*
X87735Y-52815D01*
X87735Y-52583D01*
X87735Y-53271D01*
X87735Y-53040D01*
X87673Y-52977D01*
X86650Y-52977D01*
X86650Y-52985D01*
X86550Y-52985D01*
X86550Y-52977D01*
X86550Y-52877D01*
X86550Y-52346D01*
X86487Y-52283D01*
X85664Y-52283D01*
X85572Y-52321D01*
X85502Y-52392D01*
X85464Y-52483D01*
X85464Y-52583D01*
X85464Y-52815D01*
X85526Y-52877D01*
X86550Y-52877D01*
X86550Y-52977D01*
X85526Y-52977D01*
X85464Y-53040D01*
X85464Y-53271D01*
X85464Y-53371D01*
X85502Y-53463D01*
X85572Y-53533D01*
X85593Y-53541D01*
X85593Y-54204D01*
X83318Y-54204D01*
X83318Y-54188D01*
X83318Y-53715D01*
X83300Y-53671D01*
X83266Y-53637D01*
X83221Y-53618D01*
X83206Y-53618D01*
X83206Y-53056D01*
X83224Y-53038D01*
X84878Y-53038D01*
X84878Y-53038D01*
X84938Y-53026D01*
X84988Y-52992D01*
X85092Y-52888D01*
X85092Y-52888D01*
X85114Y-52854D01*
X85126Y-52838D01*
X85126Y-52838D01*
X85138Y-52778D01*
X85138Y-52778D01*
X85138Y-52176D01*
X95640Y-52176D01*
X95697Y-52176D01*
X95697Y-52180D01*
X95697Y-54764D01*
X95657Y-54804D01*
X95621Y-54892D01*
X95620Y-54987D01*
X95630Y-55011D01*
X95593Y-55011D01*
X95549Y-55029D01*
X95515Y-55063D01*
X95496Y-55108D01*
X95496Y-55156D01*
X95496Y-55451D01*
X95515Y-55496D01*
X95549Y-55530D01*
X95593Y-55548D01*
X95641Y-55548D01*
X96114Y-55548D01*
X96158Y-55530D01*
X96192Y-55496D01*
X96211Y-55451D01*
X96211Y-55403D01*
X96211Y-55108D01*
X96192Y-55063D01*
X96158Y-55029D01*
X96114Y-55011D01*
X96089Y-55011D01*
X96098Y-54987D01*
X96099Y-54892D01*
X96062Y-54804D01*
X96010Y-54752D01*
X96010Y-52180D01*
X96010Y-52174D01*
X96010Y-52054D01*
X95998Y-51994D01*
X95964Y-51943D01*
X95930Y-51909D01*
X95879Y-51875D01*
X95820Y-51863D01*
X95743Y-51863D01*
X95743Y-50464D01*
X95743Y-49775D01*
X95743Y-49676D01*
X95705Y-49584D01*
X95635Y-49514D01*
X95543Y-49476D01*
X95212Y-49476D01*
X95150Y-49538D01*
X95150Y-50070D01*
X95681Y-50070D01*
X95743Y-50007D01*
X95743Y-49775D01*
X95743Y-50464D01*
X95743Y-50232D01*
X95681Y-50170D01*
X95150Y-50170D01*
X95150Y-50701D01*
X95212Y-50763D01*
X95543Y-50763D01*
X95635Y-50725D01*
X95705Y-50655D01*
X95743Y-50563D01*
X95743Y-50464D01*
X95743Y-51863D01*
X95700Y-51863D01*
X95640Y-51863D01*
X95050Y-51863D01*
X95050Y-50701D01*
X95050Y-50170D01*
X95050Y-50070D01*
X95050Y-49538D01*
X94987Y-49476D01*
X94656Y-49476D01*
X94564Y-49514D01*
X94494Y-49584D01*
X94456Y-49676D01*
X94456Y-49775D01*
X94456Y-50007D01*
X94518Y-50070D01*
X95050Y-50070D01*
X95050Y-50170D01*
X94518Y-50170D01*
X94456Y-50232D01*
X94456Y-50464D01*
X94456Y-50563D01*
X94494Y-50655D01*
X94564Y-50725D01*
X94656Y-50763D01*
X94987Y-50763D01*
X95050Y-50701D01*
X95050Y-51863D01*
X90716Y-51863D01*
X90716Y-51236D01*
X90716Y-49563D01*
X90716Y-49464D01*
X90677Y-49372D01*
X90607Y-49302D01*
X90515Y-49264D01*
X90184Y-49264D01*
X90122Y-49326D01*
X90122Y-50350D01*
X90653Y-50350D01*
X90716Y-50287D01*
X90716Y-49563D01*
X90716Y-51236D01*
X90716Y-50512D01*
X90653Y-50450D01*
X90122Y-50450D01*
X90122Y-51473D01*
X90184Y-51535D01*
X90515Y-51535D01*
X90607Y-51497D01*
X90677Y-51427D01*
X90716Y-51335D01*
X90716Y-51236D01*
X90716Y-51863D01*
X85041Y-51863D01*
X84996Y-51872D01*
X84996Y-50556D01*
X88612Y-50556D01*
X88612Y-51309D01*
X88631Y-51354D01*
X88665Y-51388D01*
X88709Y-51406D01*
X88757Y-51406D01*
X89458Y-51406D01*
X89466Y-51427D01*
X89537Y-51497D01*
X89629Y-51535D01*
X89959Y-51535D01*
X90022Y-51473D01*
X90022Y-50450D01*
X90014Y-50450D01*
X90014Y-50350D01*
X90022Y-50350D01*
X90022Y-49326D01*
X89959Y-49264D01*
X89629Y-49264D01*
X89537Y-49302D01*
X89466Y-49372D01*
X89458Y-49393D01*
X88709Y-49393D01*
X88665Y-49411D01*
X88631Y-49445D01*
X88613Y-49490D01*
X88612Y-49538D01*
X88612Y-50243D01*
X84900Y-50243D01*
X84850Y-50253D01*
X84840Y-50255D01*
X84789Y-50289D01*
X84729Y-50349D01*
X84695Y-50400D01*
X84683Y-50460D01*
X84683Y-52583D01*
X82715Y-52583D01*
X82715Y-49491D01*
X82715Y-48941D01*
X82697Y-48896D01*
X82663Y-48862D01*
X82619Y-48844D01*
X82571Y-48844D01*
X82021Y-48844D01*
X81976Y-48862D01*
X81942Y-48896D01*
X81924Y-48940D01*
X81924Y-48988D01*
X81924Y-49538D01*
X81942Y-49583D01*
X81976Y-49617D01*
X82020Y-49635D01*
X82068Y-49635D01*
X82618Y-49635D01*
X82663Y-49617D01*
X82697Y-49583D01*
X82715Y-49539D01*
X82715Y-49491D01*
X82715Y-52583D01*
X81620Y-52583D01*
X81560Y-52595D01*
X81556Y-52598D01*
X81556Y-52043D01*
X81974Y-52043D01*
X82019Y-52024D01*
X82053Y-51990D01*
X82071Y-51946D01*
X82071Y-51898D01*
X82071Y-50953D01*
X82053Y-50909D01*
X82030Y-50886D01*
X82030Y-50518D01*
X82134Y-50518D01*
X82178Y-50500D01*
X82212Y-50466D01*
X82231Y-50421D01*
X82231Y-50373D01*
X82231Y-50078D01*
X82212Y-50033D01*
X82178Y-49999D01*
X82134Y-49981D01*
X82086Y-49981D01*
X81715Y-49981D01*
X81715Y-49161D01*
X81655Y-49016D01*
X81544Y-48904D01*
X81399Y-48844D01*
X81241Y-48844D01*
X81096Y-48904D01*
X80984Y-49015D01*
X80924Y-49160D01*
X80924Y-49318D01*
X80984Y-49463D01*
X81095Y-49575D01*
X81240Y-49635D01*
X81398Y-49635D01*
X81543Y-49575D01*
X81655Y-49464D01*
X81715Y-49319D01*
X81715Y-49161D01*
X81715Y-49981D01*
X81613Y-49981D01*
X81587Y-49992D01*
X81574Y-49960D01*
X81503Y-49890D01*
X81411Y-49852D01*
X81238Y-49852D01*
X81175Y-49914D01*
X81175Y-50200D01*
X81183Y-50200D01*
X81183Y-50300D01*
X81175Y-50300D01*
X81175Y-50585D01*
X81238Y-50647D01*
X81411Y-50647D01*
X81503Y-50609D01*
X81574Y-50539D01*
X81587Y-50507D01*
X81613Y-50518D01*
X81661Y-50518D01*
X81717Y-50518D01*
X81717Y-50856D01*
X81139Y-50856D01*
X81095Y-50875D01*
X81075Y-50894D01*
X81075Y-50585D01*
X81075Y-50300D01*
X81075Y-50200D01*
X81075Y-49914D01*
X81013Y-49852D01*
X80849Y-49852D01*
X80849Y-49315D01*
X80838Y-49107D01*
X80780Y-48967D01*
X80687Y-48942D01*
X80390Y-49240D01*
X80687Y-49537D01*
X80780Y-49512D01*
X80849Y-49315D01*
X80849Y-49852D01*
X80840Y-49852D01*
X80750Y-49889D01*
X80659Y-49852D01*
X80617Y-49852D01*
X80617Y-49607D01*
X80320Y-49310D01*
X80249Y-49381D01*
X80249Y-49240D01*
X79952Y-48942D01*
X79859Y-48967D01*
X79790Y-49164D01*
X79801Y-49372D01*
X79859Y-49512D01*
X79952Y-49537D01*
X80249Y-49240D01*
X80249Y-49381D01*
X80022Y-49607D01*
X80047Y-49700D01*
X80244Y-49769D01*
X80452Y-49758D01*
X80592Y-49700D01*
X80617Y-49607D01*
X80617Y-49852D01*
X80486Y-49852D01*
X80424Y-49914D01*
X80424Y-50200D01*
X80702Y-50200D01*
X80797Y-50200D01*
X81075Y-50200D01*
X81075Y-50300D01*
X80797Y-50300D01*
X80702Y-50300D01*
X80424Y-50300D01*
X80424Y-50585D01*
X80486Y-50647D01*
X80659Y-50647D01*
X80750Y-50610D01*
X80840Y-50647D01*
X81013Y-50647D01*
X81075Y-50585D01*
X81075Y-50894D01*
X81060Y-50909D01*
X81042Y-50953D01*
X81042Y-51001D01*
X81042Y-51946D01*
X81060Y-51990D01*
X81094Y-52024D01*
X81139Y-52043D01*
X81187Y-52043D01*
X81243Y-52043D01*
X81243Y-52683D01*
X81100Y-52683D01*
X81040Y-52695D01*
X81031Y-52701D01*
X81031Y-52478D01*
X81012Y-52433D01*
X80978Y-52399D01*
X80934Y-52381D01*
X80886Y-52381D01*
X80830Y-52381D01*
X80830Y-52314D01*
X80818Y-52254D01*
X80784Y-52203D01*
X80730Y-52149D01*
X80719Y-52141D01*
X80719Y-51412D01*
X80682Y-51324D01*
X80615Y-51257D01*
X80527Y-51221D01*
X80457Y-51221D01*
X80457Y-50953D01*
X80439Y-50909D01*
X80405Y-50875D01*
X80360Y-50856D01*
X80312Y-50856D01*
X79782Y-50856D01*
X79782Y-50518D01*
X79886Y-50518D01*
X79912Y-50507D01*
X79925Y-50539D01*
X79996Y-50609D01*
X80088Y-50647D01*
X80261Y-50647D01*
X80324Y-50585D01*
X80324Y-50300D01*
X80316Y-50300D01*
X80316Y-50200D01*
X80324Y-50200D01*
X80324Y-49914D01*
X80261Y-49852D01*
X80088Y-49852D01*
X79996Y-49890D01*
X79925Y-49960D01*
X79912Y-49992D01*
X79886Y-49981D01*
X79838Y-49981D01*
X79365Y-49981D01*
X79321Y-49999D01*
X79287Y-50033D01*
X79268Y-50078D01*
X79268Y-50126D01*
X79268Y-50421D01*
X79287Y-50466D01*
X79321Y-50500D01*
X79365Y-50518D01*
X79413Y-50518D01*
X79469Y-50518D01*
X79469Y-50886D01*
X79446Y-50909D01*
X79428Y-50953D01*
X79428Y-51001D01*
X79428Y-51946D01*
X79446Y-51990D01*
X79480Y-52024D01*
X79525Y-52043D01*
X79573Y-52043D01*
X80360Y-52043D01*
X80404Y-52024D01*
X80439Y-51990D01*
X80457Y-51946D01*
X80457Y-51898D01*
X80457Y-51698D01*
X80527Y-51699D01*
X80615Y-51662D01*
X80682Y-51595D01*
X80718Y-51507D01*
X80719Y-51412D01*
X80719Y-52141D01*
X80679Y-52115D01*
X80620Y-52103D01*
X79521Y-52103D01*
X79475Y-52057D01*
X79387Y-52021D01*
X79292Y-52020D01*
X79204Y-52057D01*
X79198Y-52064D01*
X79198Y-49617D01*
X79240Y-49635D01*
X79398Y-49635D01*
X79543Y-49575D01*
X79655Y-49464D01*
X79715Y-49319D01*
X79715Y-49161D01*
X79655Y-49016D01*
X79544Y-48904D01*
X79399Y-48844D01*
X79241Y-48844D01*
X79096Y-48904D01*
X79056Y-48943D01*
X79056Y-48756D01*
X80103Y-48756D01*
X80047Y-48779D01*
X80022Y-48872D01*
X80320Y-49169D01*
X80617Y-48872D01*
X80592Y-48779D01*
X80527Y-48756D01*
X94585Y-48756D01*
X94585Y-49337D01*
X94603Y-49382D01*
X94637Y-49416D01*
X94682Y-49434D01*
X94730Y-49434D01*
X95517Y-49434D01*
X95562Y-49416D01*
X95596Y-49382D01*
X95614Y-49337D01*
X95614Y-49289D01*
X95614Y-49076D01*
X96585Y-49076D01*
X96585Y-49337D01*
X96603Y-49382D01*
X96637Y-49416D01*
X96682Y-49434D01*
X96730Y-49434D01*
X97449Y-49434D01*
X97449Y-49476D01*
X97212Y-49476D01*
X97150Y-49538D01*
X97150Y-50070D01*
X97157Y-50070D01*
X97157Y-50170D01*
X97150Y-50170D01*
X97150Y-50701D01*
X97212Y-50763D01*
X97449Y-50763D01*
X97449Y-55545D01*
G54D10*
G36*
X97449Y-57985D02*
X97050Y-57985D01*
X97050Y-57841D01*
X97050Y-57310D01*
X97050Y-57210D01*
X97050Y-56678D01*
X96987Y-56616D01*
X96656Y-56616D01*
X96564Y-56654D01*
X96494Y-56724D01*
X96456Y-56816D01*
X96456Y-56915D01*
X96456Y-57147D01*
X96518Y-57210D01*
X97050Y-57210D01*
X97050Y-57310D01*
X96518Y-57310D01*
X96456Y-57372D01*
X96456Y-57604D01*
X96456Y-57703D01*
X96494Y-57795D01*
X96564Y-57865D01*
X96656Y-57903D01*
X96987Y-57903D01*
X97050Y-57841D01*
X97050Y-57985D01*
X96682Y-57985D01*
X96637Y-58003D01*
X96603Y-58037D01*
X96585Y-58082D01*
X96585Y-58130D01*
X96585Y-58343D01*
X95614Y-58343D01*
X95614Y-58082D01*
X95596Y-58037D01*
X95562Y-58003D01*
X95517Y-57985D01*
X95469Y-57985D01*
X95256Y-57985D01*
X95256Y-57903D01*
X95543Y-57903D01*
X95635Y-57865D01*
X95705Y-57795D01*
X95743Y-57703D01*
X95743Y-57604D01*
X95743Y-56915D01*
X95743Y-56816D01*
X95705Y-56724D01*
X95635Y-56654D01*
X95543Y-56616D01*
X95212Y-56616D01*
X95150Y-56678D01*
X95150Y-57210D01*
X95681Y-57210D01*
X95743Y-57147D01*
X95743Y-56915D01*
X95743Y-57604D01*
X95743Y-57372D01*
X95681Y-57310D01*
X95150Y-57310D01*
X95150Y-57317D01*
X95050Y-57317D01*
X95050Y-57310D01*
X95042Y-57310D01*
X95042Y-57210D01*
X95050Y-57210D01*
X95050Y-56678D01*
X94987Y-56616D01*
X94697Y-56616D01*
X94697Y-56574D01*
X94730Y-56574D01*
X95517Y-56574D01*
X95562Y-56556D01*
X95596Y-56522D01*
X95614Y-56477D01*
X95614Y-56429D01*
X95614Y-56216D01*
X96585Y-56216D01*
X96585Y-56477D01*
X96603Y-56522D01*
X96637Y-56556D01*
X96682Y-56574D01*
X96730Y-56574D01*
X97449Y-56574D01*
X97449Y-56616D01*
X97212Y-56616D01*
X97150Y-56678D01*
X97150Y-57210D01*
X97157Y-57210D01*
X97157Y-57310D01*
X97150Y-57310D01*
X97150Y-57841D01*
X97212Y-57903D01*
X97449Y-57903D01*
X97449Y-57985D01*
X97449Y-57985D01*
G37*
G54D28*
X97449Y-57985D02*
X97050Y-57985D01*
X97050Y-57841D01*
X97050Y-57310D01*
X97050Y-57210D01*
X97050Y-56678D01*
X96987Y-56616D01*
X96656Y-56616D01*
X96564Y-56654D01*
X96494Y-56724D01*
X96456Y-56816D01*
X96456Y-56915D01*
X96456Y-57147D01*
X96518Y-57210D01*
X97050Y-57210D01*
X97050Y-57310D01*
X96518Y-57310D01*
X96456Y-57372D01*
X96456Y-57604D01*
X96456Y-57703D01*
X96494Y-57795D01*
X96564Y-57865D01*
X96656Y-57903D01*
X96987Y-57903D01*
X97050Y-57841D01*
X97050Y-57985D01*
X96682Y-57985D01*
X96637Y-58003D01*
X96603Y-58037D01*
X96585Y-58082D01*
X96585Y-58130D01*
X96585Y-58343D01*
X95614Y-58343D01*
X95614Y-58082D01*
X95596Y-58037D01*
X95562Y-58003D01*
X95517Y-57985D01*
X95469Y-57985D01*
X95256Y-57985D01*
X95256Y-57903D01*
X95543Y-57903D01*
X95635Y-57865D01*
X95705Y-57795D01*
X95743Y-57703D01*
X95743Y-57604D01*
X95743Y-56915D01*
X95743Y-56816D01*
X95705Y-56724D01*
X95635Y-56654D01*
X95543Y-56616D01*
X95212Y-56616D01*
X95150Y-56678D01*
X95150Y-57210D01*
X95681Y-57210D01*
X95743Y-57147D01*
X95743Y-56915D01*
X95743Y-57604D01*
X95743Y-57372D01*
X95681Y-57310D01*
X95150Y-57310D01*
X95150Y-57317D01*
X95050Y-57317D01*
X95050Y-57310D01*
X95042Y-57310D01*
X95042Y-57210D01*
X95050Y-57210D01*
X95050Y-56678D01*
X94987Y-56616D01*
X94697Y-56616D01*
X94697Y-56574D01*
X94730Y-56574D01*
X95517Y-56574D01*
X95562Y-56556D01*
X95596Y-56522D01*
X95614Y-56477D01*
X95614Y-56429D01*
X95614Y-56216D01*
X96585Y-56216D01*
X96585Y-56477D01*
X96603Y-56522D01*
X96637Y-56556D01*
X96682Y-56574D01*
X96730Y-56574D01*
X97449Y-56574D01*
X97449Y-56616D01*
X97212Y-56616D01*
X97150Y-56678D01*
X97150Y-57210D01*
X97157Y-57210D01*
X97157Y-57310D01*
X97150Y-57310D01*
X97150Y-57841D01*
X97212Y-57903D01*
X97449Y-57903D01*
X97449Y-57985D01*
G54D10*
G36*
X97449Y-59056D02*
X97212Y-59056D01*
X97150Y-59118D01*
X97150Y-59650D01*
X97157Y-59650D01*
X97157Y-59750D01*
X97150Y-59750D01*
X97150Y-59757D01*
X97050Y-59757D01*
X97050Y-59750D01*
X97050Y-59650D01*
X97050Y-59118D01*
X96987Y-59056D01*
X96656Y-59056D01*
X96564Y-59094D01*
X96494Y-59164D01*
X96456Y-59256D01*
X96456Y-59355D01*
X96456Y-59587D01*
X96518Y-59650D01*
X97050Y-59650D01*
X97050Y-59750D01*
X96518Y-59750D01*
X96456Y-59812D01*
X96456Y-60044D01*
X96456Y-60049D01*
X95743Y-60049D01*
X95743Y-60044D01*
X95743Y-59355D01*
X95743Y-59256D01*
X95705Y-59164D01*
X95635Y-59094D01*
X95543Y-59056D01*
X95212Y-59056D01*
X95150Y-59118D01*
X95150Y-59650D01*
X95681Y-59650D01*
X95743Y-59587D01*
X95743Y-59355D01*
X95743Y-60044D01*
X95743Y-59812D01*
X95681Y-59750D01*
X95150Y-59750D01*
X95150Y-59757D01*
X95050Y-59757D01*
X95050Y-59750D01*
X95050Y-59650D01*
X95050Y-59118D01*
X94987Y-59056D01*
X94656Y-59056D01*
X94600Y-59079D01*
X94543Y-59056D01*
X94212Y-59056D01*
X94150Y-59118D01*
X94150Y-59650D01*
X94518Y-59650D01*
X94681Y-59650D01*
X95050Y-59650D01*
X95050Y-59750D01*
X94681Y-59750D01*
X94518Y-59750D01*
X94150Y-59750D01*
X94150Y-59757D01*
X94050Y-59757D01*
X94050Y-59750D01*
X94050Y-59650D01*
X94050Y-59118D01*
X93987Y-59056D01*
X93656Y-59056D01*
X93564Y-59094D01*
X93494Y-59164D01*
X93456Y-59256D01*
X93456Y-59355D01*
X93456Y-59587D01*
X93518Y-59650D01*
X94050Y-59650D01*
X94050Y-59750D01*
X93518Y-59750D01*
X93456Y-59812D01*
X93456Y-60044D01*
X93456Y-60049D01*
X92743Y-60049D01*
X92743Y-60044D01*
X92743Y-59355D01*
X92743Y-59256D01*
X92705Y-59164D01*
X92635Y-59094D01*
X92543Y-59056D01*
X92212Y-59056D01*
X92150Y-59118D01*
X92150Y-59650D01*
X92681Y-59650D01*
X92743Y-59587D01*
X92743Y-59355D01*
X92743Y-60044D01*
X92743Y-59812D01*
X92681Y-59750D01*
X92150Y-59750D01*
X92150Y-59757D01*
X92050Y-59757D01*
X92050Y-59750D01*
X92050Y-59650D01*
X92050Y-59118D01*
X91987Y-59056D01*
X91656Y-59056D01*
X91564Y-59094D01*
X91494Y-59164D01*
X91456Y-59256D01*
X91456Y-59355D01*
X91456Y-59587D01*
X91518Y-59650D01*
X92050Y-59650D01*
X92050Y-59750D01*
X91518Y-59750D01*
X91456Y-59812D01*
X91456Y-60044D01*
X91456Y-60049D01*
X85743Y-60049D01*
X85743Y-60044D01*
X85743Y-59355D01*
X85743Y-59256D01*
X85705Y-59164D01*
X85635Y-59094D01*
X85543Y-59056D01*
X85212Y-59056D01*
X85150Y-59118D01*
X85150Y-59650D01*
X85681Y-59650D01*
X85743Y-59587D01*
X85743Y-59355D01*
X85743Y-60044D01*
X85743Y-59812D01*
X85681Y-59750D01*
X85150Y-59750D01*
X85150Y-59757D01*
X85050Y-59757D01*
X85050Y-59750D01*
X85050Y-59650D01*
X85050Y-59118D01*
X84987Y-59056D01*
X84656Y-59056D01*
X84564Y-59094D01*
X84494Y-59164D01*
X84456Y-59256D01*
X84456Y-59355D01*
X84456Y-59587D01*
X84518Y-59650D01*
X85050Y-59650D01*
X85050Y-59750D01*
X84518Y-59750D01*
X84456Y-59812D01*
X84456Y-60044D01*
X84456Y-60049D01*
X83743Y-60049D01*
X83743Y-60044D01*
X83743Y-59355D01*
X83743Y-59256D01*
X83705Y-59164D01*
X83635Y-59094D01*
X83543Y-59056D01*
X83212Y-59056D01*
X83150Y-59118D01*
X83150Y-59650D01*
X83681Y-59650D01*
X83743Y-59587D01*
X83743Y-59355D01*
X83743Y-60044D01*
X83743Y-59812D01*
X83681Y-59750D01*
X83150Y-59750D01*
X83150Y-59757D01*
X83050Y-59757D01*
X83050Y-59750D01*
X83042Y-59750D01*
X83042Y-59650D01*
X83050Y-59650D01*
X83050Y-59118D01*
X82987Y-59056D01*
X82656Y-59056D01*
X82570Y-59092D01*
X82558Y-59064D01*
X82488Y-58994D01*
X82396Y-58956D01*
X82297Y-58956D01*
X82262Y-58956D01*
X82200Y-59018D01*
X82200Y-59550D01*
X82207Y-59550D01*
X82207Y-59650D01*
X82200Y-59650D01*
X82200Y-59657D01*
X82100Y-59657D01*
X82100Y-59650D01*
X82100Y-59550D01*
X82100Y-59018D01*
X82037Y-58956D01*
X82002Y-58956D01*
X81903Y-58956D01*
X81825Y-58988D01*
X81746Y-58956D01*
X81647Y-58956D01*
X81612Y-58956D01*
X81550Y-59018D01*
X81550Y-59550D01*
X81765Y-59550D01*
X81884Y-59550D01*
X82100Y-59550D01*
X82100Y-59650D01*
X81884Y-59650D01*
X81765Y-59650D01*
X81550Y-59650D01*
X81550Y-59657D01*
X81450Y-59657D01*
X81450Y-59650D01*
X81442Y-59650D01*
X81442Y-59550D01*
X81450Y-59550D01*
X81450Y-59018D01*
X81387Y-58956D01*
X81352Y-58956D01*
X81342Y-58956D01*
X81348Y-58927D01*
X81348Y-58927D01*
X81348Y-58887D01*
X81348Y-58873D01*
X81375Y-58862D01*
X81442Y-58795D01*
X81478Y-58707D01*
X81479Y-58612D01*
X81442Y-58524D01*
X81375Y-58457D01*
X81348Y-58446D01*
X81348Y-57745D01*
X81377Y-57815D01*
X81444Y-57882D01*
X81532Y-57918D01*
X81627Y-57919D01*
X81715Y-57882D01*
X81782Y-57815D01*
X81818Y-57727D01*
X81818Y-57688D01*
X81866Y-57688D01*
X81892Y-57677D01*
X81905Y-57709D01*
X81976Y-57779D01*
X82068Y-57817D01*
X82241Y-57817D01*
X82304Y-57755D01*
X82304Y-57470D01*
X82296Y-57470D01*
X82296Y-57370D01*
X82304Y-57370D01*
X82304Y-57084D01*
X82241Y-57022D01*
X82170Y-57022D01*
X82170Y-56904D01*
X82107Y-56842D01*
X81871Y-56842D01*
X81871Y-56850D01*
X81772Y-56850D01*
X81772Y-56842D01*
X81764Y-56842D01*
X81764Y-56742D01*
X81772Y-56742D01*
X81772Y-56734D01*
X81871Y-56734D01*
X81871Y-56742D01*
X82107Y-56742D01*
X82170Y-56679D01*
X82170Y-56546D01*
X82170Y-56446D01*
X82147Y-56391D01*
X82170Y-56391D01*
X82761Y-56391D01*
X82805Y-56372D01*
X82839Y-56339D01*
X82858Y-56294D01*
X82858Y-56246D01*
X82858Y-56092D01*
X84943Y-56092D01*
X84943Y-57985D01*
X84682Y-57985D01*
X84637Y-58003D01*
X84603Y-58037D01*
X84585Y-58082D01*
X84585Y-58130D01*
X84585Y-58343D01*
X83614Y-58343D01*
X83614Y-58082D01*
X83596Y-58037D01*
X83562Y-58003D01*
X83517Y-57985D01*
X83469Y-57985D01*
X82840Y-57985D01*
X82840Y-57518D01*
X82840Y-57321D01*
X82840Y-57222D01*
X82802Y-57130D01*
X82731Y-57060D01*
X82639Y-57022D01*
X82466Y-57022D01*
X82404Y-57084D01*
X82404Y-57370D01*
X82777Y-57370D01*
X82840Y-57307D01*
X82840Y-57321D01*
X82840Y-57518D01*
X82840Y-57532D01*
X82777Y-57470D01*
X82404Y-57470D01*
X82404Y-57755D01*
X82466Y-57817D01*
X82639Y-57817D01*
X82731Y-57779D01*
X82802Y-57709D01*
X82840Y-57617D01*
X82840Y-57518D01*
X82840Y-57985D01*
X82682Y-57985D01*
X82637Y-58003D01*
X82603Y-58037D01*
X82585Y-58082D01*
X82585Y-58130D01*
X82585Y-58917D01*
X82603Y-58962D01*
X82637Y-58996D01*
X82682Y-59014D01*
X82730Y-59014D01*
X83517Y-59014D01*
X83562Y-58996D01*
X83596Y-58962D01*
X83614Y-58917D01*
X83614Y-58869D01*
X83614Y-58656D01*
X84585Y-58656D01*
X84585Y-58917D01*
X84603Y-58962D01*
X84637Y-58996D01*
X84682Y-59014D01*
X84730Y-59014D01*
X85517Y-59014D01*
X85562Y-58996D01*
X85596Y-58962D01*
X85614Y-58917D01*
X85614Y-58869D01*
X85614Y-58082D01*
X85596Y-58037D01*
X85562Y-58003D01*
X85517Y-57985D01*
X85469Y-57985D01*
X85256Y-57985D01*
X85256Y-56000D01*
X85256Y-55999D01*
X85244Y-55940D01*
X85244Y-55940D01*
X85233Y-55923D01*
X85214Y-55895D01*
X87241Y-55895D01*
X87241Y-57838D01*
X87253Y-57898D01*
X87287Y-57948D01*
X87371Y-58032D01*
X87371Y-58032D01*
X87405Y-58054D01*
X87421Y-58066D01*
X87421Y-58066D01*
X87481Y-58078D01*
X87481Y-58078D01*
X91587Y-58078D01*
X91585Y-58082D01*
X91585Y-58130D01*
X91585Y-58917D01*
X91603Y-58962D01*
X91637Y-58996D01*
X91682Y-59014D01*
X91730Y-59014D01*
X92517Y-59014D01*
X92562Y-58996D01*
X92596Y-58962D01*
X92614Y-58917D01*
X92614Y-58869D01*
X92614Y-58656D01*
X93585Y-58656D01*
X93585Y-58917D01*
X93603Y-58962D01*
X93637Y-58996D01*
X93682Y-59014D01*
X93730Y-59014D01*
X94517Y-59014D01*
X94562Y-58996D01*
X94596Y-58962D01*
X94599Y-58952D01*
X94603Y-58962D01*
X94637Y-58996D01*
X94682Y-59014D01*
X94730Y-59014D01*
X95517Y-59014D01*
X95562Y-58996D01*
X95596Y-58962D01*
X95614Y-58917D01*
X95614Y-58869D01*
X95614Y-58656D01*
X96585Y-58656D01*
X96585Y-58917D01*
X96603Y-58962D01*
X96637Y-58996D01*
X96682Y-59014D01*
X96730Y-59014D01*
X97449Y-59014D01*
X97449Y-59056D01*
X97449Y-59056D01*
G37*
G54D28*
X97449Y-59056D02*
X97212Y-59056D01*
X97150Y-59118D01*
X97150Y-59650D01*
X97157Y-59650D01*
X97157Y-59750D01*
X97150Y-59750D01*
X97150Y-59757D01*
X97050Y-59757D01*
X97050Y-59750D01*
X97050Y-59650D01*
X97050Y-59118D01*
X96987Y-59056D01*
X96656Y-59056D01*
X96564Y-59094D01*
X96494Y-59164D01*
X96456Y-59256D01*
X96456Y-59355D01*
X96456Y-59587D01*
X96518Y-59650D01*
X97050Y-59650D01*
X97050Y-59750D01*
X96518Y-59750D01*
X96456Y-59812D01*
X96456Y-60044D01*
X96456Y-60049D01*
X95743Y-60049D01*
X95743Y-60044D01*
X95743Y-59355D01*
X95743Y-59256D01*
X95705Y-59164D01*
X95635Y-59094D01*
X95543Y-59056D01*
X95212Y-59056D01*
X95150Y-59118D01*
X95150Y-59650D01*
X95681Y-59650D01*
X95743Y-59587D01*
X95743Y-59355D01*
X95743Y-60044D01*
X95743Y-59812D01*
X95681Y-59750D01*
X95150Y-59750D01*
X95150Y-59757D01*
X95050Y-59757D01*
X95050Y-59750D01*
X95050Y-59650D01*
X95050Y-59118D01*
X94987Y-59056D01*
X94656Y-59056D01*
X94600Y-59079D01*
X94543Y-59056D01*
X94212Y-59056D01*
X94150Y-59118D01*
X94150Y-59650D01*
X94518Y-59650D01*
X94681Y-59650D01*
X95050Y-59650D01*
X95050Y-59750D01*
X94681Y-59750D01*
X94518Y-59750D01*
X94150Y-59750D01*
X94150Y-59757D01*
X94050Y-59757D01*
X94050Y-59750D01*
X94050Y-59650D01*
X94050Y-59118D01*
X93987Y-59056D01*
X93656Y-59056D01*
X93564Y-59094D01*
X93494Y-59164D01*
X93456Y-59256D01*
X93456Y-59355D01*
X93456Y-59587D01*
X93518Y-59650D01*
X94050Y-59650D01*
X94050Y-59750D01*
X93518Y-59750D01*
X93456Y-59812D01*
X93456Y-60044D01*
X93456Y-60049D01*
X92743Y-60049D01*
X92743Y-60044D01*
X92743Y-59355D01*
X92743Y-59256D01*
X92705Y-59164D01*
X92635Y-59094D01*
X92543Y-59056D01*
X92212Y-59056D01*
X92150Y-59118D01*
X92150Y-59650D01*
X92681Y-59650D01*
X92743Y-59587D01*
X92743Y-59355D01*
X92743Y-60044D01*
X92743Y-59812D01*
X92681Y-59750D01*
X92150Y-59750D01*
X92150Y-59757D01*
X92050Y-59757D01*
X92050Y-59750D01*
X92050Y-59650D01*
X92050Y-59118D01*
X91987Y-59056D01*
X91656Y-59056D01*
X91564Y-59094D01*
X91494Y-59164D01*
X91456Y-59256D01*
X91456Y-59355D01*
X91456Y-59587D01*
X91518Y-59650D01*
X92050Y-59650D01*
X92050Y-59750D01*
X91518Y-59750D01*
X91456Y-59812D01*
X91456Y-60044D01*
X91456Y-60049D01*
X85743Y-60049D01*
X85743Y-60044D01*
X85743Y-59355D01*
X85743Y-59256D01*
X85705Y-59164D01*
X85635Y-59094D01*
X85543Y-59056D01*
X85212Y-59056D01*
X85150Y-59118D01*
X85150Y-59650D01*
X85681Y-59650D01*
X85743Y-59587D01*
X85743Y-59355D01*
X85743Y-60044D01*
X85743Y-59812D01*
X85681Y-59750D01*
X85150Y-59750D01*
X85150Y-59757D01*
X85050Y-59757D01*
X85050Y-59750D01*
X85050Y-59650D01*
X85050Y-59118D01*
X84987Y-59056D01*
X84656Y-59056D01*
X84564Y-59094D01*
X84494Y-59164D01*
X84456Y-59256D01*
X84456Y-59355D01*
X84456Y-59587D01*
X84518Y-59650D01*
X85050Y-59650D01*
X85050Y-59750D01*
X84518Y-59750D01*
X84456Y-59812D01*
X84456Y-60044D01*
X84456Y-60049D01*
X83743Y-60049D01*
X83743Y-60044D01*
X83743Y-59355D01*
X83743Y-59256D01*
X83705Y-59164D01*
X83635Y-59094D01*
X83543Y-59056D01*
X83212Y-59056D01*
X83150Y-59118D01*
X83150Y-59650D01*
X83681Y-59650D01*
X83743Y-59587D01*
X83743Y-59355D01*
X83743Y-60044D01*
X83743Y-59812D01*
X83681Y-59750D01*
X83150Y-59750D01*
X83150Y-59757D01*
X83050Y-59757D01*
X83050Y-59750D01*
X83042Y-59750D01*
X83042Y-59650D01*
X83050Y-59650D01*
X83050Y-59118D01*
X82987Y-59056D01*
X82656Y-59056D01*
X82570Y-59092D01*
X82558Y-59064D01*
X82488Y-58994D01*
X82396Y-58956D01*
X82297Y-58956D01*
X82262Y-58956D01*
X82200Y-59018D01*
X82200Y-59550D01*
X82207Y-59550D01*
X82207Y-59650D01*
X82200Y-59650D01*
X82200Y-59657D01*
X82100Y-59657D01*
X82100Y-59650D01*
X82100Y-59550D01*
X82100Y-59018D01*
X82037Y-58956D01*
X82002Y-58956D01*
X81903Y-58956D01*
X81825Y-58988D01*
X81746Y-58956D01*
X81647Y-58956D01*
X81612Y-58956D01*
X81550Y-59018D01*
X81550Y-59550D01*
X81765Y-59550D01*
X81884Y-59550D01*
X82100Y-59550D01*
X82100Y-59650D01*
X81884Y-59650D01*
X81765Y-59650D01*
X81550Y-59650D01*
X81550Y-59657D01*
X81450Y-59657D01*
X81450Y-59650D01*
X81442Y-59650D01*
X81442Y-59550D01*
X81450Y-59550D01*
X81450Y-59018D01*
X81387Y-58956D01*
X81352Y-58956D01*
X81342Y-58956D01*
X81348Y-58927D01*
X81348Y-58927D01*
X81348Y-58887D01*
X81348Y-58873D01*
X81375Y-58862D01*
X81442Y-58795D01*
X81478Y-58707D01*
X81479Y-58612D01*
X81442Y-58524D01*
X81375Y-58457D01*
X81348Y-58446D01*
X81348Y-57745D01*
X81377Y-57815D01*
X81444Y-57882D01*
X81532Y-57918D01*
X81627Y-57919D01*
X81715Y-57882D01*
X81782Y-57815D01*
X81818Y-57727D01*
X81818Y-57688D01*
X81866Y-57688D01*
X81892Y-57677D01*
X81905Y-57709D01*
X81976Y-57779D01*
X82068Y-57817D01*
X82241Y-57817D01*
X82304Y-57755D01*
X82304Y-57470D01*
X82296Y-57470D01*
X82296Y-57370D01*
X82304Y-57370D01*
X82304Y-57084D01*
X82241Y-57022D01*
X82170Y-57022D01*
X82170Y-56904D01*
X82107Y-56842D01*
X81871Y-56842D01*
X81871Y-56850D01*
X81772Y-56850D01*
X81772Y-56842D01*
X81764Y-56842D01*
X81764Y-56742D01*
X81772Y-56742D01*
X81772Y-56734D01*
X81871Y-56734D01*
X81871Y-56742D01*
X82107Y-56742D01*
X82170Y-56679D01*
X82170Y-56546D01*
X82170Y-56446D01*
X82147Y-56391D01*
X82170Y-56391D01*
X82761Y-56391D01*
X82805Y-56372D01*
X82839Y-56339D01*
X82858Y-56294D01*
X82858Y-56246D01*
X82858Y-56092D01*
X84943Y-56092D01*
X84943Y-57985D01*
X84682Y-57985D01*
X84637Y-58003D01*
X84603Y-58037D01*
X84585Y-58082D01*
X84585Y-58130D01*
X84585Y-58343D01*
X83614Y-58343D01*
X83614Y-58082D01*
X83596Y-58037D01*
X83562Y-58003D01*
X83517Y-57985D01*
X83469Y-57985D01*
X82840Y-57985D01*
X82840Y-57518D01*
X82840Y-57321D01*
X82840Y-57222D01*
X82802Y-57130D01*
X82731Y-57060D01*
X82639Y-57022D01*
X82466Y-57022D01*
X82404Y-57084D01*
X82404Y-57370D01*
X82777Y-57370D01*
X82840Y-57307D01*
X82840Y-57321D01*
X82840Y-57518D01*
X82840Y-57532D01*
X82777Y-57470D01*
X82404Y-57470D01*
X82404Y-57755D01*
X82466Y-57817D01*
X82639Y-57817D01*
X82731Y-57779D01*
X82802Y-57709D01*
X82840Y-57617D01*
X82840Y-57518D01*
X82840Y-57985D01*
X82682Y-57985D01*
X82637Y-58003D01*
X82603Y-58037D01*
X82585Y-58082D01*
X82585Y-58130D01*
X82585Y-58917D01*
X82603Y-58962D01*
X82637Y-58996D01*
X82682Y-59014D01*
X82730Y-59014D01*
X83517Y-59014D01*
X83562Y-58996D01*
X83596Y-58962D01*
X83614Y-58917D01*
X83614Y-58869D01*
X83614Y-58656D01*
X84585Y-58656D01*
X84585Y-58917D01*
X84603Y-58962D01*
X84637Y-58996D01*
X84682Y-59014D01*
X84730Y-59014D01*
X85517Y-59014D01*
X85562Y-58996D01*
X85596Y-58962D01*
X85614Y-58917D01*
X85614Y-58869D01*
X85614Y-58082D01*
X85596Y-58037D01*
X85562Y-58003D01*
X85517Y-57985D01*
X85469Y-57985D01*
X85256Y-57985D01*
X85256Y-56000D01*
X85256Y-55999D01*
X85244Y-55940D01*
X85244Y-55940D01*
X85233Y-55923D01*
X85214Y-55895D01*
X87241Y-55895D01*
X87241Y-57838D01*
X87253Y-57898D01*
X87287Y-57948D01*
X87371Y-58032D01*
X87371Y-58032D01*
X87405Y-58054D01*
X87421Y-58066D01*
X87421Y-58066D01*
X87481Y-58078D01*
X87481Y-58078D01*
X91587Y-58078D01*
X91585Y-58082D01*
X91585Y-58130D01*
X91585Y-58917D01*
X91603Y-58962D01*
X91637Y-58996D01*
X91682Y-59014D01*
X91730Y-59014D01*
X92517Y-59014D01*
X92562Y-58996D01*
X92596Y-58962D01*
X92614Y-58917D01*
X92614Y-58869D01*
X92614Y-58656D01*
X93585Y-58656D01*
X93585Y-58917D01*
X93603Y-58962D01*
X93637Y-58996D01*
X93682Y-59014D01*
X93730Y-59014D01*
X94517Y-59014D01*
X94562Y-58996D01*
X94596Y-58962D01*
X94599Y-58952D01*
X94603Y-58962D01*
X94637Y-58996D01*
X94682Y-59014D01*
X94730Y-59014D01*
X95517Y-59014D01*
X95562Y-58996D01*
X95596Y-58962D01*
X95614Y-58917D01*
X95614Y-58869D01*
X95614Y-58656D01*
X96585Y-58656D01*
X96585Y-58917D01*
X96603Y-58962D01*
X96637Y-58996D01*
X96682Y-59014D01*
X96730Y-59014D01*
X97449Y-59014D01*
X97449Y-59056D01*
M02*
