G04 (created by PCBNEW (22-Jun-2014 BZR 4027)-stable) date Wed 20 Dec 2017 05:06:28 PM CST*
%MOIN*%
G04 Gerber Fmt 3.4, Leading zero omitted, Abs format*
%FSLAX34Y34*%
G01*
G70*
G90*
G04 APERTURE LIST*
%ADD10C,0.00393701*%
%ADD11C,0.011811*%
%ADD12C,0.00590551*%
G04 APERTURE END LIST*
G54D10*
G54D11*
X63163Y-51878D02*
X63191Y-51906D01*
X63220Y-51962D01*
X63220Y-52103D01*
X63191Y-52159D01*
X63163Y-52187D01*
X63107Y-52215D01*
X63051Y-52215D01*
X62966Y-52187D01*
X62629Y-51850D01*
X62629Y-52215D01*
X62629Y-52497D02*
X62629Y-52609D01*
X62657Y-52665D01*
X62685Y-52693D01*
X62770Y-52750D01*
X62882Y-52778D01*
X63107Y-52778D01*
X63163Y-52750D01*
X63191Y-52722D01*
X63220Y-52665D01*
X63220Y-52553D01*
X63191Y-52497D01*
X63163Y-52468D01*
X63107Y-52440D01*
X62966Y-52440D01*
X62910Y-52468D01*
X62882Y-52497D01*
X62854Y-52553D01*
X62854Y-52665D01*
X62882Y-52722D01*
X62910Y-52750D01*
X62966Y-52778D01*
X62685Y-53031D02*
X62657Y-53059D01*
X62629Y-53031D01*
X62657Y-53003D01*
X62685Y-53031D01*
X62629Y-53031D01*
X62966Y-53396D02*
X62995Y-53340D01*
X63023Y-53312D01*
X63079Y-53284D01*
X63107Y-53284D01*
X63163Y-53312D01*
X63191Y-53340D01*
X63220Y-53396D01*
X63220Y-53509D01*
X63191Y-53565D01*
X63163Y-53593D01*
X63107Y-53621D01*
X63079Y-53621D01*
X63023Y-53593D01*
X62995Y-53565D01*
X62966Y-53509D01*
X62966Y-53396D01*
X62938Y-53340D01*
X62910Y-53312D01*
X62854Y-53284D01*
X62741Y-53284D01*
X62685Y-53312D01*
X62657Y-53340D01*
X62629Y-53396D01*
X62629Y-53509D01*
X62657Y-53565D01*
X62685Y-53593D01*
X62741Y-53621D01*
X62854Y-53621D01*
X62910Y-53593D01*
X62938Y-53565D01*
X62966Y-53509D01*
X63023Y-54128D02*
X62629Y-54128D01*
X63248Y-53987D02*
X62826Y-53846D01*
X62826Y-54212D01*
X63220Y-54718D02*
X63220Y-54437D01*
X62938Y-54409D01*
X62966Y-54437D01*
X62995Y-54493D01*
X62995Y-54634D01*
X62966Y-54690D01*
X62938Y-54718D01*
X62882Y-54746D01*
X62741Y-54746D01*
X62685Y-54718D01*
X62657Y-54690D01*
X62629Y-54634D01*
X62629Y-54493D01*
X62657Y-54437D01*
X62685Y-54409D01*
X62629Y-55449D02*
X63023Y-55449D01*
X62966Y-55449D02*
X62995Y-55477D01*
X63023Y-55534D01*
X63023Y-55618D01*
X62995Y-55674D01*
X62938Y-55702D01*
X62629Y-55702D01*
X62938Y-55702D02*
X62995Y-55731D01*
X63023Y-55787D01*
X63023Y-55871D01*
X62995Y-55927D01*
X62938Y-55956D01*
X62629Y-55956D01*
X62629Y-56237D02*
X63023Y-56237D01*
X62966Y-56237D02*
X62995Y-56265D01*
X63023Y-56321D01*
X63023Y-56405D01*
X62995Y-56462D01*
X62938Y-56490D01*
X62629Y-56490D01*
X62938Y-56490D02*
X62995Y-56518D01*
X63023Y-56574D01*
X63023Y-56659D01*
X62995Y-56715D01*
X62938Y-56743D01*
X62629Y-56743D01*
X63400Y-48450D02*
X63400Y-60200D01*
X64150Y-48450D02*
X62337Y-48450D01*
X64150Y-60200D02*
X62337Y-60200D01*
X63400Y-60200D02*
X63169Y-59756D01*
X63400Y-60200D02*
X63630Y-59756D01*
X63400Y-48450D02*
X63169Y-48893D01*
X63400Y-48450D02*
X63630Y-48893D01*
X78565Y-61383D02*
X78509Y-61354D01*
X78481Y-61326D01*
X78453Y-61270D01*
X78453Y-61242D01*
X78481Y-61186D01*
X78509Y-61158D01*
X78565Y-61129D01*
X78678Y-61129D01*
X78734Y-61158D01*
X78762Y-61186D01*
X78790Y-61242D01*
X78790Y-61270D01*
X78762Y-61326D01*
X78734Y-61354D01*
X78678Y-61383D01*
X78565Y-61383D01*
X78509Y-61411D01*
X78481Y-61439D01*
X78453Y-61495D01*
X78453Y-61608D01*
X78481Y-61664D01*
X78509Y-61692D01*
X78565Y-61720D01*
X78678Y-61720D01*
X78734Y-61692D01*
X78762Y-61664D01*
X78790Y-61608D01*
X78790Y-61495D01*
X78762Y-61439D01*
X78734Y-61411D01*
X78678Y-61383D01*
X79325Y-61129D02*
X79043Y-61129D01*
X79015Y-61411D01*
X79043Y-61383D01*
X79100Y-61354D01*
X79240Y-61354D01*
X79297Y-61383D01*
X79325Y-61411D01*
X79353Y-61467D01*
X79353Y-61608D01*
X79325Y-61664D01*
X79297Y-61692D01*
X79240Y-61720D01*
X79100Y-61720D01*
X79043Y-61692D01*
X79015Y-61664D01*
X79606Y-61664D02*
X79634Y-61692D01*
X79606Y-61720D01*
X79578Y-61692D01*
X79606Y-61664D01*
X79606Y-61720D01*
X80000Y-61129D02*
X80056Y-61129D01*
X80112Y-61158D01*
X80140Y-61186D01*
X80168Y-61242D01*
X80196Y-61354D01*
X80196Y-61495D01*
X80168Y-61608D01*
X80140Y-61664D01*
X80112Y-61692D01*
X80056Y-61720D01*
X80000Y-61720D01*
X79943Y-61692D01*
X79915Y-61664D01*
X79887Y-61608D01*
X79859Y-61495D01*
X79859Y-61354D01*
X79887Y-61242D01*
X79915Y-61186D01*
X79943Y-61158D01*
X80000Y-61129D01*
X80478Y-61720D02*
X80590Y-61720D01*
X80646Y-61692D01*
X80675Y-61664D01*
X80731Y-61579D01*
X80759Y-61467D01*
X80759Y-61242D01*
X80731Y-61186D01*
X80703Y-61158D01*
X80646Y-61129D01*
X80534Y-61129D01*
X80478Y-61158D01*
X80450Y-61186D01*
X80421Y-61242D01*
X80421Y-61383D01*
X80450Y-61439D01*
X80478Y-61467D01*
X80534Y-61495D01*
X80646Y-61495D01*
X80703Y-61467D01*
X80731Y-61439D01*
X80759Y-61383D01*
X81124Y-61129D02*
X81181Y-61129D01*
X81237Y-61158D01*
X81265Y-61186D01*
X81293Y-61242D01*
X81321Y-61354D01*
X81321Y-61495D01*
X81293Y-61608D01*
X81265Y-61664D01*
X81237Y-61692D01*
X81181Y-61720D01*
X81124Y-61720D01*
X81068Y-61692D01*
X81040Y-61664D01*
X81012Y-61608D01*
X80984Y-61495D01*
X80984Y-61354D01*
X81012Y-61242D01*
X81040Y-61186D01*
X81068Y-61158D01*
X81124Y-61129D01*
X82024Y-61720D02*
X82024Y-61326D01*
X82024Y-61383D02*
X82052Y-61354D01*
X82109Y-61326D01*
X82193Y-61326D01*
X82249Y-61354D01*
X82277Y-61411D01*
X82277Y-61720D01*
X82277Y-61411D02*
X82306Y-61354D01*
X82362Y-61326D01*
X82446Y-61326D01*
X82502Y-61354D01*
X82531Y-61411D01*
X82531Y-61720D01*
X82812Y-61720D02*
X82812Y-61326D01*
X82812Y-61383D02*
X82840Y-61354D01*
X82896Y-61326D01*
X82980Y-61326D01*
X83037Y-61354D01*
X83065Y-61411D01*
X83065Y-61720D01*
X83065Y-61411D02*
X83093Y-61354D01*
X83149Y-61326D01*
X83234Y-61326D01*
X83290Y-61354D01*
X83318Y-61411D01*
X83318Y-61720D01*
X64150Y-60949D02*
X97650Y-60949D01*
X64150Y-60200D02*
X64150Y-62012D01*
X97650Y-60200D02*
X97650Y-62012D01*
X97650Y-60949D02*
X97206Y-61180D01*
X97650Y-60949D02*
X97206Y-60719D01*
X64150Y-60949D02*
X64593Y-61180D01*
X64150Y-60949D02*
X64593Y-60719D01*
G54D12*
X64200Y-60200D02*
X64200Y-48400D01*
X97600Y-60200D02*
X64200Y-60200D01*
X97600Y-48400D02*
X97600Y-60200D01*
X64200Y-48400D02*
X97600Y-48400D01*
M02*
