G04 (created by PCBNEW (22-Jun-2014 BZR 4027)-stable) date Wed 20 Dec 2017 05:06:28 PM CST*
%MOIN*%
G04 Gerber Fmt 3.4, Leading zero omitted, Abs format*
%FSLAX34Y34*%
G01*
G70*
G90*
G04 APERTURE LIST*
%ADD10C,0.00393701*%
%ADD11R,0.055X0.055*%
%ADD12C,0.055*%
%ADD13C,0.023622*%
%ADD14C,0.00708661*%
%ADD15C,0.01*%
G04 APERTURE END LIST*
G54D10*
G54D11*
X82320Y-49240D03*
G54D12*
X81320Y-49240D03*
X80320Y-49240D03*
X79320Y-49240D03*
G54D13*
X95860Y-54940D03*
X67760Y-56560D03*
X81580Y-57680D03*
X79440Y-55940D03*
X79340Y-52260D03*
X70560Y-59020D03*
X66620Y-55660D03*
X79540Y-59020D03*
X83380Y-54740D03*
X82760Y-52980D03*
X85520Y-52960D03*
X82354Y-56830D03*
X80200Y-56140D03*
X91580Y-52927D03*
X91580Y-50400D03*
X96620Y-59700D03*
X96640Y-57260D03*
X65940Y-57420D03*
X65940Y-59720D03*
X83640Y-59700D03*
X69200Y-59700D03*
X76060Y-59700D03*
X69200Y-52320D03*
X75200Y-52320D03*
X95120Y-54940D03*
X80980Y-54240D03*
X81780Y-53940D03*
X81380Y-53940D03*
X81240Y-58660D03*
X71760Y-58660D03*
X80980Y-53900D03*
X80480Y-51460D03*
G54D14*
X95760Y-57680D02*
X95820Y-57680D01*
X81580Y-57680D02*
X95760Y-57680D01*
X95860Y-57640D02*
X95860Y-57540D01*
X95820Y-57680D02*
X95860Y-57640D01*
X95860Y-57540D02*
X95860Y-54940D01*
X95860Y-57580D02*
X95860Y-57540D01*
X79340Y-56560D02*
X79260Y-56560D01*
X67760Y-56560D02*
X77660Y-56560D01*
X77660Y-56560D02*
X79260Y-56560D01*
X79440Y-57680D02*
X79420Y-57680D01*
X79420Y-57680D02*
X79340Y-57600D01*
X79340Y-57600D02*
X79340Y-56560D01*
X79440Y-57680D02*
X81580Y-57680D01*
X79340Y-56560D02*
X79340Y-56520D01*
X79440Y-55940D02*
X79340Y-55940D01*
X79340Y-55940D02*
X79360Y-55940D01*
X79360Y-55940D02*
X79340Y-55940D01*
X79340Y-56520D02*
X79340Y-56460D01*
X79340Y-56460D02*
X79340Y-55940D01*
X79340Y-55940D02*
X79340Y-54780D01*
X79340Y-54880D02*
X79340Y-54780D01*
X79340Y-54780D02*
X79340Y-52260D01*
X66500Y-55660D02*
X66620Y-55660D01*
X66440Y-55660D02*
X66500Y-55660D01*
X66380Y-55720D02*
X66440Y-55660D01*
X66380Y-58940D02*
X66380Y-55720D01*
X66460Y-59020D02*
X66380Y-58940D01*
X79540Y-59020D02*
X70560Y-59020D01*
X70560Y-59020D02*
X66460Y-59020D01*
X83220Y-56830D02*
X83330Y-56830D01*
X83380Y-56680D02*
X83380Y-54740D01*
X83380Y-56780D02*
X83380Y-56680D01*
X83330Y-56830D02*
X83380Y-56780D01*
X82354Y-56830D02*
X83220Y-56830D01*
X83220Y-56830D02*
X83230Y-56830D01*
X82760Y-52980D02*
X82780Y-52960D01*
X82780Y-52960D02*
X85520Y-52960D01*
X80200Y-56700D02*
X80200Y-56140D01*
X80320Y-56820D02*
X80200Y-56700D01*
X82344Y-56820D02*
X80320Y-56820D01*
X82344Y-56820D02*
X82354Y-56830D01*
X91580Y-52927D02*
X91580Y-50400D01*
X96640Y-57260D02*
X96640Y-59680D01*
X96640Y-59680D02*
X96620Y-59700D01*
X65940Y-57420D02*
X65940Y-59720D01*
X76060Y-59700D02*
X83640Y-59700D01*
X76060Y-59700D02*
X69200Y-59700D01*
X75200Y-52320D02*
X69200Y-52320D01*
X94660Y-54240D02*
X95080Y-54240D01*
X95120Y-54280D02*
X95120Y-54720D01*
X95080Y-54240D02*
X95120Y-54280D01*
X95120Y-54720D02*
X95120Y-54940D01*
X95120Y-54680D02*
X95120Y-54720D01*
X80980Y-54240D02*
X94660Y-54240D01*
X94660Y-54240D02*
X94680Y-54240D01*
X81780Y-53940D02*
X82280Y-53940D01*
X82320Y-53900D02*
X82320Y-53320D01*
X82280Y-53940D02*
X82320Y-53900D01*
X82320Y-53400D02*
X82320Y-53320D01*
X82320Y-53320D02*
X82320Y-49240D01*
X81380Y-53940D02*
X81380Y-49300D01*
X81380Y-49300D02*
X81320Y-49240D01*
X71760Y-58660D02*
X81240Y-58660D01*
X80980Y-51620D02*
X80980Y-51520D01*
X80980Y-53900D02*
X80980Y-51620D01*
X80920Y-51460D02*
X80760Y-51460D01*
X80980Y-51520D02*
X80920Y-51460D01*
X80820Y-51460D02*
X80760Y-51460D01*
X80760Y-51460D02*
X80480Y-51460D01*
G54D10*
G36*
X97449Y-60049D02*
X96099Y-60049D01*
X96099Y-54892D01*
X96062Y-54804D01*
X95995Y-54737D01*
X95907Y-54701D01*
X95812Y-54700D01*
X95724Y-54737D01*
X95657Y-54804D01*
X95621Y-54892D01*
X95620Y-54987D01*
X95657Y-55075D01*
X95703Y-55121D01*
X95703Y-57523D01*
X95359Y-57523D01*
X95359Y-54892D01*
X95322Y-54804D01*
X95276Y-54758D01*
X95276Y-54720D01*
X95276Y-54680D01*
X95276Y-54280D01*
X95264Y-54220D01*
X95230Y-54169D01*
X95190Y-54129D01*
X95139Y-54095D01*
X95080Y-54083D01*
X94680Y-54083D01*
X94660Y-54083D01*
X82340Y-54083D01*
X82390Y-54050D01*
X82430Y-54010D01*
X82464Y-53959D01*
X82476Y-53900D01*
X82476Y-53900D01*
X82476Y-53400D01*
X82476Y-53320D01*
X82476Y-49635D01*
X82618Y-49635D01*
X82663Y-49617D01*
X82697Y-49583D01*
X82715Y-49539D01*
X82715Y-49491D01*
X82715Y-48941D01*
X82697Y-48896D01*
X82663Y-48862D01*
X82619Y-48844D01*
X82571Y-48844D01*
X82021Y-48844D01*
X81976Y-48862D01*
X81942Y-48896D01*
X81924Y-48940D01*
X81924Y-48988D01*
X81924Y-49538D01*
X81942Y-49583D01*
X81976Y-49617D01*
X82020Y-49635D01*
X82068Y-49635D01*
X82163Y-49635D01*
X82163Y-53320D01*
X82163Y-53400D01*
X82163Y-53783D01*
X81961Y-53783D01*
X81915Y-53737D01*
X81827Y-53701D01*
X81732Y-53700D01*
X81644Y-53737D01*
X81579Y-53802D01*
X81536Y-53758D01*
X81536Y-49578D01*
X81543Y-49575D01*
X81655Y-49464D01*
X81715Y-49319D01*
X81715Y-49161D01*
X81655Y-49016D01*
X81544Y-48904D01*
X81399Y-48844D01*
X81241Y-48844D01*
X81096Y-48904D01*
X80984Y-49015D01*
X80924Y-49160D01*
X80924Y-49318D01*
X80984Y-49463D01*
X81095Y-49575D01*
X81223Y-49628D01*
X81223Y-53758D01*
X81192Y-53789D01*
X81182Y-53764D01*
X81136Y-53718D01*
X81136Y-51620D01*
X81136Y-51520D01*
X81126Y-51470D01*
X81124Y-51460D01*
X81124Y-51460D01*
X81090Y-51409D01*
X81030Y-51349D01*
X80979Y-51315D01*
X80920Y-51303D01*
X80849Y-51303D01*
X80849Y-49315D01*
X80838Y-49107D01*
X80780Y-48967D01*
X80687Y-48942D01*
X80617Y-49013D01*
X80617Y-48872D01*
X80592Y-48779D01*
X80395Y-48710D01*
X80187Y-48721D01*
X80047Y-48779D01*
X80022Y-48872D01*
X80320Y-49169D01*
X80617Y-48872D01*
X80617Y-49013D01*
X80390Y-49240D01*
X80687Y-49537D01*
X80780Y-49512D01*
X80849Y-49315D01*
X80849Y-51303D01*
X80820Y-51303D01*
X80760Y-51303D01*
X80661Y-51303D01*
X80617Y-51259D01*
X80617Y-49607D01*
X80320Y-49310D01*
X80249Y-49381D01*
X80249Y-49240D01*
X79952Y-48942D01*
X79859Y-48967D01*
X79790Y-49164D01*
X79801Y-49372D01*
X79859Y-49512D01*
X79952Y-49537D01*
X80249Y-49240D01*
X80249Y-49381D01*
X80022Y-49607D01*
X80047Y-49700D01*
X80244Y-49769D01*
X80452Y-49758D01*
X80592Y-49700D01*
X80617Y-49607D01*
X80617Y-51259D01*
X80615Y-51257D01*
X80527Y-51221D01*
X80432Y-51220D01*
X80344Y-51257D01*
X80277Y-51324D01*
X80241Y-51412D01*
X80240Y-51507D01*
X80277Y-51595D01*
X80344Y-51662D01*
X80432Y-51698D01*
X80527Y-51699D01*
X80615Y-51662D01*
X80661Y-51616D01*
X80760Y-51616D01*
X80820Y-51616D01*
X80823Y-51616D01*
X80823Y-51620D01*
X80823Y-53718D01*
X80777Y-53764D01*
X80741Y-53852D01*
X80740Y-53947D01*
X80777Y-54035D01*
X80812Y-54070D01*
X80777Y-54104D01*
X80741Y-54192D01*
X80740Y-54287D01*
X80777Y-54375D01*
X80844Y-54442D01*
X80932Y-54478D01*
X81027Y-54479D01*
X81115Y-54442D01*
X81161Y-54396D01*
X94660Y-54396D01*
X94680Y-54396D01*
X94963Y-54396D01*
X94963Y-54680D01*
X94963Y-54720D01*
X94963Y-54758D01*
X94917Y-54804D01*
X94881Y-54892D01*
X94880Y-54987D01*
X94917Y-55075D01*
X94984Y-55142D01*
X95072Y-55178D01*
X95167Y-55179D01*
X95255Y-55142D01*
X95322Y-55075D01*
X95358Y-54987D01*
X95359Y-54892D01*
X95359Y-57523D01*
X81761Y-57523D01*
X81715Y-57477D01*
X81627Y-57441D01*
X81532Y-57440D01*
X81444Y-57477D01*
X81398Y-57523D01*
X79715Y-57523D01*
X79715Y-49161D01*
X79655Y-49016D01*
X79544Y-48904D01*
X79399Y-48844D01*
X79241Y-48844D01*
X79096Y-48904D01*
X78984Y-49015D01*
X78924Y-49160D01*
X78924Y-49318D01*
X78984Y-49463D01*
X79095Y-49575D01*
X79240Y-49635D01*
X79398Y-49635D01*
X79543Y-49575D01*
X79655Y-49464D01*
X79715Y-49319D01*
X79715Y-49161D01*
X79715Y-57523D01*
X79496Y-57523D01*
X79496Y-56560D01*
X79496Y-56520D01*
X79496Y-56460D01*
X79496Y-56175D01*
X79575Y-56142D01*
X79642Y-56075D01*
X79678Y-55987D01*
X79679Y-55892D01*
X79642Y-55804D01*
X79575Y-55737D01*
X79496Y-55704D01*
X79496Y-54880D01*
X79496Y-54780D01*
X79496Y-52441D01*
X79542Y-52395D01*
X79578Y-52307D01*
X79579Y-52212D01*
X79542Y-52124D01*
X79475Y-52057D01*
X79387Y-52021D01*
X79292Y-52020D01*
X79204Y-52057D01*
X79137Y-52124D01*
X79101Y-52212D01*
X79100Y-52307D01*
X79137Y-52395D01*
X79183Y-52441D01*
X79183Y-54780D01*
X79183Y-54880D01*
X79183Y-55940D01*
X79183Y-56403D01*
X77660Y-56403D01*
X67941Y-56403D01*
X67895Y-56357D01*
X67807Y-56321D01*
X67712Y-56320D01*
X67624Y-56357D01*
X67557Y-56424D01*
X67521Y-56512D01*
X67520Y-56607D01*
X67557Y-56695D01*
X67624Y-56762D01*
X67712Y-56798D01*
X67807Y-56799D01*
X67895Y-56762D01*
X67941Y-56716D01*
X77660Y-56716D01*
X79183Y-56716D01*
X79183Y-57600D01*
X79195Y-57659D01*
X79229Y-57710D01*
X79309Y-57790D01*
X79309Y-57790D01*
X79360Y-57824D01*
X79360Y-57824D01*
X79370Y-57826D01*
X79420Y-57836D01*
X79440Y-57836D01*
X81398Y-57836D01*
X81444Y-57882D01*
X81532Y-57918D01*
X81627Y-57919D01*
X81715Y-57882D01*
X81761Y-57836D01*
X95760Y-57836D01*
X95820Y-57836D01*
X95820Y-57836D01*
X95879Y-57824D01*
X95930Y-57790D01*
X95970Y-57750D01*
X96004Y-57699D01*
X96016Y-57640D01*
X96016Y-57640D01*
X96016Y-57580D01*
X96016Y-57540D01*
X96016Y-55121D01*
X96062Y-55075D01*
X96098Y-54987D01*
X96099Y-54892D01*
X96099Y-60049D01*
X81479Y-60049D01*
X81479Y-58612D01*
X81442Y-58524D01*
X81375Y-58457D01*
X81287Y-58421D01*
X81192Y-58420D01*
X81104Y-58457D01*
X81058Y-58503D01*
X71941Y-58503D01*
X71895Y-58457D01*
X71807Y-58421D01*
X71712Y-58420D01*
X71624Y-58457D01*
X71557Y-58524D01*
X71521Y-58612D01*
X71520Y-58707D01*
X71557Y-58795D01*
X71624Y-58862D01*
X71627Y-58863D01*
X70741Y-58863D01*
X70695Y-58817D01*
X70607Y-58781D01*
X70512Y-58780D01*
X70424Y-58817D01*
X70378Y-58863D01*
X66536Y-58863D01*
X66536Y-55884D01*
X66572Y-55898D01*
X66667Y-55899D01*
X66755Y-55862D01*
X66822Y-55795D01*
X66858Y-55707D01*
X66859Y-55612D01*
X66822Y-55524D01*
X66755Y-55457D01*
X66667Y-55421D01*
X66572Y-55420D01*
X66484Y-55457D01*
X66437Y-55504D01*
X66390Y-55513D01*
X66380Y-55515D01*
X66329Y-55549D01*
X66269Y-55609D01*
X66235Y-55660D01*
X66223Y-55720D01*
X66223Y-58940D01*
X66235Y-58999D01*
X66269Y-59050D01*
X66349Y-59130D01*
X66349Y-59130D01*
X66400Y-59164D01*
X66400Y-59164D01*
X66410Y-59166D01*
X66460Y-59176D01*
X70378Y-59176D01*
X70424Y-59222D01*
X70512Y-59258D01*
X70607Y-59259D01*
X70695Y-59222D01*
X70741Y-59176D01*
X79358Y-59176D01*
X79404Y-59222D01*
X79492Y-59258D01*
X79587Y-59259D01*
X79675Y-59222D01*
X79742Y-59155D01*
X79778Y-59067D01*
X79779Y-58972D01*
X79742Y-58884D01*
X79675Y-58817D01*
X79672Y-58816D01*
X81058Y-58816D01*
X81104Y-58862D01*
X81192Y-58898D01*
X81287Y-58899D01*
X81375Y-58862D01*
X81442Y-58795D01*
X81478Y-58707D01*
X81479Y-58612D01*
X81479Y-60049D01*
X64350Y-60049D01*
X64350Y-48550D01*
X97449Y-48550D01*
X97449Y-60049D01*
X97449Y-60049D01*
G37*
G54D15*
X97449Y-60049D02*
X96099Y-60049D01*
X96099Y-54892D01*
X96062Y-54804D01*
X95995Y-54737D01*
X95907Y-54701D01*
X95812Y-54700D01*
X95724Y-54737D01*
X95657Y-54804D01*
X95621Y-54892D01*
X95620Y-54987D01*
X95657Y-55075D01*
X95703Y-55121D01*
X95703Y-57523D01*
X95359Y-57523D01*
X95359Y-54892D01*
X95322Y-54804D01*
X95276Y-54758D01*
X95276Y-54720D01*
X95276Y-54680D01*
X95276Y-54280D01*
X95264Y-54220D01*
X95230Y-54169D01*
X95190Y-54129D01*
X95139Y-54095D01*
X95080Y-54083D01*
X94680Y-54083D01*
X94660Y-54083D01*
X82340Y-54083D01*
X82390Y-54050D01*
X82430Y-54010D01*
X82464Y-53959D01*
X82476Y-53900D01*
X82476Y-53900D01*
X82476Y-53400D01*
X82476Y-53320D01*
X82476Y-49635D01*
X82618Y-49635D01*
X82663Y-49617D01*
X82697Y-49583D01*
X82715Y-49539D01*
X82715Y-49491D01*
X82715Y-48941D01*
X82697Y-48896D01*
X82663Y-48862D01*
X82619Y-48844D01*
X82571Y-48844D01*
X82021Y-48844D01*
X81976Y-48862D01*
X81942Y-48896D01*
X81924Y-48940D01*
X81924Y-48988D01*
X81924Y-49538D01*
X81942Y-49583D01*
X81976Y-49617D01*
X82020Y-49635D01*
X82068Y-49635D01*
X82163Y-49635D01*
X82163Y-53320D01*
X82163Y-53400D01*
X82163Y-53783D01*
X81961Y-53783D01*
X81915Y-53737D01*
X81827Y-53701D01*
X81732Y-53700D01*
X81644Y-53737D01*
X81579Y-53802D01*
X81536Y-53758D01*
X81536Y-49578D01*
X81543Y-49575D01*
X81655Y-49464D01*
X81715Y-49319D01*
X81715Y-49161D01*
X81655Y-49016D01*
X81544Y-48904D01*
X81399Y-48844D01*
X81241Y-48844D01*
X81096Y-48904D01*
X80984Y-49015D01*
X80924Y-49160D01*
X80924Y-49318D01*
X80984Y-49463D01*
X81095Y-49575D01*
X81223Y-49628D01*
X81223Y-53758D01*
X81192Y-53789D01*
X81182Y-53764D01*
X81136Y-53718D01*
X81136Y-51620D01*
X81136Y-51520D01*
X81126Y-51470D01*
X81124Y-51460D01*
X81124Y-51460D01*
X81090Y-51409D01*
X81030Y-51349D01*
X80979Y-51315D01*
X80920Y-51303D01*
X80849Y-51303D01*
X80849Y-49315D01*
X80838Y-49107D01*
X80780Y-48967D01*
X80687Y-48942D01*
X80617Y-49013D01*
X80617Y-48872D01*
X80592Y-48779D01*
X80395Y-48710D01*
X80187Y-48721D01*
X80047Y-48779D01*
X80022Y-48872D01*
X80320Y-49169D01*
X80617Y-48872D01*
X80617Y-49013D01*
X80390Y-49240D01*
X80687Y-49537D01*
X80780Y-49512D01*
X80849Y-49315D01*
X80849Y-51303D01*
X80820Y-51303D01*
X80760Y-51303D01*
X80661Y-51303D01*
X80617Y-51259D01*
X80617Y-49607D01*
X80320Y-49310D01*
X80249Y-49381D01*
X80249Y-49240D01*
X79952Y-48942D01*
X79859Y-48967D01*
X79790Y-49164D01*
X79801Y-49372D01*
X79859Y-49512D01*
X79952Y-49537D01*
X80249Y-49240D01*
X80249Y-49381D01*
X80022Y-49607D01*
X80047Y-49700D01*
X80244Y-49769D01*
X80452Y-49758D01*
X80592Y-49700D01*
X80617Y-49607D01*
X80617Y-51259D01*
X80615Y-51257D01*
X80527Y-51221D01*
X80432Y-51220D01*
X80344Y-51257D01*
X80277Y-51324D01*
X80241Y-51412D01*
X80240Y-51507D01*
X80277Y-51595D01*
X80344Y-51662D01*
X80432Y-51698D01*
X80527Y-51699D01*
X80615Y-51662D01*
X80661Y-51616D01*
X80760Y-51616D01*
X80820Y-51616D01*
X80823Y-51616D01*
X80823Y-51620D01*
X80823Y-53718D01*
X80777Y-53764D01*
X80741Y-53852D01*
X80740Y-53947D01*
X80777Y-54035D01*
X80812Y-54070D01*
X80777Y-54104D01*
X80741Y-54192D01*
X80740Y-54287D01*
X80777Y-54375D01*
X80844Y-54442D01*
X80932Y-54478D01*
X81027Y-54479D01*
X81115Y-54442D01*
X81161Y-54396D01*
X94660Y-54396D01*
X94680Y-54396D01*
X94963Y-54396D01*
X94963Y-54680D01*
X94963Y-54720D01*
X94963Y-54758D01*
X94917Y-54804D01*
X94881Y-54892D01*
X94880Y-54987D01*
X94917Y-55075D01*
X94984Y-55142D01*
X95072Y-55178D01*
X95167Y-55179D01*
X95255Y-55142D01*
X95322Y-55075D01*
X95358Y-54987D01*
X95359Y-54892D01*
X95359Y-57523D01*
X81761Y-57523D01*
X81715Y-57477D01*
X81627Y-57441D01*
X81532Y-57440D01*
X81444Y-57477D01*
X81398Y-57523D01*
X79715Y-57523D01*
X79715Y-49161D01*
X79655Y-49016D01*
X79544Y-48904D01*
X79399Y-48844D01*
X79241Y-48844D01*
X79096Y-48904D01*
X78984Y-49015D01*
X78924Y-49160D01*
X78924Y-49318D01*
X78984Y-49463D01*
X79095Y-49575D01*
X79240Y-49635D01*
X79398Y-49635D01*
X79543Y-49575D01*
X79655Y-49464D01*
X79715Y-49319D01*
X79715Y-49161D01*
X79715Y-57523D01*
X79496Y-57523D01*
X79496Y-56560D01*
X79496Y-56520D01*
X79496Y-56460D01*
X79496Y-56175D01*
X79575Y-56142D01*
X79642Y-56075D01*
X79678Y-55987D01*
X79679Y-55892D01*
X79642Y-55804D01*
X79575Y-55737D01*
X79496Y-55704D01*
X79496Y-54880D01*
X79496Y-54780D01*
X79496Y-52441D01*
X79542Y-52395D01*
X79578Y-52307D01*
X79579Y-52212D01*
X79542Y-52124D01*
X79475Y-52057D01*
X79387Y-52021D01*
X79292Y-52020D01*
X79204Y-52057D01*
X79137Y-52124D01*
X79101Y-52212D01*
X79100Y-52307D01*
X79137Y-52395D01*
X79183Y-52441D01*
X79183Y-54780D01*
X79183Y-54880D01*
X79183Y-55940D01*
X79183Y-56403D01*
X77660Y-56403D01*
X67941Y-56403D01*
X67895Y-56357D01*
X67807Y-56321D01*
X67712Y-56320D01*
X67624Y-56357D01*
X67557Y-56424D01*
X67521Y-56512D01*
X67520Y-56607D01*
X67557Y-56695D01*
X67624Y-56762D01*
X67712Y-56798D01*
X67807Y-56799D01*
X67895Y-56762D01*
X67941Y-56716D01*
X77660Y-56716D01*
X79183Y-56716D01*
X79183Y-57600D01*
X79195Y-57659D01*
X79229Y-57710D01*
X79309Y-57790D01*
X79309Y-57790D01*
X79360Y-57824D01*
X79360Y-57824D01*
X79370Y-57826D01*
X79420Y-57836D01*
X79440Y-57836D01*
X81398Y-57836D01*
X81444Y-57882D01*
X81532Y-57918D01*
X81627Y-57919D01*
X81715Y-57882D01*
X81761Y-57836D01*
X95760Y-57836D01*
X95820Y-57836D01*
X95820Y-57836D01*
X95879Y-57824D01*
X95930Y-57790D01*
X95970Y-57750D01*
X96004Y-57699D01*
X96016Y-57640D01*
X96016Y-57640D01*
X96016Y-57580D01*
X96016Y-57540D01*
X96016Y-55121D01*
X96062Y-55075D01*
X96098Y-54987D01*
X96099Y-54892D01*
X96099Y-60049D01*
X81479Y-60049D01*
X81479Y-58612D01*
X81442Y-58524D01*
X81375Y-58457D01*
X81287Y-58421D01*
X81192Y-58420D01*
X81104Y-58457D01*
X81058Y-58503D01*
X71941Y-58503D01*
X71895Y-58457D01*
X71807Y-58421D01*
X71712Y-58420D01*
X71624Y-58457D01*
X71557Y-58524D01*
X71521Y-58612D01*
X71520Y-58707D01*
X71557Y-58795D01*
X71624Y-58862D01*
X71627Y-58863D01*
X70741Y-58863D01*
X70695Y-58817D01*
X70607Y-58781D01*
X70512Y-58780D01*
X70424Y-58817D01*
X70378Y-58863D01*
X66536Y-58863D01*
X66536Y-55884D01*
X66572Y-55898D01*
X66667Y-55899D01*
X66755Y-55862D01*
X66822Y-55795D01*
X66858Y-55707D01*
X66859Y-55612D01*
X66822Y-55524D01*
X66755Y-55457D01*
X66667Y-55421D01*
X66572Y-55420D01*
X66484Y-55457D01*
X66437Y-55504D01*
X66390Y-55513D01*
X66380Y-55515D01*
X66329Y-55549D01*
X66269Y-55609D01*
X66235Y-55660D01*
X66223Y-55720D01*
X66223Y-58940D01*
X66235Y-58999D01*
X66269Y-59050D01*
X66349Y-59130D01*
X66349Y-59130D01*
X66400Y-59164D01*
X66400Y-59164D01*
X66410Y-59166D01*
X66460Y-59176D01*
X70378Y-59176D01*
X70424Y-59222D01*
X70512Y-59258D01*
X70607Y-59259D01*
X70695Y-59222D01*
X70741Y-59176D01*
X79358Y-59176D01*
X79404Y-59222D01*
X79492Y-59258D01*
X79587Y-59259D01*
X79675Y-59222D01*
X79742Y-59155D01*
X79778Y-59067D01*
X79779Y-58972D01*
X79742Y-58884D01*
X79675Y-58817D01*
X79672Y-58816D01*
X81058Y-58816D01*
X81104Y-58862D01*
X81192Y-58898D01*
X81287Y-58899D01*
X81375Y-58862D01*
X81442Y-58795D01*
X81478Y-58707D01*
X81479Y-58612D01*
X81479Y-60049D01*
X64350Y-60049D01*
X64350Y-48550D01*
X97449Y-48550D01*
X97449Y-60049D01*
M02*
