G04 (created by PCBNEW (22-Jun-2014 BZR 4027)-stable) date Wed 20 Dec 2017 05:06:28 PM CST*
%MOIN*%
G04 Gerber Fmt 3.4, Leading zero omitted, Abs format*
%FSLAX34Y34*%
G01*
G70*
G90*
G04 APERTURE LIST*
%ADD10C,0.00393701*%
%ADD11R,0.0787402X0.149606*%
%ADD12R,0.0787402X0.0590551*%
%ADD13R,0.0472441X0.0295276*%
%ADD14R,0.0787402X0.177165*%
%ADD15R,0.177165X0.0787402*%
%ADD16R,0.0787402X0.0944882*%
%ADD17R,0.0295276X0.0472441*%
%ADD18R,0.0787402X0.0787402*%
%ADD19R,0.0393701X0.0787402*%
%ADD20R,0.0110236X0.0590551*%
%ADD21R,0.019685X0.0590551*%
%ADD22R,0.0590551X0.019685*%
%ADD23R,0.0590551X0.0110236*%
G04 APERTURE END LIST*
G54D10*
G54D11*
X64739Y-56560D03*
G54D12*
X67220Y-56560D03*
X67220Y-55654D03*
X67220Y-57465D03*
G54D13*
X95854Y-55280D03*
X95105Y-55280D03*
G54D14*
X71727Y-50400D03*
X72672Y-50400D03*
X90072Y-50400D03*
X89127Y-50400D03*
X90072Y-56400D03*
X89127Y-56400D03*
X71727Y-56400D03*
X72672Y-56400D03*
G54D15*
X92600Y-52927D03*
X92600Y-53872D03*
X75200Y-52927D03*
X75200Y-53872D03*
X69200Y-52927D03*
X69200Y-53872D03*
X86600Y-52927D03*
X86600Y-53872D03*
G54D16*
X79942Y-51450D03*
X81557Y-51450D03*
G54D13*
X81874Y-50250D03*
X81125Y-50250D03*
X79625Y-50250D03*
X80374Y-50250D03*
G54D17*
X94300Y-56045D03*
X94300Y-56794D03*
X78300Y-55675D03*
X78300Y-56424D03*
G54D13*
X80674Y-52650D03*
X79925Y-52650D03*
X81605Y-57420D03*
X82354Y-57420D03*
G54D17*
X83050Y-53975D03*
X83050Y-54724D03*
G54D18*
X95100Y-57260D03*
X95100Y-56060D03*
X97100Y-56060D03*
X97100Y-57260D03*
X64700Y-50120D03*
X64700Y-48920D03*
X66700Y-48920D03*
X66700Y-50120D03*
X95100Y-50120D03*
X95100Y-48920D03*
X97100Y-48920D03*
X97100Y-50120D03*
X76600Y-59700D03*
X76600Y-58500D03*
X78600Y-58500D03*
X78600Y-59700D03*
X83100Y-59700D03*
X83100Y-58500D03*
X85100Y-58500D03*
X85100Y-59700D03*
X95100Y-59700D03*
X95100Y-58500D03*
X97100Y-58500D03*
X97100Y-59700D03*
X92100Y-59700D03*
X92100Y-58500D03*
X94100Y-58500D03*
X94100Y-59700D03*
X64700Y-59700D03*
X64700Y-58500D03*
X66700Y-58500D03*
X66700Y-59700D03*
X67700Y-59700D03*
X67700Y-58500D03*
X69700Y-58500D03*
X69700Y-59700D03*
G54D19*
X79550Y-59600D03*
X80200Y-59600D03*
X80850Y-59600D03*
X81500Y-59600D03*
X82150Y-59600D03*
G54D20*
X81192Y-53307D03*
X80995Y-53307D03*
X80798Y-53307D03*
X80601Y-53307D03*
X80404Y-53307D03*
G54D21*
X81822Y-53307D03*
G54D20*
X81585Y-53307D03*
X81388Y-53307D03*
G54D22*
X78957Y-53927D03*
G54D23*
X78957Y-54164D03*
X78957Y-54361D03*
X78957Y-54557D03*
X78957Y-54754D03*
X78957Y-54951D03*
X78957Y-55148D03*
X78957Y-55345D03*
G54D21*
X79577Y-56792D03*
G54D20*
X79814Y-56792D03*
X80011Y-56792D03*
X80207Y-56792D03*
X80404Y-56792D03*
X80601Y-56792D03*
X80798Y-56792D03*
X80995Y-56792D03*
G54D22*
X82442Y-56172D03*
G54D23*
X82442Y-55935D03*
X82442Y-55738D03*
X82442Y-55542D03*
X82442Y-55345D03*
X82442Y-55148D03*
X82442Y-54951D03*
X82442Y-54754D03*
G54D20*
X80207Y-53307D03*
X80011Y-53307D03*
X79814Y-53307D03*
G54D21*
X79577Y-53307D03*
G54D23*
X78957Y-55542D03*
X78957Y-55738D03*
X78957Y-55935D03*
G54D22*
X78957Y-56172D03*
G54D20*
X81192Y-56792D03*
X81388Y-56792D03*
X81585Y-56792D03*
G54D21*
X81822Y-56792D03*
G54D23*
X82442Y-54557D03*
X82442Y-54361D03*
X82442Y-54164D03*
G54D22*
X82442Y-53927D03*
G54D13*
X70565Y-58660D03*
X71314Y-58660D03*
M02*
