G04 (created by PCBNEW (22-Jun-2014 BZR 4027)-stable) date Wed 20 Dec 2017 05:06:28 PM CST*
%MOIN*%
G04 Gerber Fmt 3.4, Leading zero omitted, Abs format*
%FSLAX34Y34*%
G01*
G70*
G90*
G04 APERTURE LIST*
%ADD10C,0.00393701*%
%ADD11C,0.00472441*%
%ADD12C,0.0019685*%
%ADD13C,0.00590551*%
%ADD14C,0.012*%
%ADD15C,0.0059*%
%ADD16C,0.005*%
%ADD17C,0.00492126*%
G04 APERTURE END LIST*
G54D10*
G54D11*
X65228Y-55217D02*
X65228Y-55713D01*
X65228Y-57902D02*
X65228Y-57406D01*
G54D12*
X64247Y-57977D02*
X67712Y-57977D01*
X64247Y-55142D02*
X64247Y-57977D01*
X67712Y-55142D02*
X64247Y-55142D01*
X67712Y-57977D02*
X67712Y-55142D01*
G54D13*
X66708Y-57878D02*
X66708Y-55241D01*
G54D11*
X66708Y-55217D02*
X65228Y-55217D01*
G54D13*
X66708Y-57878D02*
X65251Y-57878D01*
G54D11*
X67594Y-57902D02*
X65228Y-57902D01*
G54D13*
X66708Y-55241D02*
X65251Y-55241D01*
X65251Y-57878D02*
X65251Y-55241D01*
G54D12*
X96208Y-55575D02*
X94751Y-55575D01*
X96208Y-54984D02*
X94751Y-54984D01*
X96208Y-55575D02*
X96208Y-54984D01*
X94751Y-55575D02*
X94751Y-54984D01*
G54D13*
X95617Y-55516D02*
X95342Y-55516D01*
X95342Y-55043D02*
X95617Y-55043D01*
G54D12*
X82167Y-52316D02*
X82167Y-50583D01*
X79332Y-52316D02*
X82167Y-52316D01*
X79332Y-50583D02*
X79332Y-52316D01*
X82167Y-50583D02*
X79332Y-50583D01*
G54D13*
X81773Y-52119D02*
X80080Y-52119D01*
X79706Y-50780D02*
X81773Y-50780D01*
G54D12*
X82228Y-50545D02*
X80771Y-50545D01*
X82228Y-49954D02*
X80771Y-49954D01*
X82228Y-50545D02*
X82228Y-49954D01*
X80771Y-50545D02*
X80771Y-49954D01*
G54D13*
X81637Y-50486D02*
X81362Y-50486D01*
X81362Y-50013D02*
X81637Y-50013D01*
G54D12*
X79271Y-49954D02*
X80728Y-49954D01*
X79271Y-50545D02*
X80728Y-50545D01*
X79271Y-49954D02*
X79271Y-50545D01*
X80728Y-49954D02*
X80728Y-50545D01*
G54D13*
X79862Y-50013D02*
X80137Y-50013D01*
X80137Y-50486D02*
X79862Y-50486D01*
G54D12*
X94595Y-55691D02*
X94595Y-57148D01*
X94004Y-55691D02*
X94004Y-57148D01*
X94595Y-55691D02*
X94004Y-55691D01*
X94595Y-57148D02*
X94004Y-57148D01*
G54D13*
X94536Y-56282D02*
X94536Y-56557D01*
X94063Y-56557D02*
X94063Y-56282D01*
G54D12*
X78595Y-55321D02*
X78595Y-56778D01*
X78004Y-55321D02*
X78004Y-56778D01*
X78595Y-55321D02*
X78004Y-55321D01*
X78595Y-56778D02*
X78004Y-56778D01*
G54D13*
X78536Y-55912D02*
X78536Y-56187D01*
X78063Y-56187D02*
X78063Y-55912D01*
G54D12*
X81028Y-52945D02*
X79571Y-52945D01*
X81028Y-52354D02*
X79571Y-52354D01*
X81028Y-52945D02*
X81028Y-52354D01*
X79571Y-52945D02*
X79571Y-52354D01*
G54D13*
X80437Y-52886D02*
X80162Y-52886D01*
X80162Y-52413D02*
X80437Y-52413D01*
G54D12*
X81251Y-57124D02*
X82708Y-57124D01*
X81251Y-57715D02*
X82708Y-57715D01*
X81251Y-57124D02*
X81251Y-57715D01*
X82708Y-57124D02*
X82708Y-57715D01*
G54D13*
X81842Y-57183D02*
X82117Y-57183D01*
X82117Y-57656D02*
X81842Y-57656D01*
G54D12*
X83345Y-53621D02*
X83345Y-55078D01*
X82754Y-53621D02*
X82754Y-55078D01*
X83345Y-53621D02*
X82754Y-53621D01*
X83345Y-55078D02*
X82754Y-55078D01*
G54D13*
X83286Y-54212D02*
X83286Y-54487D01*
X82813Y-54487D02*
X82813Y-54212D01*
X94650Y-55610D02*
X97550Y-55610D01*
X97550Y-55610D02*
X97550Y-57710D01*
X97550Y-57710D02*
X94650Y-57710D01*
X94650Y-57710D02*
X94650Y-55610D01*
X64250Y-48470D02*
X67150Y-48470D01*
X67150Y-48470D02*
X67150Y-50570D01*
X67150Y-50570D02*
X64250Y-50570D01*
X64250Y-50570D02*
X64250Y-48470D01*
X94650Y-48470D02*
X97550Y-48470D01*
X97550Y-48470D02*
X97550Y-50570D01*
X97550Y-50570D02*
X94650Y-50570D01*
X94650Y-50570D02*
X94650Y-48470D01*
X76150Y-58050D02*
X79050Y-58050D01*
X79050Y-58050D02*
X79050Y-60150D01*
X79050Y-60150D02*
X76150Y-60150D01*
X76150Y-60150D02*
X76150Y-58050D01*
X82650Y-58050D02*
X85550Y-58050D01*
X85550Y-58050D02*
X85550Y-60150D01*
X85550Y-60150D02*
X82650Y-60150D01*
X82650Y-60150D02*
X82650Y-58050D01*
X94650Y-58050D02*
X97550Y-58050D01*
X97550Y-58050D02*
X97550Y-60150D01*
X97550Y-60150D02*
X94650Y-60150D01*
X94650Y-60150D02*
X94650Y-58050D01*
X91650Y-58050D02*
X94550Y-58050D01*
X94550Y-58050D02*
X94550Y-60150D01*
X94550Y-60150D02*
X91650Y-60150D01*
X91650Y-60150D02*
X91650Y-58050D01*
X64250Y-58050D02*
X67150Y-58050D01*
X67150Y-58050D02*
X67150Y-60150D01*
X67150Y-60150D02*
X64250Y-60150D01*
X64250Y-60150D02*
X64250Y-58050D01*
X67250Y-58050D02*
X70150Y-58050D01*
X70150Y-58050D02*
X70150Y-60150D01*
X70150Y-60150D02*
X67250Y-60150D01*
X67250Y-60150D02*
X67250Y-58050D01*
X79200Y-59050D02*
X82500Y-59050D01*
X82500Y-59050D02*
X82500Y-60150D01*
X82500Y-60150D02*
X79200Y-60150D01*
X79200Y-60150D02*
X79200Y-59050D01*
G54D14*
X82820Y-49740D02*
X82820Y-49740D01*
X82820Y-48740D02*
X82820Y-49740D01*
X82820Y-49740D02*
X82820Y-49740D01*
X82820Y-49740D02*
X78820Y-49740D01*
X78820Y-49740D02*
X78820Y-48740D01*
X78820Y-48740D02*
X82820Y-48740D01*
X81820Y-48740D02*
X81820Y-49740D01*
G54D13*
X81802Y-53790D02*
X81841Y-53790D01*
X81841Y-53790D02*
X81959Y-53908D01*
X81959Y-53908D02*
X81959Y-56191D01*
X81959Y-56191D02*
X81841Y-56309D01*
X81841Y-56309D02*
X79558Y-56309D01*
X79558Y-56309D02*
X79440Y-56191D01*
X79440Y-56191D02*
X79440Y-53908D01*
X79440Y-53908D02*
X79558Y-53790D01*
X79558Y-53790D02*
X81802Y-53790D01*
G54D15*
X82392Y-53436D02*
X82313Y-53357D01*
X82235Y-53357D02*
X82392Y-53514D01*
X82392Y-53593D02*
X82156Y-53357D01*
X82077Y-53357D02*
X82392Y-53672D01*
X81998Y-53357D02*
X82392Y-53357D01*
X82392Y-53357D02*
X82392Y-53751D01*
X82392Y-53751D02*
X81998Y-53357D01*
X78967Y-53751D02*
X78967Y-53357D01*
X78967Y-53357D02*
X79361Y-53357D01*
X79361Y-56742D02*
X78967Y-56742D01*
X78967Y-56742D02*
X78967Y-56348D01*
X82432Y-56348D02*
X82432Y-56742D01*
X82432Y-56742D02*
X82038Y-56742D01*
G54D16*
X81761Y-54100D02*
G75*
G03X81761Y-54100I-111J0D01*
G74*
G01*
G54D12*
X70211Y-58364D02*
X71668Y-58364D01*
X70211Y-58955D02*
X71668Y-58955D01*
X70211Y-58364D02*
X70211Y-58955D01*
X71668Y-58364D02*
X71668Y-58955D01*
G54D13*
X70802Y-58423D02*
X71077Y-58423D01*
X71077Y-58896D02*
X70802Y-58896D01*
G54D17*
X65292Y-57809D02*
X65547Y-57809D01*
X65577Y-57800D01*
X65592Y-57791D01*
X65607Y-57772D01*
X65607Y-57734D01*
X65592Y-57716D01*
X65577Y-57706D01*
X65547Y-57697D01*
X65292Y-57697D01*
X65322Y-57613D02*
X65307Y-57603D01*
X65292Y-57585D01*
X65292Y-57538D01*
X65307Y-57519D01*
X65322Y-57510D01*
X65352Y-57500D01*
X65382Y-57500D01*
X65427Y-57510D01*
X65607Y-57622D01*
X65607Y-57500D01*
X65917Y-57784D02*
X65917Y-57690D01*
X66007Y-57802D02*
X65692Y-57737D01*
X66007Y-57671D01*
X66007Y-57606D02*
X65692Y-57606D01*
X65917Y-57540D01*
X65692Y-57474D01*
X66007Y-57474D01*
X65992Y-57390D02*
X66007Y-57362D01*
X66007Y-57315D01*
X65992Y-57296D01*
X65977Y-57287D01*
X65947Y-57278D01*
X65917Y-57278D01*
X65887Y-57287D01*
X65872Y-57296D01*
X65857Y-57315D01*
X65842Y-57353D01*
X65827Y-57371D01*
X65812Y-57381D01*
X65782Y-57390D01*
X65752Y-57390D01*
X65722Y-57381D01*
X65707Y-57371D01*
X65692Y-57353D01*
X65692Y-57306D01*
X65707Y-57278D01*
X66007Y-57090D02*
X66007Y-57203D01*
X66007Y-57146D02*
X65692Y-57146D01*
X65737Y-57165D01*
X65767Y-57184D01*
X65782Y-57203D01*
X66007Y-56903D02*
X66007Y-57015D01*
X66007Y-56959D02*
X65692Y-56959D01*
X65737Y-56978D01*
X65767Y-56996D01*
X65782Y-57015D01*
X66007Y-56715D02*
X66007Y-56828D01*
X66007Y-56771D02*
X65692Y-56771D01*
X65737Y-56790D01*
X65767Y-56809D01*
X65782Y-56828D01*
X65692Y-56650D02*
X65692Y-56518D01*
X66007Y-56603D01*
X65887Y-56443D02*
X65887Y-56293D01*
X65692Y-56218D02*
X65692Y-56096D01*
X65812Y-56162D01*
X65812Y-56134D01*
X65827Y-56115D01*
X65842Y-56106D01*
X65872Y-56096D01*
X65947Y-56096D01*
X65977Y-56106D01*
X65992Y-56115D01*
X66007Y-56134D01*
X66007Y-56190D01*
X65992Y-56209D01*
X65977Y-56218D01*
X65977Y-56012D02*
X65992Y-56003D01*
X66007Y-56012D01*
X65992Y-56021D01*
X65977Y-56012D01*
X66007Y-56012D01*
X65692Y-55937D02*
X65692Y-55815D01*
X65812Y-55881D01*
X65812Y-55853D01*
X65827Y-55834D01*
X65842Y-55825D01*
X65872Y-55815D01*
X65947Y-55815D01*
X65977Y-55825D01*
X65992Y-55834D01*
X66007Y-55853D01*
X66007Y-55909D01*
X65992Y-55928D01*
X65977Y-55937D01*
X96997Y-55557D02*
X96931Y-55407D01*
X96884Y-55557D02*
X96884Y-55242D01*
X96959Y-55242D01*
X96978Y-55257D01*
X96987Y-55272D01*
X96997Y-55302D01*
X96997Y-55347D01*
X96987Y-55377D01*
X96978Y-55392D01*
X96959Y-55407D01*
X96884Y-55407D01*
X97184Y-55557D02*
X97072Y-55557D01*
X97128Y-55557D02*
X97128Y-55242D01*
X97109Y-55287D01*
X97090Y-55317D01*
X97072Y-55332D01*
X96394Y-55557D02*
X96281Y-55557D01*
X96337Y-55557D02*
X96337Y-55242D01*
X96319Y-55287D01*
X96300Y-55317D01*
X96281Y-55332D01*
X96515Y-55242D02*
X96534Y-55242D01*
X96553Y-55257D01*
X96562Y-55272D01*
X96572Y-55302D01*
X96581Y-55362D01*
X96581Y-55437D01*
X96572Y-55497D01*
X96562Y-55527D01*
X96553Y-55542D01*
X96534Y-55557D01*
X96515Y-55557D01*
X96497Y-55542D01*
X96487Y-55527D01*
X96478Y-55497D01*
X96469Y-55437D01*
X96469Y-55362D01*
X96478Y-55302D01*
X96487Y-55272D01*
X96497Y-55257D01*
X96515Y-55242D01*
X96665Y-55557D02*
X96665Y-55242D01*
X96778Y-55557D02*
X96694Y-55377D01*
X96778Y-55242D02*
X96665Y-55422D01*
X71977Y-51712D02*
X72005Y-51727D01*
X72052Y-51727D01*
X72071Y-51712D01*
X72080Y-51697D01*
X72090Y-51667D01*
X72090Y-51637D01*
X72080Y-51607D01*
X72071Y-51592D01*
X72052Y-51577D01*
X72015Y-51562D01*
X71996Y-51547D01*
X71986Y-51532D01*
X71977Y-51502D01*
X71977Y-51472D01*
X71986Y-51442D01*
X71996Y-51427D01*
X72015Y-51412D01*
X72061Y-51412D01*
X72090Y-51427D01*
X72155Y-51412D02*
X72202Y-51727D01*
X72240Y-51502D01*
X72277Y-51727D01*
X72324Y-51412D01*
X72502Y-51727D02*
X72389Y-51727D01*
X72446Y-51727D02*
X72446Y-51412D01*
X72427Y-51457D01*
X72408Y-51487D01*
X72389Y-51502D01*
X72105Y-51812D02*
X72105Y-52067D01*
X72114Y-52097D01*
X72124Y-52112D01*
X72142Y-52127D01*
X72180Y-52127D01*
X72199Y-52112D01*
X72208Y-52097D01*
X72217Y-52067D01*
X72217Y-51812D01*
X72311Y-52127D02*
X72311Y-51812D01*
X72386Y-51812D01*
X72405Y-51827D01*
X72414Y-51842D01*
X72424Y-51872D01*
X72424Y-51917D01*
X72414Y-51947D01*
X72405Y-51962D01*
X72386Y-51977D01*
X72311Y-51977D01*
X89337Y-51712D02*
X89365Y-51727D01*
X89412Y-51727D01*
X89431Y-51712D01*
X89440Y-51697D01*
X89450Y-51667D01*
X89450Y-51637D01*
X89440Y-51607D01*
X89431Y-51592D01*
X89412Y-51577D01*
X89375Y-51562D01*
X89356Y-51547D01*
X89346Y-51532D01*
X89337Y-51502D01*
X89337Y-51472D01*
X89346Y-51442D01*
X89356Y-51427D01*
X89375Y-51412D01*
X89421Y-51412D01*
X89450Y-51427D01*
X89515Y-51412D02*
X89562Y-51727D01*
X89600Y-51502D01*
X89637Y-51727D01*
X89684Y-51412D01*
X89787Y-51547D02*
X89768Y-51532D01*
X89759Y-51517D01*
X89749Y-51487D01*
X89749Y-51472D01*
X89759Y-51442D01*
X89768Y-51427D01*
X89787Y-51412D01*
X89824Y-51412D01*
X89843Y-51427D01*
X89853Y-51442D01*
X89862Y-51472D01*
X89862Y-51487D01*
X89853Y-51517D01*
X89843Y-51532D01*
X89824Y-51547D01*
X89787Y-51547D01*
X89768Y-51562D01*
X89759Y-51577D01*
X89749Y-51607D01*
X89749Y-51667D01*
X89759Y-51697D01*
X89768Y-51712D01*
X89787Y-51727D01*
X89824Y-51727D01*
X89843Y-51712D01*
X89853Y-51697D01*
X89862Y-51667D01*
X89862Y-51607D01*
X89853Y-51577D01*
X89843Y-51562D01*
X89824Y-51547D01*
X89534Y-51812D02*
X89665Y-52127D01*
X89665Y-51812D02*
X89534Y-52127D01*
X89337Y-54962D02*
X89365Y-54977D01*
X89412Y-54977D01*
X89431Y-54962D01*
X89440Y-54947D01*
X89450Y-54917D01*
X89450Y-54887D01*
X89440Y-54857D01*
X89431Y-54842D01*
X89412Y-54827D01*
X89375Y-54812D01*
X89356Y-54797D01*
X89346Y-54782D01*
X89337Y-54752D01*
X89337Y-54722D01*
X89346Y-54692D01*
X89356Y-54677D01*
X89375Y-54662D01*
X89421Y-54662D01*
X89450Y-54677D01*
X89515Y-54662D02*
X89562Y-54977D01*
X89600Y-54752D01*
X89637Y-54977D01*
X89684Y-54662D01*
X89843Y-54662D02*
X89806Y-54662D01*
X89787Y-54677D01*
X89778Y-54692D01*
X89759Y-54737D01*
X89749Y-54797D01*
X89749Y-54917D01*
X89759Y-54947D01*
X89768Y-54962D01*
X89787Y-54977D01*
X89824Y-54977D01*
X89843Y-54962D01*
X89853Y-54947D01*
X89862Y-54917D01*
X89862Y-54842D01*
X89853Y-54812D01*
X89843Y-54797D01*
X89824Y-54782D01*
X89787Y-54782D01*
X89768Y-54797D01*
X89759Y-54812D01*
X89749Y-54842D01*
X89614Y-55212D02*
X89642Y-55227D01*
X89651Y-55242D01*
X89660Y-55272D01*
X89660Y-55317D01*
X89651Y-55347D01*
X89642Y-55362D01*
X89623Y-55377D01*
X89548Y-55377D01*
X89548Y-55062D01*
X89614Y-55062D01*
X89632Y-55077D01*
X89642Y-55092D01*
X89651Y-55122D01*
X89651Y-55152D01*
X89642Y-55182D01*
X89632Y-55197D01*
X89614Y-55212D01*
X89548Y-55212D01*
X71917Y-54972D02*
X71945Y-54987D01*
X71992Y-54987D01*
X72011Y-54972D01*
X72020Y-54957D01*
X72030Y-54927D01*
X72030Y-54897D01*
X72020Y-54867D01*
X72011Y-54852D01*
X71992Y-54837D01*
X71955Y-54822D01*
X71936Y-54807D01*
X71926Y-54792D01*
X71917Y-54762D01*
X71917Y-54732D01*
X71926Y-54702D01*
X71936Y-54687D01*
X71955Y-54672D01*
X72001Y-54672D01*
X72030Y-54687D01*
X72095Y-54672D02*
X72142Y-54987D01*
X72180Y-54762D01*
X72217Y-54987D01*
X72264Y-54672D01*
X72329Y-54702D02*
X72339Y-54687D01*
X72358Y-54672D01*
X72404Y-54672D01*
X72423Y-54687D01*
X72433Y-54702D01*
X72442Y-54732D01*
X72442Y-54762D01*
X72433Y-54807D01*
X72320Y-54987D01*
X72442Y-54987D01*
X71829Y-55367D02*
X71829Y-55052D01*
X71876Y-55052D01*
X71904Y-55067D01*
X71923Y-55097D01*
X71932Y-55127D01*
X71942Y-55187D01*
X71942Y-55232D01*
X71932Y-55292D01*
X71923Y-55322D01*
X71904Y-55352D01*
X71876Y-55367D01*
X71829Y-55367D01*
X72064Y-55052D02*
X72101Y-55052D01*
X72120Y-55067D01*
X72139Y-55097D01*
X72148Y-55157D01*
X72148Y-55262D01*
X72139Y-55322D01*
X72120Y-55352D01*
X72101Y-55367D01*
X72064Y-55367D01*
X72045Y-55352D01*
X72026Y-55322D01*
X72017Y-55262D01*
X72017Y-55157D01*
X72026Y-55097D01*
X72045Y-55067D01*
X72064Y-55052D01*
X72214Y-55052D02*
X72260Y-55367D01*
X72298Y-55142D01*
X72335Y-55367D01*
X72382Y-55052D01*
X72457Y-55367D02*
X72457Y-55052D01*
X72570Y-55367D01*
X72570Y-55052D01*
X91037Y-53312D02*
X91065Y-53327D01*
X91112Y-53327D01*
X91131Y-53312D01*
X91140Y-53297D01*
X91150Y-53267D01*
X91150Y-53237D01*
X91140Y-53207D01*
X91131Y-53192D01*
X91112Y-53177D01*
X91075Y-53162D01*
X91056Y-53147D01*
X91046Y-53132D01*
X91037Y-53102D01*
X91037Y-53072D01*
X91046Y-53042D01*
X91056Y-53027D01*
X91075Y-53012D01*
X91121Y-53012D01*
X91150Y-53027D01*
X91215Y-53012D02*
X91262Y-53327D01*
X91300Y-53102D01*
X91337Y-53327D01*
X91384Y-53012D01*
X91553Y-53012D02*
X91459Y-53012D01*
X91449Y-53162D01*
X91459Y-53147D01*
X91478Y-53132D01*
X91524Y-53132D01*
X91543Y-53147D01*
X91553Y-53162D01*
X91562Y-53192D01*
X91562Y-53267D01*
X91553Y-53297D01*
X91543Y-53312D01*
X91524Y-53327D01*
X91478Y-53327D01*
X91459Y-53312D01*
X91449Y-53297D01*
X91253Y-53687D02*
X91346Y-53687D01*
X91234Y-53777D02*
X91300Y-53462D01*
X91365Y-53777D01*
X73637Y-53312D02*
X73665Y-53327D01*
X73712Y-53327D01*
X73731Y-53312D01*
X73740Y-53297D01*
X73750Y-53267D01*
X73750Y-53237D01*
X73740Y-53207D01*
X73731Y-53192D01*
X73712Y-53177D01*
X73675Y-53162D01*
X73656Y-53147D01*
X73646Y-53132D01*
X73637Y-53102D01*
X73637Y-53072D01*
X73646Y-53042D01*
X73656Y-53027D01*
X73675Y-53012D01*
X73721Y-53012D01*
X73750Y-53027D01*
X73815Y-53012D02*
X73862Y-53327D01*
X73900Y-53102D01*
X73937Y-53327D01*
X73984Y-53012D01*
X74143Y-53117D02*
X74143Y-53327D01*
X74096Y-52997D02*
X74049Y-53222D01*
X74171Y-53222D01*
X73487Y-53777D02*
X73421Y-53627D01*
X73375Y-53777D02*
X73375Y-53462D01*
X73450Y-53462D01*
X73468Y-53477D01*
X73478Y-53492D01*
X73487Y-53522D01*
X73487Y-53567D01*
X73478Y-53597D01*
X73468Y-53612D01*
X73450Y-53627D01*
X73375Y-53627D01*
X73571Y-53777D02*
X73571Y-53462D01*
X73768Y-53477D02*
X73750Y-53462D01*
X73721Y-53462D01*
X73693Y-53477D01*
X73675Y-53507D01*
X73665Y-53537D01*
X73656Y-53597D01*
X73656Y-53642D01*
X73665Y-53702D01*
X73675Y-53732D01*
X73693Y-53762D01*
X73721Y-53777D01*
X73740Y-53777D01*
X73768Y-53762D01*
X73778Y-53747D01*
X73778Y-53642D01*
X73740Y-53642D01*
X73862Y-53777D02*
X73862Y-53462D01*
X73862Y-53612D02*
X73974Y-53612D01*
X73974Y-53777D02*
X73974Y-53462D01*
X74040Y-53462D02*
X74153Y-53462D01*
X74096Y-53777D02*
X74096Y-53462D01*
X70237Y-53312D02*
X70265Y-53327D01*
X70312Y-53327D01*
X70331Y-53312D01*
X70340Y-53297D01*
X70350Y-53267D01*
X70350Y-53237D01*
X70340Y-53207D01*
X70331Y-53192D01*
X70312Y-53177D01*
X70275Y-53162D01*
X70256Y-53147D01*
X70246Y-53132D01*
X70237Y-53102D01*
X70237Y-53072D01*
X70246Y-53042D01*
X70256Y-53027D01*
X70275Y-53012D01*
X70321Y-53012D01*
X70350Y-53027D01*
X70415Y-53012D02*
X70462Y-53327D01*
X70500Y-53102D01*
X70537Y-53327D01*
X70584Y-53012D01*
X70640Y-53012D02*
X70762Y-53012D01*
X70696Y-53132D01*
X70724Y-53132D01*
X70743Y-53147D01*
X70753Y-53162D01*
X70762Y-53192D01*
X70762Y-53267D01*
X70753Y-53297D01*
X70743Y-53312D01*
X70724Y-53327D01*
X70668Y-53327D01*
X70649Y-53312D01*
X70640Y-53297D01*
X70362Y-53777D02*
X70268Y-53777D01*
X70268Y-53462D01*
X70428Y-53612D02*
X70493Y-53612D01*
X70521Y-53777D02*
X70428Y-53777D01*
X70428Y-53462D01*
X70521Y-53462D01*
X70671Y-53612D02*
X70606Y-53612D01*
X70606Y-53777D02*
X70606Y-53462D01*
X70699Y-53462D01*
X70746Y-53462D02*
X70859Y-53462D01*
X70803Y-53777D02*
X70803Y-53462D01*
X87637Y-53312D02*
X87665Y-53327D01*
X87712Y-53327D01*
X87731Y-53312D01*
X87740Y-53297D01*
X87750Y-53267D01*
X87750Y-53237D01*
X87740Y-53207D01*
X87731Y-53192D01*
X87712Y-53177D01*
X87675Y-53162D01*
X87656Y-53147D01*
X87646Y-53132D01*
X87637Y-53102D01*
X87637Y-53072D01*
X87646Y-53042D01*
X87656Y-53027D01*
X87675Y-53012D01*
X87721Y-53012D01*
X87750Y-53027D01*
X87815Y-53012D02*
X87862Y-53327D01*
X87900Y-53102D01*
X87937Y-53327D01*
X87984Y-53012D01*
X88068Y-53327D02*
X88106Y-53327D01*
X88124Y-53312D01*
X88134Y-53297D01*
X88153Y-53252D01*
X88162Y-53192D01*
X88162Y-53072D01*
X88153Y-53042D01*
X88143Y-53027D01*
X88124Y-53012D01*
X88087Y-53012D01*
X88068Y-53027D01*
X88059Y-53042D01*
X88049Y-53072D01*
X88049Y-53147D01*
X88059Y-53177D01*
X88068Y-53192D01*
X88087Y-53207D01*
X88124Y-53207D01*
X88143Y-53192D01*
X88153Y-53177D01*
X88162Y-53147D01*
X87900Y-53627D02*
X87900Y-53777D01*
X87834Y-53462D02*
X87900Y-53627D01*
X87965Y-53462D01*
X82506Y-51777D02*
X82506Y-51927D01*
X82440Y-51612D02*
X82506Y-51777D01*
X82571Y-51612D01*
X82740Y-51927D02*
X82628Y-51927D01*
X82684Y-51927D02*
X82684Y-51612D01*
X82665Y-51657D01*
X82646Y-51687D01*
X82628Y-51702D01*
X82285Y-52147D02*
X82267Y-52132D01*
X82257Y-52117D01*
X82248Y-52087D01*
X82248Y-52072D01*
X82257Y-52042D01*
X82267Y-52027D01*
X82285Y-52012D01*
X82323Y-52012D01*
X82342Y-52027D01*
X82351Y-52042D01*
X82360Y-52072D01*
X82360Y-52087D01*
X82351Y-52117D01*
X82342Y-52132D01*
X82323Y-52147D01*
X82285Y-52147D01*
X82267Y-52162D01*
X82257Y-52177D01*
X82248Y-52207D01*
X82248Y-52267D01*
X82257Y-52297D01*
X82267Y-52312D01*
X82285Y-52327D01*
X82323Y-52327D01*
X82342Y-52312D01*
X82351Y-52297D01*
X82360Y-52267D01*
X82360Y-52207D01*
X82351Y-52177D01*
X82342Y-52162D01*
X82323Y-52147D01*
X82445Y-52327D02*
X82445Y-52012D01*
X82510Y-52237D01*
X82576Y-52012D01*
X82576Y-52327D01*
X82670Y-52327D02*
X82670Y-52012D01*
X82670Y-52162D02*
X82782Y-52162D01*
X82782Y-52327D02*
X82782Y-52012D01*
X82857Y-52117D02*
X82960Y-52117D01*
X82857Y-52327D01*
X82960Y-52327D01*
X82447Y-50117D02*
X82437Y-50132D01*
X82409Y-50147D01*
X82390Y-50147D01*
X82362Y-50132D01*
X82344Y-50102D01*
X82334Y-50072D01*
X82325Y-50012D01*
X82325Y-49967D01*
X82334Y-49907D01*
X82344Y-49877D01*
X82362Y-49847D01*
X82390Y-49832D01*
X82409Y-49832D01*
X82437Y-49847D01*
X82447Y-49862D01*
X82512Y-49832D02*
X82644Y-49832D01*
X82559Y-50147D01*
X82393Y-50547D02*
X82280Y-50547D01*
X82337Y-50547D02*
X82337Y-50232D01*
X82318Y-50277D01*
X82299Y-50307D01*
X82280Y-50322D01*
X82515Y-50232D02*
X82534Y-50232D01*
X82552Y-50247D01*
X82562Y-50262D01*
X82571Y-50292D01*
X82580Y-50352D01*
X82580Y-50427D01*
X82571Y-50487D01*
X82562Y-50517D01*
X82552Y-50532D01*
X82534Y-50547D01*
X82515Y-50547D01*
X82496Y-50532D01*
X82487Y-50517D01*
X82477Y-50487D01*
X82468Y-50427D01*
X82468Y-50352D01*
X82477Y-50292D01*
X82487Y-50262D01*
X82496Y-50247D01*
X82515Y-50232D01*
X82665Y-50337D02*
X82665Y-50652D01*
X82665Y-50352D02*
X82684Y-50337D01*
X82721Y-50337D01*
X82740Y-50352D01*
X82749Y-50367D01*
X82759Y-50397D01*
X82759Y-50487D01*
X82749Y-50517D01*
X82740Y-50532D01*
X82721Y-50547D01*
X82684Y-50547D01*
X82665Y-50532D01*
X78887Y-50137D02*
X78877Y-50152D01*
X78849Y-50167D01*
X78830Y-50167D01*
X78802Y-50152D01*
X78784Y-50122D01*
X78774Y-50092D01*
X78765Y-50032D01*
X78765Y-49987D01*
X78774Y-49927D01*
X78784Y-49897D01*
X78802Y-49867D01*
X78830Y-49852D01*
X78849Y-49852D01*
X78877Y-49867D01*
X78887Y-49882D01*
X79055Y-49852D02*
X79018Y-49852D01*
X78999Y-49867D01*
X78990Y-49882D01*
X78971Y-49927D01*
X78962Y-49987D01*
X78962Y-50107D01*
X78971Y-50137D01*
X78980Y-50152D01*
X78999Y-50167D01*
X79037Y-50167D01*
X79055Y-50152D01*
X79065Y-50137D01*
X79074Y-50107D01*
X79074Y-50032D01*
X79065Y-50002D01*
X79055Y-49987D01*
X79037Y-49972D01*
X78999Y-49972D01*
X78980Y-49987D01*
X78971Y-50002D01*
X78962Y-50032D01*
X78853Y-50567D02*
X78740Y-50567D01*
X78797Y-50567D02*
X78797Y-50252D01*
X78778Y-50297D01*
X78759Y-50327D01*
X78740Y-50342D01*
X78975Y-50252D02*
X78994Y-50252D01*
X79012Y-50267D01*
X79022Y-50282D01*
X79031Y-50312D01*
X79040Y-50372D01*
X79040Y-50447D01*
X79031Y-50507D01*
X79022Y-50537D01*
X79012Y-50552D01*
X78994Y-50567D01*
X78975Y-50567D01*
X78956Y-50552D01*
X78947Y-50537D01*
X78937Y-50507D01*
X78928Y-50447D01*
X78928Y-50372D01*
X78937Y-50312D01*
X78947Y-50282D01*
X78956Y-50267D01*
X78975Y-50252D01*
X79125Y-50357D02*
X79125Y-50672D01*
X79125Y-50372D02*
X79144Y-50357D01*
X79181Y-50357D01*
X79200Y-50372D01*
X79209Y-50387D01*
X79219Y-50417D01*
X79219Y-50507D01*
X79209Y-50537D01*
X79200Y-50552D01*
X79181Y-50567D01*
X79144Y-50567D01*
X79125Y-50552D01*
X94247Y-58152D02*
X94262Y-58162D01*
X94277Y-58190D01*
X94277Y-58209D01*
X94262Y-58237D01*
X94232Y-58255D01*
X94202Y-58265D01*
X94142Y-58274D01*
X94097Y-58274D01*
X94037Y-58265D01*
X94007Y-58255D01*
X93977Y-58237D01*
X93962Y-58209D01*
X93962Y-58190D01*
X93977Y-58162D01*
X93992Y-58152D01*
X93962Y-57974D02*
X93962Y-58068D01*
X94112Y-58077D01*
X94097Y-58068D01*
X94082Y-58049D01*
X94082Y-58002D01*
X94097Y-57984D01*
X94112Y-57974D01*
X94142Y-57965D01*
X94217Y-57965D01*
X94247Y-57974D01*
X94262Y-57984D01*
X94277Y-58002D01*
X94277Y-58049D01*
X94262Y-58068D01*
X94247Y-58077D01*
X94277Y-57730D02*
X94277Y-57843D01*
X94277Y-57787D02*
X93962Y-57787D01*
X94007Y-57805D01*
X94037Y-57824D01*
X94052Y-57843D01*
X93962Y-57609D02*
X93962Y-57590D01*
X93977Y-57571D01*
X93992Y-57562D01*
X94022Y-57552D01*
X94082Y-57543D01*
X94157Y-57543D01*
X94217Y-57552D01*
X94247Y-57562D01*
X94262Y-57571D01*
X94277Y-57590D01*
X94277Y-57609D01*
X94262Y-57627D01*
X94247Y-57637D01*
X94217Y-57646D01*
X94157Y-57655D01*
X94082Y-57655D01*
X94022Y-57646D01*
X93992Y-57637D01*
X93977Y-57627D01*
X93962Y-57609D01*
X94067Y-57374D02*
X94277Y-57374D01*
X94067Y-57459D02*
X94232Y-57459D01*
X94262Y-57449D01*
X94277Y-57430D01*
X94277Y-57402D01*
X94262Y-57384D01*
X94247Y-57374D01*
X94112Y-57215D02*
X94112Y-57280D01*
X94277Y-57280D02*
X93962Y-57280D01*
X93962Y-57187D01*
X78242Y-54822D02*
X78232Y-54837D01*
X78204Y-54852D01*
X78185Y-54852D01*
X78157Y-54837D01*
X78139Y-54807D01*
X78129Y-54777D01*
X78120Y-54717D01*
X78120Y-54672D01*
X78129Y-54612D01*
X78139Y-54582D01*
X78157Y-54552D01*
X78185Y-54537D01*
X78204Y-54537D01*
X78232Y-54552D01*
X78242Y-54567D01*
X78410Y-54642D02*
X78410Y-54852D01*
X78364Y-54522D02*
X78317Y-54747D01*
X78439Y-54747D01*
X78143Y-55252D02*
X78031Y-55252D01*
X78087Y-55252D02*
X78087Y-54937D01*
X78068Y-54982D01*
X78050Y-55012D01*
X78031Y-55027D01*
X78265Y-54937D02*
X78284Y-54937D01*
X78303Y-54952D01*
X78312Y-54967D01*
X78321Y-54997D01*
X78331Y-55057D01*
X78331Y-55132D01*
X78321Y-55192D01*
X78312Y-55222D01*
X78303Y-55237D01*
X78284Y-55252D01*
X78265Y-55252D01*
X78246Y-55237D01*
X78237Y-55222D01*
X78228Y-55192D01*
X78218Y-55132D01*
X78218Y-55057D01*
X78228Y-54997D01*
X78237Y-54967D01*
X78246Y-54952D01*
X78265Y-54937D01*
X78499Y-55042D02*
X78499Y-55252D01*
X78453Y-54922D02*
X78406Y-55147D01*
X78528Y-55147D01*
X81767Y-52897D02*
X81757Y-52912D01*
X81729Y-52927D01*
X81710Y-52927D01*
X81682Y-52912D01*
X81664Y-52882D01*
X81654Y-52852D01*
X81645Y-52792D01*
X81645Y-52747D01*
X81654Y-52687D01*
X81664Y-52657D01*
X81682Y-52627D01*
X81710Y-52612D01*
X81729Y-52612D01*
X81757Y-52627D01*
X81767Y-52642D01*
X81832Y-52612D02*
X81954Y-52612D01*
X81889Y-52732D01*
X81917Y-52732D01*
X81935Y-52747D01*
X81945Y-52762D01*
X81954Y-52792D01*
X81954Y-52867D01*
X81945Y-52897D01*
X81935Y-52912D01*
X81917Y-52927D01*
X81860Y-52927D01*
X81842Y-52912D01*
X81832Y-52897D01*
X81168Y-52927D02*
X81056Y-52927D01*
X81112Y-52927D02*
X81112Y-52612D01*
X81093Y-52657D01*
X81075Y-52687D01*
X81056Y-52702D01*
X81290Y-52612D02*
X81309Y-52612D01*
X81328Y-52627D01*
X81337Y-52642D01*
X81346Y-52672D01*
X81356Y-52732D01*
X81356Y-52807D01*
X81346Y-52867D01*
X81337Y-52897D01*
X81328Y-52912D01*
X81309Y-52927D01*
X81290Y-52927D01*
X81271Y-52912D01*
X81262Y-52897D01*
X81253Y-52867D01*
X81243Y-52807D01*
X81243Y-52732D01*
X81253Y-52672D01*
X81262Y-52642D01*
X81271Y-52627D01*
X81290Y-52612D01*
X81524Y-52717D02*
X81524Y-52927D01*
X81478Y-52597D02*
X81431Y-52822D01*
X81553Y-52822D01*
X83447Y-57667D02*
X83437Y-57682D01*
X83409Y-57697D01*
X83390Y-57697D01*
X83362Y-57682D01*
X83344Y-57652D01*
X83334Y-57622D01*
X83325Y-57562D01*
X83325Y-57517D01*
X83334Y-57457D01*
X83344Y-57427D01*
X83362Y-57397D01*
X83390Y-57382D01*
X83409Y-57382D01*
X83437Y-57397D01*
X83447Y-57412D01*
X83522Y-57412D02*
X83531Y-57397D01*
X83550Y-57382D01*
X83597Y-57382D01*
X83615Y-57397D01*
X83625Y-57412D01*
X83634Y-57442D01*
X83634Y-57472D01*
X83625Y-57517D01*
X83512Y-57697D01*
X83634Y-57697D01*
X82848Y-57697D02*
X82736Y-57697D01*
X82792Y-57697D02*
X82792Y-57382D01*
X82773Y-57427D01*
X82755Y-57457D01*
X82736Y-57472D01*
X82970Y-57382D02*
X82989Y-57382D01*
X83008Y-57397D01*
X83017Y-57412D01*
X83026Y-57442D01*
X83036Y-57502D01*
X83036Y-57577D01*
X83026Y-57637D01*
X83017Y-57667D01*
X83008Y-57682D01*
X82989Y-57697D01*
X82970Y-57697D01*
X82951Y-57682D01*
X82942Y-57667D01*
X82933Y-57637D01*
X82923Y-57577D01*
X82923Y-57502D01*
X82933Y-57442D01*
X82942Y-57412D01*
X82951Y-57397D01*
X82970Y-57382D01*
X83204Y-57487D02*
X83204Y-57697D01*
X83158Y-57367D02*
X83111Y-57592D01*
X83233Y-57592D01*
X82967Y-53147D02*
X82957Y-53162D01*
X82929Y-53177D01*
X82910Y-53177D01*
X82882Y-53162D01*
X82864Y-53132D01*
X82854Y-53102D01*
X82845Y-53042D01*
X82845Y-52997D01*
X82854Y-52937D01*
X82864Y-52907D01*
X82882Y-52877D01*
X82910Y-52862D01*
X82929Y-52862D01*
X82957Y-52877D01*
X82967Y-52892D01*
X83154Y-53177D02*
X83042Y-53177D01*
X83098Y-53177D02*
X83098Y-52862D01*
X83079Y-52907D01*
X83060Y-52937D01*
X83042Y-52952D01*
X82868Y-53577D02*
X82756Y-53577D01*
X82812Y-53577D02*
X82812Y-53262D01*
X82793Y-53307D01*
X82775Y-53337D01*
X82756Y-53352D01*
X82990Y-53262D02*
X83009Y-53262D01*
X83028Y-53277D01*
X83037Y-53292D01*
X83046Y-53322D01*
X83056Y-53382D01*
X83056Y-53457D01*
X83046Y-53517D01*
X83037Y-53547D01*
X83028Y-53562D01*
X83009Y-53577D01*
X82990Y-53577D01*
X82971Y-53562D01*
X82962Y-53547D01*
X82953Y-53517D01*
X82943Y-53457D01*
X82943Y-53382D01*
X82953Y-53322D01*
X82962Y-53292D01*
X82971Y-53277D01*
X82990Y-53262D01*
X83224Y-53367D02*
X83224Y-53577D01*
X83178Y-53247D02*
X83131Y-53472D01*
X83253Y-53472D01*
X95837Y-56372D02*
X95865Y-56387D01*
X95912Y-56387D01*
X95931Y-56372D01*
X95940Y-56357D01*
X95950Y-56327D01*
X95950Y-56297D01*
X95940Y-56267D01*
X95931Y-56252D01*
X95912Y-56237D01*
X95875Y-56222D01*
X95856Y-56207D01*
X95846Y-56192D01*
X95837Y-56162D01*
X95837Y-56132D01*
X95846Y-56102D01*
X95856Y-56087D01*
X95875Y-56072D01*
X95921Y-56072D01*
X95950Y-56087D01*
X96015Y-56072D02*
X96062Y-56387D01*
X96100Y-56162D01*
X96137Y-56387D01*
X96184Y-56072D01*
X96240Y-56072D02*
X96371Y-56072D01*
X96287Y-56387D01*
X95992Y-55987D02*
X95926Y-55837D01*
X95879Y-55987D02*
X95879Y-55672D01*
X95954Y-55672D01*
X95973Y-55687D01*
X95982Y-55702D01*
X95992Y-55732D01*
X95992Y-55777D01*
X95982Y-55807D01*
X95973Y-55822D01*
X95954Y-55837D01*
X95879Y-55837D01*
X96067Y-55972D02*
X96095Y-55987D01*
X96142Y-55987D01*
X96160Y-55972D01*
X96170Y-55957D01*
X96179Y-55927D01*
X96179Y-55897D01*
X96170Y-55867D01*
X96160Y-55852D01*
X96142Y-55837D01*
X96104Y-55822D01*
X96085Y-55807D01*
X96076Y-55792D01*
X96067Y-55762D01*
X96067Y-55732D01*
X96076Y-55702D01*
X96085Y-55687D01*
X96104Y-55672D01*
X96151Y-55672D01*
X96179Y-55687D01*
X96235Y-55672D02*
X96348Y-55672D01*
X96292Y-55987D02*
X96292Y-55672D01*
X64293Y-50982D02*
X64321Y-50997D01*
X64368Y-50997D01*
X64387Y-50982D01*
X64396Y-50967D01*
X64406Y-50937D01*
X64406Y-50907D01*
X64396Y-50877D01*
X64387Y-50862D01*
X64368Y-50847D01*
X64331Y-50832D01*
X64312Y-50817D01*
X64303Y-50802D01*
X64293Y-50772D01*
X64293Y-50742D01*
X64303Y-50712D01*
X64312Y-50697D01*
X64331Y-50682D01*
X64378Y-50682D01*
X64406Y-50697D01*
X64471Y-50682D02*
X64518Y-50997D01*
X64556Y-50772D01*
X64593Y-50997D01*
X64640Y-50682D01*
X64818Y-50997D02*
X64706Y-50997D01*
X64762Y-50997D02*
X64762Y-50682D01*
X64743Y-50727D01*
X64724Y-50757D01*
X64706Y-50772D01*
X64940Y-50682D02*
X64959Y-50682D01*
X64978Y-50697D01*
X64987Y-50712D01*
X64996Y-50742D01*
X65006Y-50802D01*
X65006Y-50877D01*
X64996Y-50937D01*
X64987Y-50967D01*
X64978Y-50982D01*
X64959Y-50997D01*
X64940Y-50997D01*
X64921Y-50982D01*
X64912Y-50967D01*
X64903Y-50937D01*
X64893Y-50877D01*
X64893Y-50802D01*
X64903Y-50742D01*
X64912Y-50712D01*
X64921Y-50697D01*
X64940Y-50682D01*
X65310Y-50997D02*
X65217Y-50997D01*
X65217Y-50682D01*
X94643Y-50932D02*
X94671Y-50947D01*
X94718Y-50947D01*
X94737Y-50932D01*
X94746Y-50917D01*
X94756Y-50887D01*
X94756Y-50857D01*
X94746Y-50827D01*
X94737Y-50812D01*
X94718Y-50797D01*
X94681Y-50782D01*
X94662Y-50767D01*
X94653Y-50752D01*
X94643Y-50722D01*
X94643Y-50692D01*
X94653Y-50662D01*
X94662Y-50647D01*
X94681Y-50632D01*
X94728Y-50632D01*
X94756Y-50647D01*
X94821Y-50632D02*
X94868Y-50947D01*
X94906Y-50722D01*
X94943Y-50947D01*
X94990Y-50632D01*
X95168Y-50947D02*
X95056Y-50947D01*
X95112Y-50947D02*
X95112Y-50632D01*
X95093Y-50677D01*
X95074Y-50707D01*
X95056Y-50722D01*
X95356Y-50947D02*
X95243Y-50947D01*
X95299Y-50947D02*
X95299Y-50632D01*
X95281Y-50677D01*
X95262Y-50707D01*
X95243Y-50722D01*
X95610Y-50947D02*
X95545Y-50797D01*
X95498Y-50947D02*
X95498Y-50632D01*
X95573Y-50632D01*
X95592Y-50647D01*
X95601Y-50662D01*
X95610Y-50692D01*
X95610Y-50737D01*
X95601Y-50767D01*
X95592Y-50782D01*
X95573Y-50797D01*
X95498Y-50797D01*
X77243Y-58812D02*
X77271Y-58827D01*
X77318Y-58827D01*
X77337Y-58812D01*
X77346Y-58797D01*
X77356Y-58767D01*
X77356Y-58737D01*
X77346Y-58707D01*
X77337Y-58692D01*
X77318Y-58677D01*
X77281Y-58662D01*
X77262Y-58647D01*
X77253Y-58632D01*
X77243Y-58602D01*
X77243Y-58572D01*
X77253Y-58542D01*
X77262Y-58527D01*
X77281Y-58512D01*
X77328Y-58512D01*
X77356Y-58527D01*
X77421Y-58512D02*
X77468Y-58827D01*
X77506Y-58602D01*
X77543Y-58827D01*
X77590Y-58512D01*
X77768Y-58827D02*
X77656Y-58827D01*
X77712Y-58827D02*
X77712Y-58512D01*
X77693Y-58557D01*
X77674Y-58587D01*
X77656Y-58602D01*
X77843Y-58542D02*
X77853Y-58527D01*
X77871Y-58512D01*
X77918Y-58512D01*
X77937Y-58527D01*
X77946Y-58542D01*
X77956Y-58572D01*
X77956Y-58602D01*
X77946Y-58647D01*
X77834Y-58827D01*
X77956Y-58827D01*
X77112Y-58412D02*
X77140Y-58427D01*
X77187Y-58427D01*
X77206Y-58412D01*
X77215Y-58397D01*
X77225Y-58367D01*
X77225Y-58337D01*
X77215Y-58307D01*
X77206Y-58292D01*
X77187Y-58277D01*
X77150Y-58262D01*
X77131Y-58247D01*
X77121Y-58232D01*
X77112Y-58202D01*
X77112Y-58172D01*
X77121Y-58142D01*
X77131Y-58127D01*
X77150Y-58112D01*
X77196Y-58112D01*
X77225Y-58127D01*
X77309Y-58262D02*
X77375Y-58262D01*
X77403Y-58427D02*
X77309Y-58427D01*
X77309Y-58112D01*
X77403Y-58112D01*
X77581Y-58427D02*
X77487Y-58427D01*
X77487Y-58112D01*
X77646Y-58262D02*
X77712Y-58262D01*
X77740Y-58427D02*
X77646Y-58427D01*
X77646Y-58112D01*
X77740Y-58112D01*
X77937Y-58397D02*
X77928Y-58412D01*
X77899Y-58427D01*
X77881Y-58427D01*
X77853Y-58412D01*
X77834Y-58382D01*
X77824Y-58352D01*
X77815Y-58292D01*
X77815Y-58247D01*
X77824Y-58187D01*
X77834Y-58157D01*
X77853Y-58127D01*
X77881Y-58112D01*
X77899Y-58112D01*
X77928Y-58127D01*
X77937Y-58142D01*
X77993Y-58112D02*
X78106Y-58112D01*
X78049Y-58427D02*
X78049Y-58112D01*
X83693Y-58812D02*
X83721Y-58827D01*
X83768Y-58827D01*
X83787Y-58812D01*
X83796Y-58797D01*
X83806Y-58767D01*
X83806Y-58737D01*
X83796Y-58707D01*
X83787Y-58692D01*
X83768Y-58677D01*
X83731Y-58662D01*
X83712Y-58647D01*
X83703Y-58632D01*
X83693Y-58602D01*
X83693Y-58572D01*
X83703Y-58542D01*
X83712Y-58527D01*
X83731Y-58512D01*
X83778Y-58512D01*
X83806Y-58527D01*
X83871Y-58512D02*
X83918Y-58827D01*
X83956Y-58602D01*
X83993Y-58827D01*
X84040Y-58512D01*
X84218Y-58827D02*
X84106Y-58827D01*
X84162Y-58827D02*
X84162Y-58512D01*
X84143Y-58557D01*
X84124Y-58587D01*
X84106Y-58602D01*
X84284Y-58512D02*
X84406Y-58512D01*
X84340Y-58632D01*
X84368Y-58632D01*
X84387Y-58647D01*
X84396Y-58662D01*
X84406Y-58692D01*
X84406Y-58767D01*
X84396Y-58797D01*
X84387Y-58812D01*
X84368Y-58827D01*
X84312Y-58827D01*
X84293Y-58812D01*
X84284Y-58797D01*
X83660Y-58412D02*
X83689Y-58427D01*
X83735Y-58427D01*
X83754Y-58412D01*
X83764Y-58397D01*
X83773Y-58367D01*
X83773Y-58337D01*
X83764Y-58307D01*
X83754Y-58292D01*
X83735Y-58277D01*
X83698Y-58262D01*
X83679Y-58247D01*
X83670Y-58232D01*
X83660Y-58202D01*
X83660Y-58172D01*
X83670Y-58142D01*
X83679Y-58127D01*
X83698Y-58112D01*
X83745Y-58112D01*
X83773Y-58127D01*
X83829Y-58112D02*
X83942Y-58112D01*
X83885Y-58427D02*
X83885Y-58112D01*
X83998Y-58337D02*
X84092Y-58337D01*
X83979Y-58427D02*
X84045Y-58112D01*
X84110Y-58427D01*
X84289Y-58427D02*
X84223Y-58277D01*
X84176Y-58427D02*
X84176Y-58112D01*
X84251Y-58112D01*
X84270Y-58127D01*
X84279Y-58142D01*
X84289Y-58172D01*
X84289Y-58217D01*
X84279Y-58247D01*
X84270Y-58262D01*
X84251Y-58277D01*
X84176Y-58277D01*
X84345Y-58112D02*
X84457Y-58112D01*
X84401Y-58427D02*
X84401Y-58112D01*
X95743Y-58892D02*
X95771Y-58907D01*
X95818Y-58907D01*
X95837Y-58892D01*
X95846Y-58877D01*
X95856Y-58847D01*
X95856Y-58817D01*
X95846Y-58787D01*
X95837Y-58772D01*
X95818Y-58757D01*
X95781Y-58742D01*
X95762Y-58727D01*
X95753Y-58712D01*
X95743Y-58682D01*
X95743Y-58652D01*
X95753Y-58622D01*
X95762Y-58607D01*
X95781Y-58592D01*
X95828Y-58592D01*
X95856Y-58607D01*
X95921Y-58592D02*
X95968Y-58907D01*
X96006Y-58682D01*
X96043Y-58907D01*
X96090Y-58592D01*
X96268Y-58907D02*
X96156Y-58907D01*
X96212Y-58907D02*
X96212Y-58592D01*
X96193Y-58637D01*
X96174Y-58667D01*
X96156Y-58682D01*
X96437Y-58697D02*
X96437Y-58907D01*
X96390Y-58577D02*
X96343Y-58802D01*
X96465Y-58802D01*
X95941Y-58362D02*
X95970Y-58377D01*
X95979Y-58392D01*
X95988Y-58422D01*
X95988Y-58467D01*
X95979Y-58497D01*
X95970Y-58512D01*
X95951Y-58527D01*
X95876Y-58527D01*
X95876Y-58212D01*
X95941Y-58212D01*
X95960Y-58227D01*
X95970Y-58242D01*
X95979Y-58272D01*
X95979Y-58302D01*
X95970Y-58332D01*
X95960Y-58347D01*
X95941Y-58362D01*
X95876Y-58362D01*
X96073Y-58527D02*
X96073Y-58212D01*
X96185Y-58527D02*
X96101Y-58347D01*
X96185Y-58212D02*
X96073Y-58392D01*
X96373Y-58527D02*
X96260Y-58527D01*
X96316Y-58527D02*
X96316Y-58212D01*
X96298Y-58257D01*
X96279Y-58287D01*
X96260Y-58302D01*
X92763Y-58912D02*
X92791Y-58927D01*
X92838Y-58927D01*
X92857Y-58912D01*
X92866Y-58897D01*
X92876Y-58867D01*
X92876Y-58837D01*
X92866Y-58807D01*
X92857Y-58792D01*
X92838Y-58777D01*
X92801Y-58762D01*
X92782Y-58747D01*
X92773Y-58732D01*
X92763Y-58702D01*
X92763Y-58672D01*
X92773Y-58642D01*
X92782Y-58627D01*
X92801Y-58612D01*
X92848Y-58612D01*
X92876Y-58627D01*
X92941Y-58612D02*
X92988Y-58927D01*
X93026Y-58702D01*
X93063Y-58927D01*
X93110Y-58612D01*
X93288Y-58927D02*
X93176Y-58927D01*
X93232Y-58927D02*
X93232Y-58612D01*
X93213Y-58657D01*
X93194Y-58687D01*
X93176Y-58702D01*
X93466Y-58612D02*
X93373Y-58612D01*
X93363Y-58762D01*
X93373Y-58747D01*
X93391Y-58732D01*
X93438Y-58732D01*
X93457Y-58747D01*
X93466Y-58762D01*
X93476Y-58792D01*
X93476Y-58867D01*
X93466Y-58897D01*
X93457Y-58912D01*
X93438Y-58927D01*
X93391Y-58927D01*
X93373Y-58912D01*
X93363Y-58897D01*
X92921Y-58382D02*
X92950Y-58397D01*
X92959Y-58412D01*
X92968Y-58442D01*
X92968Y-58487D01*
X92959Y-58517D01*
X92950Y-58532D01*
X92931Y-58547D01*
X92856Y-58547D01*
X92856Y-58232D01*
X92921Y-58232D01*
X92940Y-58247D01*
X92950Y-58262D01*
X92959Y-58292D01*
X92959Y-58322D01*
X92950Y-58352D01*
X92940Y-58367D01*
X92921Y-58382D01*
X92856Y-58382D01*
X93053Y-58547D02*
X93053Y-58232D01*
X93165Y-58547D02*
X93081Y-58367D01*
X93165Y-58232D02*
X93053Y-58412D01*
X93240Y-58262D02*
X93249Y-58247D01*
X93268Y-58232D01*
X93315Y-58232D01*
X93334Y-58247D01*
X93343Y-58262D01*
X93353Y-58292D01*
X93353Y-58322D01*
X93343Y-58367D01*
X93231Y-58547D01*
X93353Y-58547D01*
X65333Y-58832D02*
X65361Y-58847D01*
X65408Y-58847D01*
X65427Y-58832D01*
X65436Y-58817D01*
X65446Y-58787D01*
X65446Y-58757D01*
X65436Y-58727D01*
X65427Y-58712D01*
X65408Y-58697D01*
X65371Y-58682D01*
X65352Y-58667D01*
X65343Y-58652D01*
X65333Y-58622D01*
X65333Y-58592D01*
X65343Y-58562D01*
X65352Y-58547D01*
X65371Y-58532D01*
X65418Y-58532D01*
X65446Y-58547D01*
X65511Y-58532D02*
X65558Y-58847D01*
X65596Y-58622D01*
X65633Y-58847D01*
X65680Y-58532D01*
X65858Y-58847D02*
X65746Y-58847D01*
X65802Y-58847D02*
X65802Y-58532D01*
X65783Y-58577D01*
X65764Y-58607D01*
X65746Y-58622D01*
X66027Y-58532D02*
X65989Y-58532D01*
X65971Y-58547D01*
X65961Y-58562D01*
X65943Y-58607D01*
X65933Y-58667D01*
X65933Y-58787D01*
X65943Y-58817D01*
X65952Y-58832D01*
X65971Y-58847D01*
X66008Y-58847D01*
X66027Y-58832D01*
X66036Y-58817D01*
X66046Y-58787D01*
X66046Y-58712D01*
X66036Y-58682D01*
X66027Y-58667D01*
X66008Y-58652D01*
X65971Y-58652D01*
X65952Y-58667D01*
X65943Y-58682D01*
X65933Y-58712D01*
X65491Y-58302D02*
X65520Y-58317D01*
X65529Y-58332D01*
X65538Y-58362D01*
X65538Y-58407D01*
X65529Y-58437D01*
X65520Y-58452D01*
X65501Y-58467D01*
X65426Y-58467D01*
X65426Y-58152D01*
X65491Y-58152D01*
X65510Y-58167D01*
X65520Y-58182D01*
X65529Y-58212D01*
X65529Y-58242D01*
X65520Y-58272D01*
X65510Y-58287D01*
X65491Y-58302D01*
X65426Y-58302D01*
X65623Y-58467D02*
X65623Y-58152D01*
X65735Y-58467D02*
X65651Y-58287D01*
X65735Y-58152D02*
X65623Y-58332D01*
X65801Y-58152D02*
X65923Y-58152D01*
X65857Y-58272D01*
X65885Y-58272D01*
X65904Y-58287D01*
X65913Y-58302D01*
X65923Y-58332D01*
X65923Y-58407D01*
X65913Y-58437D01*
X65904Y-58452D01*
X65885Y-58467D01*
X65829Y-58467D01*
X65810Y-58452D01*
X65801Y-58437D01*
X68343Y-58792D02*
X68371Y-58807D01*
X68418Y-58807D01*
X68437Y-58792D01*
X68446Y-58777D01*
X68456Y-58747D01*
X68456Y-58717D01*
X68446Y-58687D01*
X68437Y-58672D01*
X68418Y-58657D01*
X68381Y-58642D01*
X68362Y-58627D01*
X68353Y-58612D01*
X68343Y-58582D01*
X68343Y-58552D01*
X68353Y-58522D01*
X68362Y-58507D01*
X68381Y-58492D01*
X68428Y-58492D01*
X68456Y-58507D01*
X68521Y-58492D02*
X68568Y-58807D01*
X68606Y-58582D01*
X68643Y-58807D01*
X68690Y-58492D01*
X68868Y-58807D02*
X68756Y-58807D01*
X68812Y-58807D02*
X68812Y-58492D01*
X68793Y-58537D01*
X68774Y-58567D01*
X68756Y-58582D01*
X68934Y-58492D02*
X69065Y-58492D01*
X68981Y-58807D01*
X68501Y-58262D02*
X68530Y-58277D01*
X68539Y-58292D01*
X68548Y-58322D01*
X68548Y-58367D01*
X68539Y-58397D01*
X68530Y-58412D01*
X68511Y-58427D01*
X68436Y-58427D01*
X68436Y-58112D01*
X68501Y-58112D01*
X68520Y-58127D01*
X68530Y-58142D01*
X68539Y-58172D01*
X68539Y-58202D01*
X68530Y-58232D01*
X68520Y-58247D01*
X68501Y-58262D01*
X68436Y-58262D01*
X68633Y-58427D02*
X68633Y-58112D01*
X68745Y-58427D02*
X68661Y-58247D01*
X68745Y-58112D02*
X68633Y-58292D01*
X68914Y-58217D02*
X68914Y-58427D01*
X68867Y-58097D02*
X68820Y-58322D01*
X68942Y-58322D01*
X80234Y-58662D02*
X80234Y-58887D01*
X80225Y-58932D01*
X80206Y-58962D01*
X80178Y-58977D01*
X80159Y-58977D01*
X80431Y-58977D02*
X80318Y-58977D01*
X80374Y-58977D02*
X80374Y-58662D01*
X80356Y-58707D01*
X80337Y-58737D01*
X80318Y-58752D01*
X79178Y-58662D02*
X79178Y-58917D01*
X79187Y-58947D01*
X79196Y-58962D01*
X79215Y-58977D01*
X79253Y-58977D01*
X79271Y-58962D01*
X79281Y-58947D01*
X79290Y-58917D01*
X79290Y-58662D01*
X79375Y-58962D02*
X79403Y-58977D01*
X79450Y-58977D01*
X79468Y-58962D01*
X79478Y-58947D01*
X79487Y-58917D01*
X79487Y-58887D01*
X79478Y-58857D01*
X79468Y-58842D01*
X79450Y-58827D01*
X79412Y-58812D01*
X79393Y-58797D01*
X79384Y-58782D01*
X79375Y-58752D01*
X79375Y-58722D01*
X79384Y-58692D01*
X79393Y-58677D01*
X79412Y-58662D01*
X79459Y-58662D01*
X79487Y-58677D01*
X79637Y-58812D02*
X79665Y-58827D01*
X79674Y-58842D01*
X79684Y-58872D01*
X79684Y-58917D01*
X79674Y-58947D01*
X79665Y-58962D01*
X79646Y-58977D01*
X79571Y-58977D01*
X79571Y-58662D01*
X79637Y-58662D01*
X79656Y-58677D01*
X79665Y-58692D01*
X79674Y-58722D01*
X79674Y-58752D01*
X79665Y-58782D01*
X79656Y-58797D01*
X79637Y-58812D01*
X79571Y-58812D01*
X79721Y-59007D02*
X79871Y-59007D01*
X79984Y-58812D02*
X80012Y-58827D01*
X80021Y-58842D01*
X80031Y-58872D01*
X80031Y-58917D01*
X80021Y-58947D01*
X80012Y-58962D01*
X79993Y-58977D01*
X79918Y-58977D01*
X79918Y-58662D01*
X79984Y-58662D01*
X80003Y-58677D01*
X80012Y-58692D01*
X80021Y-58722D01*
X80021Y-58752D01*
X80012Y-58782D01*
X80003Y-58797D01*
X79984Y-58812D01*
X79918Y-58812D01*
X82924Y-49767D02*
X82924Y-49452D01*
X82999Y-49452D01*
X83018Y-49467D01*
X83027Y-49482D01*
X83037Y-49512D01*
X83037Y-49557D01*
X83027Y-49587D01*
X83018Y-49602D01*
X82999Y-49617D01*
X82924Y-49617D01*
X83224Y-49767D02*
X83112Y-49767D01*
X83168Y-49767D02*
X83168Y-49452D01*
X83149Y-49497D01*
X83130Y-49527D01*
X83112Y-49542D01*
X80550Y-54412D02*
X80550Y-54667D01*
X80559Y-54697D01*
X80568Y-54712D01*
X80587Y-54727D01*
X80625Y-54727D01*
X80643Y-54712D01*
X80653Y-54697D01*
X80662Y-54667D01*
X80662Y-54412D01*
X80859Y-54727D02*
X80746Y-54727D01*
X80803Y-54727D02*
X80803Y-54412D01*
X80784Y-54457D01*
X80765Y-54487D01*
X80746Y-54502D01*
X79392Y-55112D02*
X79420Y-55127D01*
X79467Y-55127D01*
X79486Y-55112D01*
X79495Y-55097D01*
X79504Y-55067D01*
X79504Y-55037D01*
X79495Y-55007D01*
X79486Y-54992D01*
X79467Y-54977D01*
X79429Y-54962D01*
X79411Y-54947D01*
X79401Y-54932D01*
X79392Y-54902D01*
X79392Y-54872D01*
X79401Y-54842D01*
X79411Y-54827D01*
X79429Y-54812D01*
X79476Y-54812D01*
X79504Y-54827D01*
X79561Y-54812D02*
X79673Y-54812D01*
X79617Y-55127D02*
X79617Y-54812D01*
X79739Y-55127D02*
X79739Y-54812D01*
X79804Y-55037D01*
X79870Y-54812D01*
X79870Y-55127D01*
X79945Y-54812D02*
X80067Y-54812D01*
X80001Y-54932D01*
X80029Y-54932D01*
X80048Y-54947D01*
X80057Y-54962D01*
X80067Y-54992D01*
X80067Y-55067D01*
X80057Y-55097D01*
X80048Y-55112D01*
X80029Y-55127D01*
X79973Y-55127D01*
X79954Y-55112D01*
X79945Y-55097D01*
X80142Y-54842D02*
X80151Y-54827D01*
X80170Y-54812D01*
X80217Y-54812D01*
X80235Y-54827D01*
X80245Y-54842D01*
X80254Y-54872D01*
X80254Y-54902D01*
X80245Y-54947D01*
X80132Y-55127D01*
X80254Y-55127D01*
X80404Y-54962D02*
X80339Y-54962D01*
X80339Y-55127D02*
X80339Y-54812D01*
X80432Y-54812D01*
X80610Y-55127D02*
X80498Y-55127D01*
X80554Y-55127D02*
X80554Y-54812D01*
X80535Y-54857D01*
X80517Y-54887D01*
X80498Y-54902D01*
X80732Y-54812D02*
X80751Y-54812D01*
X80770Y-54827D01*
X80779Y-54842D01*
X80789Y-54872D01*
X80798Y-54932D01*
X80798Y-55007D01*
X80789Y-55067D01*
X80779Y-55097D01*
X80770Y-55112D01*
X80751Y-55127D01*
X80732Y-55127D01*
X80714Y-55112D01*
X80704Y-55097D01*
X80695Y-55067D01*
X80685Y-55007D01*
X80685Y-54932D01*
X80695Y-54872D01*
X80704Y-54842D01*
X80714Y-54827D01*
X80732Y-54812D01*
X80864Y-54812D02*
X80985Y-54812D01*
X80920Y-54932D01*
X80948Y-54932D01*
X80967Y-54947D01*
X80976Y-54962D01*
X80985Y-54992D01*
X80985Y-55067D01*
X80976Y-55097D01*
X80967Y-55112D01*
X80948Y-55127D01*
X80892Y-55127D01*
X80873Y-55112D01*
X80864Y-55097D01*
X81023Y-55157D02*
X81173Y-55157D01*
X81304Y-54917D02*
X81304Y-55127D01*
X81257Y-54797D02*
X81210Y-55022D01*
X81332Y-55022D01*
X81435Y-54947D02*
X81417Y-54932D01*
X81407Y-54917D01*
X81398Y-54887D01*
X81398Y-54872D01*
X81407Y-54842D01*
X81417Y-54827D01*
X81435Y-54812D01*
X81473Y-54812D01*
X81492Y-54827D01*
X81501Y-54842D01*
X81510Y-54872D01*
X81510Y-54887D01*
X81501Y-54917D01*
X81492Y-54932D01*
X81473Y-54947D01*
X81435Y-54947D01*
X81417Y-54962D01*
X81407Y-54977D01*
X81398Y-55007D01*
X81398Y-55067D01*
X81407Y-55097D01*
X81417Y-55112D01*
X81435Y-55127D01*
X81473Y-55127D01*
X81492Y-55112D01*
X81501Y-55097D01*
X81510Y-55067D01*
X81510Y-55007D01*
X81501Y-54977D01*
X81492Y-54962D01*
X81473Y-54947D01*
X81595Y-55127D02*
X81595Y-54812D01*
X81670Y-54812D01*
X81688Y-54827D01*
X81698Y-54842D01*
X81707Y-54872D01*
X81707Y-54917D01*
X81698Y-54947D01*
X81688Y-54962D01*
X81670Y-54977D01*
X81595Y-54977D01*
X81792Y-55127D02*
X81792Y-54812D01*
X81885Y-55127D02*
X81885Y-54812D01*
X81998Y-55127D01*
X81998Y-54812D01*
X71047Y-58307D02*
X70981Y-58157D01*
X70934Y-58307D02*
X70934Y-57992D01*
X71009Y-57992D01*
X71028Y-58007D01*
X71037Y-58022D01*
X71047Y-58052D01*
X71047Y-58097D01*
X71037Y-58127D01*
X71028Y-58142D01*
X71009Y-58157D01*
X70934Y-58157D01*
X71122Y-58022D02*
X71131Y-58007D01*
X71150Y-57992D01*
X71197Y-57992D01*
X71215Y-58007D01*
X71225Y-58022D01*
X71234Y-58052D01*
X71234Y-58082D01*
X71225Y-58127D01*
X71112Y-58307D01*
X71234Y-58307D01*
X70337Y-58307D02*
X70224Y-58307D01*
X70280Y-58307D02*
X70280Y-57992D01*
X70262Y-58037D01*
X70243Y-58067D01*
X70224Y-58082D01*
X70421Y-58277D02*
X70430Y-58292D01*
X70421Y-58307D01*
X70412Y-58292D01*
X70421Y-58277D01*
X70421Y-58307D01*
X70609Y-57992D02*
X70515Y-57992D01*
X70505Y-58142D01*
X70515Y-58127D01*
X70534Y-58112D01*
X70580Y-58112D01*
X70599Y-58127D01*
X70609Y-58142D01*
X70618Y-58172D01*
X70618Y-58247D01*
X70609Y-58277D01*
X70599Y-58292D01*
X70580Y-58307D01*
X70534Y-58307D01*
X70515Y-58292D01*
X70505Y-58277D01*
X70702Y-58307D02*
X70702Y-57992D01*
X70815Y-58307D02*
X70730Y-58127D01*
X70815Y-57992D02*
X70702Y-58172D01*
M02*
