M48
;DRILL file {Pcbnew (22-Jun-2014 BZR 4027)-stable} date Wed 20 Dec 2017 05:06:30 PM CST
;FORMAT={-:-/ absolute / inch / decimal}
FMAT,2
INCH,TZ
T1C0.016
T2C0.032
%
G90
G05
M72
T1
X6.594Y-5.742
X6.594Y-5.972
X6.662Y-5.566
X6.776Y-5.656
X6.92Y-5.232
X6.92Y-5.97
X7.056Y-5.902
X7.176Y-5.866
X7.52Y-5.232
X7.606Y-5.97
X7.934Y-5.226
X7.944Y-5.594
X7.954Y-5.902
X8.02Y-5.614
X8.048Y-5.146
X8.098Y-5.39
X8.098Y-5.424
X8.124Y-5.866
X8.138Y-5.394
X8.158Y-5.768
X8.178Y-5.394
X8.2354Y-5.683
X8.276Y-5.298
X8.338Y-5.474
X8.364Y-5.97
X8.552Y-5.296
X9.158Y-5.04
X9.158Y-5.2928
X9.512Y-5.494
X9.586Y-5.494
X9.662Y-5.97
X9.664Y-5.726
T2
X7.932Y-4.924
X8.032Y-4.924
X8.132Y-4.924
X8.232Y-4.924
T0
M30
