G04 (created by PCBNEW (22-Jun-2014 BZR 4027)-stable) date Sun 17 Dec 2017 04:11:54 PM CST*
%MOIN*%
G04 Gerber Fmt 3.4, Leading zero omitted, Abs format*
%FSLAX34Y34*%
G01*
G70*
G90*
G04 APERTURE LIST*
%ADD10C,0.00393701*%
%ADD11C,0.0669291*%
%ADD12C,0.11811*%
%ADD13R,0.0669291X0.0393701*%
%ADD14C,0.0590551*%
%ADD15R,0.177165X0.0787402*%
%ADD16R,0.0787402X0.177165*%
%ADD17C,0.0610236*%
%ADD18O,0.0492126X0.0374016*%
%ADD19O,0.0393701X0.0610236*%
%ADD20C,0.023622*%
%ADD21C,0.00708661*%
%ADD22C,0.00787402*%
G04 APERTURE END LIST*
G54D10*
G54D11*
X57781Y-48747D03*
X56994Y-48747D03*
X56206Y-48747D03*
X55419Y-48747D03*
X54632Y-48747D03*
G54D12*
X58175Y-52684D03*
X54238Y-52684D03*
G54D13*
X53259Y-53448D03*
X55740Y-53448D03*
X53259Y-51951D03*
X55740Y-51951D03*
X56759Y-53448D03*
X59240Y-53448D03*
X56759Y-51951D03*
X59240Y-51951D03*
G54D14*
X53300Y-27907D03*
X53300Y-30662D03*
G54D15*
X62500Y-51227D03*
X62500Y-52172D03*
X62500Y-46172D03*
X62500Y-45227D03*
X50000Y-51227D03*
X50000Y-52172D03*
G54D16*
X47472Y-48700D03*
X46527Y-48700D03*
X65027Y-48700D03*
X65972Y-48700D03*
X59972Y-48700D03*
X59027Y-48700D03*
X52527Y-48700D03*
X53472Y-48700D03*
G54D15*
X50000Y-46172D03*
X50000Y-45227D03*
G54D17*
X52300Y-53800D03*
X51100Y-53800D03*
X51700Y-52900D03*
X61400Y-53800D03*
X60200Y-53800D03*
X60800Y-52900D03*
X44800Y-29300D03*
X46000Y-29300D03*
X45400Y-30200D03*
X66300Y-29300D03*
X67500Y-29300D03*
X66900Y-30200D03*
G54D18*
X60284Y-28815D03*
X58316Y-28815D03*
G54D19*
X60678Y-27752D03*
X57922Y-27752D03*
G54D14*
X45307Y-51590D03*
X48614Y-51590D03*
X63782Y-51590D03*
X67089Y-51590D03*
G54D20*
X64400Y-49675D03*
X46575Y-33000D03*
X46125Y-33000D03*
X60875Y-50900D03*
X64400Y-47825D03*
X67900Y-44425D03*
X65625Y-47000D03*
X67100Y-47000D03*
X48350Y-50125D03*
X51750Y-50125D03*
X48350Y-49650D03*
X52775Y-50900D03*
X58500Y-50900D03*
X66025Y-42875D03*
X64600Y-43925D03*
X64300Y-41600D03*
X65425Y-43650D03*
X66625Y-43650D03*
X60000Y-31925D03*
X55600Y-29775D03*
X50175Y-30875D03*
X65950Y-29775D03*
X47275Y-30075D03*
X47850Y-43800D03*
X45075Y-43425D03*
X43850Y-47250D03*
X45925Y-47250D03*
X47725Y-47250D03*
X45075Y-42725D03*
X51150Y-45250D03*
X65350Y-41850D03*
X64850Y-46550D03*
X64325Y-42100D03*
X64325Y-46075D03*
X65100Y-46325D03*
X65325Y-42375D03*
X51975Y-46425D03*
X59750Y-51200D03*
X60125Y-51200D03*
X62450Y-53150D03*
X59975Y-46625D03*
X55825Y-35675D03*
X57075Y-35675D03*
X57900Y-31725D03*
X65700Y-40300D03*
X66300Y-40275D03*
X46575Y-32001D03*
X47475Y-34000D03*
X57475Y-46100D03*
X56200Y-46100D03*
X57475Y-46625D03*
X61400Y-52725D03*
X61400Y-51225D03*
X67725Y-38875D03*
X67550Y-32375D03*
X65250Y-47275D03*
X50025Y-50600D03*
X61350Y-45000D03*
X67875Y-47275D03*
X50000Y-48200D03*
X50375Y-53125D03*
X43850Y-48225D03*
X46775Y-47550D03*
X44475Y-40325D03*
X46350Y-35725D03*
X54675Y-28700D03*
X51925Y-28225D03*
X45100Y-34750D03*
X47450Y-34500D03*
X57125Y-38925D03*
X64625Y-38325D03*
X58075Y-38325D03*
X60600Y-36550D03*
X66800Y-36500D03*
X66600Y-36250D03*
X59675Y-36325D03*
X61475Y-34500D03*
X67500Y-34550D03*
X62050Y-34300D03*
X67350Y-34250D03*
X61025Y-34050D03*
X67100Y-34050D03*
X61225Y-33800D03*
X66850Y-33850D03*
X66600Y-33650D03*
X61800Y-33625D03*
X60375Y-36100D03*
X66350Y-36050D03*
X66100Y-35850D03*
X59450Y-35850D03*
X60150Y-35550D03*
X66350Y-35650D03*
X62625Y-39450D03*
X66600Y-35450D03*
X66850Y-35250D03*
X62275Y-35200D03*
X59900Y-34925D03*
X67100Y-35050D03*
X60775Y-34700D03*
X67350Y-34850D03*
X66300Y-36950D03*
X62475Y-36950D03*
X59225Y-38550D03*
X64850Y-38550D03*
X57850Y-38100D03*
X64413Y-38086D03*
X57600Y-38900D03*
X66600Y-36750D03*
X66150Y-37675D03*
X57375Y-37675D03*
X67950Y-32900D03*
X65250Y-39825D03*
X60375Y-46300D03*
X68350Y-43475D03*
X51925Y-30100D03*
X68575Y-40475D03*
X55275Y-30600D03*
X57100Y-33275D03*
X57100Y-35100D03*
X56125Y-35100D03*
X56125Y-40700D03*
X57125Y-40700D03*
X68125Y-49800D03*
X43725Y-32725D03*
X58000Y-48175D03*
X54500Y-46400D03*
X53500Y-50550D03*
X48825Y-46400D03*
X49425Y-42425D03*
X48500Y-46400D03*
X49425Y-41950D03*
X61125Y-50550D03*
X54275Y-48225D03*
X63775Y-47250D03*
X60400Y-44675D03*
X64000Y-48900D03*
X60400Y-44175D03*
X61000Y-48375D03*
X60400Y-45650D03*
X63775Y-46775D03*
X61350Y-46300D03*
X60400Y-45000D03*
X63125Y-47675D03*
X63575Y-48925D03*
X60400Y-45975D03*
X55750Y-53000D03*
X59250Y-53050D03*
X44475Y-41300D03*
X50550Y-42475D03*
X50800Y-41925D03*
X44475Y-40825D03*
X59500Y-46525D03*
X51975Y-46100D03*
X53000Y-46400D03*
G54D21*
X64400Y-49450D02*
X64400Y-49675D01*
X46125Y-33000D02*
X46575Y-33000D01*
X58500Y-50900D02*
X60875Y-50900D01*
X67800Y-43650D02*
X66625Y-43650D01*
X67900Y-43750D02*
X67800Y-43650D01*
X67900Y-44425D02*
X67900Y-43750D01*
X64400Y-47825D02*
X64400Y-47075D01*
X64400Y-47075D02*
X64475Y-47000D01*
X64475Y-47000D02*
X65625Y-47000D01*
X65625Y-47000D02*
X67100Y-47000D01*
X48350Y-50125D02*
X51750Y-50125D01*
X48250Y-47250D02*
X48275Y-47250D01*
X47725Y-47250D02*
X48250Y-47250D01*
X48275Y-47250D02*
X48350Y-47325D01*
X48350Y-47325D02*
X48350Y-49650D01*
X55200Y-50900D02*
X52775Y-50900D01*
X58500Y-50900D02*
X55200Y-50900D01*
X66025Y-42875D02*
X66025Y-43650D01*
X64600Y-41675D02*
X64600Y-43925D01*
X64525Y-41600D02*
X64600Y-41675D01*
X64300Y-41600D02*
X64525Y-41600D01*
X65425Y-43650D02*
X66025Y-43650D01*
X66025Y-43650D02*
X66625Y-43650D01*
X60000Y-31925D02*
X60000Y-29775D01*
X60000Y-29775D02*
X60000Y-29800D01*
X60000Y-29800D02*
X60000Y-29775D01*
X50175Y-29775D02*
X50175Y-30125D01*
X50175Y-30125D02*
X50175Y-30875D01*
X47275Y-29825D02*
X47275Y-30075D01*
X47325Y-29775D02*
X47275Y-29825D01*
X49150Y-29775D02*
X47325Y-29775D01*
X54000Y-29775D02*
X50175Y-29775D01*
X50175Y-29775D02*
X49150Y-29775D01*
X60375Y-29775D02*
X60000Y-29775D01*
X65950Y-29775D02*
X60375Y-29775D01*
X60000Y-29775D02*
X55600Y-29775D01*
X55600Y-29775D02*
X54000Y-29775D01*
X43625Y-43800D02*
X47849Y-43800D01*
X47849Y-43800D02*
X47850Y-43800D01*
X45075Y-43425D02*
X43625Y-43425D01*
X43700Y-47250D02*
X43850Y-47250D01*
X43850Y-47250D02*
X45925Y-47250D01*
X45925Y-47250D02*
X47725Y-47250D01*
X43625Y-47175D02*
X43700Y-47250D01*
X43625Y-42825D02*
X43625Y-43425D01*
X43625Y-43425D02*
X43625Y-43800D01*
X43625Y-43800D02*
X43625Y-47175D01*
X43700Y-42750D02*
X43625Y-42825D01*
X45050Y-42750D02*
X43700Y-42750D01*
X45075Y-42725D02*
X45050Y-42750D01*
X64400Y-47825D02*
X64400Y-49350D01*
X64400Y-49350D02*
X64400Y-49450D01*
X64400Y-49450D02*
X64400Y-49500D01*
X51127Y-45227D02*
X50000Y-45227D01*
X51150Y-45250D02*
X51127Y-45227D01*
X64850Y-41975D02*
X64850Y-41900D01*
X64975Y-41850D02*
X65350Y-41850D01*
X64850Y-46550D02*
X64850Y-41975D01*
X64900Y-41850D02*
X64975Y-41850D01*
X64850Y-41900D02*
X64900Y-41850D01*
X64325Y-46075D02*
X64325Y-45775D01*
X64325Y-45775D02*
X64325Y-42100D01*
X65100Y-42475D02*
X65100Y-42450D01*
X65100Y-46325D02*
X65100Y-42475D01*
X65325Y-42375D02*
X65175Y-42375D01*
X65100Y-42450D02*
X65100Y-42700D01*
X65175Y-42375D02*
X65100Y-42450D01*
X65100Y-42700D02*
X65100Y-42600D01*
X51877Y-52172D02*
X51975Y-52075D01*
X51975Y-52075D02*
X51975Y-46425D01*
X51877Y-52172D02*
X50000Y-52172D01*
X60350Y-52172D02*
X59822Y-52172D01*
X59750Y-52100D02*
X59750Y-51200D01*
X59822Y-52172D02*
X59750Y-52100D01*
X62500Y-52172D02*
X60350Y-52172D01*
X46575Y-32000D02*
X46575Y-28862D01*
X46575Y-28862D02*
X46575Y-28875D01*
X46575Y-28875D02*
X46575Y-28862D01*
X58316Y-28815D02*
X60284Y-28815D01*
X44800Y-28975D02*
X44800Y-29300D01*
X44837Y-28862D02*
X44800Y-28900D01*
X44800Y-28900D02*
X44800Y-28975D01*
X44837Y-28862D02*
X46575Y-28862D01*
X60284Y-28815D02*
X60678Y-28815D01*
X60678Y-28815D02*
X60678Y-28825D01*
X60678Y-28825D02*
X60678Y-28746D01*
X58316Y-28815D02*
X57922Y-28815D01*
X60678Y-28746D02*
X60678Y-28946D01*
X57922Y-28750D02*
X57922Y-28862D01*
X57922Y-28862D02*
X57922Y-28815D01*
X57922Y-28750D02*
X57922Y-28815D01*
X57922Y-27752D02*
X57922Y-28750D01*
X51925Y-28800D02*
X51925Y-28862D01*
X46575Y-28862D02*
X51925Y-28862D01*
X51925Y-28862D02*
X60678Y-28862D01*
X60678Y-28950D02*
X60678Y-28875D01*
X60675Y-28875D02*
X60678Y-28875D01*
X60675Y-28865D02*
X60675Y-28875D01*
X60678Y-28862D02*
X60675Y-28865D01*
X60150Y-51225D02*
X61400Y-51225D01*
X60125Y-51200D02*
X60150Y-51225D01*
X61400Y-53800D02*
X61400Y-52475D01*
X59240Y-52315D02*
X59240Y-51951D01*
X59300Y-52375D02*
X59240Y-52315D01*
X61300Y-52375D02*
X59300Y-52375D01*
X61400Y-52475D02*
X61300Y-52375D01*
X59972Y-46975D02*
X57550Y-46975D01*
X57475Y-46900D02*
X57475Y-46625D01*
X57550Y-46975D02*
X57475Y-46900D01*
X59972Y-48700D02*
X59972Y-46975D01*
X59972Y-46975D02*
X59972Y-46627D01*
X59972Y-46627D02*
X59975Y-46625D01*
X57750Y-35675D02*
X57825Y-35675D01*
X55825Y-46100D02*
X55825Y-45675D01*
X55825Y-35675D02*
X55825Y-45675D01*
X57750Y-35675D02*
X57075Y-35675D01*
X57900Y-35600D02*
X57900Y-35475D01*
X57825Y-35675D02*
X57900Y-35600D01*
X57900Y-31725D02*
X57900Y-35475D01*
X57900Y-35475D02*
X57900Y-35525D01*
X56759Y-51951D02*
X59240Y-51951D01*
X56759Y-51951D02*
X55740Y-51951D01*
X65725Y-40275D02*
X66300Y-40275D01*
X65725Y-40275D02*
X65700Y-40300D01*
X47475Y-34000D02*
X47475Y-33050D01*
X47475Y-33050D02*
X47475Y-32050D01*
X47475Y-32050D02*
X47425Y-32000D01*
X47425Y-32000D02*
X46575Y-32000D01*
X46575Y-32000D02*
X46575Y-32001D01*
X52527Y-48700D02*
X52527Y-46172D01*
X52527Y-46172D02*
X52600Y-46100D01*
X52600Y-46100D02*
X55825Y-46100D01*
X57475Y-46100D02*
X57475Y-46625D01*
X55825Y-46100D02*
X56200Y-46100D01*
X61402Y-51227D02*
X62500Y-51227D01*
X61400Y-51225D02*
X61402Y-51227D01*
X67725Y-34175D02*
X67725Y-38875D01*
X67550Y-34000D02*
X67725Y-34175D01*
X67550Y-32375D02*
X67550Y-34000D01*
X62450Y-53150D02*
X62450Y-53375D01*
X62375Y-53800D02*
X61400Y-53800D01*
X62450Y-53375D02*
X62450Y-53725D01*
X62450Y-53725D02*
X62375Y-53800D01*
X50000Y-50625D02*
X50000Y-51227D01*
X50025Y-50600D02*
X50000Y-50625D01*
X62172Y-50900D02*
X62500Y-51227D01*
X62172Y-50900D02*
X62500Y-51227D01*
X62500Y-46172D02*
X61647Y-46172D01*
X61350Y-45875D02*
X61350Y-45000D01*
X61647Y-46172D02*
X61350Y-45875D01*
X65027Y-48700D02*
X65027Y-47347D01*
X65100Y-47275D02*
X65250Y-47275D01*
X65250Y-47275D02*
X67875Y-47275D01*
X65027Y-47347D02*
X65100Y-47275D01*
X50000Y-46172D02*
X50000Y-48200D01*
X53259Y-51951D02*
X59240Y-51951D01*
X52527Y-48700D02*
X52527Y-51951D01*
X52525Y-51950D02*
X52525Y-51951D01*
X52525Y-51950D02*
X52525Y-51950D01*
X52527Y-51951D02*
X52525Y-51950D01*
X52300Y-53325D02*
X52225Y-53325D01*
X50375Y-53250D02*
X50375Y-53125D01*
X50450Y-53325D02*
X50375Y-53250D01*
X52225Y-53325D02*
X50450Y-53325D01*
X53259Y-51951D02*
X52525Y-51951D01*
X52525Y-51951D02*
X52373Y-51951D01*
X52300Y-52025D02*
X52300Y-53325D01*
X52300Y-53325D02*
X52300Y-53475D01*
X52373Y-51951D02*
X52300Y-52025D01*
X52300Y-53800D02*
X52300Y-53475D01*
X52300Y-53475D02*
X52300Y-53400D01*
X43925Y-47575D02*
X43850Y-47650D01*
X43850Y-47650D02*
X43850Y-48225D01*
X47225Y-47575D02*
X43925Y-47575D01*
X47472Y-47647D02*
X47472Y-48700D01*
X47400Y-47575D02*
X47472Y-47647D01*
X46800Y-47575D02*
X47225Y-47575D01*
X47225Y-47575D02*
X47400Y-47575D01*
X46775Y-47550D02*
X46800Y-47575D01*
X44475Y-40325D02*
X46300Y-40325D01*
X46350Y-38450D02*
X46350Y-35725D01*
X46350Y-40275D02*
X46350Y-38450D01*
X46300Y-40325D02*
X46350Y-40275D01*
X51925Y-28225D02*
X51925Y-28815D01*
X51925Y-28815D02*
X51925Y-28800D01*
X51925Y-28800D02*
X51925Y-28815D01*
X66300Y-29300D02*
X60725Y-29300D01*
X60725Y-29300D02*
X60678Y-29253D01*
X60678Y-29253D02*
X60678Y-28950D01*
X60678Y-27752D02*
X60678Y-28746D01*
X57922Y-27752D02*
X60678Y-27752D01*
X45325Y-34750D02*
X45100Y-34750D01*
X55419Y-48479D02*
X56424Y-47475D01*
X56424Y-47475D02*
X56424Y-34824D01*
X56424Y-34824D02*
X56350Y-34750D01*
X56350Y-34750D02*
X45325Y-34750D01*
X55419Y-48747D02*
X55419Y-48479D01*
X56450Y-34500D02*
X47450Y-34500D01*
X56206Y-48747D02*
X56206Y-48493D01*
X56562Y-34612D02*
X56450Y-34500D01*
X56562Y-48137D02*
X56562Y-34612D01*
X56206Y-48493D02*
X56562Y-48137D01*
X68200Y-30575D02*
X68200Y-29375D01*
X68125Y-29300D02*
X67500Y-29300D01*
X68200Y-29375D02*
X68125Y-29300D01*
X58250Y-40050D02*
X57225Y-40050D01*
X68150Y-40050D02*
X68200Y-40000D01*
X68200Y-40000D02*
X68200Y-39950D01*
X68200Y-39950D02*
X68200Y-30575D01*
X68200Y-30575D02*
X68200Y-30550D01*
X58250Y-40050D02*
X68100Y-40050D01*
X68100Y-40050D02*
X68150Y-40050D01*
X57125Y-39950D02*
X57125Y-38925D01*
X57225Y-40050D02*
X57125Y-39950D01*
X64625Y-38325D02*
X59425Y-38325D01*
X58075Y-38325D02*
X59425Y-38325D01*
X60650Y-36500D02*
X60600Y-36550D01*
X66800Y-36500D02*
X61100Y-36500D01*
X61100Y-36500D02*
X60650Y-36500D01*
X61050Y-36325D02*
X59975Y-36325D01*
X66600Y-36250D02*
X66575Y-36250D01*
X66575Y-36250D02*
X66500Y-36325D01*
X66500Y-36325D02*
X61050Y-36325D01*
X59975Y-36325D02*
X59675Y-36325D01*
X61600Y-34550D02*
X61525Y-34550D01*
X61525Y-34550D02*
X61475Y-34500D01*
X61900Y-34550D02*
X61600Y-34550D01*
X67500Y-34550D02*
X61900Y-34550D01*
X61900Y-34550D02*
X61875Y-34550D01*
X62300Y-34350D02*
X62100Y-34350D01*
X62100Y-34350D02*
X62050Y-34300D01*
X62325Y-34350D02*
X62300Y-34350D01*
X62300Y-34350D02*
X62275Y-34350D01*
X67350Y-34250D02*
X67250Y-34350D01*
X67250Y-34350D02*
X62325Y-34350D01*
X62325Y-34350D02*
X62350Y-34350D01*
X61025Y-34050D02*
X61150Y-34050D01*
X62450Y-34150D02*
X62250Y-34150D01*
X62150Y-34050D02*
X61150Y-34050D01*
X61150Y-34050D02*
X61100Y-34050D01*
X62250Y-34150D02*
X62150Y-34050D01*
X67000Y-34150D02*
X62450Y-34150D01*
X62450Y-34150D02*
X62425Y-34150D01*
X67100Y-34050D02*
X67000Y-34150D01*
X61225Y-33800D02*
X61225Y-33812D01*
X61262Y-33850D02*
X62300Y-33850D01*
X61225Y-33812D02*
X61262Y-33850D01*
X62400Y-33950D02*
X62300Y-33850D01*
X66750Y-33950D02*
X62400Y-33950D01*
X66850Y-33850D02*
X66750Y-33950D01*
X66600Y-33650D02*
X66500Y-33750D01*
X61825Y-33650D02*
X61800Y-33625D01*
X62400Y-33650D02*
X61825Y-33650D01*
X62500Y-33750D02*
X62400Y-33650D01*
X66500Y-33750D02*
X62500Y-33750D01*
X60800Y-36100D02*
X61200Y-36100D01*
X60800Y-36100D02*
X60375Y-36100D01*
X61150Y-36100D02*
X61075Y-36100D01*
X61200Y-36100D02*
X61150Y-36100D01*
X66350Y-36050D02*
X66275Y-36050D01*
X66225Y-36100D02*
X61200Y-36100D01*
X66275Y-36050D02*
X66225Y-36100D01*
X59975Y-35850D02*
X62450Y-35850D01*
X62450Y-35850D02*
X66100Y-35850D01*
X59450Y-35850D02*
X59975Y-35850D01*
X62450Y-35562D02*
X60162Y-35562D01*
X60162Y-35562D02*
X60150Y-35550D01*
X66262Y-35562D02*
X66350Y-35650D01*
X62450Y-35562D02*
X66262Y-35562D01*
X66925Y-39450D02*
X67100Y-39450D01*
X66625Y-35450D02*
X66650Y-35475D01*
X66650Y-35475D02*
X67075Y-35475D01*
X67075Y-35475D02*
X67150Y-35550D01*
X67150Y-35550D02*
X67150Y-39225D01*
X66925Y-39450D02*
X62625Y-39450D01*
X66625Y-35450D02*
X66600Y-35450D01*
X67150Y-39400D02*
X67150Y-39225D01*
X67100Y-39450D02*
X67150Y-39400D01*
X66725Y-35125D02*
X62350Y-35125D01*
X66850Y-35250D02*
X66725Y-35125D01*
X62350Y-35125D02*
X62275Y-35200D01*
X59887Y-34937D02*
X59900Y-34925D01*
X60250Y-34937D02*
X59887Y-34937D01*
X62400Y-34937D02*
X60250Y-34937D01*
X60250Y-34937D02*
X60237Y-34937D01*
X66987Y-34937D02*
X62400Y-34937D01*
X62400Y-34937D02*
X62387Y-34937D01*
X67100Y-35050D02*
X66987Y-34937D01*
X60775Y-34700D02*
X60775Y-34725D01*
X60775Y-34725D02*
X60775Y-34700D01*
X60775Y-34700D02*
X60775Y-34725D01*
X60975Y-34725D02*
X60775Y-34725D01*
X67225Y-34725D02*
X61350Y-34725D01*
X61350Y-34725D02*
X61150Y-34725D01*
X67350Y-34850D02*
X67225Y-34725D01*
X61150Y-34725D02*
X60975Y-34725D01*
X66300Y-36950D02*
X62475Y-36950D01*
X63850Y-38550D02*
X59225Y-38550D01*
X64850Y-38550D02*
X63850Y-38550D01*
X57850Y-38100D02*
X59325Y-38100D01*
X64413Y-38086D02*
X64400Y-38100D01*
X64400Y-38100D02*
X59325Y-38100D01*
X59325Y-38100D02*
X59025Y-38100D01*
X66600Y-36750D02*
X66600Y-38825D01*
X66600Y-38825D02*
X66525Y-38900D01*
X59375Y-38900D02*
X66525Y-38900D01*
X57600Y-38900D02*
X59375Y-38900D01*
X57375Y-37675D02*
X66150Y-37675D01*
X67950Y-39675D02*
X67950Y-38975D01*
X67950Y-38975D02*
X67950Y-32900D01*
X67850Y-39825D02*
X67900Y-39825D01*
X65250Y-39825D02*
X67850Y-39825D01*
X67950Y-39775D02*
X67950Y-39675D01*
X67900Y-39825D02*
X67950Y-39775D01*
X67950Y-39725D02*
X67950Y-39675D01*
X60375Y-46300D02*
X60475Y-46300D01*
X60525Y-46350D02*
X60525Y-46550D01*
X60475Y-46300D02*
X60525Y-46350D01*
X60525Y-46775D02*
X60525Y-46550D01*
X60625Y-49900D02*
X60850Y-49900D01*
X60525Y-49800D02*
X60625Y-49900D01*
X60525Y-47250D02*
X60525Y-49800D01*
X60525Y-47250D02*
X60525Y-46775D01*
X60525Y-46550D02*
X60525Y-46450D01*
X60800Y-49900D02*
X60725Y-49900D01*
X60800Y-49900D02*
X60850Y-49900D01*
X65900Y-49900D02*
X65972Y-49827D01*
X65972Y-48700D02*
X65972Y-49827D01*
X60850Y-49900D02*
X65900Y-49900D01*
X68187Y-50037D02*
X68287Y-50037D01*
X68350Y-49875D02*
X68350Y-43475D01*
X58300Y-50037D02*
X68187Y-50037D01*
X68350Y-49975D02*
X68350Y-49875D01*
X68287Y-50037D02*
X68350Y-49975D01*
X57781Y-49656D02*
X57781Y-49931D01*
X57781Y-48747D02*
X57781Y-49656D01*
X57887Y-50037D02*
X58300Y-50037D01*
X57781Y-49931D02*
X57887Y-50037D01*
X58162Y-50037D02*
X58300Y-50037D01*
X57781Y-48747D02*
X57781Y-48418D01*
X56725Y-30100D02*
X51925Y-30100D01*
X56850Y-30225D02*
X56725Y-30100D01*
X56850Y-47487D02*
X56850Y-30225D01*
X57781Y-48418D02*
X56850Y-47487D01*
X68575Y-40475D02*
X68575Y-40825D01*
X56994Y-50069D02*
X57100Y-50175D01*
X57100Y-50175D02*
X57500Y-50175D01*
X57500Y-50175D02*
X57500Y-50175D01*
X56994Y-50069D02*
X56994Y-50030D01*
X68249Y-50175D02*
X68499Y-50175D01*
X57500Y-50175D02*
X68249Y-50175D01*
X68575Y-49850D02*
X68575Y-41125D01*
X68575Y-41125D02*
X68575Y-40825D01*
X68575Y-50100D02*
X68575Y-49850D01*
X68499Y-50175D02*
X68575Y-50100D01*
X68575Y-40825D02*
X68575Y-40750D01*
X56994Y-49794D02*
X56994Y-50030D01*
X56994Y-50030D02*
X56994Y-50069D01*
X56994Y-48747D02*
X56994Y-49794D01*
X57375Y-50175D02*
X57500Y-50175D01*
X56994Y-48747D02*
X56994Y-48444D01*
X56575Y-30600D02*
X55275Y-30600D01*
X56700Y-30725D02*
X56575Y-30600D01*
X56700Y-48150D02*
X56700Y-30725D01*
X56994Y-48444D02*
X56700Y-48150D01*
X57100Y-35100D02*
X57100Y-33275D01*
X56125Y-40700D02*
X56125Y-35100D01*
X68075Y-40700D02*
X57125Y-40700D01*
X68125Y-40750D02*
X68125Y-49800D01*
X68075Y-40700D02*
X68125Y-40750D01*
X45925Y-32725D02*
X46000Y-32650D01*
X46000Y-32650D02*
X46000Y-32400D01*
X46000Y-32400D02*
X46000Y-29300D01*
X43725Y-32725D02*
X45675Y-32725D01*
X45675Y-32725D02*
X45925Y-32725D01*
X59027Y-48700D02*
X58525Y-48700D01*
X58525Y-48700D02*
X58000Y-48175D01*
X54125Y-46400D02*
X54025Y-46500D01*
X54025Y-46500D02*
X54025Y-47025D01*
X54500Y-46400D02*
X54125Y-46400D01*
X54025Y-49925D02*
X54025Y-50475D01*
X54025Y-50475D02*
X53950Y-50550D01*
X53950Y-50550D02*
X53500Y-50550D01*
X54025Y-49850D02*
X54025Y-49925D01*
X54025Y-47025D02*
X54025Y-49850D01*
X54025Y-46875D02*
X54025Y-47025D01*
X48825Y-46400D02*
X48825Y-43000D01*
X48825Y-43000D02*
X48825Y-42500D01*
X48825Y-42500D02*
X48900Y-42425D01*
X48900Y-42425D02*
X49425Y-42425D01*
X48500Y-42050D02*
X48500Y-42000D01*
X48500Y-46400D02*
X48500Y-42050D01*
X48550Y-41950D02*
X48800Y-41950D01*
X48500Y-42000D02*
X48550Y-41950D01*
X48600Y-41950D02*
X48800Y-41950D01*
X48800Y-41950D02*
X49425Y-41950D01*
X54325Y-50550D02*
X54225Y-50550D01*
X61125Y-50550D02*
X54325Y-50550D01*
X54162Y-50487D02*
X54162Y-48338D01*
X54225Y-50550D02*
X54162Y-50487D01*
X54162Y-48338D02*
X54275Y-48225D01*
X54162Y-50387D02*
X54162Y-49375D01*
X54162Y-48338D02*
X54162Y-49375D01*
X54162Y-48338D02*
X54275Y-48225D01*
X61151Y-47250D02*
X61076Y-47175D01*
X61076Y-47175D02*
X61076Y-44751D01*
X61076Y-44751D02*
X61000Y-44675D01*
X61000Y-44675D02*
X60400Y-44675D01*
X63775Y-47250D02*
X61151Y-47250D01*
X64000Y-47825D02*
X64000Y-48900D01*
X64000Y-44475D02*
X64000Y-44625D01*
X64000Y-44625D02*
X64000Y-47825D01*
X64000Y-44550D02*
X64000Y-44625D01*
X60400Y-44175D02*
X63925Y-44175D01*
X64000Y-44250D02*
X64000Y-44475D01*
X63925Y-44175D02*
X64000Y-44250D01*
X64000Y-44400D02*
X64000Y-44475D01*
X60800Y-48150D02*
X60800Y-48325D01*
X60850Y-48375D02*
X61025Y-48375D01*
X60800Y-48325D02*
X60850Y-48375D01*
X61000Y-48375D02*
X61025Y-48375D01*
X60800Y-45725D02*
X60725Y-45650D01*
X60725Y-45650D02*
X60400Y-45650D01*
X60800Y-45850D02*
X60800Y-48150D01*
X60800Y-48150D02*
X60800Y-48150D01*
X60800Y-45850D02*
X60800Y-45725D01*
X61350Y-46725D02*
X61400Y-46775D01*
X61400Y-46775D02*
X61450Y-46775D01*
X63775Y-46775D02*
X61450Y-46775D01*
X61350Y-46300D02*
X61350Y-46675D01*
X61350Y-46675D02*
X61350Y-46725D01*
X60400Y-45000D02*
X60850Y-45000D01*
X60938Y-45088D02*
X60850Y-45000D01*
X60938Y-47575D02*
X60938Y-45088D01*
X61038Y-47675D02*
X60938Y-47575D01*
X62650Y-47675D02*
X61038Y-47675D01*
X62650Y-47675D02*
X62800Y-47675D01*
X62800Y-47675D02*
X63125Y-47675D01*
X60662Y-46037D02*
X60662Y-46600D01*
X60662Y-46600D02*
X60662Y-46237D01*
X63575Y-48925D02*
X60737Y-48925D01*
X60737Y-48925D02*
X60662Y-48850D01*
X60662Y-48850D02*
X60662Y-46600D01*
X60662Y-46600D02*
X60662Y-46587D01*
X60400Y-45975D02*
X60600Y-45975D01*
X60600Y-45975D02*
X60662Y-46037D01*
X53259Y-53448D02*
X55740Y-53448D01*
X55750Y-53000D02*
X55740Y-53009D01*
X55740Y-53009D02*
X55740Y-53448D01*
X56759Y-53448D02*
X59240Y-53448D01*
X59250Y-53050D02*
X59240Y-53059D01*
X59240Y-53059D02*
X59240Y-53448D01*
X50550Y-41450D02*
X50550Y-41425D01*
X50550Y-41425D02*
X50425Y-41300D01*
X50550Y-41450D02*
X50550Y-42475D01*
X44550Y-41300D02*
X44475Y-41300D01*
X49375Y-41300D02*
X50425Y-41300D01*
X49375Y-41300D02*
X44550Y-41300D01*
X50800Y-41400D02*
X50800Y-40950D01*
X50800Y-41925D02*
X50800Y-41400D01*
X50225Y-40825D02*
X44475Y-40825D01*
X50675Y-40825D02*
X50225Y-40825D01*
X50800Y-40950D02*
X50675Y-40825D01*
X62500Y-44500D02*
X62500Y-45227D01*
X62425Y-44425D02*
X62500Y-44500D01*
X59575Y-44425D02*
X62425Y-44425D01*
X59500Y-44500D02*
X59575Y-44425D01*
X59500Y-46525D02*
X59500Y-44500D01*
X46527Y-48700D02*
X46527Y-49802D01*
X46600Y-49875D02*
X46950Y-49875D01*
X46527Y-49802D02*
X46600Y-49875D01*
X46527Y-48700D02*
X46527Y-49502D01*
X51125Y-49800D02*
X51125Y-47450D01*
X51200Y-46100D02*
X51125Y-46175D01*
X51125Y-46175D02*
X51125Y-47450D01*
X46950Y-49875D02*
X51050Y-49875D01*
X51050Y-49875D02*
X51125Y-49800D01*
X46900Y-49875D02*
X46950Y-49875D01*
X51975Y-46100D02*
X51200Y-46100D01*
X51200Y-46100D02*
X51275Y-46100D01*
X51275Y-46100D02*
X51200Y-46100D01*
X53000Y-46400D02*
X53425Y-46400D01*
X53472Y-46447D02*
X53472Y-48700D01*
X53425Y-46400D02*
X53472Y-46447D01*
G54D10*
G36*
X45846Y-32571D02*
X45823Y-32571D01*
X45823Y-30116D01*
X45759Y-29960D01*
X45640Y-29841D01*
X45484Y-29776D01*
X45316Y-29776D01*
X45233Y-29810D01*
X45233Y-29227D01*
X45172Y-29066D01*
X45157Y-29044D01*
X45091Y-29014D01*
X44805Y-29300D01*
X45091Y-29585D01*
X45157Y-29555D01*
X45228Y-29398D01*
X45233Y-29227D01*
X45233Y-29810D01*
X45160Y-29840D01*
X45085Y-29915D01*
X45085Y-29591D01*
X44800Y-29305D01*
X44794Y-29311D01*
X44794Y-29300D01*
X44508Y-29014D01*
X44442Y-29044D01*
X44371Y-29201D01*
X44366Y-29372D01*
X44427Y-29533D01*
X44442Y-29555D01*
X44508Y-29585D01*
X44794Y-29300D01*
X44794Y-29311D01*
X44514Y-29591D01*
X44544Y-29657D01*
X44701Y-29728D01*
X44872Y-29733D01*
X45033Y-29672D01*
X45055Y-29657D01*
X45085Y-29591D01*
X45085Y-29915D01*
X45041Y-29959D01*
X44976Y-30115D01*
X44976Y-30283D01*
X45040Y-30439D01*
X45159Y-30558D01*
X45315Y-30623D01*
X45483Y-30623D01*
X45639Y-30559D01*
X45758Y-30440D01*
X45823Y-30284D01*
X45823Y-30116D01*
X45823Y-32571D01*
X45675Y-32571D01*
X43905Y-32571D01*
X43858Y-32524D01*
X43772Y-32488D01*
X43678Y-32488D01*
X43637Y-32505D01*
X43637Y-29408D01*
X43652Y-29417D01*
X43652Y-29417D01*
X43702Y-29435D01*
X43784Y-29449D01*
X43784Y-29449D01*
X43838Y-29447D01*
X43919Y-29428D01*
X43919Y-29428D01*
X43968Y-29406D01*
X44036Y-29357D01*
X44036Y-29357D01*
X44073Y-29318D01*
X44117Y-29247D01*
X44117Y-29247D01*
X44135Y-29197D01*
X44149Y-29115D01*
X44149Y-29115D01*
X44147Y-29061D01*
X44128Y-28980D01*
X44128Y-28980D01*
X44109Y-28937D01*
X44551Y-28937D01*
X44544Y-28942D01*
X44514Y-29008D01*
X44800Y-29294D01*
X45085Y-29008D01*
X45055Y-28942D01*
X45045Y-28937D01*
X45768Y-28937D01*
X45760Y-28940D01*
X45641Y-29059D01*
X45576Y-29215D01*
X45576Y-29383D01*
X45640Y-29539D01*
X45759Y-29658D01*
X45846Y-29694D01*
X45846Y-32400D01*
X45846Y-32571D01*
X45846Y-32571D01*
G37*
G54D22*
X45846Y-32571D02*
X45823Y-32571D01*
X45823Y-30116D01*
X45759Y-29960D01*
X45640Y-29841D01*
X45484Y-29776D01*
X45316Y-29776D01*
X45233Y-29810D01*
X45233Y-29227D01*
X45172Y-29066D01*
X45157Y-29044D01*
X45091Y-29014D01*
X44805Y-29300D01*
X45091Y-29585D01*
X45157Y-29555D01*
X45228Y-29398D01*
X45233Y-29227D01*
X45233Y-29810D01*
X45160Y-29840D01*
X45085Y-29915D01*
X45085Y-29591D01*
X44800Y-29305D01*
X44794Y-29311D01*
X44794Y-29300D01*
X44508Y-29014D01*
X44442Y-29044D01*
X44371Y-29201D01*
X44366Y-29372D01*
X44427Y-29533D01*
X44442Y-29555D01*
X44508Y-29585D01*
X44794Y-29300D01*
X44794Y-29311D01*
X44514Y-29591D01*
X44544Y-29657D01*
X44701Y-29728D01*
X44872Y-29733D01*
X45033Y-29672D01*
X45055Y-29657D01*
X45085Y-29591D01*
X45085Y-29915D01*
X45041Y-29959D01*
X44976Y-30115D01*
X44976Y-30283D01*
X45040Y-30439D01*
X45159Y-30558D01*
X45315Y-30623D01*
X45483Y-30623D01*
X45639Y-30559D01*
X45758Y-30440D01*
X45823Y-30284D01*
X45823Y-30116D01*
X45823Y-32571D01*
X45675Y-32571D01*
X43905Y-32571D01*
X43858Y-32524D01*
X43772Y-32488D01*
X43678Y-32488D01*
X43637Y-32505D01*
X43637Y-29408D01*
X43652Y-29417D01*
X43652Y-29417D01*
X43702Y-29435D01*
X43784Y-29449D01*
X43784Y-29449D01*
X43838Y-29447D01*
X43919Y-29428D01*
X43919Y-29428D01*
X43968Y-29406D01*
X44036Y-29357D01*
X44036Y-29357D01*
X44073Y-29318D01*
X44117Y-29247D01*
X44117Y-29247D01*
X44135Y-29197D01*
X44149Y-29115D01*
X44149Y-29115D01*
X44147Y-29061D01*
X44128Y-28980D01*
X44128Y-28980D01*
X44109Y-28937D01*
X44551Y-28937D01*
X44544Y-28942D01*
X44514Y-29008D01*
X44800Y-29294D01*
X45085Y-29008D01*
X45055Y-28942D01*
X45045Y-28937D01*
X45768Y-28937D01*
X45760Y-28940D01*
X45641Y-29059D01*
X45576Y-29215D01*
X45576Y-29383D01*
X45640Y-29539D01*
X45759Y-29658D01*
X45846Y-29694D01*
X45846Y-32400D01*
X45846Y-32571D01*
G54D10*
G36*
X62346Y-44715D02*
X61590Y-44715D01*
X61547Y-44733D01*
X61514Y-44766D01*
X61496Y-44810D01*
X61496Y-44857D01*
X61496Y-45644D01*
X61513Y-45688D01*
X61520Y-45694D01*
X61507Y-45707D01*
X61488Y-45753D01*
X61488Y-46104D01*
X61483Y-46099D01*
X61397Y-46063D01*
X61303Y-46063D01*
X61229Y-46094D01*
X61229Y-44751D01*
X61218Y-44692D01*
X61184Y-44642D01*
X61184Y-44642D01*
X61120Y-44578D01*
X62346Y-44578D01*
X62346Y-44715D01*
X62346Y-44715D01*
G37*
G54D22*
X62346Y-44715D02*
X61590Y-44715D01*
X61547Y-44733D01*
X61514Y-44766D01*
X61496Y-44810D01*
X61496Y-44857D01*
X61496Y-45644D01*
X61513Y-45688D01*
X61520Y-45694D01*
X61507Y-45707D01*
X61488Y-45753D01*
X61488Y-46104D01*
X61483Y-46099D01*
X61397Y-46063D01*
X61303Y-46063D01*
X61229Y-46094D01*
X61229Y-44751D01*
X61218Y-44692D01*
X61184Y-44642D01*
X61184Y-44642D01*
X61120Y-44578D01*
X62346Y-44578D01*
X62346Y-44715D01*
G54D10*
G36*
X63846Y-46548D02*
X63822Y-46538D01*
X63728Y-46538D01*
X63641Y-46574D01*
X63594Y-46621D01*
X63499Y-46621D01*
X63511Y-46591D01*
X63511Y-46207D01*
X63480Y-46176D01*
X62503Y-46176D01*
X62503Y-46184D01*
X62496Y-46184D01*
X62496Y-46176D01*
X62488Y-46176D01*
X62488Y-46168D01*
X62496Y-46168D01*
X62496Y-46160D01*
X62503Y-46160D01*
X62503Y-46168D01*
X63480Y-46168D01*
X63511Y-46137D01*
X63511Y-45753D01*
X63492Y-45707D01*
X63479Y-45694D01*
X63485Y-45688D01*
X63503Y-45644D01*
X63503Y-45597D01*
X63503Y-44810D01*
X63486Y-44767D01*
X63452Y-44733D01*
X63409Y-44715D01*
X63362Y-44715D01*
X62653Y-44715D01*
X62653Y-44500D01*
X62641Y-44441D01*
X62608Y-44391D01*
X62608Y-44391D01*
X62545Y-44328D01*
X63846Y-44328D01*
X63846Y-44400D01*
X63846Y-44475D01*
X63846Y-44550D01*
X63846Y-44625D01*
X63846Y-46548D01*
X63846Y-46548D01*
G37*
G54D22*
X63846Y-46548D02*
X63822Y-46538D01*
X63728Y-46538D01*
X63641Y-46574D01*
X63594Y-46621D01*
X63499Y-46621D01*
X63511Y-46591D01*
X63511Y-46207D01*
X63480Y-46176D01*
X62503Y-46176D01*
X62503Y-46184D01*
X62496Y-46184D01*
X62496Y-46176D01*
X62488Y-46176D01*
X62488Y-46168D01*
X62496Y-46168D01*
X62496Y-46160D01*
X62503Y-46160D01*
X62503Y-46168D01*
X63480Y-46168D01*
X63511Y-46137D01*
X63511Y-45753D01*
X63492Y-45707D01*
X63479Y-45694D01*
X63485Y-45688D01*
X63503Y-45644D01*
X63503Y-45597D01*
X63503Y-44810D01*
X63486Y-44767D01*
X63452Y-44733D01*
X63409Y-44715D01*
X63362Y-44715D01*
X62653Y-44715D01*
X62653Y-44500D01*
X62641Y-44441D01*
X62608Y-44391D01*
X62608Y-44391D01*
X62545Y-44328D01*
X63846Y-44328D01*
X63846Y-44400D01*
X63846Y-44475D01*
X63846Y-44550D01*
X63846Y-44625D01*
X63846Y-46548D01*
G54D10*
G36*
X67971Y-43604D02*
X67908Y-43541D01*
X67858Y-43508D01*
X67849Y-43506D01*
X67800Y-43496D01*
X67799Y-43496D01*
X66805Y-43496D01*
X66758Y-43449D01*
X66672Y-43413D01*
X66578Y-43413D01*
X66491Y-43449D01*
X66444Y-43496D01*
X66178Y-43496D01*
X66178Y-43055D01*
X66225Y-43008D01*
X66261Y-42922D01*
X66261Y-42828D01*
X66225Y-42741D01*
X66158Y-42674D01*
X66072Y-42638D01*
X65978Y-42638D01*
X65891Y-42674D01*
X65824Y-42741D01*
X65788Y-42827D01*
X65788Y-42921D01*
X65824Y-43008D01*
X65871Y-43055D01*
X65871Y-43496D01*
X65605Y-43496D01*
X65558Y-43449D01*
X65472Y-43413D01*
X65378Y-43413D01*
X65291Y-43449D01*
X65253Y-43487D01*
X65253Y-42700D01*
X65253Y-42601D01*
X65277Y-42611D01*
X65371Y-42611D01*
X65458Y-42575D01*
X65525Y-42508D01*
X65561Y-42422D01*
X65561Y-42328D01*
X65525Y-42241D01*
X65458Y-42174D01*
X65372Y-42138D01*
X65278Y-42138D01*
X65191Y-42174D01*
X65136Y-42229D01*
X65116Y-42233D01*
X65066Y-42266D01*
X65066Y-42266D01*
X65003Y-42329D01*
X65003Y-42003D01*
X65169Y-42003D01*
X65216Y-42050D01*
X65302Y-42086D01*
X65396Y-42086D01*
X65483Y-42050D01*
X65550Y-41983D01*
X65586Y-41897D01*
X65586Y-41803D01*
X65550Y-41716D01*
X65483Y-41649D01*
X65397Y-41613D01*
X65303Y-41613D01*
X65216Y-41649D01*
X65169Y-41696D01*
X64975Y-41696D01*
X64900Y-41696D01*
X64841Y-41708D01*
X64791Y-41741D01*
X64753Y-41779D01*
X64753Y-41675D01*
X64741Y-41616D01*
X64708Y-41566D01*
X64708Y-41566D01*
X64633Y-41491D01*
X64583Y-41458D01*
X64574Y-41456D01*
X64525Y-41446D01*
X64524Y-41446D01*
X64480Y-41446D01*
X64433Y-41399D01*
X64347Y-41363D01*
X64253Y-41363D01*
X64166Y-41399D01*
X64099Y-41466D01*
X64063Y-41552D01*
X64063Y-41646D01*
X64099Y-41733D01*
X64166Y-41800D01*
X64252Y-41836D01*
X64346Y-41836D01*
X64433Y-41800D01*
X64446Y-41787D01*
X64446Y-41894D01*
X64372Y-41863D01*
X64278Y-41863D01*
X64191Y-41899D01*
X64124Y-41966D01*
X64088Y-42052D01*
X64088Y-42146D01*
X64124Y-42233D01*
X64171Y-42280D01*
X64171Y-45775D01*
X64171Y-45894D01*
X64153Y-45912D01*
X64153Y-44625D01*
X64153Y-44550D01*
X64153Y-44475D01*
X64153Y-44400D01*
X64153Y-44250D01*
X64141Y-44191D01*
X64108Y-44141D01*
X64108Y-44141D01*
X64033Y-44066D01*
X63983Y-44033D01*
X63974Y-44031D01*
X63925Y-44021D01*
X63924Y-44021D01*
X60580Y-44021D01*
X60533Y-43974D01*
X60447Y-43938D01*
X60353Y-43938D01*
X60266Y-43974D01*
X60199Y-44041D01*
X60163Y-44127D01*
X60163Y-44221D01*
X60184Y-44271D01*
X59575Y-44271D01*
X59516Y-44283D01*
X59466Y-44316D01*
X59466Y-44316D01*
X59391Y-44391D01*
X59358Y-44441D01*
X59356Y-44450D01*
X59346Y-44500D01*
X59346Y-44500D01*
X59346Y-46344D01*
X59299Y-46391D01*
X59263Y-46477D01*
X59263Y-46571D01*
X59299Y-46658D01*
X59366Y-46725D01*
X59452Y-46761D01*
X59546Y-46761D01*
X59633Y-46725D01*
X59700Y-46658D01*
X59736Y-46572D01*
X59736Y-46478D01*
X59700Y-46391D01*
X59653Y-46344D01*
X59653Y-44578D01*
X60184Y-44578D01*
X60163Y-44627D01*
X60163Y-44721D01*
X60199Y-44808D01*
X60228Y-44837D01*
X60199Y-44866D01*
X60163Y-44952D01*
X60163Y-45046D01*
X60199Y-45133D01*
X60266Y-45200D01*
X60352Y-45236D01*
X60446Y-45236D01*
X60533Y-45200D01*
X60580Y-45153D01*
X60784Y-45153D01*
X60784Y-45508D01*
X60783Y-45508D01*
X60774Y-45506D01*
X60725Y-45496D01*
X60724Y-45496D01*
X60580Y-45496D01*
X60533Y-45449D01*
X60447Y-45413D01*
X60353Y-45413D01*
X60266Y-45449D01*
X60199Y-45516D01*
X60163Y-45602D01*
X60163Y-45696D01*
X60199Y-45783D01*
X60228Y-45812D01*
X60199Y-45841D01*
X60163Y-45927D01*
X60163Y-46021D01*
X60199Y-46108D01*
X60215Y-46124D01*
X60174Y-46166D01*
X60138Y-46252D01*
X60138Y-46346D01*
X60174Y-46433D01*
X60241Y-46500D01*
X60327Y-46536D01*
X60371Y-46536D01*
X60371Y-46550D01*
X60371Y-46775D01*
X60371Y-47250D01*
X60371Y-47688D01*
X60341Y-47688D01*
X60007Y-47688D01*
X59976Y-47719D01*
X59976Y-48696D01*
X59984Y-48696D01*
X59984Y-48703D01*
X59976Y-48703D01*
X59976Y-49680D01*
X60007Y-49711D01*
X60341Y-49711D01*
X60371Y-49711D01*
X60371Y-49799D01*
X60371Y-49800D01*
X60381Y-49849D01*
X60383Y-49858D01*
X60400Y-49884D01*
X58300Y-49884D01*
X58162Y-49884D01*
X57951Y-49884D01*
X57935Y-49868D01*
X57935Y-49656D01*
X57935Y-49173D01*
X58037Y-49131D01*
X58165Y-49004D01*
X58234Y-48837D01*
X58234Y-48657D01*
X58212Y-48604D01*
X58416Y-48808D01*
X58416Y-48808D01*
X58466Y-48841D01*
X58515Y-48851D01*
X58515Y-49609D01*
X58533Y-49652D01*
X58566Y-49685D01*
X58610Y-49703D01*
X58657Y-49703D01*
X59444Y-49703D01*
X59488Y-49686D01*
X59494Y-49679D01*
X59507Y-49692D01*
X59553Y-49711D01*
X59603Y-49711D01*
X59937Y-49711D01*
X59968Y-49680D01*
X59968Y-48703D01*
X59960Y-48703D01*
X59960Y-48696D01*
X59968Y-48696D01*
X59968Y-47719D01*
X59937Y-47688D01*
X59603Y-47688D01*
X59553Y-47688D01*
X59507Y-47707D01*
X59494Y-47720D01*
X59488Y-47714D01*
X59444Y-47696D01*
X59397Y-47696D01*
X58610Y-47696D01*
X58567Y-47713D01*
X58533Y-47747D01*
X58515Y-47790D01*
X58515Y-47837D01*
X58515Y-48473D01*
X58236Y-48194D01*
X58236Y-48128D01*
X58200Y-48041D01*
X58133Y-47974D01*
X58047Y-47938D01*
X57953Y-47938D01*
X57866Y-47974D01*
X57799Y-48041D01*
X57763Y-48127D01*
X57763Y-48183D01*
X57003Y-47423D01*
X57003Y-40905D01*
X57077Y-40936D01*
X57171Y-40936D01*
X57258Y-40900D01*
X57305Y-40853D01*
X67971Y-40853D01*
X67971Y-43604D01*
X67971Y-43604D01*
G37*
G54D22*
X67971Y-43604D02*
X67908Y-43541D01*
X67858Y-43508D01*
X67849Y-43506D01*
X67800Y-43496D01*
X67799Y-43496D01*
X66805Y-43496D01*
X66758Y-43449D01*
X66672Y-43413D01*
X66578Y-43413D01*
X66491Y-43449D01*
X66444Y-43496D01*
X66178Y-43496D01*
X66178Y-43055D01*
X66225Y-43008D01*
X66261Y-42922D01*
X66261Y-42828D01*
X66225Y-42741D01*
X66158Y-42674D01*
X66072Y-42638D01*
X65978Y-42638D01*
X65891Y-42674D01*
X65824Y-42741D01*
X65788Y-42827D01*
X65788Y-42921D01*
X65824Y-43008D01*
X65871Y-43055D01*
X65871Y-43496D01*
X65605Y-43496D01*
X65558Y-43449D01*
X65472Y-43413D01*
X65378Y-43413D01*
X65291Y-43449D01*
X65253Y-43487D01*
X65253Y-42700D01*
X65253Y-42601D01*
X65277Y-42611D01*
X65371Y-42611D01*
X65458Y-42575D01*
X65525Y-42508D01*
X65561Y-42422D01*
X65561Y-42328D01*
X65525Y-42241D01*
X65458Y-42174D01*
X65372Y-42138D01*
X65278Y-42138D01*
X65191Y-42174D01*
X65136Y-42229D01*
X65116Y-42233D01*
X65066Y-42266D01*
X65066Y-42266D01*
X65003Y-42329D01*
X65003Y-42003D01*
X65169Y-42003D01*
X65216Y-42050D01*
X65302Y-42086D01*
X65396Y-42086D01*
X65483Y-42050D01*
X65550Y-41983D01*
X65586Y-41897D01*
X65586Y-41803D01*
X65550Y-41716D01*
X65483Y-41649D01*
X65397Y-41613D01*
X65303Y-41613D01*
X65216Y-41649D01*
X65169Y-41696D01*
X64975Y-41696D01*
X64900Y-41696D01*
X64841Y-41708D01*
X64791Y-41741D01*
X64753Y-41779D01*
X64753Y-41675D01*
X64741Y-41616D01*
X64708Y-41566D01*
X64708Y-41566D01*
X64633Y-41491D01*
X64583Y-41458D01*
X64574Y-41456D01*
X64525Y-41446D01*
X64524Y-41446D01*
X64480Y-41446D01*
X64433Y-41399D01*
X64347Y-41363D01*
X64253Y-41363D01*
X64166Y-41399D01*
X64099Y-41466D01*
X64063Y-41552D01*
X64063Y-41646D01*
X64099Y-41733D01*
X64166Y-41800D01*
X64252Y-41836D01*
X64346Y-41836D01*
X64433Y-41800D01*
X64446Y-41787D01*
X64446Y-41894D01*
X64372Y-41863D01*
X64278Y-41863D01*
X64191Y-41899D01*
X64124Y-41966D01*
X64088Y-42052D01*
X64088Y-42146D01*
X64124Y-42233D01*
X64171Y-42280D01*
X64171Y-45775D01*
X64171Y-45894D01*
X64153Y-45912D01*
X64153Y-44625D01*
X64153Y-44550D01*
X64153Y-44475D01*
X64153Y-44400D01*
X64153Y-44250D01*
X64141Y-44191D01*
X64108Y-44141D01*
X64108Y-44141D01*
X64033Y-44066D01*
X63983Y-44033D01*
X63974Y-44031D01*
X63925Y-44021D01*
X63924Y-44021D01*
X60580Y-44021D01*
X60533Y-43974D01*
X60447Y-43938D01*
X60353Y-43938D01*
X60266Y-43974D01*
X60199Y-44041D01*
X60163Y-44127D01*
X60163Y-44221D01*
X60184Y-44271D01*
X59575Y-44271D01*
X59516Y-44283D01*
X59466Y-44316D01*
X59466Y-44316D01*
X59391Y-44391D01*
X59358Y-44441D01*
X59356Y-44450D01*
X59346Y-44500D01*
X59346Y-44500D01*
X59346Y-46344D01*
X59299Y-46391D01*
X59263Y-46477D01*
X59263Y-46571D01*
X59299Y-46658D01*
X59366Y-46725D01*
X59452Y-46761D01*
X59546Y-46761D01*
X59633Y-46725D01*
X59700Y-46658D01*
X59736Y-46572D01*
X59736Y-46478D01*
X59700Y-46391D01*
X59653Y-46344D01*
X59653Y-44578D01*
X60184Y-44578D01*
X60163Y-44627D01*
X60163Y-44721D01*
X60199Y-44808D01*
X60228Y-44837D01*
X60199Y-44866D01*
X60163Y-44952D01*
X60163Y-45046D01*
X60199Y-45133D01*
X60266Y-45200D01*
X60352Y-45236D01*
X60446Y-45236D01*
X60533Y-45200D01*
X60580Y-45153D01*
X60784Y-45153D01*
X60784Y-45508D01*
X60783Y-45508D01*
X60774Y-45506D01*
X60725Y-45496D01*
X60724Y-45496D01*
X60580Y-45496D01*
X60533Y-45449D01*
X60447Y-45413D01*
X60353Y-45413D01*
X60266Y-45449D01*
X60199Y-45516D01*
X60163Y-45602D01*
X60163Y-45696D01*
X60199Y-45783D01*
X60228Y-45812D01*
X60199Y-45841D01*
X60163Y-45927D01*
X60163Y-46021D01*
X60199Y-46108D01*
X60215Y-46124D01*
X60174Y-46166D01*
X60138Y-46252D01*
X60138Y-46346D01*
X60174Y-46433D01*
X60241Y-46500D01*
X60327Y-46536D01*
X60371Y-46536D01*
X60371Y-46550D01*
X60371Y-46775D01*
X60371Y-47250D01*
X60371Y-47688D01*
X60341Y-47688D01*
X60007Y-47688D01*
X59976Y-47719D01*
X59976Y-48696D01*
X59984Y-48696D01*
X59984Y-48703D01*
X59976Y-48703D01*
X59976Y-49680D01*
X60007Y-49711D01*
X60341Y-49711D01*
X60371Y-49711D01*
X60371Y-49799D01*
X60371Y-49800D01*
X60381Y-49849D01*
X60383Y-49858D01*
X60400Y-49884D01*
X58300Y-49884D01*
X58162Y-49884D01*
X57951Y-49884D01*
X57935Y-49868D01*
X57935Y-49656D01*
X57935Y-49173D01*
X58037Y-49131D01*
X58165Y-49004D01*
X58234Y-48837D01*
X58234Y-48657D01*
X58212Y-48604D01*
X58416Y-48808D01*
X58416Y-48808D01*
X58466Y-48841D01*
X58515Y-48851D01*
X58515Y-49609D01*
X58533Y-49652D01*
X58566Y-49685D01*
X58610Y-49703D01*
X58657Y-49703D01*
X59444Y-49703D01*
X59488Y-49686D01*
X59494Y-49679D01*
X59507Y-49692D01*
X59553Y-49711D01*
X59603Y-49711D01*
X59937Y-49711D01*
X59968Y-49680D01*
X59968Y-48703D01*
X59960Y-48703D01*
X59960Y-48696D01*
X59968Y-48696D01*
X59968Y-47719D01*
X59937Y-47688D01*
X59603Y-47688D01*
X59553Y-47688D01*
X59507Y-47707D01*
X59494Y-47720D01*
X59488Y-47714D01*
X59444Y-47696D01*
X59397Y-47696D01*
X58610Y-47696D01*
X58567Y-47713D01*
X58533Y-47747D01*
X58515Y-47790D01*
X58515Y-47837D01*
X58515Y-48473D01*
X58236Y-48194D01*
X58236Y-48128D01*
X58200Y-48041D01*
X58133Y-47974D01*
X58047Y-47938D01*
X57953Y-47938D01*
X57866Y-47974D01*
X57799Y-48041D01*
X57763Y-48127D01*
X57763Y-48183D01*
X57003Y-47423D01*
X57003Y-40905D01*
X57077Y-40936D01*
X57171Y-40936D01*
X57258Y-40900D01*
X57305Y-40853D01*
X67971Y-40853D01*
X67971Y-43604D01*
G54D10*
G36*
X67971Y-49619D02*
X67924Y-49666D01*
X67888Y-49752D01*
X67888Y-49846D01*
X67904Y-49884D01*
X66114Y-49884D01*
X66125Y-49827D01*
X66125Y-49703D01*
X66389Y-49703D01*
X66432Y-49686D01*
X66466Y-49652D01*
X66484Y-49609D01*
X66484Y-49562D01*
X66484Y-47790D01*
X66466Y-47747D01*
X66433Y-47714D01*
X66389Y-47696D01*
X66342Y-47696D01*
X65555Y-47696D01*
X65511Y-47713D01*
X65505Y-47720D01*
X65492Y-47707D01*
X65446Y-47688D01*
X65396Y-47688D01*
X65062Y-47688D01*
X65031Y-47719D01*
X65031Y-48696D01*
X65039Y-48696D01*
X65039Y-48703D01*
X65031Y-48703D01*
X65031Y-49680D01*
X65062Y-49711D01*
X65396Y-49711D01*
X65446Y-49711D01*
X65492Y-49692D01*
X65505Y-49679D01*
X65511Y-49685D01*
X65555Y-49703D01*
X65602Y-49703D01*
X65818Y-49703D01*
X65818Y-49746D01*
X64626Y-49746D01*
X64636Y-49722D01*
X64636Y-49711D01*
X64658Y-49711D01*
X64992Y-49711D01*
X65023Y-49680D01*
X65023Y-48703D01*
X65015Y-48703D01*
X65015Y-48696D01*
X65023Y-48696D01*
X65023Y-47719D01*
X64992Y-47688D01*
X64658Y-47688D01*
X64608Y-47688D01*
X64600Y-47691D01*
X64600Y-47691D01*
X64553Y-47644D01*
X64553Y-47153D01*
X65444Y-47153D01*
X65491Y-47200D01*
X65577Y-47236D01*
X65671Y-47236D01*
X65758Y-47200D01*
X65805Y-47153D01*
X66919Y-47153D01*
X66966Y-47200D01*
X67052Y-47236D01*
X67146Y-47236D01*
X67233Y-47200D01*
X67300Y-47133D01*
X67336Y-47047D01*
X67336Y-46953D01*
X67311Y-46894D01*
X67342Y-46936D01*
X67342Y-46936D01*
X67381Y-46973D01*
X67452Y-47017D01*
X67452Y-47017D01*
X67502Y-47035D01*
X67584Y-47049D01*
X67584Y-47049D01*
X67638Y-47047D01*
X67719Y-47028D01*
X67719Y-47028D01*
X67768Y-47006D01*
X67836Y-46957D01*
X67836Y-46957D01*
X67873Y-46918D01*
X67917Y-46847D01*
X67917Y-46847D01*
X67935Y-46797D01*
X67949Y-46715D01*
X67949Y-46715D01*
X67947Y-46661D01*
X67928Y-46580D01*
X67928Y-46580D01*
X67906Y-46531D01*
X67857Y-46463D01*
X67857Y-46463D01*
X67818Y-46426D01*
X67747Y-46382D01*
X67747Y-46382D01*
X67697Y-46364D01*
X67694Y-46363D01*
X67919Y-46112D01*
X67947Y-46066D01*
X67947Y-46065D01*
X67971Y-45996D01*
X67971Y-47504D01*
X67968Y-47501D01*
X67897Y-47457D01*
X67897Y-47457D01*
X67847Y-47439D01*
X67765Y-47425D01*
X67765Y-47425D01*
X67711Y-47427D01*
X67630Y-47446D01*
X67630Y-47446D01*
X67581Y-47468D01*
X67513Y-47517D01*
X67513Y-47517D01*
X67476Y-47556D01*
X67432Y-47627D01*
X67432Y-47627D01*
X67414Y-47677D01*
X67400Y-47759D01*
X67402Y-47813D01*
X67421Y-47894D01*
X67421Y-47894D01*
X67443Y-47943D01*
X67492Y-48011D01*
X67492Y-48011D01*
X67531Y-48048D01*
X67602Y-48092D01*
X67602Y-48092D01*
X67652Y-48110D01*
X67734Y-48124D01*
X67734Y-48124D01*
X67788Y-48122D01*
X67869Y-48103D01*
X67869Y-48103D01*
X67918Y-48081D01*
X67971Y-48043D01*
X67971Y-49619D01*
X67971Y-49619D01*
G37*
G54D22*
X67971Y-49619D02*
X67924Y-49666D01*
X67888Y-49752D01*
X67888Y-49846D01*
X67904Y-49884D01*
X66114Y-49884D01*
X66125Y-49827D01*
X66125Y-49703D01*
X66389Y-49703D01*
X66432Y-49686D01*
X66466Y-49652D01*
X66484Y-49609D01*
X66484Y-49562D01*
X66484Y-47790D01*
X66466Y-47747D01*
X66433Y-47714D01*
X66389Y-47696D01*
X66342Y-47696D01*
X65555Y-47696D01*
X65511Y-47713D01*
X65505Y-47720D01*
X65492Y-47707D01*
X65446Y-47688D01*
X65396Y-47688D01*
X65062Y-47688D01*
X65031Y-47719D01*
X65031Y-48696D01*
X65039Y-48696D01*
X65039Y-48703D01*
X65031Y-48703D01*
X65031Y-49680D01*
X65062Y-49711D01*
X65396Y-49711D01*
X65446Y-49711D01*
X65492Y-49692D01*
X65505Y-49679D01*
X65511Y-49685D01*
X65555Y-49703D01*
X65602Y-49703D01*
X65818Y-49703D01*
X65818Y-49746D01*
X64626Y-49746D01*
X64636Y-49722D01*
X64636Y-49711D01*
X64658Y-49711D01*
X64992Y-49711D01*
X65023Y-49680D01*
X65023Y-48703D01*
X65015Y-48703D01*
X65015Y-48696D01*
X65023Y-48696D01*
X65023Y-47719D01*
X64992Y-47688D01*
X64658Y-47688D01*
X64608Y-47688D01*
X64600Y-47691D01*
X64600Y-47691D01*
X64553Y-47644D01*
X64553Y-47153D01*
X65444Y-47153D01*
X65491Y-47200D01*
X65577Y-47236D01*
X65671Y-47236D01*
X65758Y-47200D01*
X65805Y-47153D01*
X66919Y-47153D01*
X66966Y-47200D01*
X67052Y-47236D01*
X67146Y-47236D01*
X67233Y-47200D01*
X67300Y-47133D01*
X67336Y-47047D01*
X67336Y-46953D01*
X67311Y-46894D01*
X67342Y-46936D01*
X67342Y-46936D01*
X67381Y-46973D01*
X67452Y-47017D01*
X67452Y-47017D01*
X67502Y-47035D01*
X67584Y-47049D01*
X67584Y-47049D01*
X67638Y-47047D01*
X67719Y-47028D01*
X67719Y-47028D01*
X67768Y-47006D01*
X67836Y-46957D01*
X67836Y-46957D01*
X67873Y-46918D01*
X67917Y-46847D01*
X67917Y-46847D01*
X67935Y-46797D01*
X67949Y-46715D01*
X67949Y-46715D01*
X67947Y-46661D01*
X67928Y-46580D01*
X67928Y-46580D01*
X67906Y-46531D01*
X67857Y-46463D01*
X67857Y-46463D01*
X67818Y-46426D01*
X67747Y-46382D01*
X67747Y-46382D01*
X67697Y-46364D01*
X67694Y-46363D01*
X67919Y-46112D01*
X67947Y-46066D01*
X67947Y-46065D01*
X67971Y-45996D01*
X67971Y-47504D01*
X67968Y-47501D01*
X67897Y-47457D01*
X67897Y-47457D01*
X67847Y-47439D01*
X67765Y-47425D01*
X67765Y-47425D01*
X67711Y-47427D01*
X67630Y-47446D01*
X67630Y-47446D01*
X67581Y-47468D01*
X67513Y-47517D01*
X67513Y-47517D01*
X67476Y-47556D01*
X67432Y-47627D01*
X67432Y-47627D01*
X67414Y-47677D01*
X67400Y-47759D01*
X67402Y-47813D01*
X67421Y-47894D01*
X67421Y-47894D01*
X67443Y-47943D01*
X67492Y-48011D01*
X67492Y-48011D01*
X67531Y-48048D01*
X67602Y-48092D01*
X67602Y-48092D01*
X67652Y-48110D01*
X67734Y-48124D01*
X67734Y-48124D01*
X67788Y-48122D01*
X67869Y-48103D01*
X67869Y-48103D01*
X67918Y-48081D01*
X67971Y-48043D01*
X67971Y-49619D01*
G54D10*
G36*
X68862Y-54062D02*
X67502Y-54062D01*
X67502Y-51508D01*
X67440Y-51356D01*
X67323Y-51240D01*
X67171Y-51177D01*
X67007Y-51177D01*
X66855Y-51240D01*
X66739Y-51356D01*
X66676Y-51508D01*
X66675Y-51672D01*
X66738Y-51824D01*
X66854Y-51940D01*
X67006Y-52004D01*
X67171Y-52004D01*
X67323Y-51941D01*
X67439Y-51825D01*
X67502Y-51673D01*
X67502Y-51508D01*
X67502Y-54062D01*
X61742Y-54062D01*
X61757Y-54055D01*
X61828Y-53898D01*
X61833Y-53727D01*
X61772Y-53566D01*
X61757Y-53544D01*
X61691Y-53514D01*
X61685Y-53519D01*
X61685Y-53508D01*
X61655Y-53442D01*
X61498Y-53371D01*
X61327Y-53366D01*
X61223Y-53405D01*
X61223Y-52816D01*
X61159Y-52660D01*
X61040Y-52541D01*
X60884Y-52476D01*
X60716Y-52476D01*
X60560Y-52540D01*
X60441Y-52659D01*
X60376Y-52815D01*
X60376Y-52983D01*
X60440Y-53139D01*
X60559Y-53258D01*
X60715Y-53323D01*
X60883Y-53323D01*
X61039Y-53259D01*
X61158Y-53140D01*
X61223Y-52984D01*
X61223Y-52816D01*
X61223Y-53405D01*
X61166Y-53427D01*
X61144Y-53442D01*
X61114Y-53508D01*
X61400Y-53794D01*
X61685Y-53508D01*
X61685Y-53519D01*
X61405Y-53800D01*
X61411Y-53805D01*
X61405Y-53811D01*
X61400Y-53805D01*
X61394Y-53811D01*
X61388Y-53805D01*
X61394Y-53800D01*
X61108Y-53514D01*
X61042Y-53544D01*
X60971Y-53701D01*
X60966Y-53872D01*
X61027Y-54033D01*
X61042Y-54055D01*
X61057Y-54062D01*
X60536Y-54062D01*
X60558Y-54040D01*
X60623Y-53884D01*
X60623Y-53716D01*
X60559Y-53560D01*
X60440Y-53441D01*
X60284Y-53376D01*
X60116Y-53376D01*
X59960Y-53440D01*
X59841Y-53559D01*
X59776Y-53715D01*
X59776Y-53883D01*
X59840Y-54039D01*
X59863Y-54062D01*
X59692Y-54062D01*
X59692Y-53621D01*
X59692Y-53227D01*
X59674Y-53184D01*
X59641Y-53151D01*
X59598Y-53133D01*
X59551Y-53133D01*
X59471Y-53133D01*
X59486Y-53097D01*
X59486Y-53003D01*
X59450Y-52916D01*
X59383Y-52849D01*
X59297Y-52813D01*
X59236Y-52813D01*
X59236Y-52243D01*
X59236Y-51955D01*
X59236Y-51948D01*
X59236Y-51660D01*
X59204Y-51629D01*
X58880Y-51629D01*
X58834Y-51648D01*
X58798Y-51683D01*
X58779Y-51729D01*
X58779Y-51780D01*
X58779Y-51916D01*
X58811Y-51948D01*
X59236Y-51948D01*
X59236Y-51955D01*
X58811Y-51955D01*
X58779Y-51987D01*
X58779Y-52123D01*
X58779Y-52173D01*
X58798Y-52220D01*
X58834Y-52255D01*
X58880Y-52274D01*
X59204Y-52274D01*
X59236Y-52243D01*
X59236Y-52813D01*
X59203Y-52813D01*
X59116Y-52849D01*
X59049Y-52916D01*
X59013Y-53002D01*
X59013Y-53096D01*
X59028Y-53133D01*
X58882Y-53133D01*
X58838Y-53150D01*
X58805Y-53184D01*
X58787Y-53227D01*
X58787Y-53274D01*
X58787Y-53294D01*
X58554Y-53294D01*
X58576Y-53285D01*
X58775Y-53086D01*
X58883Y-52825D01*
X58884Y-52543D01*
X58776Y-52283D01*
X58577Y-52083D01*
X58316Y-51975D01*
X58035Y-51975D01*
X57774Y-52083D01*
X57574Y-52282D01*
X57466Y-52542D01*
X57466Y-52824D01*
X57574Y-53085D01*
X57773Y-53284D01*
X57797Y-53294D01*
X57220Y-53294D01*
X57220Y-52123D01*
X57220Y-51780D01*
X57220Y-51729D01*
X57201Y-51683D01*
X57165Y-51648D01*
X57119Y-51629D01*
X56795Y-51629D01*
X56763Y-51660D01*
X56763Y-51948D01*
X57188Y-51948D01*
X57220Y-51916D01*
X57220Y-51780D01*
X57220Y-52123D01*
X57220Y-51987D01*
X57188Y-51955D01*
X56763Y-51955D01*
X56763Y-52243D01*
X56795Y-52274D01*
X57119Y-52274D01*
X57165Y-52255D01*
X57201Y-52220D01*
X57220Y-52173D01*
X57220Y-52123D01*
X57220Y-53294D01*
X57212Y-53294D01*
X57212Y-53227D01*
X57194Y-53184D01*
X57161Y-53151D01*
X57118Y-53133D01*
X57071Y-53133D01*
X56755Y-53133D01*
X56755Y-52243D01*
X56755Y-51955D01*
X56755Y-51948D01*
X56755Y-51660D01*
X56724Y-51629D01*
X56400Y-51629D01*
X56353Y-51648D01*
X56318Y-51683D01*
X56299Y-51729D01*
X56299Y-51780D01*
X56299Y-51916D01*
X56330Y-51948D01*
X56755Y-51948D01*
X56755Y-51955D01*
X56330Y-51955D01*
X56299Y-51987D01*
X56299Y-52123D01*
X56299Y-52173D01*
X56318Y-52220D01*
X56353Y-52255D01*
X56400Y-52274D01*
X56724Y-52274D01*
X56755Y-52243D01*
X56755Y-53133D01*
X56401Y-53133D01*
X56358Y-53150D01*
X56325Y-53184D01*
X56307Y-53227D01*
X56307Y-53274D01*
X56307Y-53668D01*
X56325Y-53711D01*
X56358Y-53744D01*
X56401Y-53762D01*
X56448Y-53763D01*
X57117Y-53763D01*
X57161Y-53745D01*
X57194Y-53711D01*
X57212Y-53668D01*
X57212Y-53621D01*
X57212Y-53601D01*
X58787Y-53601D01*
X58787Y-53668D01*
X58805Y-53711D01*
X58838Y-53744D01*
X58881Y-53762D01*
X58928Y-53763D01*
X59598Y-53763D01*
X59641Y-53745D01*
X59674Y-53711D01*
X59692Y-53668D01*
X59692Y-53621D01*
X59692Y-54062D01*
X56200Y-54062D01*
X56200Y-52123D01*
X56200Y-51780D01*
X56200Y-51729D01*
X56181Y-51683D01*
X56146Y-51648D01*
X56099Y-51629D01*
X55775Y-51629D01*
X55744Y-51660D01*
X55744Y-51948D01*
X56169Y-51948D01*
X56200Y-51916D01*
X56200Y-51780D01*
X56200Y-52123D01*
X56200Y-51987D01*
X56169Y-51955D01*
X55744Y-51955D01*
X55744Y-52243D01*
X55775Y-52274D01*
X56099Y-52274D01*
X56146Y-52255D01*
X56181Y-52220D01*
X56200Y-52173D01*
X56200Y-52123D01*
X56200Y-54062D01*
X56192Y-54062D01*
X56192Y-53621D01*
X56192Y-53227D01*
X56174Y-53184D01*
X56141Y-53151D01*
X56098Y-53133D01*
X56051Y-53133D01*
X55950Y-53133D01*
X55986Y-53047D01*
X55986Y-52953D01*
X55950Y-52866D01*
X55883Y-52799D01*
X55797Y-52763D01*
X55736Y-52763D01*
X55736Y-52243D01*
X55736Y-51955D01*
X55736Y-51948D01*
X55736Y-51660D01*
X55704Y-51629D01*
X55380Y-51629D01*
X55334Y-51648D01*
X55298Y-51683D01*
X55279Y-51729D01*
X55279Y-51780D01*
X55279Y-51916D01*
X55311Y-51948D01*
X55736Y-51948D01*
X55736Y-51955D01*
X55311Y-51955D01*
X55279Y-51987D01*
X55279Y-52123D01*
X55279Y-52173D01*
X55298Y-52220D01*
X55334Y-52255D01*
X55380Y-52274D01*
X55704Y-52274D01*
X55736Y-52243D01*
X55736Y-52763D01*
X55703Y-52763D01*
X55616Y-52799D01*
X55549Y-52866D01*
X55513Y-52952D01*
X55513Y-53046D01*
X55549Y-53133D01*
X55382Y-53133D01*
X55338Y-53150D01*
X55305Y-53184D01*
X55287Y-53227D01*
X55287Y-53274D01*
X55287Y-53294D01*
X54617Y-53294D01*
X54639Y-53285D01*
X54838Y-53086D01*
X54946Y-52825D01*
X54947Y-52543D01*
X54839Y-52283D01*
X54640Y-52083D01*
X54379Y-51975D01*
X54098Y-51975D01*
X53837Y-52083D01*
X53702Y-52218D01*
X53720Y-52173D01*
X53720Y-52123D01*
X53720Y-51780D01*
X53720Y-51729D01*
X53701Y-51683D01*
X53665Y-51648D01*
X53619Y-51629D01*
X53295Y-51629D01*
X53263Y-51660D01*
X53263Y-51948D01*
X53688Y-51948D01*
X53720Y-51916D01*
X53720Y-51780D01*
X53720Y-52123D01*
X53720Y-51987D01*
X53688Y-51955D01*
X53263Y-51955D01*
X53263Y-52243D01*
X53295Y-52274D01*
X53619Y-52274D01*
X53663Y-52256D01*
X53637Y-52282D01*
X53529Y-52542D01*
X53529Y-52824D01*
X53637Y-53085D01*
X53836Y-53284D01*
X53860Y-53294D01*
X53712Y-53294D01*
X53712Y-53227D01*
X53694Y-53184D01*
X53661Y-53151D01*
X53618Y-53133D01*
X53571Y-53133D01*
X53255Y-53133D01*
X53255Y-52243D01*
X53255Y-51955D01*
X53255Y-51948D01*
X53255Y-51660D01*
X53224Y-51629D01*
X52900Y-51629D01*
X52853Y-51648D01*
X52818Y-51683D01*
X52799Y-51729D01*
X52799Y-51780D01*
X52799Y-51916D01*
X52830Y-51948D01*
X53255Y-51948D01*
X53255Y-51955D01*
X52830Y-51955D01*
X52799Y-51987D01*
X52799Y-52123D01*
X52799Y-52173D01*
X52818Y-52220D01*
X52853Y-52255D01*
X52900Y-52274D01*
X53224Y-52274D01*
X53255Y-52243D01*
X53255Y-53133D01*
X52901Y-53133D01*
X52858Y-53150D01*
X52825Y-53184D01*
X52807Y-53227D01*
X52807Y-53274D01*
X52807Y-53668D01*
X52825Y-53711D01*
X52858Y-53744D01*
X52901Y-53762D01*
X52948Y-53763D01*
X53617Y-53763D01*
X53661Y-53745D01*
X53694Y-53711D01*
X53712Y-53668D01*
X53712Y-53621D01*
X53712Y-53601D01*
X55287Y-53601D01*
X55287Y-53668D01*
X55305Y-53711D01*
X55338Y-53744D01*
X55381Y-53762D01*
X55428Y-53763D01*
X56098Y-53763D01*
X56141Y-53745D01*
X56174Y-53711D01*
X56192Y-53668D01*
X56192Y-53621D01*
X56192Y-54062D01*
X52642Y-54062D01*
X52657Y-54055D01*
X52728Y-53898D01*
X52733Y-53727D01*
X52672Y-53566D01*
X52657Y-53544D01*
X52591Y-53514D01*
X52585Y-53519D01*
X52585Y-53508D01*
X52555Y-53442D01*
X52398Y-53371D01*
X52227Y-53366D01*
X52123Y-53405D01*
X52123Y-52816D01*
X52059Y-52660D01*
X51940Y-52541D01*
X51784Y-52476D01*
X51616Y-52476D01*
X51460Y-52540D01*
X51341Y-52659D01*
X51276Y-52815D01*
X51276Y-52983D01*
X51340Y-53139D01*
X51459Y-53258D01*
X51615Y-53323D01*
X51783Y-53323D01*
X51939Y-53259D01*
X52058Y-53140D01*
X52123Y-52984D01*
X52123Y-52816D01*
X52123Y-53405D01*
X52066Y-53427D01*
X52044Y-53442D01*
X52014Y-53508D01*
X52300Y-53794D01*
X52585Y-53508D01*
X52585Y-53519D01*
X52305Y-53800D01*
X52311Y-53805D01*
X52305Y-53811D01*
X52300Y-53805D01*
X52294Y-53811D01*
X52288Y-53805D01*
X52294Y-53800D01*
X52008Y-53514D01*
X51942Y-53544D01*
X51871Y-53701D01*
X51866Y-53872D01*
X51927Y-54033D01*
X51942Y-54055D01*
X51957Y-54062D01*
X51436Y-54062D01*
X51458Y-54040D01*
X51523Y-53884D01*
X51523Y-53716D01*
X51459Y-53560D01*
X51340Y-53441D01*
X51184Y-53376D01*
X51016Y-53376D01*
X50860Y-53440D01*
X50741Y-53559D01*
X50676Y-53715D01*
X50676Y-53883D01*
X50740Y-54039D01*
X50763Y-54062D01*
X45720Y-54062D01*
X45720Y-51508D01*
X45657Y-51356D01*
X45541Y-51240D01*
X45389Y-51177D01*
X45225Y-51177D01*
X45073Y-51240D01*
X44957Y-51356D01*
X44893Y-51508D01*
X44893Y-51672D01*
X44956Y-51824D01*
X45072Y-51940D01*
X45224Y-52004D01*
X45389Y-52004D01*
X45541Y-51941D01*
X45657Y-51825D01*
X45720Y-51673D01*
X45720Y-51508D01*
X45720Y-54062D01*
X43637Y-54062D01*
X43637Y-47389D01*
X43641Y-47391D01*
X43661Y-47395D01*
X43716Y-47450D01*
X43802Y-47486D01*
X43896Y-47486D01*
X43983Y-47450D01*
X44030Y-47403D01*
X45744Y-47403D01*
X45791Y-47450D01*
X45877Y-47486D01*
X45971Y-47486D01*
X46058Y-47450D01*
X46105Y-47403D01*
X47544Y-47403D01*
X47591Y-47450D01*
X47677Y-47486D01*
X47771Y-47486D01*
X47858Y-47450D01*
X47905Y-47403D01*
X48196Y-47403D01*
X48196Y-49469D01*
X48149Y-49516D01*
X48113Y-49602D01*
X48113Y-49696D01*
X48123Y-49721D01*
X47992Y-49721D01*
X47992Y-49560D01*
X47992Y-47839D01*
X47992Y-47789D01*
X47972Y-47742D01*
X47937Y-47707D01*
X47891Y-47688D01*
X47507Y-47688D01*
X47476Y-47719D01*
X47476Y-48696D01*
X47960Y-48696D01*
X47992Y-48664D01*
X47992Y-47839D01*
X47992Y-49560D01*
X47992Y-48735D01*
X47960Y-48703D01*
X47476Y-48703D01*
X47476Y-49680D01*
X47507Y-49711D01*
X47891Y-49711D01*
X47937Y-49692D01*
X47972Y-49657D01*
X47992Y-49610D01*
X47992Y-49560D01*
X47992Y-49721D01*
X46950Y-49721D01*
X46900Y-49721D01*
X46681Y-49721D01*
X46681Y-49703D01*
X46944Y-49703D01*
X46988Y-49686D01*
X46994Y-49679D01*
X47007Y-49692D01*
X47053Y-49711D01*
X47437Y-49711D01*
X47468Y-49680D01*
X47468Y-48703D01*
X47460Y-48703D01*
X47460Y-48696D01*
X47468Y-48696D01*
X47468Y-47719D01*
X47437Y-47688D01*
X47053Y-47688D01*
X47007Y-47707D01*
X46994Y-47720D01*
X46988Y-47714D01*
X46944Y-47696D01*
X46897Y-47696D01*
X46110Y-47696D01*
X46067Y-47713D01*
X46033Y-47747D01*
X46015Y-47790D01*
X46015Y-47837D01*
X46015Y-49609D01*
X46033Y-49652D01*
X46066Y-49685D01*
X46110Y-49703D01*
X46157Y-49703D01*
X46374Y-49703D01*
X46374Y-49802D01*
X46374Y-49802D01*
X46383Y-49851D01*
X46385Y-49861D01*
X46418Y-49911D01*
X46491Y-49983D01*
X46491Y-49983D01*
X46541Y-50016D01*
X46541Y-50016D01*
X46600Y-50028D01*
X46900Y-50028D01*
X46950Y-50028D01*
X48134Y-50028D01*
X48113Y-50077D01*
X48113Y-50171D01*
X48149Y-50258D01*
X48216Y-50325D01*
X48302Y-50361D01*
X48396Y-50361D01*
X48483Y-50325D01*
X48530Y-50278D01*
X51079Y-50278D01*
X51076Y-50281D01*
X51032Y-50352D01*
X51032Y-50352D01*
X51014Y-50402D01*
X51000Y-50484D01*
X51002Y-50538D01*
X51021Y-50619D01*
X51021Y-50619D01*
X51043Y-50668D01*
X51092Y-50736D01*
X51092Y-50736D01*
X51131Y-50773D01*
X51202Y-50817D01*
X51202Y-50817D01*
X51252Y-50835D01*
X51334Y-50849D01*
X51334Y-50849D01*
X51388Y-50847D01*
X51469Y-50828D01*
X51469Y-50828D01*
X51518Y-50806D01*
X51586Y-50757D01*
X51586Y-50757D01*
X51623Y-50718D01*
X51667Y-50647D01*
X51667Y-50647D01*
X51685Y-50597D01*
X51699Y-50515D01*
X51699Y-50515D01*
X51697Y-50461D01*
X51678Y-50380D01*
X51678Y-50380D01*
X51662Y-50344D01*
X51702Y-50361D01*
X51796Y-50361D01*
X51821Y-50351D01*
X51821Y-52011D01*
X51813Y-52018D01*
X51003Y-52018D01*
X51003Y-51755D01*
X50986Y-51711D01*
X50979Y-51705D01*
X50992Y-51692D01*
X51011Y-51646D01*
X51011Y-50808D01*
X50992Y-50762D01*
X50957Y-50727D01*
X50910Y-50707D01*
X50860Y-50707D01*
X50035Y-50707D01*
X50003Y-50739D01*
X50003Y-51223D01*
X50980Y-51223D01*
X51011Y-51192D01*
X51011Y-50808D01*
X51011Y-51646D01*
X51011Y-51262D01*
X50980Y-51231D01*
X50003Y-51231D01*
X50003Y-51239D01*
X49996Y-51239D01*
X49996Y-51231D01*
X49996Y-51223D01*
X49996Y-50739D01*
X49964Y-50707D01*
X49139Y-50707D01*
X49089Y-50707D01*
X49042Y-50727D01*
X49007Y-50762D01*
X48988Y-50808D01*
X48988Y-51192D01*
X49019Y-51223D01*
X49996Y-51223D01*
X49996Y-51231D01*
X49019Y-51231D01*
X48988Y-51262D01*
X48988Y-51412D01*
X48965Y-51356D01*
X48848Y-51240D01*
X48696Y-51177D01*
X48532Y-51177D01*
X48380Y-51240D01*
X48264Y-51356D01*
X48201Y-51508D01*
X48200Y-51672D01*
X48263Y-51824D01*
X48379Y-51940D01*
X48531Y-52004D01*
X48696Y-52004D01*
X48848Y-51941D01*
X48964Y-51825D01*
X49016Y-51701D01*
X49020Y-51705D01*
X49014Y-51711D01*
X48996Y-51755D01*
X48996Y-51802D01*
X48996Y-52589D01*
X49013Y-52632D01*
X49047Y-52666D01*
X49090Y-52684D01*
X49137Y-52684D01*
X50909Y-52684D01*
X50952Y-52666D01*
X50985Y-52633D01*
X51003Y-52589D01*
X51003Y-52542D01*
X51003Y-52325D01*
X51877Y-52325D01*
X51877Y-52325D01*
X51877Y-52325D01*
X51926Y-52316D01*
X51936Y-52314D01*
X51936Y-52314D01*
X51986Y-52281D01*
X52083Y-52183D01*
X52083Y-52183D01*
X52083Y-52183D01*
X52116Y-52133D01*
X52128Y-52075D01*
X52128Y-52075D01*
X52128Y-52075D01*
X52128Y-49711D01*
X52158Y-49711D01*
X52492Y-49711D01*
X52523Y-49680D01*
X52523Y-48703D01*
X52515Y-48703D01*
X52515Y-48696D01*
X52523Y-48696D01*
X52523Y-47719D01*
X52492Y-47688D01*
X52158Y-47688D01*
X52128Y-47688D01*
X52128Y-46605D01*
X52175Y-46558D01*
X52211Y-46472D01*
X52211Y-46378D01*
X52175Y-46291D01*
X52146Y-46262D01*
X52175Y-46233D01*
X52211Y-46147D01*
X52211Y-46053D01*
X52175Y-45966D01*
X52108Y-45899D01*
X52022Y-45863D01*
X51928Y-45863D01*
X51841Y-45899D01*
X51794Y-45946D01*
X51275Y-45946D01*
X51200Y-45946D01*
X51141Y-45958D01*
X51091Y-45991D01*
X51091Y-45991D01*
X51016Y-46066D01*
X51011Y-46073D01*
X51011Y-45803D01*
X51011Y-45753D01*
X50992Y-45707D01*
X50979Y-45694D01*
X50985Y-45688D01*
X51003Y-45644D01*
X51003Y-45597D01*
X51003Y-45438D01*
X51016Y-45450D01*
X51102Y-45486D01*
X51196Y-45486D01*
X51283Y-45450D01*
X51350Y-45383D01*
X51386Y-45297D01*
X51386Y-45203D01*
X51350Y-45116D01*
X51283Y-45049D01*
X51197Y-45013D01*
X51103Y-45013D01*
X51036Y-45041D01*
X51036Y-41878D01*
X51000Y-41791D01*
X50953Y-41744D01*
X50953Y-41400D01*
X50953Y-40950D01*
X50953Y-40949D01*
X50953Y-40949D01*
X50941Y-40891D01*
X50908Y-40841D01*
X50908Y-40841D01*
X50783Y-40716D01*
X50733Y-40683D01*
X50724Y-40681D01*
X50675Y-40671D01*
X50674Y-40671D01*
X50225Y-40671D01*
X44655Y-40671D01*
X44608Y-40624D01*
X44522Y-40588D01*
X44428Y-40588D01*
X44341Y-40624D01*
X44274Y-40691D01*
X44238Y-40777D01*
X44238Y-40871D01*
X44274Y-40958D01*
X44341Y-41025D01*
X44427Y-41061D01*
X44521Y-41061D01*
X44608Y-41025D01*
X44655Y-40978D01*
X50225Y-40978D01*
X50611Y-40978D01*
X50646Y-41013D01*
X50646Y-41304D01*
X50533Y-41191D01*
X50483Y-41158D01*
X50474Y-41156D01*
X50425Y-41146D01*
X50424Y-41146D01*
X49375Y-41146D01*
X44655Y-41146D01*
X44608Y-41099D01*
X44522Y-41063D01*
X44428Y-41063D01*
X44341Y-41099D01*
X44274Y-41166D01*
X44238Y-41252D01*
X44238Y-41346D01*
X44274Y-41433D01*
X44341Y-41500D01*
X44427Y-41536D01*
X44521Y-41536D01*
X44608Y-41500D01*
X44655Y-41453D01*
X49375Y-41453D01*
X50361Y-41453D01*
X50396Y-41488D01*
X50396Y-42294D01*
X50349Y-42341D01*
X50313Y-42427D01*
X50313Y-42521D01*
X50349Y-42608D01*
X50416Y-42675D01*
X50502Y-42711D01*
X50596Y-42711D01*
X50683Y-42675D01*
X50750Y-42608D01*
X50786Y-42522D01*
X50786Y-42428D01*
X50750Y-42341D01*
X50703Y-42294D01*
X50703Y-42140D01*
X50752Y-42161D01*
X50846Y-42161D01*
X50933Y-42125D01*
X51000Y-42058D01*
X51036Y-41972D01*
X51036Y-41878D01*
X51036Y-45041D01*
X51016Y-45049D01*
X51003Y-45062D01*
X51003Y-44810D01*
X50986Y-44767D01*
X50952Y-44733D01*
X50909Y-44715D01*
X50862Y-44715D01*
X49090Y-44715D01*
X49047Y-44733D01*
X49014Y-44766D01*
X48996Y-44810D01*
X48996Y-44857D01*
X48996Y-45644D01*
X49013Y-45688D01*
X49020Y-45694D01*
X49007Y-45707D01*
X48988Y-45753D01*
X48988Y-45803D01*
X48988Y-46137D01*
X49019Y-46168D01*
X49996Y-46168D01*
X49996Y-46160D01*
X50003Y-46160D01*
X50003Y-46168D01*
X50011Y-46168D01*
X50011Y-46176D01*
X50003Y-46176D01*
X50003Y-46660D01*
X50035Y-46692D01*
X50910Y-46692D01*
X50957Y-46673D01*
X50971Y-46658D01*
X50971Y-47450D01*
X50971Y-49721D01*
X49996Y-49721D01*
X49996Y-46660D01*
X49996Y-46176D01*
X49019Y-46176D01*
X48988Y-46207D01*
X48988Y-46229D01*
X48978Y-46219D01*
X48978Y-43000D01*
X48978Y-42578D01*
X49244Y-42578D01*
X49291Y-42625D01*
X49377Y-42661D01*
X49471Y-42661D01*
X49558Y-42625D01*
X49625Y-42558D01*
X49661Y-42472D01*
X49661Y-42378D01*
X49625Y-42291D01*
X49558Y-42224D01*
X49472Y-42188D01*
X49378Y-42188D01*
X49291Y-42224D01*
X49244Y-42271D01*
X48900Y-42271D01*
X48841Y-42283D01*
X48791Y-42316D01*
X48791Y-42316D01*
X48716Y-42391D01*
X48683Y-42441D01*
X48681Y-42450D01*
X48671Y-42500D01*
X48671Y-42500D01*
X48671Y-43000D01*
X48671Y-46219D01*
X48662Y-46228D01*
X48653Y-46219D01*
X48653Y-42103D01*
X48800Y-42103D01*
X49244Y-42103D01*
X49291Y-42150D01*
X49377Y-42186D01*
X49471Y-42186D01*
X49558Y-42150D01*
X49625Y-42083D01*
X49661Y-41997D01*
X49661Y-41903D01*
X49625Y-41816D01*
X49558Y-41749D01*
X49472Y-41713D01*
X49378Y-41713D01*
X49291Y-41749D01*
X49244Y-41796D01*
X48800Y-41796D01*
X48600Y-41796D01*
X48550Y-41796D01*
X48491Y-41808D01*
X48441Y-41841D01*
X48391Y-41891D01*
X48358Y-41941D01*
X48356Y-41950D01*
X48346Y-42000D01*
X48346Y-42000D01*
X48346Y-42050D01*
X48346Y-46219D01*
X48299Y-46266D01*
X48263Y-46352D01*
X48263Y-46446D01*
X48299Y-46533D01*
X48366Y-46600D01*
X48452Y-46636D01*
X48546Y-46636D01*
X48633Y-46600D01*
X48662Y-46571D01*
X48691Y-46600D01*
X48777Y-46636D01*
X48871Y-46636D01*
X48958Y-46600D01*
X48988Y-46570D01*
X48988Y-46591D01*
X49007Y-46637D01*
X49042Y-46673D01*
X49089Y-46692D01*
X49964Y-46692D01*
X49996Y-46660D01*
X49996Y-49721D01*
X49449Y-49721D01*
X49449Y-47540D01*
X49447Y-47486D01*
X49428Y-47405D01*
X49428Y-47405D01*
X49406Y-47356D01*
X49357Y-47288D01*
X49357Y-47288D01*
X49318Y-47251D01*
X49247Y-47207D01*
X49247Y-47207D01*
X49197Y-47189D01*
X49115Y-47175D01*
X49115Y-47175D01*
X49061Y-47177D01*
X48980Y-47196D01*
X48980Y-47196D01*
X48931Y-47218D01*
X48863Y-47267D01*
X48863Y-47267D01*
X48826Y-47306D01*
X48782Y-47377D01*
X48782Y-47377D01*
X48764Y-47427D01*
X48750Y-47509D01*
X48752Y-47563D01*
X48771Y-47644D01*
X48771Y-47644D01*
X48793Y-47693D01*
X48842Y-47761D01*
X48842Y-47761D01*
X48881Y-47798D01*
X48952Y-47842D01*
X48952Y-47842D01*
X49002Y-47860D01*
X49084Y-47874D01*
X49084Y-47874D01*
X49138Y-47872D01*
X49219Y-47853D01*
X49219Y-47853D01*
X49268Y-47831D01*
X49336Y-47782D01*
X49336Y-47782D01*
X49373Y-47743D01*
X49417Y-47672D01*
X49417Y-47672D01*
X49435Y-47622D01*
X49449Y-47540D01*
X49449Y-47540D01*
X49449Y-49721D01*
X48576Y-49721D01*
X48586Y-49697D01*
X48586Y-49603D01*
X48550Y-49516D01*
X48503Y-49469D01*
X48503Y-47325D01*
X48491Y-47266D01*
X48458Y-47216D01*
X48458Y-47216D01*
X48383Y-47141D01*
X48333Y-47108D01*
X48324Y-47106D01*
X48275Y-47096D01*
X48274Y-47096D01*
X48250Y-47096D01*
X47905Y-47096D01*
X47858Y-47049D01*
X47772Y-47013D01*
X47678Y-47013D01*
X47591Y-47049D01*
X47544Y-47096D01*
X46105Y-47096D01*
X46058Y-47049D01*
X45972Y-47013D01*
X45878Y-47013D01*
X45791Y-47049D01*
X45744Y-47096D01*
X44197Y-47096D01*
X44223Y-47068D01*
X44267Y-46997D01*
X44267Y-46997D01*
X44285Y-46947D01*
X44299Y-46865D01*
X44299Y-46865D01*
X44297Y-46811D01*
X44278Y-46730D01*
X44278Y-46730D01*
X44256Y-46681D01*
X44207Y-46613D01*
X44207Y-46613D01*
X44168Y-46576D01*
X44097Y-46532D01*
X44097Y-46532D01*
X44047Y-46514D01*
X43965Y-46500D01*
X43965Y-46500D01*
X43911Y-46502D01*
X43830Y-46521D01*
X43830Y-46521D01*
X43781Y-46543D01*
X43778Y-46545D01*
X43778Y-44427D01*
X43802Y-44442D01*
X43802Y-44442D01*
X43852Y-44460D01*
X43934Y-44474D01*
X43934Y-44474D01*
X43988Y-44472D01*
X44069Y-44453D01*
X44069Y-44453D01*
X44118Y-44431D01*
X44186Y-44382D01*
X44186Y-44382D01*
X44223Y-44343D01*
X44267Y-44272D01*
X44267Y-44272D01*
X44285Y-44222D01*
X44299Y-44140D01*
X44299Y-44140D01*
X44297Y-44086D01*
X44278Y-44005D01*
X44278Y-44005D01*
X44256Y-43956D01*
X44254Y-43953D01*
X45281Y-43953D01*
X45091Y-44044D01*
X45048Y-44076D01*
X45048Y-44077D01*
X44680Y-44487D01*
X44653Y-44533D01*
X44652Y-44534D01*
X44470Y-45054D01*
X44462Y-45107D01*
X44462Y-45107D01*
X44492Y-45658D01*
X44505Y-45710D01*
X44506Y-45711D01*
X44744Y-46208D01*
X44776Y-46251D01*
X44777Y-46251D01*
X45187Y-46619D01*
X45233Y-46647D01*
X45234Y-46647D01*
X45754Y-46830D01*
X45807Y-46837D01*
X45808Y-46837D01*
X46358Y-46807D01*
X46410Y-46794D01*
X46411Y-46793D01*
X46884Y-46567D01*
X46896Y-46619D01*
X46896Y-46619D01*
X46918Y-46668D01*
X46967Y-46736D01*
X46967Y-46736D01*
X47006Y-46773D01*
X47077Y-46817D01*
X47077Y-46817D01*
X47127Y-46835D01*
X47209Y-46849D01*
X47209Y-46849D01*
X47263Y-46847D01*
X47344Y-46828D01*
X47344Y-46828D01*
X47393Y-46806D01*
X47461Y-46757D01*
X47461Y-46757D01*
X47498Y-46718D01*
X47542Y-46647D01*
X47542Y-46647D01*
X47560Y-46597D01*
X47574Y-46515D01*
X47574Y-46515D01*
X47572Y-46461D01*
X47553Y-46380D01*
X47553Y-46380D01*
X47531Y-46331D01*
X47482Y-46263D01*
X47482Y-46263D01*
X47443Y-46226D01*
X47372Y-46182D01*
X47372Y-46182D01*
X47322Y-46164D01*
X47279Y-46157D01*
X47319Y-46112D01*
X47347Y-46066D01*
X47347Y-46065D01*
X47530Y-45545D01*
X47537Y-45492D01*
X47537Y-45490D01*
X47507Y-44941D01*
X47494Y-44889D01*
X47493Y-44888D01*
X47280Y-44443D01*
X47344Y-44428D01*
X47344Y-44428D01*
X47393Y-44406D01*
X47461Y-44357D01*
X47461Y-44357D01*
X47498Y-44318D01*
X47542Y-44247D01*
X47542Y-44247D01*
X47560Y-44197D01*
X47574Y-44115D01*
X47574Y-44115D01*
X47572Y-44061D01*
X47553Y-43980D01*
X47553Y-43980D01*
X47541Y-43953D01*
X47668Y-43953D01*
X47716Y-44001D01*
X47802Y-44037D01*
X47896Y-44037D01*
X47983Y-44001D01*
X48050Y-43934D01*
X48086Y-43848D01*
X48086Y-43754D01*
X48050Y-43667D01*
X47983Y-43600D01*
X47897Y-43564D01*
X47803Y-43564D01*
X47716Y-43600D01*
X47670Y-43646D01*
X45157Y-43646D01*
X45208Y-43625D01*
X45275Y-43558D01*
X45311Y-43472D01*
X45311Y-43378D01*
X45275Y-43291D01*
X45208Y-43224D01*
X45122Y-43188D01*
X45028Y-43188D01*
X44941Y-43224D01*
X44894Y-43271D01*
X43778Y-43271D01*
X43778Y-42903D01*
X44919Y-42903D01*
X44941Y-42925D01*
X45027Y-42961D01*
X45121Y-42961D01*
X45208Y-42925D01*
X45275Y-42858D01*
X45311Y-42772D01*
X45311Y-42678D01*
X45275Y-42591D01*
X45208Y-42524D01*
X45122Y-42488D01*
X45028Y-42488D01*
X44941Y-42524D01*
X44874Y-42591D01*
X44872Y-42596D01*
X43700Y-42596D01*
X43641Y-42608D01*
X43637Y-42610D01*
X43637Y-40052D01*
X43702Y-40092D01*
X43702Y-40092D01*
X43752Y-40110D01*
X43834Y-40124D01*
X43834Y-40124D01*
X43888Y-40122D01*
X43969Y-40103D01*
X43969Y-40103D01*
X44018Y-40081D01*
X44086Y-40032D01*
X44086Y-40032D01*
X44123Y-39993D01*
X44167Y-39922D01*
X44167Y-39922D01*
X44185Y-39872D01*
X44199Y-39790D01*
X44199Y-39790D01*
X44197Y-39736D01*
X44178Y-39655D01*
X44178Y-39655D01*
X44156Y-39606D01*
X44107Y-39538D01*
X44107Y-39538D01*
X44068Y-39501D01*
X43997Y-39457D01*
X43997Y-39457D01*
X43947Y-39439D01*
X43865Y-39425D01*
X43865Y-39425D01*
X43811Y-39427D01*
X43730Y-39446D01*
X43730Y-39446D01*
X43681Y-39468D01*
X43637Y-39499D01*
X43637Y-32944D01*
X43677Y-32961D01*
X43771Y-32961D01*
X43858Y-32925D01*
X43905Y-32878D01*
X45675Y-32878D01*
X45919Y-32878D01*
X45888Y-32952D01*
X45888Y-33046D01*
X45924Y-33133D01*
X45991Y-33200D01*
X46077Y-33236D01*
X46171Y-33236D01*
X46258Y-33200D01*
X46305Y-33153D01*
X46394Y-33153D01*
X46441Y-33200D01*
X46527Y-33236D01*
X46621Y-33236D01*
X46708Y-33200D01*
X46775Y-33133D01*
X46811Y-33047D01*
X46811Y-32953D01*
X46775Y-32866D01*
X46708Y-32799D01*
X46622Y-32763D01*
X46528Y-32763D01*
X46441Y-32799D01*
X46394Y-32846D01*
X46305Y-32846D01*
X46258Y-32799D01*
X46172Y-32763D01*
X46103Y-32763D01*
X46108Y-32758D01*
X46108Y-32758D01*
X46108Y-32758D01*
X46141Y-32708D01*
X46153Y-32650D01*
X46153Y-32400D01*
X46153Y-29694D01*
X46239Y-29659D01*
X46358Y-29540D01*
X46423Y-29384D01*
X46423Y-29216D01*
X46359Y-29060D01*
X46240Y-28941D01*
X46231Y-28937D01*
X51300Y-28937D01*
X51352Y-28927D01*
X51397Y-28897D01*
X51427Y-28852D01*
X51437Y-28800D01*
X51437Y-26737D01*
X55282Y-26737D01*
X55257Y-26777D01*
X55257Y-26777D01*
X55239Y-26827D01*
X55225Y-26909D01*
X55227Y-26963D01*
X55246Y-27044D01*
X55246Y-27044D01*
X55268Y-27093D01*
X55317Y-27161D01*
X55317Y-27161D01*
X55356Y-27198D01*
X55427Y-27242D01*
X55427Y-27242D01*
X55477Y-27260D01*
X55559Y-27274D01*
X55559Y-27274D01*
X55613Y-27272D01*
X55694Y-27253D01*
X55694Y-27253D01*
X55743Y-27231D01*
X55811Y-27182D01*
X55811Y-27182D01*
X55848Y-27143D01*
X55892Y-27072D01*
X55892Y-27072D01*
X55910Y-27022D01*
X55924Y-26940D01*
X55924Y-26940D01*
X55922Y-26886D01*
X55903Y-26805D01*
X55903Y-26805D01*
X55881Y-26756D01*
X55868Y-26737D01*
X56891Y-26737D01*
X56882Y-26752D01*
X56882Y-26752D01*
X56864Y-26802D01*
X56850Y-26884D01*
X56852Y-26938D01*
X56871Y-27019D01*
X56871Y-27019D01*
X56893Y-27068D01*
X56942Y-27136D01*
X56942Y-27136D01*
X56981Y-27173D01*
X57052Y-27217D01*
X57052Y-27217D01*
X57102Y-27235D01*
X57184Y-27249D01*
X57184Y-27249D01*
X57238Y-27247D01*
X57319Y-27228D01*
X57319Y-27228D01*
X57368Y-27206D01*
X57436Y-27157D01*
X57436Y-27157D01*
X57473Y-27118D01*
X57517Y-27047D01*
X57517Y-27047D01*
X57535Y-26997D01*
X57549Y-26915D01*
X57549Y-26915D01*
X57547Y-26861D01*
X57528Y-26780D01*
X57528Y-26780D01*
X57509Y-26737D01*
X60962Y-26737D01*
X60962Y-27497D01*
X60903Y-27412D01*
X60798Y-27344D01*
X60732Y-27325D01*
X60682Y-27352D01*
X60682Y-27748D01*
X60690Y-27748D01*
X60690Y-27756D01*
X60682Y-27756D01*
X60682Y-28151D01*
X60732Y-28178D01*
X60798Y-28160D01*
X60903Y-28091D01*
X60962Y-28006D01*
X60962Y-28800D01*
X60972Y-28852D01*
X61002Y-28897D01*
X61047Y-28927D01*
X61100Y-28937D01*
X66051Y-28937D01*
X66044Y-28942D01*
X66014Y-29008D01*
X66300Y-29294D01*
X66585Y-29008D01*
X66555Y-28942D01*
X66545Y-28937D01*
X67268Y-28937D01*
X67260Y-28940D01*
X67141Y-29059D01*
X67076Y-29215D01*
X67076Y-29383D01*
X67140Y-29539D01*
X67259Y-29658D01*
X67415Y-29723D01*
X67583Y-29723D01*
X67739Y-29659D01*
X67858Y-29540D01*
X67894Y-29453D01*
X68046Y-29453D01*
X68046Y-30550D01*
X68046Y-30575D01*
X68046Y-32684D01*
X67997Y-32663D01*
X67903Y-32663D01*
X67816Y-32699D01*
X67749Y-32766D01*
X67713Y-32852D01*
X67713Y-32946D01*
X67749Y-33033D01*
X67796Y-33080D01*
X67796Y-38975D01*
X67796Y-39057D01*
X67782Y-39038D01*
X67782Y-39038D01*
X67743Y-39001D01*
X67672Y-38957D01*
X67672Y-38957D01*
X67622Y-38939D01*
X67540Y-38925D01*
X67540Y-38925D01*
X67486Y-38927D01*
X67405Y-38946D01*
X67405Y-38946D01*
X67356Y-38968D01*
X67303Y-39006D01*
X67303Y-35550D01*
X67291Y-35491D01*
X67258Y-35441D01*
X67258Y-35441D01*
X67183Y-35366D01*
X67133Y-35333D01*
X67124Y-35331D01*
X67076Y-35321D01*
X67086Y-35297D01*
X67086Y-35286D01*
X67146Y-35286D01*
X67233Y-35250D01*
X67300Y-35183D01*
X67336Y-35097D01*
X67336Y-35086D01*
X67396Y-35086D01*
X67483Y-35050D01*
X67550Y-34983D01*
X67586Y-34897D01*
X67586Y-34803D01*
X67574Y-34774D01*
X67633Y-34750D01*
X67700Y-34683D01*
X67736Y-34597D01*
X67736Y-34503D01*
X67700Y-34416D01*
X67633Y-34349D01*
X67574Y-34325D01*
X67586Y-34297D01*
X67586Y-34203D01*
X67550Y-34116D01*
X67524Y-34090D01*
X67524Y-33365D01*
X67522Y-33311D01*
X67503Y-33230D01*
X67503Y-33230D01*
X67481Y-33181D01*
X67432Y-33113D01*
X67432Y-33113D01*
X67393Y-33076D01*
X67323Y-33033D01*
X67323Y-30116D01*
X67259Y-29960D01*
X67140Y-29841D01*
X66984Y-29776D01*
X66816Y-29776D01*
X66733Y-29810D01*
X66733Y-29227D01*
X66672Y-29066D01*
X66657Y-29044D01*
X66591Y-29014D01*
X66305Y-29300D01*
X66591Y-29585D01*
X66657Y-29555D01*
X66728Y-29398D01*
X66733Y-29227D01*
X66733Y-29810D01*
X66660Y-29840D01*
X66541Y-29959D01*
X66476Y-30115D01*
X66476Y-30283D01*
X66540Y-30439D01*
X66659Y-30558D01*
X66815Y-30623D01*
X66983Y-30623D01*
X67139Y-30559D01*
X67258Y-30440D01*
X67323Y-30284D01*
X67323Y-30116D01*
X67323Y-33033D01*
X67322Y-33032D01*
X67322Y-33032D01*
X67272Y-33014D01*
X67190Y-33000D01*
X67190Y-33000D01*
X67136Y-33002D01*
X67055Y-33021D01*
X67055Y-33021D01*
X67006Y-33043D01*
X66938Y-33092D01*
X66938Y-33092D01*
X66901Y-33131D01*
X66857Y-33202D01*
X66857Y-33202D01*
X66839Y-33252D01*
X66825Y-33334D01*
X66827Y-33388D01*
X66846Y-33469D01*
X66846Y-33469D01*
X66868Y-33518D01*
X66917Y-33586D01*
X66917Y-33586D01*
X66956Y-33623D01*
X67027Y-33667D01*
X67027Y-33667D01*
X67077Y-33685D01*
X67159Y-33699D01*
X67159Y-33699D01*
X67213Y-33697D01*
X67294Y-33678D01*
X67294Y-33678D01*
X67343Y-33656D01*
X67411Y-33607D01*
X67411Y-33607D01*
X67448Y-33568D01*
X67492Y-33497D01*
X67492Y-33497D01*
X67510Y-33447D01*
X67524Y-33365D01*
X67524Y-33365D01*
X67524Y-34090D01*
X67483Y-34049D01*
X67397Y-34013D01*
X67336Y-34013D01*
X67336Y-34003D01*
X67300Y-33916D01*
X67233Y-33849D01*
X67147Y-33813D01*
X67086Y-33813D01*
X67086Y-33803D01*
X67050Y-33716D01*
X66983Y-33649D01*
X66897Y-33613D01*
X66836Y-33613D01*
X66836Y-33603D01*
X66800Y-33516D01*
X66733Y-33449D01*
X66647Y-33413D01*
X66553Y-33413D01*
X66466Y-33449D01*
X66399Y-33516D01*
X66366Y-33596D01*
X63749Y-33596D01*
X63749Y-32415D01*
X63747Y-32361D01*
X63728Y-32280D01*
X63728Y-32280D01*
X63706Y-32231D01*
X63657Y-32163D01*
X63657Y-32163D01*
X63618Y-32126D01*
X63547Y-32082D01*
X63547Y-32082D01*
X63497Y-32064D01*
X63415Y-32050D01*
X63415Y-32050D01*
X63361Y-32052D01*
X63280Y-32071D01*
X63280Y-32071D01*
X63231Y-32093D01*
X63163Y-32142D01*
X63163Y-32142D01*
X63126Y-32181D01*
X63082Y-32252D01*
X63082Y-32252D01*
X63064Y-32302D01*
X63050Y-32384D01*
X63052Y-32438D01*
X63071Y-32519D01*
X63071Y-32519D01*
X63093Y-32568D01*
X63142Y-32636D01*
X63142Y-32636D01*
X63181Y-32673D01*
X63252Y-32717D01*
X63252Y-32717D01*
X63302Y-32735D01*
X63384Y-32749D01*
X63384Y-32749D01*
X63438Y-32747D01*
X63519Y-32728D01*
X63519Y-32728D01*
X63568Y-32706D01*
X63636Y-32657D01*
X63636Y-32657D01*
X63673Y-32618D01*
X63717Y-32547D01*
X63717Y-32547D01*
X63735Y-32497D01*
X63749Y-32415D01*
X63749Y-32415D01*
X63749Y-33596D01*
X62563Y-33596D01*
X62508Y-33541D01*
X62458Y-33508D01*
X62449Y-33506D01*
X62400Y-33496D01*
X62399Y-33496D01*
X62002Y-33496D01*
X62000Y-33491D01*
X61933Y-33424D01*
X61847Y-33388D01*
X61753Y-33388D01*
X61666Y-33424D01*
X61599Y-33491D01*
X61563Y-33577D01*
X61563Y-33671D01*
X61573Y-33696D01*
X61437Y-33696D01*
X61425Y-33666D01*
X61358Y-33599D01*
X61272Y-33563D01*
X61178Y-33563D01*
X61091Y-33599D01*
X61024Y-33666D01*
X60988Y-33752D01*
X60988Y-33813D01*
X60978Y-33813D01*
X60891Y-33849D01*
X60824Y-33916D01*
X60788Y-34002D01*
X60788Y-34096D01*
X60824Y-34183D01*
X60891Y-34250D01*
X60977Y-34286D01*
X61071Y-34286D01*
X61158Y-34250D01*
X61205Y-34203D01*
X61834Y-34203D01*
X61813Y-34252D01*
X61813Y-34346D01*
X61834Y-34396D01*
X61687Y-34396D01*
X61675Y-34366D01*
X61608Y-34299D01*
X61522Y-34263D01*
X61428Y-34263D01*
X61341Y-34299D01*
X61274Y-34366D01*
X61238Y-34452D01*
X61238Y-34546D01*
X61248Y-34571D01*
X61150Y-34571D01*
X60977Y-34571D01*
X60975Y-34566D01*
X60908Y-34499D01*
X60822Y-34463D01*
X60728Y-34463D01*
X60641Y-34499D01*
X60574Y-34566D01*
X60538Y-34652D01*
X60538Y-34746D01*
X60554Y-34783D01*
X60250Y-34783D01*
X60237Y-34783D01*
X60092Y-34783D01*
X60033Y-34724D01*
X59947Y-34688D01*
X59853Y-34688D01*
X59766Y-34724D01*
X59699Y-34791D01*
X59663Y-34877D01*
X59663Y-34971D01*
X59699Y-35058D01*
X59766Y-35125D01*
X59852Y-35161D01*
X59946Y-35161D01*
X60033Y-35125D01*
X60068Y-35091D01*
X60237Y-35091D01*
X60250Y-35091D01*
X62064Y-35091D01*
X62038Y-35152D01*
X62038Y-35246D01*
X62074Y-35333D01*
X62141Y-35400D01*
X62161Y-35408D01*
X60342Y-35408D01*
X60283Y-35349D01*
X60197Y-35313D01*
X60103Y-35313D01*
X60016Y-35349D01*
X59949Y-35416D01*
X59913Y-35502D01*
X59913Y-35596D01*
X59949Y-35683D01*
X59962Y-35696D01*
X59630Y-35696D01*
X59583Y-35649D01*
X59497Y-35613D01*
X59403Y-35613D01*
X59316Y-35649D01*
X59249Y-35716D01*
X59213Y-35802D01*
X59213Y-35896D01*
X59249Y-35983D01*
X59316Y-36050D01*
X59402Y-36086D01*
X59496Y-36086D01*
X59583Y-36050D01*
X59630Y-36003D01*
X59975Y-36003D01*
X60159Y-36003D01*
X60138Y-36052D01*
X60138Y-36146D01*
X60148Y-36171D01*
X59975Y-36171D01*
X59855Y-36171D01*
X59808Y-36124D01*
X59722Y-36088D01*
X59628Y-36088D01*
X59541Y-36124D01*
X59474Y-36191D01*
X59438Y-36277D01*
X59438Y-36371D01*
X59474Y-36458D01*
X59541Y-36525D01*
X59627Y-36561D01*
X59721Y-36561D01*
X59808Y-36525D01*
X59855Y-36478D01*
X59975Y-36478D01*
X60373Y-36478D01*
X60363Y-36502D01*
X60363Y-36596D01*
X60399Y-36683D01*
X60466Y-36750D01*
X60552Y-36786D01*
X60646Y-36786D01*
X60733Y-36750D01*
X60800Y-36683D01*
X60812Y-36653D01*
X61100Y-36653D01*
X66384Y-36653D01*
X66363Y-36702D01*
X66363Y-36720D01*
X66347Y-36713D01*
X66253Y-36713D01*
X66166Y-36749D01*
X66119Y-36796D01*
X62655Y-36796D01*
X62608Y-36749D01*
X62522Y-36713D01*
X62428Y-36713D01*
X62341Y-36749D01*
X62274Y-36816D01*
X62238Y-36902D01*
X62238Y-36996D01*
X62274Y-37083D01*
X62341Y-37150D01*
X62427Y-37186D01*
X62521Y-37186D01*
X62608Y-37150D01*
X62655Y-37103D01*
X66119Y-37103D01*
X66166Y-37150D01*
X66252Y-37186D01*
X66346Y-37186D01*
X66433Y-37150D01*
X66446Y-37137D01*
X66446Y-38746D01*
X66386Y-38746D01*
X66386Y-37628D01*
X66350Y-37541D01*
X66283Y-37474D01*
X66197Y-37438D01*
X66103Y-37438D01*
X66016Y-37474D01*
X65969Y-37521D01*
X57555Y-37521D01*
X57508Y-37474D01*
X57422Y-37438D01*
X57328Y-37438D01*
X57241Y-37474D01*
X57174Y-37541D01*
X57138Y-37627D01*
X57138Y-37721D01*
X57174Y-37808D01*
X57241Y-37875D01*
X57327Y-37911D01*
X57421Y-37911D01*
X57508Y-37875D01*
X57555Y-37828D01*
X65969Y-37828D01*
X66016Y-37875D01*
X66102Y-37911D01*
X66196Y-37911D01*
X66283Y-37875D01*
X66350Y-37808D01*
X66386Y-37722D01*
X66386Y-37628D01*
X66386Y-38746D01*
X64987Y-38746D01*
X65050Y-38683D01*
X65086Y-38597D01*
X65086Y-38503D01*
X65050Y-38416D01*
X64983Y-38349D01*
X64897Y-38313D01*
X64861Y-38313D01*
X64861Y-38278D01*
X64825Y-38191D01*
X64758Y-38124D01*
X64672Y-38088D01*
X64649Y-38088D01*
X64649Y-38039D01*
X64613Y-37952D01*
X64547Y-37886D01*
X64460Y-37850D01*
X64366Y-37850D01*
X64279Y-37886D01*
X64219Y-37946D01*
X59325Y-37946D01*
X59025Y-37946D01*
X58030Y-37946D01*
X57983Y-37899D01*
X57897Y-37863D01*
X57803Y-37863D01*
X57716Y-37899D01*
X57649Y-37966D01*
X57613Y-38052D01*
X57613Y-38146D01*
X57649Y-38233D01*
X57716Y-38300D01*
X57802Y-38336D01*
X57838Y-38336D01*
X57838Y-38371D01*
X57874Y-38458D01*
X57941Y-38525D01*
X58027Y-38561D01*
X58121Y-38561D01*
X58208Y-38525D01*
X58255Y-38478D01*
X58998Y-38478D01*
X58988Y-38502D01*
X58988Y-38596D01*
X59024Y-38683D01*
X59087Y-38746D01*
X57780Y-38746D01*
X57733Y-38699D01*
X57647Y-38663D01*
X57553Y-38663D01*
X57466Y-38699D01*
X57399Y-38766D01*
X57363Y-38852D01*
X57363Y-38946D01*
X57399Y-39033D01*
X57466Y-39100D01*
X57552Y-39136D01*
X57646Y-39136D01*
X57733Y-39100D01*
X57780Y-39053D01*
X59375Y-39053D01*
X66524Y-39053D01*
X66525Y-39053D01*
X66525Y-39053D01*
X66574Y-39043D01*
X66583Y-39041D01*
X66583Y-39041D01*
X66633Y-39008D01*
X66708Y-38933D01*
X66708Y-38933D01*
X66708Y-38933D01*
X66741Y-38883D01*
X66753Y-38825D01*
X66753Y-36930D01*
X66800Y-36883D01*
X66836Y-36797D01*
X66836Y-36736D01*
X66846Y-36736D01*
X66933Y-36700D01*
X66996Y-36637D01*
X66996Y-39225D01*
X66996Y-39296D01*
X66925Y-39296D01*
X62805Y-39296D01*
X62758Y-39249D01*
X62672Y-39213D01*
X62578Y-39213D01*
X62491Y-39249D01*
X62424Y-39316D01*
X62388Y-39402D01*
X62388Y-39496D01*
X62424Y-39583D01*
X62491Y-39650D01*
X62577Y-39686D01*
X62671Y-39686D01*
X62758Y-39650D01*
X62805Y-39603D01*
X65167Y-39603D01*
X65116Y-39624D01*
X65049Y-39691D01*
X65013Y-39777D01*
X65013Y-39871D01*
X65023Y-39896D01*
X58250Y-39896D01*
X57288Y-39896D01*
X57278Y-39886D01*
X57278Y-39105D01*
X57325Y-39058D01*
X57361Y-38972D01*
X57361Y-38878D01*
X57325Y-38791D01*
X57258Y-38724D01*
X57172Y-38688D01*
X57078Y-38688D01*
X57003Y-38719D01*
X57003Y-35315D01*
X57052Y-35336D01*
X57146Y-35336D01*
X57233Y-35300D01*
X57300Y-35233D01*
X57336Y-35147D01*
X57336Y-35053D01*
X57300Y-34966D01*
X57253Y-34919D01*
X57253Y-33455D01*
X57300Y-33408D01*
X57336Y-33322D01*
X57336Y-33228D01*
X57300Y-33141D01*
X57233Y-33074D01*
X57147Y-33038D01*
X57053Y-33038D01*
X57003Y-33059D01*
X57003Y-30225D01*
X57003Y-30224D01*
X57003Y-30224D01*
X56991Y-30166D01*
X56958Y-30116D01*
X56958Y-30116D01*
X56833Y-29991D01*
X56783Y-29958D01*
X56774Y-29956D01*
X56725Y-29946D01*
X56724Y-29946D01*
X55762Y-29946D01*
X55780Y-29928D01*
X59846Y-29928D01*
X59846Y-31744D01*
X59799Y-31791D01*
X59763Y-31877D01*
X59763Y-31971D01*
X59799Y-32058D01*
X59866Y-32125D01*
X59952Y-32161D01*
X60046Y-32161D01*
X60133Y-32125D01*
X60200Y-32058D01*
X60236Y-31972D01*
X60236Y-31878D01*
X60200Y-31791D01*
X60153Y-31744D01*
X60153Y-29928D01*
X60375Y-29928D01*
X61179Y-29928D01*
X61176Y-29931D01*
X61132Y-30002D01*
X61132Y-30002D01*
X61114Y-30052D01*
X61100Y-30134D01*
X61102Y-30188D01*
X61121Y-30269D01*
X61121Y-30269D01*
X61143Y-30318D01*
X61192Y-30386D01*
X61192Y-30386D01*
X61231Y-30423D01*
X61302Y-30467D01*
X61302Y-30467D01*
X61352Y-30485D01*
X61434Y-30499D01*
X61434Y-30499D01*
X61488Y-30497D01*
X61569Y-30478D01*
X61569Y-30478D01*
X61618Y-30456D01*
X61686Y-30407D01*
X61686Y-30407D01*
X61723Y-30368D01*
X61767Y-30297D01*
X61767Y-30297D01*
X61785Y-30247D01*
X61799Y-30165D01*
X61799Y-30165D01*
X61797Y-30111D01*
X61778Y-30030D01*
X61778Y-30030D01*
X61756Y-29981D01*
X61718Y-29928D01*
X65769Y-29928D01*
X65816Y-29975D01*
X65902Y-30011D01*
X65996Y-30011D01*
X66083Y-29975D01*
X66150Y-29908D01*
X66186Y-29822D01*
X66186Y-29728D01*
X66182Y-29720D01*
X66201Y-29728D01*
X66372Y-29733D01*
X66533Y-29672D01*
X66555Y-29657D01*
X66585Y-29591D01*
X66300Y-29305D01*
X66294Y-29311D01*
X66288Y-29305D01*
X66294Y-29300D01*
X66008Y-29014D01*
X65942Y-29044D01*
X65871Y-29201D01*
X65866Y-29372D01*
X65927Y-29533D01*
X65931Y-29538D01*
X65903Y-29538D01*
X65816Y-29574D01*
X65769Y-29621D01*
X60674Y-29621D01*
X60674Y-28151D01*
X60674Y-27756D01*
X60674Y-27748D01*
X60674Y-27352D01*
X60623Y-27325D01*
X60558Y-27344D01*
X60452Y-27412D01*
X60381Y-27516D01*
X60355Y-27639D01*
X60355Y-27748D01*
X60674Y-27748D01*
X60674Y-27756D01*
X60355Y-27756D01*
X60355Y-27864D01*
X60381Y-27987D01*
X60452Y-28091D01*
X60558Y-28160D01*
X60623Y-28178D01*
X60674Y-28151D01*
X60674Y-29621D01*
X60652Y-29621D01*
X60652Y-28868D01*
X60652Y-28762D01*
X60634Y-28699D01*
X60567Y-28596D01*
X60467Y-28527D01*
X60347Y-28502D01*
X60288Y-28502D01*
X60288Y-28811D01*
X60625Y-28811D01*
X60652Y-28762D01*
X60652Y-28868D01*
X60625Y-28819D01*
X60288Y-28819D01*
X60288Y-29128D01*
X60347Y-29128D01*
X60467Y-29102D01*
X60567Y-29033D01*
X60634Y-28931D01*
X60652Y-28868D01*
X60652Y-29621D01*
X60375Y-29621D01*
X60280Y-29621D01*
X60280Y-29128D01*
X60280Y-28819D01*
X60280Y-28811D01*
X60280Y-28502D01*
X60221Y-28502D01*
X60102Y-28527D01*
X60001Y-28596D01*
X59934Y-28699D01*
X59917Y-28762D01*
X59944Y-28811D01*
X60280Y-28811D01*
X60280Y-28819D01*
X59944Y-28819D01*
X59917Y-28868D01*
X59934Y-28931D01*
X60001Y-29033D01*
X60102Y-29102D01*
X60221Y-29128D01*
X60280Y-29128D01*
X60280Y-29621D01*
X60000Y-29621D01*
X58683Y-29621D01*
X58683Y-28868D01*
X58683Y-28762D01*
X58665Y-28699D01*
X58599Y-28596D01*
X58498Y-28527D01*
X58379Y-28502D01*
X58320Y-28502D01*
X58320Y-28811D01*
X58656Y-28811D01*
X58683Y-28762D01*
X58683Y-28868D01*
X58656Y-28819D01*
X58320Y-28819D01*
X58320Y-29128D01*
X58379Y-29128D01*
X58498Y-29102D01*
X58599Y-29033D01*
X58665Y-28931D01*
X58683Y-28868D01*
X58683Y-29621D01*
X58312Y-29621D01*
X58312Y-29128D01*
X58312Y-28819D01*
X58312Y-28811D01*
X58312Y-28502D01*
X58253Y-28502D01*
X58245Y-28503D01*
X58245Y-27864D01*
X58245Y-27756D01*
X58245Y-27748D01*
X58245Y-27639D01*
X58219Y-27516D01*
X58147Y-27412D01*
X58042Y-27344D01*
X57976Y-27325D01*
X57926Y-27352D01*
X57926Y-27748D01*
X58245Y-27748D01*
X58245Y-27756D01*
X57926Y-27756D01*
X57926Y-28151D01*
X57976Y-28178D01*
X58042Y-28160D01*
X58147Y-28091D01*
X58219Y-27987D01*
X58245Y-27864D01*
X58245Y-28503D01*
X58133Y-28527D01*
X58032Y-28596D01*
X57966Y-28699D01*
X57948Y-28762D01*
X57975Y-28811D01*
X58312Y-28811D01*
X58312Y-28819D01*
X57975Y-28819D01*
X57948Y-28868D01*
X57966Y-28931D01*
X58032Y-29033D01*
X58133Y-29102D01*
X58253Y-29128D01*
X58312Y-29128D01*
X58312Y-29621D01*
X57918Y-29621D01*
X57918Y-28151D01*
X57918Y-27756D01*
X57918Y-27748D01*
X57918Y-27352D01*
X57868Y-27325D01*
X57802Y-27344D01*
X57696Y-27412D01*
X57625Y-27516D01*
X57599Y-27639D01*
X57599Y-27748D01*
X57918Y-27748D01*
X57918Y-27756D01*
X57599Y-27756D01*
X57599Y-27864D01*
X57625Y-27987D01*
X57696Y-28091D01*
X57802Y-28160D01*
X57868Y-28178D01*
X57918Y-28151D01*
X57918Y-29621D01*
X55780Y-29621D01*
X55733Y-29574D01*
X55647Y-29538D01*
X55553Y-29538D01*
X55466Y-29574D01*
X55419Y-29621D01*
X54000Y-29621D01*
X53713Y-29621D01*
X53713Y-27825D01*
X53650Y-27673D01*
X53534Y-27556D01*
X53382Y-27493D01*
X53218Y-27493D01*
X53066Y-27556D01*
X52949Y-27672D01*
X52886Y-27824D01*
X52886Y-27988D01*
X52949Y-28140D01*
X53065Y-28257D01*
X53217Y-28320D01*
X53381Y-28320D01*
X53533Y-28257D01*
X53650Y-28141D01*
X53713Y-27989D01*
X53713Y-27825D01*
X53713Y-29621D01*
X51135Y-29621D01*
X51168Y-29606D01*
X51236Y-29557D01*
X51236Y-29557D01*
X51273Y-29518D01*
X51317Y-29447D01*
X51317Y-29447D01*
X51335Y-29397D01*
X51349Y-29315D01*
X51349Y-29315D01*
X51347Y-29261D01*
X51328Y-29180D01*
X51328Y-29180D01*
X51306Y-29131D01*
X51257Y-29063D01*
X51257Y-29063D01*
X51218Y-29026D01*
X51147Y-28982D01*
X51147Y-28982D01*
X51097Y-28964D01*
X51015Y-28950D01*
X51015Y-28950D01*
X50961Y-28952D01*
X50880Y-28971D01*
X50880Y-28971D01*
X50831Y-28993D01*
X50763Y-29042D01*
X50763Y-29042D01*
X50726Y-29081D01*
X50682Y-29152D01*
X50682Y-29152D01*
X50664Y-29202D01*
X50650Y-29284D01*
X50652Y-29338D01*
X50671Y-29419D01*
X50671Y-29419D01*
X50693Y-29468D01*
X50742Y-29536D01*
X50742Y-29536D01*
X50781Y-29573D01*
X50852Y-29617D01*
X50852Y-29617D01*
X50863Y-29621D01*
X50175Y-29621D01*
X49150Y-29621D01*
X48010Y-29621D01*
X48043Y-29606D01*
X48111Y-29557D01*
X48111Y-29557D01*
X48148Y-29518D01*
X48192Y-29447D01*
X48192Y-29447D01*
X48210Y-29397D01*
X48224Y-29315D01*
X48224Y-29315D01*
X48222Y-29261D01*
X48203Y-29180D01*
X48203Y-29180D01*
X48181Y-29131D01*
X48132Y-29063D01*
X48132Y-29063D01*
X48093Y-29026D01*
X48022Y-28982D01*
X48022Y-28982D01*
X47972Y-28964D01*
X47890Y-28950D01*
X47890Y-28950D01*
X47836Y-28952D01*
X47755Y-28971D01*
X47755Y-28971D01*
X47706Y-28993D01*
X47638Y-29042D01*
X47638Y-29042D01*
X47601Y-29081D01*
X47557Y-29152D01*
X47557Y-29152D01*
X47539Y-29202D01*
X47525Y-29284D01*
X47527Y-29338D01*
X47546Y-29419D01*
X47546Y-29419D01*
X47568Y-29468D01*
X47617Y-29536D01*
X47617Y-29536D01*
X47656Y-29573D01*
X47727Y-29617D01*
X47727Y-29617D01*
X47738Y-29621D01*
X47325Y-29621D01*
X47266Y-29633D01*
X47216Y-29666D01*
X47166Y-29716D01*
X47133Y-29766D01*
X47131Y-29775D01*
X47121Y-29825D01*
X47121Y-29825D01*
X47121Y-29894D01*
X47074Y-29941D01*
X47038Y-30027D01*
X47038Y-30121D01*
X47074Y-30208D01*
X47141Y-30275D01*
X47227Y-30311D01*
X47321Y-30311D01*
X47408Y-30275D01*
X47475Y-30208D01*
X47511Y-30122D01*
X47511Y-30028D01*
X47475Y-29941D01*
X47462Y-29928D01*
X49150Y-29928D01*
X50021Y-29928D01*
X50021Y-30125D01*
X50021Y-30694D01*
X49974Y-30741D01*
X49938Y-30827D01*
X49938Y-30921D01*
X49974Y-31008D01*
X50041Y-31075D01*
X50127Y-31111D01*
X50221Y-31111D01*
X50308Y-31075D01*
X50375Y-31008D01*
X50411Y-30922D01*
X50411Y-30828D01*
X50375Y-30741D01*
X50328Y-30694D01*
X50328Y-30125D01*
X50328Y-29928D01*
X51762Y-29928D01*
X51724Y-29966D01*
X51688Y-30052D01*
X51688Y-30146D01*
X51724Y-30233D01*
X51791Y-30300D01*
X51877Y-30336D01*
X51971Y-30336D01*
X52058Y-30300D01*
X52105Y-30253D01*
X53208Y-30253D01*
X53066Y-30312D01*
X52949Y-30428D01*
X52886Y-30580D01*
X52886Y-30744D01*
X52949Y-30896D01*
X53065Y-31013D01*
X53217Y-31076D01*
X53381Y-31076D01*
X53533Y-31013D01*
X53650Y-30897D01*
X53713Y-30745D01*
X53713Y-30581D01*
X53650Y-30429D01*
X53534Y-30312D01*
X53391Y-30253D01*
X56661Y-30253D01*
X56696Y-30288D01*
X56696Y-30504D01*
X56683Y-30491D01*
X56633Y-30458D01*
X56624Y-30456D01*
X56575Y-30446D01*
X56574Y-30446D01*
X55455Y-30446D01*
X55408Y-30399D01*
X55322Y-30363D01*
X55228Y-30363D01*
X55141Y-30399D01*
X55074Y-30466D01*
X55038Y-30552D01*
X55038Y-30646D01*
X55074Y-30733D01*
X55141Y-30800D01*
X55227Y-30836D01*
X55321Y-30836D01*
X55408Y-30800D01*
X55455Y-30753D01*
X56511Y-30753D01*
X56546Y-30788D01*
X56546Y-34383D01*
X56508Y-34358D01*
X56499Y-34356D01*
X56450Y-34346D01*
X56449Y-34346D01*
X56374Y-34346D01*
X56374Y-31190D01*
X56372Y-31136D01*
X56353Y-31055D01*
X56353Y-31055D01*
X56331Y-31006D01*
X56282Y-30938D01*
X56282Y-30938D01*
X56243Y-30901D01*
X56172Y-30857D01*
X56172Y-30857D01*
X56122Y-30839D01*
X56040Y-30825D01*
X56040Y-30825D01*
X55986Y-30827D01*
X55905Y-30846D01*
X55905Y-30846D01*
X55856Y-30868D01*
X55788Y-30917D01*
X55788Y-30917D01*
X55751Y-30956D01*
X55707Y-31027D01*
X55707Y-31027D01*
X55689Y-31077D01*
X55675Y-31159D01*
X55677Y-31213D01*
X55696Y-31294D01*
X55696Y-31294D01*
X55718Y-31343D01*
X55767Y-31411D01*
X55767Y-31411D01*
X55806Y-31448D01*
X55877Y-31492D01*
X55877Y-31492D01*
X55927Y-31510D01*
X56009Y-31524D01*
X56009Y-31524D01*
X56063Y-31522D01*
X56144Y-31503D01*
X56144Y-31503D01*
X56193Y-31481D01*
X56261Y-31432D01*
X56261Y-31432D01*
X56298Y-31393D01*
X56342Y-31322D01*
X56342Y-31322D01*
X56360Y-31272D01*
X56374Y-31190D01*
X56374Y-31190D01*
X56374Y-34346D01*
X47630Y-34346D01*
X47583Y-34299D01*
X47497Y-34263D01*
X47403Y-34263D01*
X47316Y-34299D01*
X47249Y-34366D01*
X47213Y-34452D01*
X47213Y-34546D01*
X47234Y-34596D01*
X45325Y-34596D01*
X45280Y-34596D01*
X45233Y-34549D01*
X45147Y-34513D01*
X45053Y-34513D01*
X44966Y-34549D01*
X44899Y-34616D01*
X44863Y-34702D01*
X44863Y-34796D01*
X44899Y-34883D01*
X44966Y-34950D01*
X45052Y-34986D01*
X45146Y-34986D01*
X45233Y-34950D01*
X45280Y-34903D01*
X45325Y-34903D01*
X55987Y-34903D01*
X55924Y-34966D01*
X55888Y-35052D01*
X55888Y-35146D01*
X55924Y-35233D01*
X55971Y-35280D01*
X55971Y-40519D01*
X55924Y-40566D01*
X55888Y-40652D01*
X55888Y-40746D01*
X55924Y-40833D01*
X55991Y-40900D01*
X56077Y-40936D01*
X56171Y-40936D01*
X56258Y-40900D01*
X56270Y-40888D01*
X56270Y-47411D01*
X55387Y-48294D01*
X55329Y-48294D01*
X55163Y-48363D01*
X55035Y-48490D01*
X55025Y-48514D01*
X55016Y-48491D01*
X54888Y-48363D01*
X54722Y-48294D01*
X54542Y-48294D01*
X54494Y-48314D01*
X54511Y-48273D01*
X54511Y-48179D01*
X54475Y-48092D01*
X54408Y-48025D01*
X54322Y-47989D01*
X54228Y-47989D01*
X54178Y-48010D01*
X54178Y-47025D01*
X54178Y-46875D01*
X54178Y-46563D01*
X54188Y-46553D01*
X54319Y-46553D01*
X54366Y-46600D01*
X54452Y-46636D01*
X54546Y-46636D01*
X54633Y-46600D01*
X54700Y-46533D01*
X54736Y-46447D01*
X54736Y-46353D01*
X54700Y-46266D01*
X54633Y-46199D01*
X54547Y-46163D01*
X54453Y-46163D01*
X54366Y-46199D01*
X54319Y-46246D01*
X54125Y-46246D01*
X54066Y-46258D01*
X54016Y-46291D01*
X54016Y-46291D01*
X53916Y-46391D01*
X53883Y-46441D01*
X53881Y-46450D01*
X53871Y-46500D01*
X53871Y-46500D01*
X53871Y-46875D01*
X53871Y-47025D01*
X53871Y-47696D01*
X53842Y-47696D01*
X53625Y-47696D01*
X53625Y-46447D01*
X53625Y-46447D01*
X53625Y-46447D01*
X53614Y-46388D01*
X53581Y-46338D01*
X53581Y-46338D01*
X53533Y-46291D01*
X53483Y-46258D01*
X53474Y-46256D01*
X53425Y-46246D01*
X53424Y-46246D01*
X53180Y-46246D01*
X53133Y-46199D01*
X53047Y-46163D01*
X52953Y-46163D01*
X52866Y-46199D01*
X52799Y-46266D01*
X52763Y-46352D01*
X52763Y-46446D01*
X52799Y-46533D01*
X52866Y-46600D01*
X52952Y-46636D01*
X53046Y-46636D01*
X53133Y-46600D01*
X53180Y-46553D01*
X53318Y-46553D01*
X53318Y-47696D01*
X53055Y-47696D01*
X53011Y-47713D01*
X53005Y-47720D01*
X52992Y-47707D01*
X52946Y-47688D01*
X52896Y-47688D01*
X52562Y-47688D01*
X52531Y-47719D01*
X52531Y-48696D01*
X52539Y-48696D01*
X52539Y-48703D01*
X52531Y-48703D01*
X52531Y-49680D01*
X52562Y-49711D01*
X52896Y-49711D01*
X52946Y-49711D01*
X52992Y-49692D01*
X53005Y-49679D01*
X53011Y-49685D01*
X53055Y-49703D01*
X53102Y-49703D01*
X53416Y-49703D01*
X53363Y-49742D01*
X53363Y-49742D01*
X53326Y-49781D01*
X53282Y-49852D01*
X53282Y-49852D01*
X53264Y-49902D01*
X53250Y-49984D01*
X53252Y-50038D01*
X53271Y-50119D01*
X53271Y-50119D01*
X53293Y-50168D01*
X53342Y-50236D01*
X53342Y-50236D01*
X53381Y-50273D01*
X53449Y-50315D01*
X53366Y-50349D01*
X53299Y-50416D01*
X53263Y-50502D01*
X53263Y-50596D01*
X53299Y-50683D01*
X53362Y-50746D01*
X52955Y-50746D01*
X52908Y-50699D01*
X52822Y-50663D01*
X52728Y-50663D01*
X52641Y-50699D01*
X52574Y-50766D01*
X52538Y-50852D01*
X52538Y-50946D01*
X52574Y-51033D01*
X52641Y-51100D01*
X52727Y-51136D01*
X52821Y-51136D01*
X52908Y-51100D01*
X52955Y-51053D01*
X55200Y-51053D01*
X58319Y-51053D01*
X58366Y-51100D01*
X58452Y-51136D01*
X58546Y-51136D01*
X58633Y-51100D01*
X58680Y-51053D01*
X59562Y-51053D01*
X59549Y-51066D01*
X59513Y-51152D01*
X59513Y-51246D01*
X59549Y-51333D01*
X59596Y-51380D01*
X59596Y-51629D01*
X59275Y-51629D01*
X59244Y-51660D01*
X59244Y-51948D01*
X59251Y-51948D01*
X59251Y-51955D01*
X59244Y-51955D01*
X59244Y-52243D01*
X59275Y-52274D01*
X59599Y-52274D01*
X59646Y-52255D01*
X59667Y-52234D01*
X59713Y-52281D01*
X59713Y-52281D01*
X59763Y-52314D01*
X59763Y-52314D01*
X59822Y-52325D01*
X60350Y-52325D01*
X61496Y-52325D01*
X61496Y-52589D01*
X61513Y-52632D01*
X61547Y-52666D01*
X61590Y-52684D01*
X61637Y-52684D01*
X63409Y-52684D01*
X63452Y-52666D01*
X63485Y-52633D01*
X63503Y-52589D01*
X63503Y-52542D01*
X63503Y-51897D01*
X63547Y-51940D01*
X63699Y-52004D01*
X63864Y-52004D01*
X64016Y-51941D01*
X64132Y-51825D01*
X64195Y-51673D01*
X64195Y-51508D01*
X64132Y-51356D01*
X64016Y-51240D01*
X63864Y-51177D01*
X63700Y-51177D01*
X63548Y-51240D01*
X63511Y-51276D01*
X63511Y-50808D01*
X63492Y-50762D01*
X63457Y-50727D01*
X63410Y-50707D01*
X63360Y-50707D01*
X62535Y-50707D01*
X62503Y-50739D01*
X62503Y-51223D01*
X63480Y-51223D01*
X63511Y-51192D01*
X63511Y-50808D01*
X63511Y-51276D01*
X63511Y-51276D01*
X63511Y-51262D01*
X63480Y-51231D01*
X62503Y-51231D01*
X62503Y-51239D01*
X62496Y-51239D01*
X62496Y-51231D01*
X62496Y-51223D01*
X62496Y-50739D01*
X62464Y-50707D01*
X61639Y-50707D01*
X61589Y-50707D01*
X61542Y-50727D01*
X61507Y-50762D01*
X61488Y-50808D01*
X61488Y-51192D01*
X61519Y-51223D01*
X62496Y-51223D01*
X62496Y-51231D01*
X61519Y-51231D01*
X61488Y-51262D01*
X61488Y-51646D01*
X61507Y-51692D01*
X61520Y-51705D01*
X61514Y-51711D01*
X61496Y-51755D01*
X61496Y-51802D01*
X61496Y-52018D01*
X60350Y-52018D01*
X60349Y-52018D01*
X60373Y-51993D01*
X60417Y-51922D01*
X60417Y-51922D01*
X60435Y-51872D01*
X60449Y-51790D01*
X60449Y-51790D01*
X60447Y-51736D01*
X60428Y-51655D01*
X60428Y-51655D01*
X60406Y-51606D01*
X60357Y-51538D01*
X60357Y-51538D01*
X60318Y-51501D01*
X60247Y-51457D01*
X60247Y-51457D01*
X60197Y-51439D01*
X60115Y-51425D01*
X60115Y-51425D01*
X60061Y-51427D01*
X59980Y-51446D01*
X59980Y-51446D01*
X59931Y-51468D01*
X59903Y-51488D01*
X59903Y-51380D01*
X59950Y-51333D01*
X59986Y-51247D01*
X59986Y-51153D01*
X59950Y-51066D01*
X59937Y-51053D01*
X60694Y-51053D01*
X60741Y-51100D01*
X60827Y-51136D01*
X60921Y-51136D01*
X61008Y-51100D01*
X61075Y-51033D01*
X61111Y-50947D01*
X61111Y-50853D01*
X61083Y-50786D01*
X61171Y-50786D01*
X61258Y-50750D01*
X61325Y-50683D01*
X61361Y-50597D01*
X61361Y-50503D01*
X61325Y-50416D01*
X61258Y-50349D01*
X61209Y-50329D01*
X68249Y-50329D01*
X68499Y-50329D01*
X68499Y-50329D01*
X68499Y-50329D01*
X68548Y-50319D01*
X68558Y-50317D01*
X68558Y-50317D01*
X68607Y-50284D01*
X68683Y-50208D01*
X68683Y-50208D01*
X68683Y-50208D01*
X68716Y-50158D01*
X68728Y-50100D01*
X68728Y-49850D01*
X68728Y-41125D01*
X68728Y-40825D01*
X68728Y-40750D01*
X68728Y-40655D01*
X68775Y-40608D01*
X68811Y-40522D01*
X68811Y-40428D01*
X68775Y-40341D01*
X68708Y-40274D01*
X68622Y-40238D01*
X68528Y-40238D01*
X68441Y-40274D01*
X68374Y-40341D01*
X68338Y-40427D01*
X68338Y-40521D01*
X68374Y-40608D01*
X68421Y-40655D01*
X68421Y-40750D01*
X68421Y-40825D01*
X68421Y-41125D01*
X68421Y-43248D01*
X68397Y-43238D01*
X68303Y-43238D01*
X68278Y-43248D01*
X68278Y-40750D01*
X68266Y-40691D01*
X68266Y-40691D01*
X68233Y-40641D01*
X68183Y-40591D01*
X68133Y-40558D01*
X68124Y-40556D01*
X68075Y-40546D01*
X68074Y-40546D01*
X57305Y-40546D01*
X57258Y-40499D01*
X57172Y-40463D01*
X57078Y-40463D01*
X57003Y-40494D01*
X57003Y-40039D01*
X57016Y-40058D01*
X57116Y-40158D01*
X57116Y-40158D01*
X57166Y-40191D01*
X57166Y-40191D01*
X57225Y-40203D01*
X58250Y-40203D01*
X68100Y-40203D01*
X68149Y-40203D01*
X68150Y-40203D01*
X68150Y-40203D01*
X68199Y-40193D01*
X68208Y-40191D01*
X68208Y-40191D01*
X68258Y-40158D01*
X68308Y-40108D01*
X68311Y-40103D01*
X68347Y-40127D01*
X68400Y-40137D01*
X68862Y-40137D01*
X68862Y-54062D01*
X68862Y-54062D01*
G37*
G54D22*
X68862Y-54062D02*
X67502Y-54062D01*
X67502Y-51508D01*
X67440Y-51356D01*
X67323Y-51240D01*
X67171Y-51177D01*
X67007Y-51177D01*
X66855Y-51240D01*
X66739Y-51356D01*
X66676Y-51508D01*
X66675Y-51672D01*
X66738Y-51824D01*
X66854Y-51940D01*
X67006Y-52004D01*
X67171Y-52004D01*
X67323Y-51941D01*
X67439Y-51825D01*
X67502Y-51673D01*
X67502Y-51508D01*
X67502Y-54062D01*
X61742Y-54062D01*
X61757Y-54055D01*
X61828Y-53898D01*
X61833Y-53727D01*
X61772Y-53566D01*
X61757Y-53544D01*
X61691Y-53514D01*
X61685Y-53519D01*
X61685Y-53508D01*
X61655Y-53442D01*
X61498Y-53371D01*
X61327Y-53366D01*
X61223Y-53405D01*
X61223Y-52816D01*
X61159Y-52660D01*
X61040Y-52541D01*
X60884Y-52476D01*
X60716Y-52476D01*
X60560Y-52540D01*
X60441Y-52659D01*
X60376Y-52815D01*
X60376Y-52983D01*
X60440Y-53139D01*
X60559Y-53258D01*
X60715Y-53323D01*
X60883Y-53323D01*
X61039Y-53259D01*
X61158Y-53140D01*
X61223Y-52984D01*
X61223Y-52816D01*
X61223Y-53405D01*
X61166Y-53427D01*
X61144Y-53442D01*
X61114Y-53508D01*
X61400Y-53794D01*
X61685Y-53508D01*
X61685Y-53519D01*
X61405Y-53800D01*
X61411Y-53805D01*
X61405Y-53811D01*
X61400Y-53805D01*
X61394Y-53811D01*
X61388Y-53805D01*
X61394Y-53800D01*
X61108Y-53514D01*
X61042Y-53544D01*
X60971Y-53701D01*
X60966Y-53872D01*
X61027Y-54033D01*
X61042Y-54055D01*
X61057Y-54062D01*
X60536Y-54062D01*
X60558Y-54040D01*
X60623Y-53884D01*
X60623Y-53716D01*
X60559Y-53560D01*
X60440Y-53441D01*
X60284Y-53376D01*
X60116Y-53376D01*
X59960Y-53440D01*
X59841Y-53559D01*
X59776Y-53715D01*
X59776Y-53883D01*
X59840Y-54039D01*
X59863Y-54062D01*
X59692Y-54062D01*
X59692Y-53621D01*
X59692Y-53227D01*
X59674Y-53184D01*
X59641Y-53151D01*
X59598Y-53133D01*
X59551Y-53133D01*
X59471Y-53133D01*
X59486Y-53097D01*
X59486Y-53003D01*
X59450Y-52916D01*
X59383Y-52849D01*
X59297Y-52813D01*
X59236Y-52813D01*
X59236Y-52243D01*
X59236Y-51955D01*
X59236Y-51948D01*
X59236Y-51660D01*
X59204Y-51629D01*
X58880Y-51629D01*
X58834Y-51648D01*
X58798Y-51683D01*
X58779Y-51729D01*
X58779Y-51780D01*
X58779Y-51916D01*
X58811Y-51948D01*
X59236Y-51948D01*
X59236Y-51955D01*
X58811Y-51955D01*
X58779Y-51987D01*
X58779Y-52123D01*
X58779Y-52173D01*
X58798Y-52220D01*
X58834Y-52255D01*
X58880Y-52274D01*
X59204Y-52274D01*
X59236Y-52243D01*
X59236Y-52813D01*
X59203Y-52813D01*
X59116Y-52849D01*
X59049Y-52916D01*
X59013Y-53002D01*
X59013Y-53096D01*
X59028Y-53133D01*
X58882Y-53133D01*
X58838Y-53150D01*
X58805Y-53184D01*
X58787Y-53227D01*
X58787Y-53274D01*
X58787Y-53294D01*
X58554Y-53294D01*
X58576Y-53285D01*
X58775Y-53086D01*
X58883Y-52825D01*
X58884Y-52543D01*
X58776Y-52283D01*
X58577Y-52083D01*
X58316Y-51975D01*
X58035Y-51975D01*
X57774Y-52083D01*
X57574Y-52282D01*
X57466Y-52542D01*
X57466Y-52824D01*
X57574Y-53085D01*
X57773Y-53284D01*
X57797Y-53294D01*
X57220Y-53294D01*
X57220Y-52123D01*
X57220Y-51780D01*
X57220Y-51729D01*
X57201Y-51683D01*
X57165Y-51648D01*
X57119Y-51629D01*
X56795Y-51629D01*
X56763Y-51660D01*
X56763Y-51948D01*
X57188Y-51948D01*
X57220Y-51916D01*
X57220Y-51780D01*
X57220Y-52123D01*
X57220Y-51987D01*
X57188Y-51955D01*
X56763Y-51955D01*
X56763Y-52243D01*
X56795Y-52274D01*
X57119Y-52274D01*
X57165Y-52255D01*
X57201Y-52220D01*
X57220Y-52173D01*
X57220Y-52123D01*
X57220Y-53294D01*
X57212Y-53294D01*
X57212Y-53227D01*
X57194Y-53184D01*
X57161Y-53151D01*
X57118Y-53133D01*
X57071Y-53133D01*
X56755Y-53133D01*
X56755Y-52243D01*
X56755Y-51955D01*
X56755Y-51948D01*
X56755Y-51660D01*
X56724Y-51629D01*
X56400Y-51629D01*
X56353Y-51648D01*
X56318Y-51683D01*
X56299Y-51729D01*
X56299Y-51780D01*
X56299Y-51916D01*
X56330Y-51948D01*
X56755Y-51948D01*
X56755Y-51955D01*
X56330Y-51955D01*
X56299Y-51987D01*
X56299Y-52123D01*
X56299Y-52173D01*
X56318Y-52220D01*
X56353Y-52255D01*
X56400Y-52274D01*
X56724Y-52274D01*
X56755Y-52243D01*
X56755Y-53133D01*
X56401Y-53133D01*
X56358Y-53150D01*
X56325Y-53184D01*
X56307Y-53227D01*
X56307Y-53274D01*
X56307Y-53668D01*
X56325Y-53711D01*
X56358Y-53744D01*
X56401Y-53762D01*
X56448Y-53763D01*
X57117Y-53763D01*
X57161Y-53745D01*
X57194Y-53711D01*
X57212Y-53668D01*
X57212Y-53621D01*
X57212Y-53601D01*
X58787Y-53601D01*
X58787Y-53668D01*
X58805Y-53711D01*
X58838Y-53744D01*
X58881Y-53762D01*
X58928Y-53763D01*
X59598Y-53763D01*
X59641Y-53745D01*
X59674Y-53711D01*
X59692Y-53668D01*
X59692Y-53621D01*
X59692Y-54062D01*
X56200Y-54062D01*
X56200Y-52123D01*
X56200Y-51780D01*
X56200Y-51729D01*
X56181Y-51683D01*
X56146Y-51648D01*
X56099Y-51629D01*
X55775Y-51629D01*
X55744Y-51660D01*
X55744Y-51948D01*
X56169Y-51948D01*
X56200Y-51916D01*
X56200Y-51780D01*
X56200Y-52123D01*
X56200Y-51987D01*
X56169Y-51955D01*
X55744Y-51955D01*
X55744Y-52243D01*
X55775Y-52274D01*
X56099Y-52274D01*
X56146Y-52255D01*
X56181Y-52220D01*
X56200Y-52173D01*
X56200Y-52123D01*
X56200Y-54062D01*
X56192Y-54062D01*
X56192Y-53621D01*
X56192Y-53227D01*
X56174Y-53184D01*
X56141Y-53151D01*
X56098Y-53133D01*
X56051Y-53133D01*
X55950Y-53133D01*
X55986Y-53047D01*
X55986Y-52953D01*
X55950Y-52866D01*
X55883Y-52799D01*
X55797Y-52763D01*
X55736Y-52763D01*
X55736Y-52243D01*
X55736Y-51955D01*
X55736Y-51948D01*
X55736Y-51660D01*
X55704Y-51629D01*
X55380Y-51629D01*
X55334Y-51648D01*
X55298Y-51683D01*
X55279Y-51729D01*
X55279Y-51780D01*
X55279Y-51916D01*
X55311Y-51948D01*
X55736Y-51948D01*
X55736Y-51955D01*
X55311Y-51955D01*
X55279Y-51987D01*
X55279Y-52123D01*
X55279Y-52173D01*
X55298Y-52220D01*
X55334Y-52255D01*
X55380Y-52274D01*
X55704Y-52274D01*
X55736Y-52243D01*
X55736Y-52763D01*
X55703Y-52763D01*
X55616Y-52799D01*
X55549Y-52866D01*
X55513Y-52952D01*
X55513Y-53046D01*
X55549Y-53133D01*
X55382Y-53133D01*
X55338Y-53150D01*
X55305Y-53184D01*
X55287Y-53227D01*
X55287Y-53274D01*
X55287Y-53294D01*
X54617Y-53294D01*
X54639Y-53285D01*
X54838Y-53086D01*
X54946Y-52825D01*
X54947Y-52543D01*
X54839Y-52283D01*
X54640Y-52083D01*
X54379Y-51975D01*
X54098Y-51975D01*
X53837Y-52083D01*
X53702Y-52218D01*
X53720Y-52173D01*
X53720Y-52123D01*
X53720Y-51780D01*
X53720Y-51729D01*
X53701Y-51683D01*
X53665Y-51648D01*
X53619Y-51629D01*
X53295Y-51629D01*
X53263Y-51660D01*
X53263Y-51948D01*
X53688Y-51948D01*
X53720Y-51916D01*
X53720Y-51780D01*
X53720Y-52123D01*
X53720Y-51987D01*
X53688Y-51955D01*
X53263Y-51955D01*
X53263Y-52243D01*
X53295Y-52274D01*
X53619Y-52274D01*
X53663Y-52256D01*
X53637Y-52282D01*
X53529Y-52542D01*
X53529Y-52824D01*
X53637Y-53085D01*
X53836Y-53284D01*
X53860Y-53294D01*
X53712Y-53294D01*
X53712Y-53227D01*
X53694Y-53184D01*
X53661Y-53151D01*
X53618Y-53133D01*
X53571Y-53133D01*
X53255Y-53133D01*
X53255Y-52243D01*
X53255Y-51955D01*
X53255Y-51948D01*
X53255Y-51660D01*
X53224Y-51629D01*
X52900Y-51629D01*
X52853Y-51648D01*
X52818Y-51683D01*
X52799Y-51729D01*
X52799Y-51780D01*
X52799Y-51916D01*
X52830Y-51948D01*
X53255Y-51948D01*
X53255Y-51955D01*
X52830Y-51955D01*
X52799Y-51987D01*
X52799Y-52123D01*
X52799Y-52173D01*
X52818Y-52220D01*
X52853Y-52255D01*
X52900Y-52274D01*
X53224Y-52274D01*
X53255Y-52243D01*
X53255Y-53133D01*
X52901Y-53133D01*
X52858Y-53150D01*
X52825Y-53184D01*
X52807Y-53227D01*
X52807Y-53274D01*
X52807Y-53668D01*
X52825Y-53711D01*
X52858Y-53744D01*
X52901Y-53762D01*
X52948Y-53763D01*
X53617Y-53763D01*
X53661Y-53745D01*
X53694Y-53711D01*
X53712Y-53668D01*
X53712Y-53621D01*
X53712Y-53601D01*
X55287Y-53601D01*
X55287Y-53668D01*
X55305Y-53711D01*
X55338Y-53744D01*
X55381Y-53762D01*
X55428Y-53763D01*
X56098Y-53763D01*
X56141Y-53745D01*
X56174Y-53711D01*
X56192Y-53668D01*
X56192Y-53621D01*
X56192Y-54062D01*
X52642Y-54062D01*
X52657Y-54055D01*
X52728Y-53898D01*
X52733Y-53727D01*
X52672Y-53566D01*
X52657Y-53544D01*
X52591Y-53514D01*
X52585Y-53519D01*
X52585Y-53508D01*
X52555Y-53442D01*
X52398Y-53371D01*
X52227Y-53366D01*
X52123Y-53405D01*
X52123Y-52816D01*
X52059Y-52660D01*
X51940Y-52541D01*
X51784Y-52476D01*
X51616Y-52476D01*
X51460Y-52540D01*
X51341Y-52659D01*
X51276Y-52815D01*
X51276Y-52983D01*
X51340Y-53139D01*
X51459Y-53258D01*
X51615Y-53323D01*
X51783Y-53323D01*
X51939Y-53259D01*
X52058Y-53140D01*
X52123Y-52984D01*
X52123Y-52816D01*
X52123Y-53405D01*
X52066Y-53427D01*
X52044Y-53442D01*
X52014Y-53508D01*
X52300Y-53794D01*
X52585Y-53508D01*
X52585Y-53519D01*
X52305Y-53800D01*
X52311Y-53805D01*
X52305Y-53811D01*
X52300Y-53805D01*
X52294Y-53811D01*
X52288Y-53805D01*
X52294Y-53800D01*
X52008Y-53514D01*
X51942Y-53544D01*
X51871Y-53701D01*
X51866Y-53872D01*
X51927Y-54033D01*
X51942Y-54055D01*
X51957Y-54062D01*
X51436Y-54062D01*
X51458Y-54040D01*
X51523Y-53884D01*
X51523Y-53716D01*
X51459Y-53560D01*
X51340Y-53441D01*
X51184Y-53376D01*
X51016Y-53376D01*
X50860Y-53440D01*
X50741Y-53559D01*
X50676Y-53715D01*
X50676Y-53883D01*
X50740Y-54039D01*
X50763Y-54062D01*
X45720Y-54062D01*
X45720Y-51508D01*
X45657Y-51356D01*
X45541Y-51240D01*
X45389Y-51177D01*
X45225Y-51177D01*
X45073Y-51240D01*
X44957Y-51356D01*
X44893Y-51508D01*
X44893Y-51672D01*
X44956Y-51824D01*
X45072Y-51940D01*
X45224Y-52004D01*
X45389Y-52004D01*
X45541Y-51941D01*
X45657Y-51825D01*
X45720Y-51673D01*
X45720Y-51508D01*
X45720Y-54062D01*
X43637Y-54062D01*
X43637Y-47389D01*
X43641Y-47391D01*
X43661Y-47395D01*
X43716Y-47450D01*
X43802Y-47486D01*
X43896Y-47486D01*
X43983Y-47450D01*
X44030Y-47403D01*
X45744Y-47403D01*
X45791Y-47450D01*
X45877Y-47486D01*
X45971Y-47486D01*
X46058Y-47450D01*
X46105Y-47403D01*
X47544Y-47403D01*
X47591Y-47450D01*
X47677Y-47486D01*
X47771Y-47486D01*
X47858Y-47450D01*
X47905Y-47403D01*
X48196Y-47403D01*
X48196Y-49469D01*
X48149Y-49516D01*
X48113Y-49602D01*
X48113Y-49696D01*
X48123Y-49721D01*
X47992Y-49721D01*
X47992Y-49560D01*
X47992Y-47839D01*
X47992Y-47789D01*
X47972Y-47742D01*
X47937Y-47707D01*
X47891Y-47688D01*
X47507Y-47688D01*
X47476Y-47719D01*
X47476Y-48696D01*
X47960Y-48696D01*
X47992Y-48664D01*
X47992Y-47839D01*
X47992Y-49560D01*
X47992Y-48735D01*
X47960Y-48703D01*
X47476Y-48703D01*
X47476Y-49680D01*
X47507Y-49711D01*
X47891Y-49711D01*
X47937Y-49692D01*
X47972Y-49657D01*
X47992Y-49610D01*
X47992Y-49560D01*
X47992Y-49721D01*
X46950Y-49721D01*
X46900Y-49721D01*
X46681Y-49721D01*
X46681Y-49703D01*
X46944Y-49703D01*
X46988Y-49686D01*
X46994Y-49679D01*
X47007Y-49692D01*
X47053Y-49711D01*
X47437Y-49711D01*
X47468Y-49680D01*
X47468Y-48703D01*
X47460Y-48703D01*
X47460Y-48696D01*
X47468Y-48696D01*
X47468Y-47719D01*
X47437Y-47688D01*
X47053Y-47688D01*
X47007Y-47707D01*
X46994Y-47720D01*
X46988Y-47714D01*
X46944Y-47696D01*
X46897Y-47696D01*
X46110Y-47696D01*
X46067Y-47713D01*
X46033Y-47747D01*
X46015Y-47790D01*
X46015Y-47837D01*
X46015Y-49609D01*
X46033Y-49652D01*
X46066Y-49685D01*
X46110Y-49703D01*
X46157Y-49703D01*
X46374Y-49703D01*
X46374Y-49802D01*
X46374Y-49802D01*
X46383Y-49851D01*
X46385Y-49861D01*
X46418Y-49911D01*
X46491Y-49983D01*
X46491Y-49983D01*
X46541Y-50016D01*
X46541Y-50016D01*
X46600Y-50028D01*
X46900Y-50028D01*
X46950Y-50028D01*
X48134Y-50028D01*
X48113Y-50077D01*
X48113Y-50171D01*
X48149Y-50258D01*
X48216Y-50325D01*
X48302Y-50361D01*
X48396Y-50361D01*
X48483Y-50325D01*
X48530Y-50278D01*
X51079Y-50278D01*
X51076Y-50281D01*
X51032Y-50352D01*
X51032Y-50352D01*
X51014Y-50402D01*
X51000Y-50484D01*
X51002Y-50538D01*
X51021Y-50619D01*
X51021Y-50619D01*
X51043Y-50668D01*
X51092Y-50736D01*
X51092Y-50736D01*
X51131Y-50773D01*
X51202Y-50817D01*
X51202Y-50817D01*
X51252Y-50835D01*
X51334Y-50849D01*
X51334Y-50849D01*
X51388Y-50847D01*
X51469Y-50828D01*
X51469Y-50828D01*
X51518Y-50806D01*
X51586Y-50757D01*
X51586Y-50757D01*
X51623Y-50718D01*
X51667Y-50647D01*
X51667Y-50647D01*
X51685Y-50597D01*
X51699Y-50515D01*
X51699Y-50515D01*
X51697Y-50461D01*
X51678Y-50380D01*
X51678Y-50380D01*
X51662Y-50344D01*
X51702Y-50361D01*
X51796Y-50361D01*
X51821Y-50351D01*
X51821Y-52011D01*
X51813Y-52018D01*
X51003Y-52018D01*
X51003Y-51755D01*
X50986Y-51711D01*
X50979Y-51705D01*
X50992Y-51692D01*
X51011Y-51646D01*
X51011Y-50808D01*
X50992Y-50762D01*
X50957Y-50727D01*
X50910Y-50707D01*
X50860Y-50707D01*
X50035Y-50707D01*
X50003Y-50739D01*
X50003Y-51223D01*
X50980Y-51223D01*
X51011Y-51192D01*
X51011Y-50808D01*
X51011Y-51646D01*
X51011Y-51262D01*
X50980Y-51231D01*
X50003Y-51231D01*
X50003Y-51239D01*
X49996Y-51239D01*
X49996Y-51231D01*
X49996Y-51223D01*
X49996Y-50739D01*
X49964Y-50707D01*
X49139Y-50707D01*
X49089Y-50707D01*
X49042Y-50727D01*
X49007Y-50762D01*
X48988Y-50808D01*
X48988Y-51192D01*
X49019Y-51223D01*
X49996Y-51223D01*
X49996Y-51231D01*
X49019Y-51231D01*
X48988Y-51262D01*
X48988Y-51412D01*
X48965Y-51356D01*
X48848Y-51240D01*
X48696Y-51177D01*
X48532Y-51177D01*
X48380Y-51240D01*
X48264Y-51356D01*
X48201Y-51508D01*
X48200Y-51672D01*
X48263Y-51824D01*
X48379Y-51940D01*
X48531Y-52004D01*
X48696Y-52004D01*
X48848Y-51941D01*
X48964Y-51825D01*
X49016Y-51701D01*
X49020Y-51705D01*
X49014Y-51711D01*
X48996Y-51755D01*
X48996Y-51802D01*
X48996Y-52589D01*
X49013Y-52632D01*
X49047Y-52666D01*
X49090Y-52684D01*
X49137Y-52684D01*
X50909Y-52684D01*
X50952Y-52666D01*
X50985Y-52633D01*
X51003Y-52589D01*
X51003Y-52542D01*
X51003Y-52325D01*
X51877Y-52325D01*
X51877Y-52325D01*
X51877Y-52325D01*
X51926Y-52316D01*
X51936Y-52314D01*
X51936Y-52314D01*
X51986Y-52281D01*
X52083Y-52183D01*
X52083Y-52183D01*
X52083Y-52183D01*
X52116Y-52133D01*
X52128Y-52075D01*
X52128Y-52075D01*
X52128Y-52075D01*
X52128Y-49711D01*
X52158Y-49711D01*
X52492Y-49711D01*
X52523Y-49680D01*
X52523Y-48703D01*
X52515Y-48703D01*
X52515Y-48696D01*
X52523Y-48696D01*
X52523Y-47719D01*
X52492Y-47688D01*
X52158Y-47688D01*
X52128Y-47688D01*
X52128Y-46605D01*
X52175Y-46558D01*
X52211Y-46472D01*
X52211Y-46378D01*
X52175Y-46291D01*
X52146Y-46262D01*
X52175Y-46233D01*
X52211Y-46147D01*
X52211Y-46053D01*
X52175Y-45966D01*
X52108Y-45899D01*
X52022Y-45863D01*
X51928Y-45863D01*
X51841Y-45899D01*
X51794Y-45946D01*
X51275Y-45946D01*
X51200Y-45946D01*
X51141Y-45958D01*
X51091Y-45991D01*
X51091Y-45991D01*
X51016Y-46066D01*
X51011Y-46073D01*
X51011Y-45803D01*
X51011Y-45753D01*
X50992Y-45707D01*
X50979Y-45694D01*
X50985Y-45688D01*
X51003Y-45644D01*
X51003Y-45597D01*
X51003Y-45438D01*
X51016Y-45450D01*
X51102Y-45486D01*
X51196Y-45486D01*
X51283Y-45450D01*
X51350Y-45383D01*
X51386Y-45297D01*
X51386Y-45203D01*
X51350Y-45116D01*
X51283Y-45049D01*
X51197Y-45013D01*
X51103Y-45013D01*
X51036Y-45041D01*
X51036Y-41878D01*
X51000Y-41791D01*
X50953Y-41744D01*
X50953Y-41400D01*
X50953Y-40950D01*
X50953Y-40949D01*
X50953Y-40949D01*
X50941Y-40891D01*
X50908Y-40841D01*
X50908Y-40841D01*
X50783Y-40716D01*
X50733Y-40683D01*
X50724Y-40681D01*
X50675Y-40671D01*
X50674Y-40671D01*
X50225Y-40671D01*
X44655Y-40671D01*
X44608Y-40624D01*
X44522Y-40588D01*
X44428Y-40588D01*
X44341Y-40624D01*
X44274Y-40691D01*
X44238Y-40777D01*
X44238Y-40871D01*
X44274Y-40958D01*
X44341Y-41025D01*
X44427Y-41061D01*
X44521Y-41061D01*
X44608Y-41025D01*
X44655Y-40978D01*
X50225Y-40978D01*
X50611Y-40978D01*
X50646Y-41013D01*
X50646Y-41304D01*
X50533Y-41191D01*
X50483Y-41158D01*
X50474Y-41156D01*
X50425Y-41146D01*
X50424Y-41146D01*
X49375Y-41146D01*
X44655Y-41146D01*
X44608Y-41099D01*
X44522Y-41063D01*
X44428Y-41063D01*
X44341Y-41099D01*
X44274Y-41166D01*
X44238Y-41252D01*
X44238Y-41346D01*
X44274Y-41433D01*
X44341Y-41500D01*
X44427Y-41536D01*
X44521Y-41536D01*
X44608Y-41500D01*
X44655Y-41453D01*
X49375Y-41453D01*
X50361Y-41453D01*
X50396Y-41488D01*
X50396Y-42294D01*
X50349Y-42341D01*
X50313Y-42427D01*
X50313Y-42521D01*
X50349Y-42608D01*
X50416Y-42675D01*
X50502Y-42711D01*
X50596Y-42711D01*
X50683Y-42675D01*
X50750Y-42608D01*
X50786Y-42522D01*
X50786Y-42428D01*
X50750Y-42341D01*
X50703Y-42294D01*
X50703Y-42140D01*
X50752Y-42161D01*
X50846Y-42161D01*
X50933Y-42125D01*
X51000Y-42058D01*
X51036Y-41972D01*
X51036Y-41878D01*
X51036Y-45041D01*
X51016Y-45049D01*
X51003Y-45062D01*
X51003Y-44810D01*
X50986Y-44767D01*
X50952Y-44733D01*
X50909Y-44715D01*
X50862Y-44715D01*
X49090Y-44715D01*
X49047Y-44733D01*
X49014Y-44766D01*
X48996Y-44810D01*
X48996Y-44857D01*
X48996Y-45644D01*
X49013Y-45688D01*
X49020Y-45694D01*
X49007Y-45707D01*
X48988Y-45753D01*
X48988Y-45803D01*
X48988Y-46137D01*
X49019Y-46168D01*
X49996Y-46168D01*
X49996Y-46160D01*
X50003Y-46160D01*
X50003Y-46168D01*
X50011Y-46168D01*
X50011Y-46176D01*
X50003Y-46176D01*
X50003Y-46660D01*
X50035Y-46692D01*
X50910Y-46692D01*
X50957Y-46673D01*
X50971Y-46658D01*
X50971Y-47450D01*
X50971Y-49721D01*
X49996Y-49721D01*
X49996Y-46660D01*
X49996Y-46176D01*
X49019Y-46176D01*
X48988Y-46207D01*
X48988Y-46229D01*
X48978Y-46219D01*
X48978Y-43000D01*
X48978Y-42578D01*
X49244Y-42578D01*
X49291Y-42625D01*
X49377Y-42661D01*
X49471Y-42661D01*
X49558Y-42625D01*
X49625Y-42558D01*
X49661Y-42472D01*
X49661Y-42378D01*
X49625Y-42291D01*
X49558Y-42224D01*
X49472Y-42188D01*
X49378Y-42188D01*
X49291Y-42224D01*
X49244Y-42271D01*
X48900Y-42271D01*
X48841Y-42283D01*
X48791Y-42316D01*
X48791Y-42316D01*
X48716Y-42391D01*
X48683Y-42441D01*
X48681Y-42450D01*
X48671Y-42500D01*
X48671Y-42500D01*
X48671Y-43000D01*
X48671Y-46219D01*
X48662Y-46228D01*
X48653Y-46219D01*
X48653Y-42103D01*
X48800Y-42103D01*
X49244Y-42103D01*
X49291Y-42150D01*
X49377Y-42186D01*
X49471Y-42186D01*
X49558Y-42150D01*
X49625Y-42083D01*
X49661Y-41997D01*
X49661Y-41903D01*
X49625Y-41816D01*
X49558Y-41749D01*
X49472Y-41713D01*
X49378Y-41713D01*
X49291Y-41749D01*
X49244Y-41796D01*
X48800Y-41796D01*
X48600Y-41796D01*
X48550Y-41796D01*
X48491Y-41808D01*
X48441Y-41841D01*
X48391Y-41891D01*
X48358Y-41941D01*
X48356Y-41950D01*
X48346Y-42000D01*
X48346Y-42000D01*
X48346Y-42050D01*
X48346Y-46219D01*
X48299Y-46266D01*
X48263Y-46352D01*
X48263Y-46446D01*
X48299Y-46533D01*
X48366Y-46600D01*
X48452Y-46636D01*
X48546Y-46636D01*
X48633Y-46600D01*
X48662Y-46571D01*
X48691Y-46600D01*
X48777Y-46636D01*
X48871Y-46636D01*
X48958Y-46600D01*
X48988Y-46570D01*
X48988Y-46591D01*
X49007Y-46637D01*
X49042Y-46673D01*
X49089Y-46692D01*
X49964Y-46692D01*
X49996Y-46660D01*
X49996Y-49721D01*
X49449Y-49721D01*
X49449Y-47540D01*
X49447Y-47486D01*
X49428Y-47405D01*
X49428Y-47405D01*
X49406Y-47356D01*
X49357Y-47288D01*
X49357Y-47288D01*
X49318Y-47251D01*
X49247Y-47207D01*
X49247Y-47207D01*
X49197Y-47189D01*
X49115Y-47175D01*
X49115Y-47175D01*
X49061Y-47177D01*
X48980Y-47196D01*
X48980Y-47196D01*
X48931Y-47218D01*
X48863Y-47267D01*
X48863Y-47267D01*
X48826Y-47306D01*
X48782Y-47377D01*
X48782Y-47377D01*
X48764Y-47427D01*
X48750Y-47509D01*
X48752Y-47563D01*
X48771Y-47644D01*
X48771Y-47644D01*
X48793Y-47693D01*
X48842Y-47761D01*
X48842Y-47761D01*
X48881Y-47798D01*
X48952Y-47842D01*
X48952Y-47842D01*
X49002Y-47860D01*
X49084Y-47874D01*
X49084Y-47874D01*
X49138Y-47872D01*
X49219Y-47853D01*
X49219Y-47853D01*
X49268Y-47831D01*
X49336Y-47782D01*
X49336Y-47782D01*
X49373Y-47743D01*
X49417Y-47672D01*
X49417Y-47672D01*
X49435Y-47622D01*
X49449Y-47540D01*
X49449Y-47540D01*
X49449Y-49721D01*
X48576Y-49721D01*
X48586Y-49697D01*
X48586Y-49603D01*
X48550Y-49516D01*
X48503Y-49469D01*
X48503Y-47325D01*
X48491Y-47266D01*
X48458Y-47216D01*
X48458Y-47216D01*
X48383Y-47141D01*
X48333Y-47108D01*
X48324Y-47106D01*
X48275Y-47096D01*
X48274Y-47096D01*
X48250Y-47096D01*
X47905Y-47096D01*
X47858Y-47049D01*
X47772Y-47013D01*
X47678Y-47013D01*
X47591Y-47049D01*
X47544Y-47096D01*
X46105Y-47096D01*
X46058Y-47049D01*
X45972Y-47013D01*
X45878Y-47013D01*
X45791Y-47049D01*
X45744Y-47096D01*
X44197Y-47096D01*
X44223Y-47068D01*
X44267Y-46997D01*
X44267Y-46997D01*
X44285Y-46947D01*
X44299Y-46865D01*
X44299Y-46865D01*
X44297Y-46811D01*
X44278Y-46730D01*
X44278Y-46730D01*
X44256Y-46681D01*
X44207Y-46613D01*
X44207Y-46613D01*
X44168Y-46576D01*
X44097Y-46532D01*
X44097Y-46532D01*
X44047Y-46514D01*
X43965Y-46500D01*
X43965Y-46500D01*
X43911Y-46502D01*
X43830Y-46521D01*
X43830Y-46521D01*
X43781Y-46543D01*
X43778Y-46545D01*
X43778Y-44427D01*
X43802Y-44442D01*
X43802Y-44442D01*
X43852Y-44460D01*
X43934Y-44474D01*
X43934Y-44474D01*
X43988Y-44472D01*
X44069Y-44453D01*
X44069Y-44453D01*
X44118Y-44431D01*
X44186Y-44382D01*
X44186Y-44382D01*
X44223Y-44343D01*
X44267Y-44272D01*
X44267Y-44272D01*
X44285Y-44222D01*
X44299Y-44140D01*
X44299Y-44140D01*
X44297Y-44086D01*
X44278Y-44005D01*
X44278Y-44005D01*
X44256Y-43956D01*
X44254Y-43953D01*
X45281Y-43953D01*
X45091Y-44044D01*
X45048Y-44076D01*
X45048Y-44077D01*
X44680Y-44487D01*
X44653Y-44533D01*
X44652Y-44534D01*
X44470Y-45054D01*
X44462Y-45107D01*
X44462Y-45107D01*
X44492Y-45658D01*
X44505Y-45710D01*
X44506Y-45711D01*
X44744Y-46208D01*
X44776Y-46251D01*
X44777Y-46251D01*
X45187Y-46619D01*
X45233Y-46647D01*
X45234Y-46647D01*
X45754Y-46830D01*
X45807Y-46837D01*
X45808Y-46837D01*
X46358Y-46807D01*
X46410Y-46794D01*
X46411Y-46793D01*
X46884Y-46567D01*
X46896Y-46619D01*
X46896Y-46619D01*
X46918Y-46668D01*
X46967Y-46736D01*
X46967Y-46736D01*
X47006Y-46773D01*
X47077Y-46817D01*
X47077Y-46817D01*
X47127Y-46835D01*
X47209Y-46849D01*
X47209Y-46849D01*
X47263Y-46847D01*
X47344Y-46828D01*
X47344Y-46828D01*
X47393Y-46806D01*
X47461Y-46757D01*
X47461Y-46757D01*
X47498Y-46718D01*
X47542Y-46647D01*
X47542Y-46647D01*
X47560Y-46597D01*
X47574Y-46515D01*
X47574Y-46515D01*
X47572Y-46461D01*
X47553Y-46380D01*
X47553Y-46380D01*
X47531Y-46331D01*
X47482Y-46263D01*
X47482Y-46263D01*
X47443Y-46226D01*
X47372Y-46182D01*
X47372Y-46182D01*
X47322Y-46164D01*
X47279Y-46157D01*
X47319Y-46112D01*
X47347Y-46066D01*
X47347Y-46065D01*
X47530Y-45545D01*
X47537Y-45492D01*
X47537Y-45490D01*
X47507Y-44941D01*
X47494Y-44889D01*
X47493Y-44888D01*
X47280Y-44443D01*
X47344Y-44428D01*
X47344Y-44428D01*
X47393Y-44406D01*
X47461Y-44357D01*
X47461Y-44357D01*
X47498Y-44318D01*
X47542Y-44247D01*
X47542Y-44247D01*
X47560Y-44197D01*
X47574Y-44115D01*
X47574Y-44115D01*
X47572Y-44061D01*
X47553Y-43980D01*
X47553Y-43980D01*
X47541Y-43953D01*
X47668Y-43953D01*
X47716Y-44001D01*
X47802Y-44037D01*
X47896Y-44037D01*
X47983Y-44001D01*
X48050Y-43934D01*
X48086Y-43848D01*
X48086Y-43754D01*
X48050Y-43667D01*
X47983Y-43600D01*
X47897Y-43564D01*
X47803Y-43564D01*
X47716Y-43600D01*
X47670Y-43646D01*
X45157Y-43646D01*
X45208Y-43625D01*
X45275Y-43558D01*
X45311Y-43472D01*
X45311Y-43378D01*
X45275Y-43291D01*
X45208Y-43224D01*
X45122Y-43188D01*
X45028Y-43188D01*
X44941Y-43224D01*
X44894Y-43271D01*
X43778Y-43271D01*
X43778Y-42903D01*
X44919Y-42903D01*
X44941Y-42925D01*
X45027Y-42961D01*
X45121Y-42961D01*
X45208Y-42925D01*
X45275Y-42858D01*
X45311Y-42772D01*
X45311Y-42678D01*
X45275Y-42591D01*
X45208Y-42524D01*
X45122Y-42488D01*
X45028Y-42488D01*
X44941Y-42524D01*
X44874Y-42591D01*
X44872Y-42596D01*
X43700Y-42596D01*
X43641Y-42608D01*
X43637Y-42610D01*
X43637Y-40052D01*
X43702Y-40092D01*
X43702Y-40092D01*
X43752Y-40110D01*
X43834Y-40124D01*
X43834Y-40124D01*
X43888Y-40122D01*
X43969Y-40103D01*
X43969Y-40103D01*
X44018Y-40081D01*
X44086Y-40032D01*
X44086Y-40032D01*
X44123Y-39993D01*
X44167Y-39922D01*
X44167Y-39922D01*
X44185Y-39872D01*
X44199Y-39790D01*
X44199Y-39790D01*
X44197Y-39736D01*
X44178Y-39655D01*
X44178Y-39655D01*
X44156Y-39606D01*
X44107Y-39538D01*
X44107Y-39538D01*
X44068Y-39501D01*
X43997Y-39457D01*
X43997Y-39457D01*
X43947Y-39439D01*
X43865Y-39425D01*
X43865Y-39425D01*
X43811Y-39427D01*
X43730Y-39446D01*
X43730Y-39446D01*
X43681Y-39468D01*
X43637Y-39499D01*
X43637Y-32944D01*
X43677Y-32961D01*
X43771Y-32961D01*
X43858Y-32925D01*
X43905Y-32878D01*
X45675Y-32878D01*
X45919Y-32878D01*
X45888Y-32952D01*
X45888Y-33046D01*
X45924Y-33133D01*
X45991Y-33200D01*
X46077Y-33236D01*
X46171Y-33236D01*
X46258Y-33200D01*
X46305Y-33153D01*
X46394Y-33153D01*
X46441Y-33200D01*
X46527Y-33236D01*
X46621Y-33236D01*
X46708Y-33200D01*
X46775Y-33133D01*
X46811Y-33047D01*
X46811Y-32953D01*
X46775Y-32866D01*
X46708Y-32799D01*
X46622Y-32763D01*
X46528Y-32763D01*
X46441Y-32799D01*
X46394Y-32846D01*
X46305Y-32846D01*
X46258Y-32799D01*
X46172Y-32763D01*
X46103Y-32763D01*
X46108Y-32758D01*
X46108Y-32758D01*
X46108Y-32758D01*
X46141Y-32708D01*
X46153Y-32650D01*
X46153Y-32400D01*
X46153Y-29694D01*
X46239Y-29659D01*
X46358Y-29540D01*
X46423Y-29384D01*
X46423Y-29216D01*
X46359Y-29060D01*
X46240Y-28941D01*
X46231Y-28937D01*
X51300Y-28937D01*
X51352Y-28927D01*
X51397Y-28897D01*
X51427Y-28852D01*
X51437Y-28800D01*
X51437Y-26737D01*
X55282Y-26737D01*
X55257Y-26777D01*
X55257Y-26777D01*
X55239Y-26827D01*
X55225Y-26909D01*
X55227Y-26963D01*
X55246Y-27044D01*
X55246Y-27044D01*
X55268Y-27093D01*
X55317Y-27161D01*
X55317Y-27161D01*
X55356Y-27198D01*
X55427Y-27242D01*
X55427Y-27242D01*
X55477Y-27260D01*
X55559Y-27274D01*
X55559Y-27274D01*
X55613Y-27272D01*
X55694Y-27253D01*
X55694Y-27253D01*
X55743Y-27231D01*
X55811Y-27182D01*
X55811Y-27182D01*
X55848Y-27143D01*
X55892Y-27072D01*
X55892Y-27072D01*
X55910Y-27022D01*
X55924Y-26940D01*
X55924Y-26940D01*
X55922Y-26886D01*
X55903Y-26805D01*
X55903Y-26805D01*
X55881Y-26756D01*
X55868Y-26737D01*
X56891Y-26737D01*
X56882Y-26752D01*
X56882Y-26752D01*
X56864Y-26802D01*
X56850Y-26884D01*
X56852Y-26938D01*
X56871Y-27019D01*
X56871Y-27019D01*
X56893Y-27068D01*
X56942Y-27136D01*
X56942Y-27136D01*
X56981Y-27173D01*
X57052Y-27217D01*
X57052Y-27217D01*
X57102Y-27235D01*
X57184Y-27249D01*
X57184Y-27249D01*
X57238Y-27247D01*
X57319Y-27228D01*
X57319Y-27228D01*
X57368Y-27206D01*
X57436Y-27157D01*
X57436Y-27157D01*
X57473Y-27118D01*
X57517Y-27047D01*
X57517Y-27047D01*
X57535Y-26997D01*
X57549Y-26915D01*
X57549Y-26915D01*
X57547Y-26861D01*
X57528Y-26780D01*
X57528Y-26780D01*
X57509Y-26737D01*
X60962Y-26737D01*
X60962Y-27497D01*
X60903Y-27412D01*
X60798Y-27344D01*
X60732Y-27325D01*
X60682Y-27352D01*
X60682Y-27748D01*
X60690Y-27748D01*
X60690Y-27756D01*
X60682Y-27756D01*
X60682Y-28151D01*
X60732Y-28178D01*
X60798Y-28160D01*
X60903Y-28091D01*
X60962Y-28006D01*
X60962Y-28800D01*
X60972Y-28852D01*
X61002Y-28897D01*
X61047Y-28927D01*
X61100Y-28937D01*
X66051Y-28937D01*
X66044Y-28942D01*
X66014Y-29008D01*
X66300Y-29294D01*
X66585Y-29008D01*
X66555Y-28942D01*
X66545Y-28937D01*
X67268Y-28937D01*
X67260Y-28940D01*
X67141Y-29059D01*
X67076Y-29215D01*
X67076Y-29383D01*
X67140Y-29539D01*
X67259Y-29658D01*
X67415Y-29723D01*
X67583Y-29723D01*
X67739Y-29659D01*
X67858Y-29540D01*
X67894Y-29453D01*
X68046Y-29453D01*
X68046Y-30550D01*
X68046Y-30575D01*
X68046Y-32684D01*
X67997Y-32663D01*
X67903Y-32663D01*
X67816Y-32699D01*
X67749Y-32766D01*
X67713Y-32852D01*
X67713Y-32946D01*
X67749Y-33033D01*
X67796Y-33080D01*
X67796Y-38975D01*
X67796Y-39057D01*
X67782Y-39038D01*
X67782Y-39038D01*
X67743Y-39001D01*
X67672Y-38957D01*
X67672Y-38957D01*
X67622Y-38939D01*
X67540Y-38925D01*
X67540Y-38925D01*
X67486Y-38927D01*
X67405Y-38946D01*
X67405Y-38946D01*
X67356Y-38968D01*
X67303Y-39006D01*
X67303Y-35550D01*
X67291Y-35491D01*
X67258Y-35441D01*
X67258Y-35441D01*
X67183Y-35366D01*
X67133Y-35333D01*
X67124Y-35331D01*
X67076Y-35321D01*
X67086Y-35297D01*
X67086Y-35286D01*
X67146Y-35286D01*
X67233Y-35250D01*
X67300Y-35183D01*
X67336Y-35097D01*
X67336Y-35086D01*
X67396Y-35086D01*
X67483Y-35050D01*
X67550Y-34983D01*
X67586Y-34897D01*
X67586Y-34803D01*
X67574Y-34774D01*
X67633Y-34750D01*
X67700Y-34683D01*
X67736Y-34597D01*
X67736Y-34503D01*
X67700Y-34416D01*
X67633Y-34349D01*
X67574Y-34325D01*
X67586Y-34297D01*
X67586Y-34203D01*
X67550Y-34116D01*
X67524Y-34090D01*
X67524Y-33365D01*
X67522Y-33311D01*
X67503Y-33230D01*
X67503Y-33230D01*
X67481Y-33181D01*
X67432Y-33113D01*
X67432Y-33113D01*
X67393Y-33076D01*
X67323Y-33033D01*
X67323Y-30116D01*
X67259Y-29960D01*
X67140Y-29841D01*
X66984Y-29776D01*
X66816Y-29776D01*
X66733Y-29810D01*
X66733Y-29227D01*
X66672Y-29066D01*
X66657Y-29044D01*
X66591Y-29014D01*
X66305Y-29300D01*
X66591Y-29585D01*
X66657Y-29555D01*
X66728Y-29398D01*
X66733Y-29227D01*
X66733Y-29810D01*
X66660Y-29840D01*
X66541Y-29959D01*
X66476Y-30115D01*
X66476Y-30283D01*
X66540Y-30439D01*
X66659Y-30558D01*
X66815Y-30623D01*
X66983Y-30623D01*
X67139Y-30559D01*
X67258Y-30440D01*
X67323Y-30284D01*
X67323Y-30116D01*
X67323Y-33033D01*
X67322Y-33032D01*
X67322Y-33032D01*
X67272Y-33014D01*
X67190Y-33000D01*
X67190Y-33000D01*
X67136Y-33002D01*
X67055Y-33021D01*
X67055Y-33021D01*
X67006Y-33043D01*
X66938Y-33092D01*
X66938Y-33092D01*
X66901Y-33131D01*
X66857Y-33202D01*
X66857Y-33202D01*
X66839Y-33252D01*
X66825Y-33334D01*
X66827Y-33388D01*
X66846Y-33469D01*
X66846Y-33469D01*
X66868Y-33518D01*
X66917Y-33586D01*
X66917Y-33586D01*
X66956Y-33623D01*
X67027Y-33667D01*
X67027Y-33667D01*
X67077Y-33685D01*
X67159Y-33699D01*
X67159Y-33699D01*
X67213Y-33697D01*
X67294Y-33678D01*
X67294Y-33678D01*
X67343Y-33656D01*
X67411Y-33607D01*
X67411Y-33607D01*
X67448Y-33568D01*
X67492Y-33497D01*
X67492Y-33497D01*
X67510Y-33447D01*
X67524Y-33365D01*
X67524Y-33365D01*
X67524Y-34090D01*
X67483Y-34049D01*
X67397Y-34013D01*
X67336Y-34013D01*
X67336Y-34003D01*
X67300Y-33916D01*
X67233Y-33849D01*
X67147Y-33813D01*
X67086Y-33813D01*
X67086Y-33803D01*
X67050Y-33716D01*
X66983Y-33649D01*
X66897Y-33613D01*
X66836Y-33613D01*
X66836Y-33603D01*
X66800Y-33516D01*
X66733Y-33449D01*
X66647Y-33413D01*
X66553Y-33413D01*
X66466Y-33449D01*
X66399Y-33516D01*
X66366Y-33596D01*
X63749Y-33596D01*
X63749Y-32415D01*
X63747Y-32361D01*
X63728Y-32280D01*
X63728Y-32280D01*
X63706Y-32231D01*
X63657Y-32163D01*
X63657Y-32163D01*
X63618Y-32126D01*
X63547Y-32082D01*
X63547Y-32082D01*
X63497Y-32064D01*
X63415Y-32050D01*
X63415Y-32050D01*
X63361Y-32052D01*
X63280Y-32071D01*
X63280Y-32071D01*
X63231Y-32093D01*
X63163Y-32142D01*
X63163Y-32142D01*
X63126Y-32181D01*
X63082Y-32252D01*
X63082Y-32252D01*
X63064Y-32302D01*
X63050Y-32384D01*
X63052Y-32438D01*
X63071Y-32519D01*
X63071Y-32519D01*
X63093Y-32568D01*
X63142Y-32636D01*
X63142Y-32636D01*
X63181Y-32673D01*
X63252Y-32717D01*
X63252Y-32717D01*
X63302Y-32735D01*
X63384Y-32749D01*
X63384Y-32749D01*
X63438Y-32747D01*
X63519Y-32728D01*
X63519Y-32728D01*
X63568Y-32706D01*
X63636Y-32657D01*
X63636Y-32657D01*
X63673Y-32618D01*
X63717Y-32547D01*
X63717Y-32547D01*
X63735Y-32497D01*
X63749Y-32415D01*
X63749Y-32415D01*
X63749Y-33596D01*
X62563Y-33596D01*
X62508Y-33541D01*
X62458Y-33508D01*
X62449Y-33506D01*
X62400Y-33496D01*
X62399Y-33496D01*
X62002Y-33496D01*
X62000Y-33491D01*
X61933Y-33424D01*
X61847Y-33388D01*
X61753Y-33388D01*
X61666Y-33424D01*
X61599Y-33491D01*
X61563Y-33577D01*
X61563Y-33671D01*
X61573Y-33696D01*
X61437Y-33696D01*
X61425Y-33666D01*
X61358Y-33599D01*
X61272Y-33563D01*
X61178Y-33563D01*
X61091Y-33599D01*
X61024Y-33666D01*
X60988Y-33752D01*
X60988Y-33813D01*
X60978Y-33813D01*
X60891Y-33849D01*
X60824Y-33916D01*
X60788Y-34002D01*
X60788Y-34096D01*
X60824Y-34183D01*
X60891Y-34250D01*
X60977Y-34286D01*
X61071Y-34286D01*
X61158Y-34250D01*
X61205Y-34203D01*
X61834Y-34203D01*
X61813Y-34252D01*
X61813Y-34346D01*
X61834Y-34396D01*
X61687Y-34396D01*
X61675Y-34366D01*
X61608Y-34299D01*
X61522Y-34263D01*
X61428Y-34263D01*
X61341Y-34299D01*
X61274Y-34366D01*
X61238Y-34452D01*
X61238Y-34546D01*
X61248Y-34571D01*
X61150Y-34571D01*
X60977Y-34571D01*
X60975Y-34566D01*
X60908Y-34499D01*
X60822Y-34463D01*
X60728Y-34463D01*
X60641Y-34499D01*
X60574Y-34566D01*
X60538Y-34652D01*
X60538Y-34746D01*
X60554Y-34783D01*
X60250Y-34783D01*
X60237Y-34783D01*
X60092Y-34783D01*
X60033Y-34724D01*
X59947Y-34688D01*
X59853Y-34688D01*
X59766Y-34724D01*
X59699Y-34791D01*
X59663Y-34877D01*
X59663Y-34971D01*
X59699Y-35058D01*
X59766Y-35125D01*
X59852Y-35161D01*
X59946Y-35161D01*
X60033Y-35125D01*
X60068Y-35091D01*
X60237Y-35091D01*
X60250Y-35091D01*
X62064Y-35091D01*
X62038Y-35152D01*
X62038Y-35246D01*
X62074Y-35333D01*
X62141Y-35400D01*
X62161Y-35408D01*
X60342Y-35408D01*
X60283Y-35349D01*
X60197Y-35313D01*
X60103Y-35313D01*
X60016Y-35349D01*
X59949Y-35416D01*
X59913Y-35502D01*
X59913Y-35596D01*
X59949Y-35683D01*
X59962Y-35696D01*
X59630Y-35696D01*
X59583Y-35649D01*
X59497Y-35613D01*
X59403Y-35613D01*
X59316Y-35649D01*
X59249Y-35716D01*
X59213Y-35802D01*
X59213Y-35896D01*
X59249Y-35983D01*
X59316Y-36050D01*
X59402Y-36086D01*
X59496Y-36086D01*
X59583Y-36050D01*
X59630Y-36003D01*
X59975Y-36003D01*
X60159Y-36003D01*
X60138Y-36052D01*
X60138Y-36146D01*
X60148Y-36171D01*
X59975Y-36171D01*
X59855Y-36171D01*
X59808Y-36124D01*
X59722Y-36088D01*
X59628Y-36088D01*
X59541Y-36124D01*
X59474Y-36191D01*
X59438Y-36277D01*
X59438Y-36371D01*
X59474Y-36458D01*
X59541Y-36525D01*
X59627Y-36561D01*
X59721Y-36561D01*
X59808Y-36525D01*
X59855Y-36478D01*
X59975Y-36478D01*
X60373Y-36478D01*
X60363Y-36502D01*
X60363Y-36596D01*
X60399Y-36683D01*
X60466Y-36750D01*
X60552Y-36786D01*
X60646Y-36786D01*
X60733Y-36750D01*
X60800Y-36683D01*
X60812Y-36653D01*
X61100Y-36653D01*
X66384Y-36653D01*
X66363Y-36702D01*
X66363Y-36720D01*
X66347Y-36713D01*
X66253Y-36713D01*
X66166Y-36749D01*
X66119Y-36796D01*
X62655Y-36796D01*
X62608Y-36749D01*
X62522Y-36713D01*
X62428Y-36713D01*
X62341Y-36749D01*
X62274Y-36816D01*
X62238Y-36902D01*
X62238Y-36996D01*
X62274Y-37083D01*
X62341Y-37150D01*
X62427Y-37186D01*
X62521Y-37186D01*
X62608Y-37150D01*
X62655Y-37103D01*
X66119Y-37103D01*
X66166Y-37150D01*
X66252Y-37186D01*
X66346Y-37186D01*
X66433Y-37150D01*
X66446Y-37137D01*
X66446Y-38746D01*
X66386Y-38746D01*
X66386Y-37628D01*
X66350Y-37541D01*
X66283Y-37474D01*
X66197Y-37438D01*
X66103Y-37438D01*
X66016Y-37474D01*
X65969Y-37521D01*
X57555Y-37521D01*
X57508Y-37474D01*
X57422Y-37438D01*
X57328Y-37438D01*
X57241Y-37474D01*
X57174Y-37541D01*
X57138Y-37627D01*
X57138Y-37721D01*
X57174Y-37808D01*
X57241Y-37875D01*
X57327Y-37911D01*
X57421Y-37911D01*
X57508Y-37875D01*
X57555Y-37828D01*
X65969Y-37828D01*
X66016Y-37875D01*
X66102Y-37911D01*
X66196Y-37911D01*
X66283Y-37875D01*
X66350Y-37808D01*
X66386Y-37722D01*
X66386Y-37628D01*
X66386Y-38746D01*
X64987Y-38746D01*
X65050Y-38683D01*
X65086Y-38597D01*
X65086Y-38503D01*
X65050Y-38416D01*
X64983Y-38349D01*
X64897Y-38313D01*
X64861Y-38313D01*
X64861Y-38278D01*
X64825Y-38191D01*
X64758Y-38124D01*
X64672Y-38088D01*
X64649Y-38088D01*
X64649Y-38039D01*
X64613Y-37952D01*
X64547Y-37886D01*
X64460Y-37850D01*
X64366Y-37850D01*
X64279Y-37886D01*
X64219Y-37946D01*
X59325Y-37946D01*
X59025Y-37946D01*
X58030Y-37946D01*
X57983Y-37899D01*
X57897Y-37863D01*
X57803Y-37863D01*
X57716Y-37899D01*
X57649Y-37966D01*
X57613Y-38052D01*
X57613Y-38146D01*
X57649Y-38233D01*
X57716Y-38300D01*
X57802Y-38336D01*
X57838Y-38336D01*
X57838Y-38371D01*
X57874Y-38458D01*
X57941Y-38525D01*
X58027Y-38561D01*
X58121Y-38561D01*
X58208Y-38525D01*
X58255Y-38478D01*
X58998Y-38478D01*
X58988Y-38502D01*
X58988Y-38596D01*
X59024Y-38683D01*
X59087Y-38746D01*
X57780Y-38746D01*
X57733Y-38699D01*
X57647Y-38663D01*
X57553Y-38663D01*
X57466Y-38699D01*
X57399Y-38766D01*
X57363Y-38852D01*
X57363Y-38946D01*
X57399Y-39033D01*
X57466Y-39100D01*
X57552Y-39136D01*
X57646Y-39136D01*
X57733Y-39100D01*
X57780Y-39053D01*
X59375Y-39053D01*
X66524Y-39053D01*
X66525Y-39053D01*
X66525Y-39053D01*
X66574Y-39043D01*
X66583Y-39041D01*
X66583Y-39041D01*
X66633Y-39008D01*
X66708Y-38933D01*
X66708Y-38933D01*
X66708Y-38933D01*
X66741Y-38883D01*
X66753Y-38825D01*
X66753Y-36930D01*
X66800Y-36883D01*
X66836Y-36797D01*
X66836Y-36736D01*
X66846Y-36736D01*
X66933Y-36700D01*
X66996Y-36637D01*
X66996Y-39225D01*
X66996Y-39296D01*
X66925Y-39296D01*
X62805Y-39296D01*
X62758Y-39249D01*
X62672Y-39213D01*
X62578Y-39213D01*
X62491Y-39249D01*
X62424Y-39316D01*
X62388Y-39402D01*
X62388Y-39496D01*
X62424Y-39583D01*
X62491Y-39650D01*
X62577Y-39686D01*
X62671Y-39686D01*
X62758Y-39650D01*
X62805Y-39603D01*
X65167Y-39603D01*
X65116Y-39624D01*
X65049Y-39691D01*
X65013Y-39777D01*
X65013Y-39871D01*
X65023Y-39896D01*
X58250Y-39896D01*
X57288Y-39896D01*
X57278Y-39886D01*
X57278Y-39105D01*
X57325Y-39058D01*
X57361Y-38972D01*
X57361Y-38878D01*
X57325Y-38791D01*
X57258Y-38724D01*
X57172Y-38688D01*
X57078Y-38688D01*
X57003Y-38719D01*
X57003Y-35315D01*
X57052Y-35336D01*
X57146Y-35336D01*
X57233Y-35300D01*
X57300Y-35233D01*
X57336Y-35147D01*
X57336Y-35053D01*
X57300Y-34966D01*
X57253Y-34919D01*
X57253Y-33455D01*
X57300Y-33408D01*
X57336Y-33322D01*
X57336Y-33228D01*
X57300Y-33141D01*
X57233Y-33074D01*
X57147Y-33038D01*
X57053Y-33038D01*
X57003Y-33059D01*
X57003Y-30225D01*
X57003Y-30224D01*
X57003Y-30224D01*
X56991Y-30166D01*
X56958Y-30116D01*
X56958Y-30116D01*
X56833Y-29991D01*
X56783Y-29958D01*
X56774Y-29956D01*
X56725Y-29946D01*
X56724Y-29946D01*
X55762Y-29946D01*
X55780Y-29928D01*
X59846Y-29928D01*
X59846Y-31744D01*
X59799Y-31791D01*
X59763Y-31877D01*
X59763Y-31971D01*
X59799Y-32058D01*
X59866Y-32125D01*
X59952Y-32161D01*
X60046Y-32161D01*
X60133Y-32125D01*
X60200Y-32058D01*
X60236Y-31972D01*
X60236Y-31878D01*
X60200Y-31791D01*
X60153Y-31744D01*
X60153Y-29928D01*
X60375Y-29928D01*
X61179Y-29928D01*
X61176Y-29931D01*
X61132Y-30002D01*
X61132Y-30002D01*
X61114Y-30052D01*
X61100Y-30134D01*
X61102Y-30188D01*
X61121Y-30269D01*
X61121Y-30269D01*
X61143Y-30318D01*
X61192Y-30386D01*
X61192Y-30386D01*
X61231Y-30423D01*
X61302Y-30467D01*
X61302Y-30467D01*
X61352Y-30485D01*
X61434Y-30499D01*
X61434Y-30499D01*
X61488Y-30497D01*
X61569Y-30478D01*
X61569Y-30478D01*
X61618Y-30456D01*
X61686Y-30407D01*
X61686Y-30407D01*
X61723Y-30368D01*
X61767Y-30297D01*
X61767Y-30297D01*
X61785Y-30247D01*
X61799Y-30165D01*
X61799Y-30165D01*
X61797Y-30111D01*
X61778Y-30030D01*
X61778Y-30030D01*
X61756Y-29981D01*
X61718Y-29928D01*
X65769Y-29928D01*
X65816Y-29975D01*
X65902Y-30011D01*
X65996Y-30011D01*
X66083Y-29975D01*
X66150Y-29908D01*
X66186Y-29822D01*
X66186Y-29728D01*
X66182Y-29720D01*
X66201Y-29728D01*
X66372Y-29733D01*
X66533Y-29672D01*
X66555Y-29657D01*
X66585Y-29591D01*
X66300Y-29305D01*
X66294Y-29311D01*
X66288Y-29305D01*
X66294Y-29300D01*
X66008Y-29014D01*
X65942Y-29044D01*
X65871Y-29201D01*
X65866Y-29372D01*
X65927Y-29533D01*
X65931Y-29538D01*
X65903Y-29538D01*
X65816Y-29574D01*
X65769Y-29621D01*
X60674Y-29621D01*
X60674Y-28151D01*
X60674Y-27756D01*
X60674Y-27748D01*
X60674Y-27352D01*
X60623Y-27325D01*
X60558Y-27344D01*
X60452Y-27412D01*
X60381Y-27516D01*
X60355Y-27639D01*
X60355Y-27748D01*
X60674Y-27748D01*
X60674Y-27756D01*
X60355Y-27756D01*
X60355Y-27864D01*
X60381Y-27987D01*
X60452Y-28091D01*
X60558Y-28160D01*
X60623Y-28178D01*
X60674Y-28151D01*
X60674Y-29621D01*
X60652Y-29621D01*
X60652Y-28868D01*
X60652Y-28762D01*
X60634Y-28699D01*
X60567Y-28596D01*
X60467Y-28527D01*
X60347Y-28502D01*
X60288Y-28502D01*
X60288Y-28811D01*
X60625Y-28811D01*
X60652Y-28762D01*
X60652Y-28868D01*
X60625Y-28819D01*
X60288Y-28819D01*
X60288Y-29128D01*
X60347Y-29128D01*
X60467Y-29102D01*
X60567Y-29033D01*
X60634Y-28931D01*
X60652Y-28868D01*
X60652Y-29621D01*
X60375Y-29621D01*
X60280Y-29621D01*
X60280Y-29128D01*
X60280Y-28819D01*
X60280Y-28811D01*
X60280Y-28502D01*
X60221Y-28502D01*
X60102Y-28527D01*
X60001Y-28596D01*
X59934Y-28699D01*
X59917Y-28762D01*
X59944Y-28811D01*
X60280Y-28811D01*
X60280Y-28819D01*
X59944Y-28819D01*
X59917Y-28868D01*
X59934Y-28931D01*
X60001Y-29033D01*
X60102Y-29102D01*
X60221Y-29128D01*
X60280Y-29128D01*
X60280Y-29621D01*
X60000Y-29621D01*
X58683Y-29621D01*
X58683Y-28868D01*
X58683Y-28762D01*
X58665Y-28699D01*
X58599Y-28596D01*
X58498Y-28527D01*
X58379Y-28502D01*
X58320Y-28502D01*
X58320Y-28811D01*
X58656Y-28811D01*
X58683Y-28762D01*
X58683Y-28868D01*
X58656Y-28819D01*
X58320Y-28819D01*
X58320Y-29128D01*
X58379Y-29128D01*
X58498Y-29102D01*
X58599Y-29033D01*
X58665Y-28931D01*
X58683Y-28868D01*
X58683Y-29621D01*
X58312Y-29621D01*
X58312Y-29128D01*
X58312Y-28819D01*
X58312Y-28811D01*
X58312Y-28502D01*
X58253Y-28502D01*
X58245Y-28503D01*
X58245Y-27864D01*
X58245Y-27756D01*
X58245Y-27748D01*
X58245Y-27639D01*
X58219Y-27516D01*
X58147Y-27412D01*
X58042Y-27344D01*
X57976Y-27325D01*
X57926Y-27352D01*
X57926Y-27748D01*
X58245Y-27748D01*
X58245Y-27756D01*
X57926Y-27756D01*
X57926Y-28151D01*
X57976Y-28178D01*
X58042Y-28160D01*
X58147Y-28091D01*
X58219Y-27987D01*
X58245Y-27864D01*
X58245Y-28503D01*
X58133Y-28527D01*
X58032Y-28596D01*
X57966Y-28699D01*
X57948Y-28762D01*
X57975Y-28811D01*
X58312Y-28811D01*
X58312Y-28819D01*
X57975Y-28819D01*
X57948Y-28868D01*
X57966Y-28931D01*
X58032Y-29033D01*
X58133Y-29102D01*
X58253Y-29128D01*
X58312Y-29128D01*
X58312Y-29621D01*
X57918Y-29621D01*
X57918Y-28151D01*
X57918Y-27756D01*
X57918Y-27748D01*
X57918Y-27352D01*
X57868Y-27325D01*
X57802Y-27344D01*
X57696Y-27412D01*
X57625Y-27516D01*
X57599Y-27639D01*
X57599Y-27748D01*
X57918Y-27748D01*
X57918Y-27756D01*
X57599Y-27756D01*
X57599Y-27864D01*
X57625Y-27987D01*
X57696Y-28091D01*
X57802Y-28160D01*
X57868Y-28178D01*
X57918Y-28151D01*
X57918Y-29621D01*
X55780Y-29621D01*
X55733Y-29574D01*
X55647Y-29538D01*
X55553Y-29538D01*
X55466Y-29574D01*
X55419Y-29621D01*
X54000Y-29621D01*
X53713Y-29621D01*
X53713Y-27825D01*
X53650Y-27673D01*
X53534Y-27556D01*
X53382Y-27493D01*
X53218Y-27493D01*
X53066Y-27556D01*
X52949Y-27672D01*
X52886Y-27824D01*
X52886Y-27988D01*
X52949Y-28140D01*
X53065Y-28257D01*
X53217Y-28320D01*
X53381Y-28320D01*
X53533Y-28257D01*
X53650Y-28141D01*
X53713Y-27989D01*
X53713Y-27825D01*
X53713Y-29621D01*
X51135Y-29621D01*
X51168Y-29606D01*
X51236Y-29557D01*
X51236Y-29557D01*
X51273Y-29518D01*
X51317Y-29447D01*
X51317Y-29447D01*
X51335Y-29397D01*
X51349Y-29315D01*
X51349Y-29315D01*
X51347Y-29261D01*
X51328Y-29180D01*
X51328Y-29180D01*
X51306Y-29131D01*
X51257Y-29063D01*
X51257Y-29063D01*
X51218Y-29026D01*
X51147Y-28982D01*
X51147Y-28982D01*
X51097Y-28964D01*
X51015Y-28950D01*
X51015Y-28950D01*
X50961Y-28952D01*
X50880Y-28971D01*
X50880Y-28971D01*
X50831Y-28993D01*
X50763Y-29042D01*
X50763Y-29042D01*
X50726Y-29081D01*
X50682Y-29152D01*
X50682Y-29152D01*
X50664Y-29202D01*
X50650Y-29284D01*
X50652Y-29338D01*
X50671Y-29419D01*
X50671Y-29419D01*
X50693Y-29468D01*
X50742Y-29536D01*
X50742Y-29536D01*
X50781Y-29573D01*
X50852Y-29617D01*
X50852Y-29617D01*
X50863Y-29621D01*
X50175Y-29621D01*
X49150Y-29621D01*
X48010Y-29621D01*
X48043Y-29606D01*
X48111Y-29557D01*
X48111Y-29557D01*
X48148Y-29518D01*
X48192Y-29447D01*
X48192Y-29447D01*
X48210Y-29397D01*
X48224Y-29315D01*
X48224Y-29315D01*
X48222Y-29261D01*
X48203Y-29180D01*
X48203Y-29180D01*
X48181Y-29131D01*
X48132Y-29063D01*
X48132Y-29063D01*
X48093Y-29026D01*
X48022Y-28982D01*
X48022Y-28982D01*
X47972Y-28964D01*
X47890Y-28950D01*
X47890Y-28950D01*
X47836Y-28952D01*
X47755Y-28971D01*
X47755Y-28971D01*
X47706Y-28993D01*
X47638Y-29042D01*
X47638Y-29042D01*
X47601Y-29081D01*
X47557Y-29152D01*
X47557Y-29152D01*
X47539Y-29202D01*
X47525Y-29284D01*
X47527Y-29338D01*
X47546Y-29419D01*
X47546Y-29419D01*
X47568Y-29468D01*
X47617Y-29536D01*
X47617Y-29536D01*
X47656Y-29573D01*
X47727Y-29617D01*
X47727Y-29617D01*
X47738Y-29621D01*
X47325Y-29621D01*
X47266Y-29633D01*
X47216Y-29666D01*
X47166Y-29716D01*
X47133Y-29766D01*
X47131Y-29775D01*
X47121Y-29825D01*
X47121Y-29825D01*
X47121Y-29894D01*
X47074Y-29941D01*
X47038Y-30027D01*
X47038Y-30121D01*
X47074Y-30208D01*
X47141Y-30275D01*
X47227Y-30311D01*
X47321Y-30311D01*
X47408Y-30275D01*
X47475Y-30208D01*
X47511Y-30122D01*
X47511Y-30028D01*
X47475Y-29941D01*
X47462Y-29928D01*
X49150Y-29928D01*
X50021Y-29928D01*
X50021Y-30125D01*
X50021Y-30694D01*
X49974Y-30741D01*
X49938Y-30827D01*
X49938Y-30921D01*
X49974Y-31008D01*
X50041Y-31075D01*
X50127Y-31111D01*
X50221Y-31111D01*
X50308Y-31075D01*
X50375Y-31008D01*
X50411Y-30922D01*
X50411Y-30828D01*
X50375Y-30741D01*
X50328Y-30694D01*
X50328Y-30125D01*
X50328Y-29928D01*
X51762Y-29928D01*
X51724Y-29966D01*
X51688Y-30052D01*
X51688Y-30146D01*
X51724Y-30233D01*
X51791Y-30300D01*
X51877Y-30336D01*
X51971Y-30336D01*
X52058Y-30300D01*
X52105Y-30253D01*
X53208Y-30253D01*
X53066Y-30312D01*
X52949Y-30428D01*
X52886Y-30580D01*
X52886Y-30744D01*
X52949Y-30896D01*
X53065Y-31013D01*
X53217Y-31076D01*
X53381Y-31076D01*
X53533Y-31013D01*
X53650Y-30897D01*
X53713Y-30745D01*
X53713Y-30581D01*
X53650Y-30429D01*
X53534Y-30312D01*
X53391Y-30253D01*
X56661Y-30253D01*
X56696Y-30288D01*
X56696Y-30504D01*
X56683Y-30491D01*
X56633Y-30458D01*
X56624Y-30456D01*
X56575Y-30446D01*
X56574Y-30446D01*
X55455Y-30446D01*
X55408Y-30399D01*
X55322Y-30363D01*
X55228Y-30363D01*
X55141Y-30399D01*
X55074Y-30466D01*
X55038Y-30552D01*
X55038Y-30646D01*
X55074Y-30733D01*
X55141Y-30800D01*
X55227Y-30836D01*
X55321Y-30836D01*
X55408Y-30800D01*
X55455Y-30753D01*
X56511Y-30753D01*
X56546Y-30788D01*
X56546Y-34383D01*
X56508Y-34358D01*
X56499Y-34356D01*
X56450Y-34346D01*
X56449Y-34346D01*
X56374Y-34346D01*
X56374Y-31190D01*
X56372Y-31136D01*
X56353Y-31055D01*
X56353Y-31055D01*
X56331Y-31006D01*
X56282Y-30938D01*
X56282Y-30938D01*
X56243Y-30901D01*
X56172Y-30857D01*
X56172Y-30857D01*
X56122Y-30839D01*
X56040Y-30825D01*
X56040Y-30825D01*
X55986Y-30827D01*
X55905Y-30846D01*
X55905Y-30846D01*
X55856Y-30868D01*
X55788Y-30917D01*
X55788Y-30917D01*
X55751Y-30956D01*
X55707Y-31027D01*
X55707Y-31027D01*
X55689Y-31077D01*
X55675Y-31159D01*
X55677Y-31213D01*
X55696Y-31294D01*
X55696Y-31294D01*
X55718Y-31343D01*
X55767Y-31411D01*
X55767Y-31411D01*
X55806Y-31448D01*
X55877Y-31492D01*
X55877Y-31492D01*
X55927Y-31510D01*
X56009Y-31524D01*
X56009Y-31524D01*
X56063Y-31522D01*
X56144Y-31503D01*
X56144Y-31503D01*
X56193Y-31481D01*
X56261Y-31432D01*
X56261Y-31432D01*
X56298Y-31393D01*
X56342Y-31322D01*
X56342Y-31322D01*
X56360Y-31272D01*
X56374Y-31190D01*
X56374Y-31190D01*
X56374Y-34346D01*
X47630Y-34346D01*
X47583Y-34299D01*
X47497Y-34263D01*
X47403Y-34263D01*
X47316Y-34299D01*
X47249Y-34366D01*
X47213Y-34452D01*
X47213Y-34546D01*
X47234Y-34596D01*
X45325Y-34596D01*
X45280Y-34596D01*
X45233Y-34549D01*
X45147Y-34513D01*
X45053Y-34513D01*
X44966Y-34549D01*
X44899Y-34616D01*
X44863Y-34702D01*
X44863Y-34796D01*
X44899Y-34883D01*
X44966Y-34950D01*
X45052Y-34986D01*
X45146Y-34986D01*
X45233Y-34950D01*
X45280Y-34903D01*
X45325Y-34903D01*
X55987Y-34903D01*
X55924Y-34966D01*
X55888Y-35052D01*
X55888Y-35146D01*
X55924Y-35233D01*
X55971Y-35280D01*
X55971Y-40519D01*
X55924Y-40566D01*
X55888Y-40652D01*
X55888Y-40746D01*
X55924Y-40833D01*
X55991Y-40900D01*
X56077Y-40936D01*
X56171Y-40936D01*
X56258Y-40900D01*
X56270Y-40888D01*
X56270Y-47411D01*
X55387Y-48294D01*
X55329Y-48294D01*
X55163Y-48363D01*
X55035Y-48490D01*
X55025Y-48514D01*
X55016Y-48491D01*
X54888Y-48363D01*
X54722Y-48294D01*
X54542Y-48294D01*
X54494Y-48314D01*
X54511Y-48273D01*
X54511Y-48179D01*
X54475Y-48092D01*
X54408Y-48025D01*
X54322Y-47989D01*
X54228Y-47989D01*
X54178Y-48010D01*
X54178Y-47025D01*
X54178Y-46875D01*
X54178Y-46563D01*
X54188Y-46553D01*
X54319Y-46553D01*
X54366Y-46600D01*
X54452Y-46636D01*
X54546Y-46636D01*
X54633Y-46600D01*
X54700Y-46533D01*
X54736Y-46447D01*
X54736Y-46353D01*
X54700Y-46266D01*
X54633Y-46199D01*
X54547Y-46163D01*
X54453Y-46163D01*
X54366Y-46199D01*
X54319Y-46246D01*
X54125Y-46246D01*
X54066Y-46258D01*
X54016Y-46291D01*
X54016Y-46291D01*
X53916Y-46391D01*
X53883Y-46441D01*
X53881Y-46450D01*
X53871Y-46500D01*
X53871Y-46500D01*
X53871Y-46875D01*
X53871Y-47025D01*
X53871Y-47696D01*
X53842Y-47696D01*
X53625Y-47696D01*
X53625Y-46447D01*
X53625Y-46447D01*
X53625Y-46447D01*
X53614Y-46388D01*
X53581Y-46338D01*
X53581Y-46338D01*
X53533Y-46291D01*
X53483Y-46258D01*
X53474Y-46256D01*
X53425Y-46246D01*
X53424Y-46246D01*
X53180Y-46246D01*
X53133Y-46199D01*
X53047Y-46163D01*
X52953Y-46163D01*
X52866Y-46199D01*
X52799Y-46266D01*
X52763Y-46352D01*
X52763Y-46446D01*
X52799Y-46533D01*
X52866Y-46600D01*
X52952Y-46636D01*
X53046Y-46636D01*
X53133Y-46600D01*
X53180Y-46553D01*
X53318Y-46553D01*
X53318Y-47696D01*
X53055Y-47696D01*
X53011Y-47713D01*
X53005Y-47720D01*
X52992Y-47707D01*
X52946Y-47688D01*
X52896Y-47688D01*
X52562Y-47688D01*
X52531Y-47719D01*
X52531Y-48696D01*
X52539Y-48696D01*
X52539Y-48703D01*
X52531Y-48703D01*
X52531Y-49680D01*
X52562Y-49711D01*
X52896Y-49711D01*
X52946Y-49711D01*
X52992Y-49692D01*
X53005Y-49679D01*
X53011Y-49685D01*
X53055Y-49703D01*
X53102Y-49703D01*
X53416Y-49703D01*
X53363Y-49742D01*
X53363Y-49742D01*
X53326Y-49781D01*
X53282Y-49852D01*
X53282Y-49852D01*
X53264Y-49902D01*
X53250Y-49984D01*
X53252Y-50038D01*
X53271Y-50119D01*
X53271Y-50119D01*
X53293Y-50168D01*
X53342Y-50236D01*
X53342Y-50236D01*
X53381Y-50273D01*
X53449Y-50315D01*
X53366Y-50349D01*
X53299Y-50416D01*
X53263Y-50502D01*
X53263Y-50596D01*
X53299Y-50683D01*
X53362Y-50746D01*
X52955Y-50746D01*
X52908Y-50699D01*
X52822Y-50663D01*
X52728Y-50663D01*
X52641Y-50699D01*
X52574Y-50766D01*
X52538Y-50852D01*
X52538Y-50946D01*
X52574Y-51033D01*
X52641Y-51100D01*
X52727Y-51136D01*
X52821Y-51136D01*
X52908Y-51100D01*
X52955Y-51053D01*
X55200Y-51053D01*
X58319Y-51053D01*
X58366Y-51100D01*
X58452Y-51136D01*
X58546Y-51136D01*
X58633Y-51100D01*
X58680Y-51053D01*
X59562Y-51053D01*
X59549Y-51066D01*
X59513Y-51152D01*
X59513Y-51246D01*
X59549Y-51333D01*
X59596Y-51380D01*
X59596Y-51629D01*
X59275Y-51629D01*
X59244Y-51660D01*
X59244Y-51948D01*
X59251Y-51948D01*
X59251Y-51955D01*
X59244Y-51955D01*
X59244Y-52243D01*
X59275Y-52274D01*
X59599Y-52274D01*
X59646Y-52255D01*
X59667Y-52234D01*
X59713Y-52281D01*
X59713Y-52281D01*
X59763Y-52314D01*
X59763Y-52314D01*
X59822Y-52325D01*
X60350Y-52325D01*
X61496Y-52325D01*
X61496Y-52589D01*
X61513Y-52632D01*
X61547Y-52666D01*
X61590Y-52684D01*
X61637Y-52684D01*
X63409Y-52684D01*
X63452Y-52666D01*
X63485Y-52633D01*
X63503Y-52589D01*
X63503Y-52542D01*
X63503Y-51897D01*
X63547Y-51940D01*
X63699Y-52004D01*
X63864Y-52004D01*
X64016Y-51941D01*
X64132Y-51825D01*
X64195Y-51673D01*
X64195Y-51508D01*
X64132Y-51356D01*
X64016Y-51240D01*
X63864Y-51177D01*
X63700Y-51177D01*
X63548Y-51240D01*
X63511Y-51276D01*
X63511Y-50808D01*
X63492Y-50762D01*
X63457Y-50727D01*
X63410Y-50707D01*
X63360Y-50707D01*
X62535Y-50707D01*
X62503Y-50739D01*
X62503Y-51223D01*
X63480Y-51223D01*
X63511Y-51192D01*
X63511Y-50808D01*
X63511Y-51276D01*
X63511Y-51276D01*
X63511Y-51262D01*
X63480Y-51231D01*
X62503Y-51231D01*
X62503Y-51239D01*
X62496Y-51239D01*
X62496Y-51231D01*
X62496Y-51223D01*
X62496Y-50739D01*
X62464Y-50707D01*
X61639Y-50707D01*
X61589Y-50707D01*
X61542Y-50727D01*
X61507Y-50762D01*
X61488Y-50808D01*
X61488Y-51192D01*
X61519Y-51223D01*
X62496Y-51223D01*
X62496Y-51231D01*
X61519Y-51231D01*
X61488Y-51262D01*
X61488Y-51646D01*
X61507Y-51692D01*
X61520Y-51705D01*
X61514Y-51711D01*
X61496Y-51755D01*
X61496Y-51802D01*
X61496Y-52018D01*
X60350Y-52018D01*
X60349Y-52018D01*
X60373Y-51993D01*
X60417Y-51922D01*
X60417Y-51922D01*
X60435Y-51872D01*
X60449Y-51790D01*
X60449Y-51790D01*
X60447Y-51736D01*
X60428Y-51655D01*
X60428Y-51655D01*
X60406Y-51606D01*
X60357Y-51538D01*
X60357Y-51538D01*
X60318Y-51501D01*
X60247Y-51457D01*
X60247Y-51457D01*
X60197Y-51439D01*
X60115Y-51425D01*
X60115Y-51425D01*
X60061Y-51427D01*
X59980Y-51446D01*
X59980Y-51446D01*
X59931Y-51468D01*
X59903Y-51488D01*
X59903Y-51380D01*
X59950Y-51333D01*
X59986Y-51247D01*
X59986Y-51153D01*
X59950Y-51066D01*
X59937Y-51053D01*
X60694Y-51053D01*
X60741Y-51100D01*
X60827Y-51136D01*
X60921Y-51136D01*
X61008Y-51100D01*
X61075Y-51033D01*
X61111Y-50947D01*
X61111Y-50853D01*
X61083Y-50786D01*
X61171Y-50786D01*
X61258Y-50750D01*
X61325Y-50683D01*
X61361Y-50597D01*
X61361Y-50503D01*
X61325Y-50416D01*
X61258Y-50349D01*
X61209Y-50329D01*
X68249Y-50329D01*
X68499Y-50329D01*
X68499Y-50329D01*
X68499Y-50329D01*
X68548Y-50319D01*
X68558Y-50317D01*
X68558Y-50317D01*
X68607Y-50284D01*
X68683Y-50208D01*
X68683Y-50208D01*
X68683Y-50208D01*
X68716Y-50158D01*
X68728Y-50100D01*
X68728Y-49850D01*
X68728Y-41125D01*
X68728Y-40825D01*
X68728Y-40750D01*
X68728Y-40655D01*
X68775Y-40608D01*
X68811Y-40522D01*
X68811Y-40428D01*
X68775Y-40341D01*
X68708Y-40274D01*
X68622Y-40238D01*
X68528Y-40238D01*
X68441Y-40274D01*
X68374Y-40341D01*
X68338Y-40427D01*
X68338Y-40521D01*
X68374Y-40608D01*
X68421Y-40655D01*
X68421Y-40750D01*
X68421Y-40825D01*
X68421Y-41125D01*
X68421Y-43248D01*
X68397Y-43238D01*
X68303Y-43238D01*
X68278Y-43248D01*
X68278Y-40750D01*
X68266Y-40691D01*
X68266Y-40691D01*
X68233Y-40641D01*
X68183Y-40591D01*
X68133Y-40558D01*
X68124Y-40556D01*
X68075Y-40546D01*
X68074Y-40546D01*
X57305Y-40546D01*
X57258Y-40499D01*
X57172Y-40463D01*
X57078Y-40463D01*
X57003Y-40494D01*
X57003Y-40039D01*
X57016Y-40058D01*
X57116Y-40158D01*
X57116Y-40158D01*
X57166Y-40191D01*
X57166Y-40191D01*
X57225Y-40203D01*
X58250Y-40203D01*
X68100Y-40203D01*
X68149Y-40203D01*
X68150Y-40203D01*
X68150Y-40203D01*
X68199Y-40193D01*
X68208Y-40191D01*
X68208Y-40191D01*
X68258Y-40158D01*
X68308Y-40108D01*
X68311Y-40103D01*
X68347Y-40127D01*
X68400Y-40137D01*
X68862Y-40137D01*
X68862Y-54062D01*
M02*
