G04 (created by PCBNEW (22-Jun-2014 BZR 4027)-stable) date Sun 17 Dec 2017 04:11:54 PM CST*
%MOIN*%
G04 Gerber Fmt 3.4, Leading zero omitted, Abs format*
%FSLAX34Y34*%
G01*
G70*
G90*
G04 APERTURE LIST*
%ADD10C,0.00393701*%
G04 APERTURE END LIST*
G54D10*
X63788Y-47675D02*
G75*
G03X63788Y-47675I-213J0D01*
G74*
G01*
X67738Y-39275D02*
G75*
G03X67738Y-39275I-213J0D01*
G74*
G01*
X61763Y-48350D02*
G75*
G03X61763Y-48350I-213J0D01*
G74*
G01*
X53813Y-50000D02*
G75*
G03X53813Y-50000I-213J0D01*
G74*
G01*
X56238Y-31175D02*
G75*
G03X56238Y-31175I-213J0D01*
G74*
G01*
X49313Y-47525D02*
G75*
G03X49313Y-47525I-213J0D01*
G74*
G01*
X60313Y-51775D02*
G75*
G03X60313Y-51775I-213J0D01*
G74*
G01*
X67388Y-33350D02*
G75*
G03X67388Y-33350I-213J0D01*
G74*
G01*
X61663Y-30150D02*
G75*
G03X61663Y-30150I-213J0D01*
G74*
G01*
X44063Y-39775D02*
G75*
G03X44063Y-39775I-213J0D01*
G74*
G01*
X51213Y-29300D02*
G75*
G03X51213Y-29300I-213J0D01*
G74*
G01*
X51563Y-50500D02*
G75*
G03X51563Y-50500I-213J0D01*
G74*
G01*
X48088Y-29300D02*
G75*
G03X48088Y-29300I-213J0D01*
G74*
G01*
X63613Y-32400D02*
G75*
G03X63613Y-32400I-213J0D01*
G74*
G01*
X67813Y-46700D02*
G75*
G03X67813Y-46700I-213J0D01*
G74*
G01*
X47438Y-44100D02*
G75*
G03X47438Y-44100I-213J0D01*
G74*
G01*
X67963Y-47775D02*
G75*
G03X67963Y-47775I-213J0D01*
G74*
G01*
X44163Y-44125D02*
G75*
G03X44163Y-44125I-213J0D01*
G74*
G01*
X47438Y-46500D02*
G75*
G03X47438Y-46500I-213J0D01*
G74*
G01*
X57413Y-26900D02*
G75*
G03X57413Y-26900I-213J0D01*
G74*
G01*
X55788Y-26925D02*
G75*
G03X55788Y-26925I-213J0D01*
G74*
G01*
X44013Y-29100D02*
G75*
G03X44013Y-29100I-213J0D01*
G74*
G01*
X44163Y-46850D02*
G75*
G03X44163Y-46850I-213J0D01*
G74*
G01*
X68913Y-29100D02*
G75*
G03X68913Y-29100I-213J0D01*
G74*
G01*
X69000Y-40000D02*
X69000Y-54200D01*
X47414Y-45300D02*
G75*
G03X47414Y-45300I-1414J0D01*
G74*
G01*
X68014Y-45300D02*
G75*
G03X68014Y-45300I-1414J0D01*
G74*
G01*
X43500Y-28800D02*
X43500Y-54200D01*
X69000Y-28800D02*
X69000Y-30600D01*
X68400Y-40000D02*
X69000Y-40000D01*
X68400Y-30600D02*
X68400Y-40000D01*
X69000Y-30600D02*
X68400Y-30600D01*
X51300Y-26600D02*
X51300Y-28800D01*
X61100Y-28800D02*
X69000Y-28800D01*
X61100Y-26600D02*
X61100Y-28800D01*
X51300Y-26600D02*
X61100Y-26600D01*
X43500Y-28800D02*
X51300Y-28800D01*
X69000Y-54200D02*
X43500Y-54200D01*
M02*
