G04 (created by PCBNEW (22-Jun-2014 BZR 4027)-stable) date Sun 17 Dec 2017 04:11:54 PM CST*
%MOIN*%
G04 Gerber Fmt 3.4, Leading zero omitted, Abs format*
%FSLAX34Y34*%
G01*
G70*
G90*
G04 APERTURE LIST*
%ADD10C,0.00393701*%
%ADD11C,0.00590551*%
%ADD12C,0.0019685*%
%ADD13C,0.00492126*%
G04 APERTURE END LIST*
G54D10*
G54D11*
X55759Y-51873D02*
X55759Y-52070D01*
X55759Y-53526D02*
X55759Y-53329D01*
X53240Y-51873D02*
X53240Y-52070D01*
X53240Y-53526D02*
X53240Y-53329D01*
X55562Y-53526D02*
X55562Y-53329D01*
X55169Y-53526D02*
X55759Y-53526D01*
X55759Y-53329D02*
X55366Y-53329D01*
X53437Y-53526D02*
X53437Y-53329D01*
X53830Y-53526D02*
X53240Y-53526D01*
X53240Y-53329D02*
X53633Y-53329D01*
X53437Y-51873D02*
X53437Y-52070D01*
X53240Y-52070D02*
X53633Y-52070D01*
X53830Y-51873D02*
X53240Y-51873D01*
X55169Y-51873D02*
X55759Y-51873D01*
X55562Y-51873D02*
X55562Y-52070D01*
X55759Y-52070D02*
X55366Y-52070D01*
X53830Y-51794D02*
X54007Y-51617D01*
X55169Y-51794D02*
X54992Y-51617D01*
X55169Y-53605D02*
X54992Y-53782D01*
X53830Y-53605D02*
X54007Y-53782D01*
X53712Y-53093D02*
X54106Y-53487D01*
X54106Y-53487D02*
X54893Y-53487D01*
X54893Y-53487D02*
X55287Y-53093D01*
X55287Y-53093D02*
X55287Y-52306D01*
X55287Y-52306D02*
X54893Y-51912D01*
X54893Y-51912D02*
X54106Y-51912D01*
X54106Y-51912D02*
X53712Y-52306D01*
X53712Y-52306D02*
X53712Y-53093D01*
X55582Y-53093D02*
X55582Y-52306D01*
X54007Y-51617D02*
X54992Y-51617D01*
X53417Y-53093D02*
X53417Y-52306D01*
X54007Y-53782D02*
X54992Y-53782D01*
X54893Y-52700D02*
G75*
G03X54893Y-52700I-393J0D01*
G74*
G01*
X53476Y-53172D02*
X53476Y-52227D01*
X53476Y-52227D02*
X54027Y-51676D01*
X54027Y-51676D02*
X54972Y-51676D01*
X54972Y-51676D02*
X55523Y-52227D01*
X55523Y-52227D02*
X55523Y-53172D01*
X55523Y-53172D02*
X54972Y-53723D01*
X54972Y-53723D02*
X54027Y-53723D01*
X54027Y-53723D02*
X53476Y-53172D01*
G54D12*
X52826Y-53881D02*
X56173Y-53881D01*
X56173Y-53881D02*
X56173Y-51518D01*
X56173Y-51518D02*
X52826Y-51518D01*
X52826Y-51518D02*
X52826Y-53881D01*
G54D11*
X59259Y-51873D02*
X59259Y-52070D01*
X59259Y-53526D02*
X59259Y-53329D01*
X56740Y-51873D02*
X56740Y-52070D01*
X56740Y-53526D02*
X56740Y-53329D01*
X59062Y-53526D02*
X59062Y-53329D01*
X58669Y-53526D02*
X59259Y-53526D01*
X59259Y-53329D02*
X58866Y-53329D01*
X56937Y-53526D02*
X56937Y-53329D01*
X57330Y-53526D02*
X56740Y-53526D01*
X56740Y-53329D02*
X57133Y-53329D01*
X56937Y-51873D02*
X56937Y-52070D01*
X56740Y-52070D02*
X57133Y-52070D01*
X57330Y-51873D02*
X56740Y-51873D01*
X58669Y-51873D02*
X59259Y-51873D01*
X59062Y-51873D02*
X59062Y-52070D01*
X59259Y-52070D02*
X58866Y-52070D01*
X57330Y-51794D02*
X57507Y-51617D01*
X58669Y-51794D02*
X58492Y-51617D01*
X58669Y-53605D02*
X58492Y-53782D01*
X57330Y-53605D02*
X57507Y-53782D01*
X57212Y-53093D02*
X57606Y-53487D01*
X57606Y-53487D02*
X58393Y-53487D01*
X58393Y-53487D02*
X58787Y-53093D01*
X58787Y-53093D02*
X58787Y-52306D01*
X58787Y-52306D02*
X58393Y-51912D01*
X58393Y-51912D02*
X57606Y-51912D01*
X57606Y-51912D02*
X57212Y-52306D01*
X57212Y-52306D02*
X57212Y-53093D01*
X59082Y-53093D02*
X59082Y-52306D01*
X57507Y-51617D02*
X58492Y-51617D01*
X56917Y-53093D02*
X56917Y-52306D01*
X57507Y-53782D02*
X58492Y-53782D01*
X58393Y-52700D02*
G75*
G03X58393Y-52700I-393J0D01*
G74*
G01*
X56976Y-53172D02*
X56976Y-52227D01*
X56976Y-52227D02*
X57527Y-51676D01*
X57527Y-51676D02*
X58472Y-51676D01*
X58472Y-51676D02*
X59023Y-52227D01*
X59023Y-52227D02*
X59023Y-53172D01*
X59023Y-53172D02*
X58472Y-53723D01*
X58472Y-53723D02*
X57527Y-53723D01*
X57527Y-53723D02*
X56976Y-53172D01*
G54D12*
X56326Y-53881D02*
X59673Y-53881D01*
X59673Y-53881D02*
X59673Y-51518D01*
X59673Y-51518D02*
X56326Y-51518D01*
X56326Y-51518D02*
X56326Y-53881D01*
G54D13*
X56012Y-52762D02*
X55984Y-52777D01*
X55937Y-52777D01*
X55918Y-52762D01*
X55909Y-52747D01*
X55899Y-52717D01*
X55899Y-52687D01*
X55909Y-52657D01*
X55918Y-52642D01*
X55937Y-52627D01*
X55974Y-52612D01*
X55993Y-52597D01*
X56003Y-52582D01*
X56012Y-52552D01*
X56012Y-52522D01*
X56003Y-52492D01*
X55993Y-52477D01*
X55974Y-52462D01*
X55928Y-52462D01*
X55899Y-52477D01*
X55834Y-52462D02*
X55787Y-52777D01*
X55750Y-52552D01*
X55712Y-52777D01*
X55665Y-52462D01*
X55609Y-52462D02*
X55478Y-52462D01*
X55562Y-52777D01*
X54917Y-51462D02*
X54889Y-51477D01*
X54842Y-51477D01*
X54823Y-51462D01*
X54814Y-51447D01*
X54804Y-51417D01*
X54804Y-51387D01*
X54814Y-51357D01*
X54823Y-51342D01*
X54842Y-51327D01*
X54879Y-51312D01*
X54898Y-51297D01*
X54907Y-51282D01*
X54917Y-51252D01*
X54917Y-51222D01*
X54907Y-51192D01*
X54898Y-51177D01*
X54879Y-51162D01*
X54832Y-51162D01*
X54804Y-51177D01*
X54645Y-51462D02*
X54664Y-51477D01*
X54701Y-51477D01*
X54720Y-51462D01*
X54729Y-51432D01*
X54729Y-51312D01*
X54720Y-51282D01*
X54701Y-51267D01*
X54664Y-51267D01*
X54645Y-51282D01*
X54635Y-51312D01*
X54635Y-51342D01*
X54729Y-51372D01*
X54523Y-51477D02*
X54542Y-51462D01*
X54551Y-51432D01*
X54551Y-51162D01*
X54373Y-51462D02*
X54392Y-51477D01*
X54429Y-51477D01*
X54448Y-51462D01*
X54457Y-51432D01*
X54457Y-51312D01*
X54448Y-51282D01*
X54429Y-51267D01*
X54392Y-51267D01*
X54373Y-51282D01*
X54364Y-51312D01*
X54364Y-51342D01*
X54457Y-51372D01*
X54195Y-51462D02*
X54214Y-51477D01*
X54251Y-51477D01*
X54270Y-51462D01*
X54279Y-51447D01*
X54289Y-51417D01*
X54289Y-51327D01*
X54279Y-51297D01*
X54270Y-51282D01*
X54251Y-51267D01*
X54214Y-51267D01*
X54195Y-51282D01*
X54139Y-51267D02*
X54064Y-51267D01*
X54110Y-51162D02*
X54110Y-51432D01*
X54101Y-51462D01*
X54082Y-51477D01*
X54064Y-51477D01*
X59562Y-52812D02*
X59534Y-52827D01*
X59487Y-52827D01*
X59468Y-52812D01*
X59459Y-52797D01*
X59449Y-52767D01*
X59449Y-52737D01*
X59459Y-52707D01*
X59468Y-52692D01*
X59487Y-52677D01*
X59524Y-52662D01*
X59543Y-52647D01*
X59553Y-52632D01*
X59562Y-52602D01*
X59562Y-52572D01*
X59553Y-52542D01*
X59543Y-52527D01*
X59524Y-52512D01*
X59478Y-52512D01*
X59449Y-52527D01*
X59384Y-52512D02*
X59337Y-52827D01*
X59300Y-52602D01*
X59262Y-52827D01*
X59215Y-52512D01*
X59112Y-52647D02*
X59131Y-52632D01*
X59140Y-52617D01*
X59150Y-52587D01*
X59150Y-52572D01*
X59140Y-52542D01*
X59131Y-52527D01*
X59112Y-52512D01*
X59075Y-52512D01*
X59056Y-52527D01*
X59046Y-52542D01*
X59037Y-52572D01*
X59037Y-52587D01*
X59046Y-52617D01*
X59056Y-52632D01*
X59075Y-52647D01*
X59112Y-52647D01*
X59131Y-52662D01*
X59140Y-52677D01*
X59150Y-52707D01*
X59150Y-52767D01*
X59140Y-52797D01*
X59131Y-52812D01*
X59112Y-52827D01*
X59075Y-52827D01*
X59056Y-52812D01*
X59046Y-52797D01*
X59037Y-52767D01*
X59037Y-52707D01*
X59046Y-52677D01*
X59056Y-52662D01*
X59075Y-52647D01*
X58318Y-51462D02*
X58290Y-51477D01*
X58243Y-51477D01*
X58224Y-51462D01*
X58215Y-51447D01*
X58206Y-51417D01*
X58206Y-51387D01*
X58215Y-51357D01*
X58224Y-51342D01*
X58243Y-51327D01*
X58281Y-51312D01*
X58299Y-51297D01*
X58309Y-51282D01*
X58318Y-51252D01*
X58318Y-51222D01*
X58309Y-51192D01*
X58299Y-51177D01*
X58281Y-51162D01*
X58234Y-51162D01*
X58206Y-51177D01*
X58149Y-51267D02*
X58074Y-51267D01*
X58121Y-51162D02*
X58121Y-51432D01*
X58112Y-51462D01*
X58093Y-51477D01*
X58074Y-51477D01*
X57925Y-51477D02*
X57925Y-51312D01*
X57934Y-51282D01*
X57953Y-51267D01*
X57990Y-51267D01*
X58009Y-51282D01*
X57925Y-51462D02*
X57943Y-51477D01*
X57990Y-51477D01*
X58009Y-51462D01*
X58018Y-51432D01*
X58018Y-51402D01*
X58009Y-51372D01*
X57990Y-51357D01*
X57943Y-51357D01*
X57925Y-51342D01*
X57831Y-51477D02*
X57831Y-51267D01*
X57831Y-51327D02*
X57821Y-51297D01*
X57812Y-51282D01*
X57793Y-51267D01*
X57775Y-51267D01*
X57737Y-51267D02*
X57662Y-51267D01*
X57709Y-51162D02*
X57709Y-51432D01*
X57700Y-51462D01*
X57681Y-51477D01*
X57662Y-51477D01*
X63412Y-50712D02*
X63384Y-50727D01*
X63337Y-50727D01*
X63318Y-50712D01*
X63309Y-50697D01*
X63299Y-50667D01*
X63299Y-50637D01*
X63309Y-50607D01*
X63318Y-50592D01*
X63337Y-50577D01*
X63374Y-50562D01*
X63393Y-50547D01*
X63403Y-50532D01*
X63412Y-50502D01*
X63412Y-50472D01*
X63403Y-50442D01*
X63393Y-50427D01*
X63374Y-50412D01*
X63328Y-50412D01*
X63299Y-50427D01*
X63234Y-50412D02*
X63187Y-50727D01*
X63150Y-50502D01*
X63112Y-50727D01*
X63065Y-50412D01*
X62906Y-50517D02*
X62906Y-50727D01*
X62953Y-50397D02*
X63000Y-50622D01*
X62878Y-50622D01*
X63432Y-50377D02*
X63432Y-50062D01*
X63385Y-50062D01*
X63357Y-50077D01*
X63339Y-50107D01*
X63329Y-50137D01*
X63320Y-50197D01*
X63320Y-50242D01*
X63329Y-50302D01*
X63339Y-50332D01*
X63357Y-50362D01*
X63385Y-50377D01*
X63432Y-50377D01*
X63207Y-50377D02*
X63226Y-50362D01*
X63235Y-50347D01*
X63245Y-50317D01*
X63245Y-50227D01*
X63235Y-50197D01*
X63226Y-50182D01*
X63207Y-50167D01*
X63179Y-50167D01*
X63160Y-50182D01*
X63151Y-50197D01*
X63142Y-50227D01*
X63142Y-50317D01*
X63151Y-50347D01*
X63160Y-50362D01*
X63179Y-50377D01*
X63207Y-50377D01*
X63076Y-50167D02*
X63039Y-50377D01*
X63001Y-50227D01*
X62964Y-50377D01*
X62926Y-50167D01*
X62851Y-50167D02*
X62851Y-50377D01*
X62851Y-50197D02*
X62842Y-50182D01*
X62823Y-50167D01*
X62795Y-50167D01*
X62776Y-50182D01*
X62767Y-50212D01*
X62767Y-50377D01*
X63212Y-47312D02*
X63184Y-47327D01*
X63137Y-47327D01*
X63118Y-47312D01*
X63109Y-47297D01*
X63099Y-47267D01*
X63099Y-47237D01*
X63109Y-47207D01*
X63118Y-47192D01*
X63137Y-47177D01*
X63174Y-47162D01*
X63193Y-47147D01*
X63203Y-47132D01*
X63212Y-47102D01*
X63212Y-47072D01*
X63203Y-47042D01*
X63193Y-47027D01*
X63174Y-47012D01*
X63128Y-47012D01*
X63099Y-47027D01*
X63034Y-47012D02*
X62987Y-47327D01*
X62950Y-47102D01*
X62912Y-47327D01*
X62865Y-47012D01*
X62809Y-47012D02*
X62687Y-47012D01*
X62753Y-47132D01*
X62725Y-47132D01*
X62706Y-47147D01*
X62696Y-47162D01*
X62687Y-47192D01*
X62687Y-47267D01*
X62696Y-47297D01*
X62706Y-47312D01*
X62725Y-47327D01*
X62781Y-47327D01*
X62800Y-47312D01*
X62809Y-47297D01*
X63054Y-46662D02*
X63054Y-46917D01*
X63045Y-46947D01*
X63035Y-46962D01*
X63017Y-46977D01*
X62979Y-46977D01*
X62960Y-46962D01*
X62951Y-46947D01*
X62942Y-46917D01*
X62942Y-46662D01*
X62848Y-46977D02*
X62848Y-46662D01*
X62773Y-46662D01*
X62754Y-46677D01*
X62745Y-46692D01*
X62735Y-46722D01*
X62735Y-46767D01*
X62745Y-46797D01*
X62754Y-46812D01*
X62773Y-46827D01*
X62848Y-46827D01*
X49856Y-50712D02*
X49828Y-50727D01*
X49781Y-50727D01*
X49762Y-50712D01*
X49753Y-50697D01*
X49743Y-50667D01*
X49743Y-50637D01*
X49753Y-50607D01*
X49762Y-50592D01*
X49781Y-50577D01*
X49818Y-50562D01*
X49837Y-50547D01*
X49846Y-50532D01*
X49856Y-50502D01*
X49856Y-50472D01*
X49846Y-50442D01*
X49837Y-50427D01*
X49818Y-50412D01*
X49771Y-50412D01*
X49743Y-50427D01*
X49678Y-50412D02*
X49631Y-50727D01*
X49593Y-50502D01*
X49556Y-50727D01*
X49509Y-50412D01*
X49331Y-50727D02*
X49443Y-50727D01*
X49387Y-50727D02*
X49387Y-50412D01*
X49406Y-50457D01*
X49425Y-50487D01*
X49443Y-50502D01*
X49256Y-50442D02*
X49246Y-50427D01*
X49228Y-50412D01*
X49181Y-50412D01*
X49162Y-50427D01*
X49153Y-50442D01*
X49143Y-50472D01*
X49143Y-50502D01*
X49153Y-50547D01*
X49265Y-50727D01*
X49143Y-50727D01*
X49485Y-50212D02*
X49457Y-50227D01*
X49448Y-50242D01*
X49439Y-50272D01*
X49439Y-50317D01*
X49448Y-50347D01*
X49457Y-50362D01*
X49476Y-50377D01*
X49551Y-50377D01*
X49551Y-50062D01*
X49485Y-50062D01*
X49467Y-50077D01*
X49457Y-50092D01*
X49448Y-50122D01*
X49448Y-50152D01*
X49457Y-50182D01*
X49467Y-50197D01*
X49485Y-50212D01*
X49551Y-50212D01*
X48656Y-49512D02*
X48628Y-49527D01*
X48581Y-49527D01*
X48562Y-49512D01*
X48553Y-49497D01*
X48543Y-49467D01*
X48543Y-49437D01*
X48553Y-49407D01*
X48562Y-49392D01*
X48581Y-49377D01*
X48618Y-49362D01*
X48637Y-49347D01*
X48646Y-49332D01*
X48656Y-49302D01*
X48656Y-49272D01*
X48646Y-49242D01*
X48637Y-49227D01*
X48618Y-49212D01*
X48571Y-49212D01*
X48543Y-49227D01*
X48478Y-49212D02*
X48431Y-49527D01*
X48393Y-49302D01*
X48356Y-49527D01*
X48309Y-49212D01*
X48131Y-49527D02*
X48243Y-49527D01*
X48187Y-49527D02*
X48187Y-49212D01*
X48206Y-49257D01*
X48225Y-49287D01*
X48243Y-49302D01*
X48065Y-49212D02*
X47943Y-49212D01*
X48009Y-49332D01*
X47981Y-49332D01*
X47962Y-49347D01*
X47953Y-49362D01*
X47943Y-49392D01*
X47943Y-49467D01*
X47953Y-49497D01*
X47962Y-49512D01*
X47981Y-49527D01*
X48037Y-49527D01*
X48056Y-49512D01*
X48065Y-49497D01*
X48365Y-48862D02*
X48234Y-49177D01*
X48234Y-48862D02*
X48365Y-49177D01*
X64562Y-49612D02*
X64534Y-49627D01*
X64487Y-49627D01*
X64468Y-49612D01*
X64459Y-49597D01*
X64449Y-49567D01*
X64449Y-49537D01*
X64459Y-49507D01*
X64468Y-49492D01*
X64487Y-49477D01*
X64524Y-49462D01*
X64543Y-49447D01*
X64553Y-49432D01*
X64562Y-49402D01*
X64562Y-49372D01*
X64553Y-49342D01*
X64543Y-49327D01*
X64524Y-49312D01*
X64478Y-49312D01*
X64449Y-49327D01*
X64384Y-49312D02*
X64337Y-49627D01*
X64300Y-49402D01*
X64262Y-49627D01*
X64215Y-49312D01*
X64046Y-49312D02*
X64140Y-49312D01*
X64150Y-49462D01*
X64140Y-49447D01*
X64121Y-49432D01*
X64075Y-49432D01*
X64056Y-49447D01*
X64046Y-49462D01*
X64037Y-49492D01*
X64037Y-49567D01*
X64046Y-49597D01*
X64056Y-49612D01*
X64075Y-49627D01*
X64121Y-49627D01*
X64140Y-49612D01*
X64150Y-49597D01*
X64435Y-49277D02*
X64529Y-49277D01*
X64529Y-48962D01*
X64295Y-49262D02*
X64314Y-49277D01*
X64351Y-49277D01*
X64370Y-49262D01*
X64379Y-49232D01*
X64379Y-49112D01*
X64370Y-49082D01*
X64351Y-49067D01*
X64314Y-49067D01*
X64295Y-49082D01*
X64285Y-49112D01*
X64285Y-49142D01*
X64379Y-49172D01*
X64229Y-49067D02*
X64154Y-49067D01*
X64201Y-49277D02*
X64201Y-49007D01*
X64192Y-48977D01*
X64173Y-48962D01*
X64154Y-48962D01*
X64117Y-49067D02*
X64042Y-49067D01*
X64089Y-48962D02*
X64089Y-49232D01*
X64079Y-49262D01*
X64060Y-49277D01*
X64042Y-49277D01*
X60962Y-48562D02*
X60934Y-48577D01*
X60887Y-48577D01*
X60868Y-48562D01*
X60859Y-48547D01*
X60849Y-48517D01*
X60849Y-48487D01*
X60859Y-48457D01*
X60868Y-48442D01*
X60887Y-48427D01*
X60924Y-48412D01*
X60943Y-48397D01*
X60953Y-48382D01*
X60962Y-48352D01*
X60962Y-48322D01*
X60953Y-48292D01*
X60943Y-48277D01*
X60924Y-48262D01*
X60878Y-48262D01*
X60849Y-48277D01*
X60784Y-48262D02*
X60737Y-48577D01*
X60700Y-48352D01*
X60662Y-48577D01*
X60615Y-48262D01*
X60456Y-48262D02*
X60493Y-48262D01*
X60512Y-48277D01*
X60521Y-48292D01*
X60540Y-48337D01*
X60550Y-48397D01*
X60550Y-48517D01*
X60540Y-48547D01*
X60531Y-48562D01*
X60512Y-48577D01*
X60475Y-48577D01*
X60456Y-48562D01*
X60446Y-48547D01*
X60437Y-48517D01*
X60437Y-48442D01*
X60446Y-48412D01*
X60456Y-48397D01*
X60475Y-48382D01*
X60512Y-48382D01*
X60531Y-48397D01*
X60540Y-48412D01*
X60550Y-48442D01*
X61020Y-48127D02*
X61085Y-47977D01*
X61132Y-48127D02*
X61132Y-47812D01*
X61057Y-47812D01*
X61039Y-47827D01*
X61029Y-47842D01*
X61020Y-47872D01*
X61020Y-47917D01*
X61029Y-47947D01*
X61039Y-47962D01*
X61057Y-47977D01*
X61132Y-47977D01*
X60935Y-48127D02*
X60935Y-47917D01*
X60935Y-47812D02*
X60945Y-47827D01*
X60935Y-47842D01*
X60926Y-47827D01*
X60935Y-47812D01*
X60935Y-47842D01*
X60757Y-47917D02*
X60757Y-48172D01*
X60767Y-48202D01*
X60776Y-48217D01*
X60795Y-48232D01*
X60823Y-48232D01*
X60842Y-48217D01*
X60757Y-48112D02*
X60776Y-48127D01*
X60814Y-48127D01*
X60832Y-48112D01*
X60842Y-48097D01*
X60851Y-48067D01*
X60851Y-47977D01*
X60842Y-47947D01*
X60832Y-47932D01*
X60814Y-47917D01*
X60776Y-47917D01*
X60757Y-47932D01*
X60664Y-48127D02*
X60664Y-47812D01*
X60579Y-48127D02*
X60579Y-47962D01*
X60589Y-47932D01*
X60607Y-47917D01*
X60635Y-47917D01*
X60654Y-47932D01*
X60664Y-47947D01*
X60514Y-47917D02*
X60439Y-47917D01*
X60485Y-47812D02*
X60485Y-48082D01*
X60476Y-48112D01*
X60457Y-48127D01*
X60439Y-48127D01*
X54656Y-49562D02*
X54628Y-49577D01*
X54581Y-49577D01*
X54562Y-49562D01*
X54553Y-49547D01*
X54543Y-49517D01*
X54543Y-49487D01*
X54553Y-49457D01*
X54562Y-49442D01*
X54581Y-49427D01*
X54618Y-49412D01*
X54637Y-49397D01*
X54646Y-49382D01*
X54656Y-49352D01*
X54656Y-49322D01*
X54646Y-49292D01*
X54637Y-49277D01*
X54618Y-49262D01*
X54571Y-49262D01*
X54543Y-49277D01*
X54478Y-49262D02*
X54431Y-49577D01*
X54393Y-49352D01*
X54356Y-49577D01*
X54309Y-49262D01*
X54131Y-49577D02*
X54243Y-49577D01*
X54187Y-49577D02*
X54187Y-49262D01*
X54206Y-49307D01*
X54225Y-49337D01*
X54243Y-49352D01*
X53962Y-49367D02*
X53962Y-49577D01*
X54009Y-49247D02*
X54056Y-49472D01*
X53934Y-49472D01*
X54099Y-49077D02*
X54099Y-49227D01*
X54165Y-48912D02*
X54099Y-49077D01*
X54034Y-48912D01*
X49756Y-47262D02*
X49728Y-47277D01*
X49681Y-47277D01*
X49662Y-47262D01*
X49653Y-47247D01*
X49643Y-47217D01*
X49643Y-47187D01*
X49653Y-47157D01*
X49662Y-47142D01*
X49681Y-47127D01*
X49718Y-47112D01*
X49737Y-47097D01*
X49746Y-47082D01*
X49756Y-47052D01*
X49756Y-47022D01*
X49746Y-46992D01*
X49737Y-46977D01*
X49718Y-46962D01*
X49671Y-46962D01*
X49643Y-46977D01*
X49578Y-46962D02*
X49531Y-47277D01*
X49493Y-47052D01*
X49456Y-47277D01*
X49409Y-46962D01*
X49231Y-47277D02*
X49343Y-47277D01*
X49287Y-47277D02*
X49287Y-46962D01*
X49306Y-47007D01*
X49325Y-47037D01*
X49343Y-47052D01*
X49043Y-47277D02*
X49156Y-47277D01*
X49100Y-47277D02*
X49100Y-46962D01*
X49118Y-47007D01*
X49137Y-47037D01*
X49156Y-47052D01*
X49446Y-46837D02*
X49353Y-46837D01*
X49465Y-46927D02*
X49399Y-46612D01*
X49334Y-46927D01*
M02*
