G04 (created by PCBNEW (22-Jun-2014 BZR 4027)-stable) date Sun 17 Dec 2017 04:11:54 PM CST*
%MOIN*%
G04 Gerber Fmt 3.4, Leading zero omitted, Abs format*
%FSLAX34Y34*%
G01*
G70*
G90*
G04 APERTURE LIST*
%ADD10C,0.00393701*%
%ADD11C,0.00590551*%
%ADD12C,0.0019685*%
%ADD13C,0.00472441*%
%ADD14C,0.005*%
%ADD15C,0.019685*%
%ADD16C,0.0001*%
%ADD17C,0.00492126*%
G04 APERTURE END LIST*
G54D10*
G54D11*
X59311Y-52300D02*
G75*
G03X59311Y-52300I-3111J0D01*
G74*
G01*
X56206Y-53077D02*
X56206Y-50322D01*
X58175Y-51700D02*
X54238Y-51700D01*
X66472Y-43779D02*
X65133Y-43779D01*
X65133Y-43779D02*
X65133Y-41220D01*
X65133Y-41220D02*
X66866Y-41220D01*
X66866Y-41220D02*
X66866Y-43385D01*
X66866Y-43385D02*
X66472Y-43779D01*
G54D12*
X67555Y-43897D02*
X67555Y-41102D01*
X64444Y-43897D02*
X64444Y-41102D01*
X67555Y-43897D02*
X64444Y-43897D01*
X67555Y-41102D02*
X64444Y-41102D01*
G54D11*
X66875Y-41141D02*
X65124Y-41141D01*
X67476Y-43858D02*
X65124Y-43858D01*
G54D10*
X44933Y-31438D02*
X45170Y-31202D01*
G54D13*
X44855Y-31124D02*
X44855Y-31281D01*
X44855Y-31281D02*
X44303Y-31281D01*
G54D10*
X45170Y-31202D02*
X46666Y-31202D01*
X46666Y-31202D02*
X46666Y-35297D01*
X46666Y-35297D02*
X44933Y-35297D01*
X44933Y-35297D02*
X44933Y-31438D01*
G54D13*
X44855Y-31124D02*
X46744Y-31124D01*
X44855Y-35375D02*
X46744Y-35375D01*
G54D12*
X44205Y-31104D02*
X47394Y-31104D01*
X44205Y-31104D02*
X44205Y-35395D01*
X47394Y-35395D02*
X47394Y-31104D01*
X47394Y-35395D02*
X44205Y-35395D01*
X58688Y-31729D02*
X58688Y-30470D01*
X59711Y-31729D02*
X58688Y-31729D01*
X59711Y-30470D02*
X59711Y-31729D01*
X58688Y-30470D02*
X59711Y-30470D01*
G54D11*
X59633Y-30981D02*
X59514Y-30981D01*
X59514Y-30981D02*
X59514Y-30863D01*
X58766Y-31336D02*
X59633Y-31336D01*
X59633Y-31336D02*
X59633Y-30863D01*
X59633Y-30863D02*
X58766Y-30863D01*
X58766Y-30863D02*
X58766Y-31336D01*
G54D12*
X48145Y-36346D02*
X48145Y-37803D01*
X47554Y-36346D02*
X47554Y-37803D01*
X48145Y-36346D02*
X47554Y-36346D01*
X48145Y-37803D02*
X47554Y-37803D01*
G54D11*
X48086Y-36937D02*
X48086Y-37212D01*
X47613Y-37212D02*
X47613Y-36937D01*
G54D12*
X46696Y-42254D02*
X48153Y-42254D01*
X46696Y-42845D02*
X48153Y-42845D01*
X46696Y-42254D02*
X46696Y-42845D01*
X48153Y-42254D02*
X48153Y-42845D01*
G54D11*
X47287Y-42313D02*
X47562Y-42313D01*
X47562Y-42786D02*
X47287Y-42786D01*
G54D12*
X59204Y-49278D02*
X59204Y-47821D01*
X59795Y-49278D02*
X59795Y-47821D01*
X59204Y-49278D02*
X59795Y-49278D01*
X59204Y-47821D02*
X59795Y-47821D01*
G54D11*
X59263Y-48687D02*
X59263Y-48412D01*
X59736Y-48412D02*
X59736Y-48687D01*
G54D12*
X46696Y-41554D02*
X48153Y-41554D01*
X46696Y-42145D02*
X48153Y-42145D01*
X46696Y-41554D02*
X46696Y-42145D01*
X48153Y-41554D02*
X48153Y-42145D01*
G54D11*
X47287Y-41613D02*
X47562Y-41613D01*
X47562Y-42086D02*
X47287Y-42086D01*
G54D12*
X50170Y-30521D02*
X50170Y-31978D01*
X49579Y-30521D02*
X49579Y-31978D01*
X50170Y-30521D02*
X49579Y-30521D01*
X50170Y-31978D02*
X49579Y-31978D01*
G54D11*
X50111Y-31112D02*
X50111Y-31387D01*
X49638Y-31387D02*
X49638Y-31112D01*
G54D12*
X65978Y-47970D02*
X64521Y-47970D01*
X65978Y-47379D02*
X64521Y-47379D01*
X65978Y-47970D02*
X65978Y-47379D01*
X64521Y-47970D02*
X64521Y-47379D01*
G54D11*
X65387Y-47911D02*
X65112Y-47911D01*
X65112Y-47438D02*
X65387Y-47438D01*
G54D12*
X46670Y-41646D02*
X46670Y-43103D01*
X46079Y-41646D02*
X46079Y-43103D01*
X46670Y-41646D02*
X46079Y-41646D01*
X46670Y-43103D02*
X46079Y-43103D01*
G54D11*
X46611Y-42237D02*
X46611Y-42512D01*
X46138Y-42512D02*
X46138Y-42237D01*
G54D12*
X45271Y-43129D02*
X46728Y-43129D01*
X45271Y-43720D02*
X46728Y-43720D01*
X45271Y-43129D02*
X45271Y-43720D01*
X46728Y-43129D02*
X46728Y-43720D01*
G54D11*
X45862Y-43188D02*
X46137Y-43188D01*
X46137Y-43661D02*
X45862Y-43661D01*
G54D12*
X43496Y-47254D02*
X44953Y-47254D01*
X43496Y-47845D02*
X44953Y-47845D01*
X43496Y-47254D02*
X43496Y-47845D01*
X44953Y-47254D02*
X44953Y-47845D01*
G54D11*
X44087Y-47313D02*
X44362Y-47313D01*
X44362Y-47786D02*
X44087Y-47786D01*
G54D12*
X50795Y-30521D02*
X50795Y-31978D01*
X50204Y-30521D02*
X50204Y-31978D01*
X50795Y-30521D02*
X50204Y-30521D01*
X50795Y-31978D02*
X50204Y-31978D01*
G54D11*
X50736Y-31112D02*
X50736Y-31387D01*
X50263Y-31387D02*
X50263Y-31112D01*
G54D12*
X67428Y-47970D02*
X65971Y-47970D01*
X67428Y-47379D02*
X65971Y-47379D01*
X67428Y-47970D02*
X67428Y-47379D01*
X65971Y-47970D02*
X65971Y-47379D01*
G54D11*
X66837Y-47911D02*
X66562Y-47911D01*
X66562Y-47438D02*
X66837Y-47438D01*
G54D12*
X60679Y-50153D02*
X60679Y-48696D01*
X61270Y-50153D02*
X61270Y-48696D01*
X60679Y-50153D02*
X61270Y-50153D01*
X60679Y-48696D02*
X61270Y-48696D01*
G54D11*
X60738Y-49562D02*
X60738Y-49287D01*
X61211Y-49287D02*
X61211Y-49562D01*
G54D12*
X51704Y-49328D02*
X51704Y-47871D01*
X52295Y-49328D02*
X52295Y-47871D01*
X51704Y-49328D02*
X52295Y-49328D01*
X51704Y-47871D02*
X52295Y-47871D01*
G54D11*
X51763Y-48737D02*
X51763Y-48462D01*
X52236Y-48462D02*
X52236Y-48737D01*
G54D12*
X58204Y-49278D02*
X58204Y-47821D01*
X58795Y-49278D02*
X58795Y-47821D01*
X58204Y-49278D02*
X58795Y-49278D01*
X58204Y-47821D02*
X58795Y-47821D01*
G54D11*
X58263Y-48687D02*
X58263Y-48412D01*
X58736Y-48412D02*
X58736Y-48687D01*
G54D12*
X58704Y-49278D02*
X58704Y-47821D01*
X59295Y-49278D02*
X59295Y-47821D01*
X58704Y-49278D02*
X59295Y-49278D01*
X58704Y-47821D02*
X59295Y-47821D01*
G54D11*
X58763Y-48687D02*
X58763Y-48412D01*
X59236Y-48412D02*
X59236Y-48687D01*
G54D12*
X51946Y-50254D02*
X53403Y-50254D01*
X51946Y-50845D02*
X53403Y-50845D01*
X51946Y-50254D02*
X51946Y-50845D01*
X53403Y-50254D02*
X53403Y-50845D01*
G54D11*
X52537Y-50313D02*
X52812Y-50313D01*
X52812Y-50786D02*
X52537Y-50786D01*
G54D12*
X51346Y-51129D02*
X52803Y-51129D01*
X51346Y-51720D02*
X52803Y-51720D01*
X51346Y-51129D02*
X51346Y-51720D01*
X52803Y-51129D02*
X52803Y-51720D01*
G54D11*
X51937Y-51188D02*
X52212Y-51188D01*
X52212Y-51661D02*
X51937Y-51661D01*
G54D12*
X61270Y-51021D02*
X61270Y-52478D01*
X60679Y-51021D02*
X60679Y-52478D01*
X61270Y-51021D02*
X60679Y-51021D01*
X61270Y-52478D02*
X60679Y-52478D01*
G54D11*
X61211Y-51612D02*
X61211Y-51887D01*
X60738Y-51887D02*
X60738Y-51612D01*
G54D12*
X64071Y-28804D02*
X65528Y-28804D01*
X64071Y-29395D02*
X65528Y-29395D01*
X64071Y-28804D02*
X64071Y-29395D01*
X65528Y-28804D02*
X65528Y-29395D01*
G54D11*
X64662Y-28863D02*
X64937Y-28863D01*
X64937Y-29336D02*
X64662Y-29336D01*
G54D12*
X46504Y-30428D02*
X46504Y-28971D01*
X47095Y-30428D02*
X47095Y-28971D01*
X46504Y-30428D02*
X47095Y-30428D01*
X46504Y-28971D02*
X47095Y-28971D01*
G54D11*
X46563Y-29837D02*
X46563Y-29562D01*
X47036Y-29562D02*
X47036Y-29837D01*
G54D12*
X51204Y-49328D02*
X51204Y-47871D01*
X51795Y-49328D02*
X51795Y-47871D01*
X51204Y-49328D02*
X51795Y-49328D01*
X51204Y-47871D02*
X51795Y-47871D01*
G54D11*
X51263Y-48737D02*
X51263Y-48462D01*
X51736Y-48462D02*
X51736Y-48737D01*
G54D12*
X55304Y-29553D02*
X55304Y-28096D01*
X55895Y-29553D02*
X55895Y-28096D01*
X55304Y-29553D02*
X55895Y-29553D01*
X55304Y-28096D02*
X55895Y-28096D01*
G54D11*
X55363Y-28962D02*
X55363Y-28687D01*
X55836Y-28687D02*
X55836Y-28962D01*
G54D12*
X48145Y-43446D02*
X48145Y-44903D01*
X47554Y-43446D02*
X47554Y-44903D01*
X48145Y-43446D02*
X47554Y-43446D01*
X48145Y-44903D02*
X47554Y-44903D01*
G54D11*
X48086Y-44037D02*
X48086Y-44312D01*
X47613Y-44312D02*
X47613Y-44037D01*
G54D12*
X68245Y-31371D02*
X68245Y-32828D01*
X67654Y-31371D02*
X67654Y-32828D01*
X68245Y-31371D02*
X67654Y-31371D01*
X68245Y-32828D02*
X67654Y-32828D01*
G54D11*
X68186Y-31962D02*
X68186Y-32237D01*
X67713Y-32237D02*
X67713Y-31962D01*
G54D12*
X68945Y-41896D02*
X68945Y-43353D01*
X68354Y-41896D02*
X68354Y-43353D01*
X68945Y-41896D02*
X68354Y-41896D01*
X68945Y-43353D02*
X68354Y-43353D01*
G54D11*
X68886Y-42487D02*
X68886Y-42762D01*
X68413Y-42762D02*
X68413Y-42487D01*
G54D12*
X52204Y-49328D02*
X52204Y-47871D01*
X52795Y-49328D02*
X52795Y-47871D01*
X52204Y-49328D02*
X52795Y-49328D01*
X52204Y-47871D02*
X52795Y-47871D01*
G54D11*
X52263Y-48737D02*
X52263Y-48462D01*
X52736Y-48462D02*
X52736Y-48737D01*
G54D12*
X52704Y-49328D02*
X52704Y-47871D01*
X53295Y-49328D02*
X53295Y-47871D01*
X52704Y-49328D02*
X53295Y-49328D01*
X52704Y-47871D02*
X53295Y-47871D01*
G54D11*
X52763Y-48737D02*
X52763Y-48462D01*
X53236Y-48462D02*
X53236Y-48737D01*
G54D12*
X67779Y-42353D02*
X67779Y-40896D01*
X68370Y-42353D02*
X68370Y-40896D01*
X67779Y-42353D02*
X68370Y-42353D01*
X67779Y-40896D02*
X68370Y-40896D01*
G54D11*
X67838Y-41762D02*
X67838Y-41487D01*
X68311Y-41487D02*
X68311Y-41762D01*
G54D13*
X52079Y-30899D02*
X52079Y-31686D01*
X52079Y-31686D02*
X54520Y-31686D01*
X54520Y-31686D02*
X54520Y-30918D01*
X52079Y-29403D02*
X52079Y-30269D01*
X52079Y-27434D02*
X52079Y-26883D01*
X52079Y-28773D02*
X52079Y-28064D01*
X54520Y-28064D02*
X54520Y-30269D01*
X54520Y-26883D02*
X54520Y-27434D01*
X52276Y-26883D02*
X52276Y-26096D01*
X52276Y-26096D02*
X54323Y-26096D01*
X54323Y-26096D02*
X54323Y-26883D01*
X54323Y-26883D02*
X54520Y-26883D01*
X52079Y-26883D02*
X52276Y-26883D01*
G54D10*
X52118Y-31647D02*
X54481Y-31647D01*
X54481Y-31647D02*
X54481Y-26922D01*
X54481Y-26922D02*
X54284Y-26922D01*
X54284Y-26922D02*
X54284Y-26135D01*
X54284Y-26135D02*
X52315Y-26135D01*
X52315Y-26135D02*
X52315Y-26922D01*
X52315Y-26922D02*
X52118Y-26922D01*
X52118Y-26922D02*
X52118Y-31647D01*
G54D12*
X51331Y-25934D02*
X55268Y-25934D01*
X51331Y-25934D02*
X51331Y-31938D01*
X55268Y-31938D02*
X55268Y-25934D01*
X51331Y-31938D02*
X55268Y-31938D01*
X68370Y-39421D02*
X68370Y-40878D01*
X67779Y-39421D02*
X67779Y-40878D01*
X68370Y-39421D02*
X67779Y-39421D01*
X68370Y-40878D02*
X67779Y-40878D01*
G54D11*
X68311Y-40012D02*
X68311Y-40287D01*
X67838Y-40287D02*
X67838Y-40012D01*
G54D12*
X61328Y-30995D02*
X59871Y-30995D01*
X61328Y-30404D02*
X59871Y-30404D01*
X61328Y-30995D02*
X61328Y-30404D01*
X59871Y-30995D02*
X59871Y-30404D01*
G54D11*
X60737Y-30936D02*
X60462Y-30936D01*
X60462Y-30463D02*
X60737Y-30463D01*
G54D12*
X61328Y-31795D02*
X59871Y-31795D01*
X61328Y-31204D02*
X59871Y-31204D01*
X61328Y-31795D02*
X61328Y-31204D01*
X59871Y-31795D02*
X59871Y-31204D01*
G54D11*
X60737Y-31736D02*
X60462Y-31736D01*
X60462Y-31263D02*
X60737Y-31263D01*
G54D12*
X64504Y-45428D02*
X64504Y-43971D01*
X65095Y-45428D02*
X65095Y-43971D01*
X64504Y-45428D02*
X65095Y-45428D01*
X64504Y-43971D02*
X65095Y-43971D01*
G54D11*
X64563Y-44837D02*
X64563Y-44562D01*
X65036Y-44562D02*
X65036Y-44837D01*
G54D12*
X68295Y-42871D02*
X68295Y-44328D01*
X67704Y-42871D02*
X67704Y-44328D01*
X68295Y-42871D02*
X67704Y-42871D01*
X68295Y-44328D02*
X67704Y-44328D01*
G54D11*
X68236Y-43462D02*
X68236Y-43737D01*
X67763Y-43737D02*
X67763Y-43462D01*
G54D12*
X68945Y-45021D02*
X68945Y-46478D01*
X68354Y-45021D02*
X68354Y-46478D01*
X68945Y-45021D02*
X68354Y-45021D01*
X68945Y-46478D02*
X68354Y-46478D01*
G54D11*
X68886Y-45612D02*
X68886Y-45887D01*
X68413Y-45887D02*
X68413Y-45612D01*
G54D12*
X68354Y-44978D02*
X68354Y-43521D01*
X68945Y-44978D02*
X68945Y-43521D01*
X68354Y-44978D02*
X68945Y-44978D01*
X68354Y-43521D02*
X68945Y-43521D01*
G54D11*
X68413Y-44387D02*
X68413Y-44112D01*
X68886Y-44112D02*
X68886Y-44387D01*
G54D12*
X66604Y-41053D02*
X66604Y-39596D01*
X67195Y-41053D02*
X67195Y-39596D01*
X66604Y-41053D02*
X67195Y-41053D01*
X66604Y-39596D02*
X67195Y-39596D01*
G54D11*
X66663Y-40462D02*
X66663Y-40187D01*
X67136Y-40187D02*
X67136Y-40462D01*
G54D12*
X66004Y-41053D02*
X66004Y-39596D01*
X66595Y-41053D02*
X66595Y-39596D01*
X66004Y-41053D02*
X66595Y-41053D01*
X66004Y-39596D02*
X66595Y-39596D01*
G54D11*
X66063Y-40462D02*
X66063Y-40187D01*
X66536Y-40187D02*
X66536Y-40462D01*
G54D12*
X64495Y-44421D02*
X64495Y-45878D01*
X63904Y-44421D02*
X63904Y-45878D01*
X64495Y-44421D02*
X63904Y-44421D01*
X64495Y-45878D02*
X63904Y-45878D01*
G54D11*
X64436Y-45012D02*
X64436Y-45287D01*
X63963Y-45287D02*
X63963Y-45012D01*
G54D12*
X67795Y-39596D02*
X67795Y-41053D01*
X67204Y-39596D02*
X67204Y-41053D01*
X67795Y-39596D02*
X67204Y-39596D01*
X67795Y-41053D02*
X67204Y-41053D01*
G54D11*
X67736Y-40187D02*
X67736Y-40462D01*
X67263Y-40462D02*
X67263Y-40187D01*
G54D12*
X44196Y-35454D02*
X45653Y-35454D01*
X44196Y-36045D02*
X45653Y-36045D01*
X44196Y-35454D02*
X44196Y-36045D01*
X45653Y-35454D02*
X45653Y-36045D01*
G54D11*
X44787Y-35513D02*
X45062Y-35513D01*
X45062Y-35986D02*
X44787Y-35986D01*
G54D14*
X58650Y-30825D02*
X57150Y-30825D01*
X57150Y-30825D02*
X57150Y-31525D01*
X57150Y-31525D02*
X58650Y-31525D01*
X58650Y-30825D02*
X58650Y-31525D01*
X43550Y-40075D02*
X43550Y-41575D01*
X43550Y-41575D02*
X44250Y-41575D01*
X44250Y-41575D02*
X44250Y-40075D01*
X43550Y-40075D02*
X44250Y-40075D01*
X43500Y-31500D02*
X43500Y-32500D01*
X44200Y-32500D02*
X44200Y-31500D01*
X44200Y-32500D02*
X43500Y-32500D01*
X43500Y-31500D02*
X44200Y-31500D01*
X47400Y-31500D02*
X47400Y-32500D01*
X48100Y-32500D02*
X48100Y-31500D01*
X48100Y-32500D02*
X47400Y-32500D01*
X47400Y-31500D02*
X48100Y-31500D01*
G54D13*
X66327Y-32074D02*
X66694Y-32074D01*
X67572Y-32074D02*
X67205Y-32074D01*
G54D11*
X67548Y-32050D02*
X66351Y-32050D01*
X66351Y-31499D02*
X66351Y-32050D01*
G54D12*
X67638Y-30712D02*
X67638Y-32837D01*
X67638Y-32837D02*
X66261Y-32837D01*
X66261Y-32837D02*
X66261Y-30712D01*
X66261Y-30712D02*
X67638Y-30712D01*
G54D13*
X67572Y-32074D02*
X67572Y-30830D01*
G54D11*
X67548Y-31499D02*
X67548Y-32050D01*
X67548Y-31499D02*
X66351Y-31499D01*
G54D13*
X66327Y-32074D02*
X66327Y-31499D01*
G54D11*
X50700Y-54200D02*
X52700Y-54200D01*
X52700Y-54200D02*
X52700Y-52500D01*
X52700Y-52500D02*
X50700Y-52500D01*
X50700Y-52500D02*
X50700Y-54200D01*
X59800Y-54200D02*
X61800Y-54200D01*
X61800Y-54200D02*
X61800Y-52500D01*
X61800Y-52500D02*
X59800Y-52500D01*
X59800Y-52500D02*
X59800Y-54200D01*
X46400Y-28900D02*
X44400Y-28900D01*
X44400Y-28900D02*
X44400Y-30600D01*
X44400Y-30600D02*
X46400Y-30600D01*
X46400Y-30600D02*
X46400Y-28900D01*
X67900Y-28900D02*
X65900Y-28900D01*
X65900Y-28900D02*
X65900Y-30600D01*
X65900Y-30600D02*
X67900Y-30600D01*
X67900Y-30600D02*
X67900Y-28900D01*
G54D12*
X61111Y-29302D02*
X57488Y-29302D01*
X57488Y-29302D02*
X57488Y-26605D01*
X57488Y-26605D02*
X61111Y-26605D01*
X61111Y-26605D02*
X61111Y-29302D01*
G54D11*
X61012Y-26697D02*
X57587Y-26697D01*
X61012Y-29218D02*
X57587Y-29218D01*
X57587Y-29218D02*
X57587Y-26697D01*
X57587Y-27181D02*
X61012Y-27181D01*
X61012Y-26697D02*
X61012Y-29218D01*
X65424Y-40500D02*
X65700Y-40500D01*
X65700Y-40500D02*
X65700Y-40000D01*
X64200Y-30000D02*
X64200Y-40500D01*
X65700Y-30500D02*
X65700Y-30000D01*
X65700Y-30000D02*
X65424Y-30000D01*
G54D12*
X48453Y-47845D02*
X46996Y-47845D01*
X48453Y-47254D02*
X46996Y-47254D01*
X48453Y-47845D02*
X48453Y-47254D01*
X46996Y-47845D02*
X46996Y-47254D01*
G54D11*
X47862Y-47786D02*
X47587Y-47786D01*
X47587Y-47313D02*
X47862Y-47313D01*
G54D12*
X53154Y-49328D02*
X53154Y-47871D01*
X53745Y-49328D02*
X53745Y-47871D01*
X53154Y-49328D02*
X53745Y-49328D01*
X53154Y-47871D02*
X53745Y-47871D01*
G54D11*
X53213Y-48737D02*
X53213Y-48462D01*
X53686Y-48462D02*
X53686Y-48737D01*
G54D15*
X43968Y-53933D02*
X43968Y-48185D01*
X48909Y-54071D02*
X47826Y-53933D01*
X43968Y-48185D02*
X50248Y-48185D01*
X50248Y-48185D02*
X50248Y-54071D01*
X50248Y-54071D02*
X48909Y-54071D01*
X47787Y-53933D02*
X43968Y-53933D01*
X62443Y-53933D02*
X62443Y-48185D01*
X67384Y-54071D02*
X66301Y-53933D01*
X62443Y-48185D02*
X68723Y-48185D01*
X68723Y-48185D02*
X68723Y-54071D01*
X68723Y-54071D02*
X67384Y-54071D01*
X66262Y-53933D02*
X62443Y-53933D01*
G54D16*
G36*
X47050Y-39050D02*
X46980Y-39050D01*
X46980Y-37633D01*
X46971Y-37508D01*
X46947Y-37397D01*
X46915Y-37305D01*
X46786Y-37051D01*
X46607Y-36839D01*
X46381Y-36674D01*
X46334Y-36650D01*
X46228Y-36597D01*
X46143Y-36563D01*
X46058Y-36544D01*
X45953Y-36535D01*
X45809Y-36533D01*
X45753Y-36533D01*
X45585Y-36535D01*
X45465Y-36543D01*
X45371Y-36560D01*
X45284Y-36589D01*
X45210Y-36622D01*
X44994Y-36756D01*
X44802Y-36937D01*
X44654Y-37148D01*
X44622Y-37210D01*
X44552Y-37422D01*
X44518Y-37664D01*
X44522Y-37911D01*
X44564Y-38137D01*
X44582Y-38191D01*
X44672Y-38377D01*
X44792Y-38553D01*
X44927Y-38701D01*
X45032Y-38782D01*
X45200Y-38876D01*
X45354Y-38936D01*
X45517Y-38967D01*
X45713Y-38975D01*
X45800Y-38974D01*
X45959Y-38967D01*
X46074Y-38955D01*
X46165Y-38934D01*
X46254Y-38897D01*
X46342Y-38852D01*
X46579Y-38693D01*
X46759Y-38500D01*
X46885Y-38271D01*
X46957Y-38002D01*
X46977Y-37800D01*
X46980Y-37633D01*
X46980Y-39050D01*
X45750Y-39050D01*
X44450Y-39050D01*
X44450Y-37750D01*
X44450Y-36450D01*
X45750Y-36450D01*
X47050Y-36450D01*
X47050Y-37750D01*
X47050Y-39050D01*
X47050Y-39050D01*
X47050Y-39050D01*
G37*
G36*
X45610Y-38876D02*
X45563Y-38866D01*
X45466Y-38836D01*
X45218Y-38734D01*
X45016Y-38594D01*
X44846Y-38405D01*
X44771Y-38293D01*
X44695Y-38147D01*
X44653Y-37995D01*
X44636Y-37812D01*
X44635Y-37750D01*
X44642Y-37578D01*
X44667Y-37444D01*
X44717Y-37315D01*
X44738Y-37273D01*
X44800Y-37154D01*
X44889Y-37232D01*
X44946Y-37295D01*
X44976Y-37373D01*
X44989Y-37488D01*
X45000Y-37666D01*
X45250Y-37685D01*
X45500Y-37704D01*
X45241Y-37710D01*
X44983Y-37716D01*
X44983Y-37850D01*
X44973Y-37954D01*
X44947Y-38039D01*
X44941Y-38050D01*
X44921Y-38132D01*
X44956Y-38199D01*
X45033Y-38232D01*
X45049Y-38233D01*
X45133Y-38207D01*
X45175Y-38144D01*
X45165Y-38064D01*
X45158Y-38050D01*
X45124Y-37963D01*
X45116Y-37900D01*
X45121Y-37852D01*
X45146Y-37827D01*
X45207Y-37818D01*
X45300Y-37816D01*
X45483Y-37816D01*
X45483Y-38295D01*
X45483Y-38484D01*
X45486Y-38617D01*
X45492Y-38705D01*
X45504Y-38761D01*
X45522Y-38796D01*
X45549Y-38821D01*
X45558Y-38827D01*
X45606Y-38863D01*
X45610Y-38876D01*
X45610Y-38876D01*
X45610Y-38876D01*
G37*
G36*
X46485Y-37593D02*
X46376Y-37686D01*
X46300Y-37745D01*
X46242Y-37778D01*
X46230Y-37781D01*
X46182Y-37805D01*
X46133Y-37849D01*
X46095Y-37906D01*
X46106Y-37952D01*
X46116Y-37966D01*
X46187Y-38012D01*
X46264Y-38011D01*
X46322Y-37966D01*
X46335Y-37935D01*
X46376Y-37848D01*
X46420Y-37796D01*
X46446Y-37775D01*
X46464Y-37772D01*
X46474Y-37797D01*
X46479Y-37860D01*
X46479Y-37968D01*
X46477Y-38132D01*
X46476Y-38185D01*
X46466Y-38633D01*
X46287Y-38729D01*
X46131Y-38806D01*
X46012Y-38846D01*
X45914Y-38850D01*
X45820Y-38820D01*
X45758Y-38786D01*
X45616Y-38700D01*
X45619Y-38467D01*
X45621Y-38348D01*
X45626Y-38289D01*
X45636Y-38281D01*
X45654Y-38316D01*
X45660Y-38333D01*
X45697Y-38401D01*
X45748Y-38424D01*
X45813Y-38422D01*
X45888Y-38412D01*
X45942Y-38390D01*
X45977Y-38349D01*
X45996Y-38277D01*
X46003Y-38165D01*
X46001Y-38004D01*
X45994Y-37844D01*
X45973Y-37366D01*
X46045Y-37430D01*
X46097Y-37495D01*
X46116Y-37551D01*
X46142Y-37622D01*
X46201Y-37668D01*
X46266Y-37671D01*
X46311Y-37629D01*
X46298Y-37560D01*
X46227Y-37462D01*
X46175Y-37407D01*
X46083Y-37303D01*
X46040Y-37218D01*
X46033Y-37166D01*
X46022Y-37093D01*
X45979Y-37062D01*
X45947Y-37056D01*
X45852Y-37069D01*
X45802Y-37126D01*
X45804Y-37217D01*
X45814Y-37243D01*
X45832Y-37325D01*
X45842Y-37455D01*
X45843Y-37613D01*
X45843Y-37635D01*
X45837Y-37776D01*
X45830Y-37864D01*
X45816Y-37911D01*
X45792Y-37929D01*
X45754Y-37933D01*
X45750Y-37933D01*
X45686Y-37948D01*
X45653Y-38005D01*
X45647Y-38033D01*
X45636Y-38068D01*
X45626Y-38045D01*
X45617Y-37959D01*
X45613Y-37904D01*
X45610Y-37784D01*
X45613Y-37688D01*
X45623Y-37639D01*
X45633Y-37582D01*
X45583Y-37547D01*
X45475Y-37534D01*
X45363Y-37539D01*
X45150Y-37559D01*
X45150Y-37411D01*
X45144Y-37316D01*
X45116Y-37252D01*
X45052Y-37191D01*
X45017Y-37164D01*
X44940Y-37104D01*
X44892Y-37058D01*
X44884Y-37045D01*
X44910Y-36997D01*
X44982Y-36931D01*
X45086Y-36855D01*
X45206Y-36780D01*
X45328Y-36714D01*
X45439Y-36669D01*
X45445Y-36667D01*
X45523Y-36643D01*
X45511Y-37054D01*
X45507Y-37227D01*
X45508Y-37345D01*
X45514Y-37418D01*
X45526Y-37458D01*
X45547Y-37474D01*
X45555Y-37476D01*
X45598Y-37475D01*
X45628Y-37446D01*
X45647Y-37380D01*
X45655Y-37269D01*
X45656Y-37105D01*
X45653Y-37003D01*
X45643Y-36606D01*
X45835Y-36626D01*
X46016Y-36664D01*
X46211Y-36739D01*
X46247Y-36756D01*
X46466Y-36866D01*
X46476Y-37229D01*
X46485Y-37593D01*
X46485Y-37593D01*
X46485Y-37593D01*
G37*
G36*
X46860Y-37752D02*
X46855Y-37914D01*
X46839Y-38036D01*
X46816Y-38108D01*
X46775Y-38203D01*
X46726Y-38303D01*
X46678Y-38388D01*
X46642Y-38441D01*
X46630Y-38450D01*
X46626Y-38418D01*
X46622Y-38329D01*
X46620Y-38193D01*
X46618Y-38019D01*
X46617Y-37818D01*
X46617Y-37741D01*
X46617Y-37033D01*
X46716Y-37190D01*
X46777Y-37301D01*
X46824Y-37409D01*
X46838Y-37457D01*
X46855Y-37589D01*
X46860Y-37752D01*
X46860Y-37752D01*
X46860Y-37752D01*
G37*
G36*
X45950Y-38152D02*
X45922Y-38220D01*
X45856Y-38257D01*
X45779Y-38248D01*
X45774Y-38245D01*
X45725Y-38190D01*
X45716Y-38151D01*
X45731Y-38108D01*
X45788Y-38091D01*
X45833Y-38090D01*
X45914Y-38098D01*
X45946Y-38127D01*
X45950Y-38152D01*
X45950Y-38152D01*
X45950Y-38152D01*
G37*
G36*
X45083Y-38100D02*
X45062Y-38145D01*
X45016Y-38137D01*
X45006Y-38128D01*
X44999Y-38087D01*
X45033Y-38053D01*
X45051Y-38050D01*
X45079Y-38077D01*
X45083Y-38100D01*
X45083Y-38100D01*
X45083Y-38100D01*
G37*
G36*
X46269Y-37938D02*
X46257Y-37955D01*
X46216Y-37967D01*
X46200Y-37950D01*
X46197Y-37894D01*
X46209Y-37877D01*
X46250Y-37865D01*
X46266Y-37883D01*
X46269Y-37938D01*
X46269Y-37938D01*
X46269Y-37938D01*
G37*
G36*
X45975Y-37175D02*
X45959Y-37208D01*
X45916Y-37216D01*
X45863Y-37201D01*
X45858Y-37175D01*
X45899Y-37136D01*
X45916Y-37133D01*
X45966Y-37159D01*
X45975Y-37175D01*
X45975Y-37175D01*
X45975Y-37175D01*
G37*
G54D17*
X56054Y-49577D02*
X56054Y-49262D01*
X56129Y-49262D01*
X56148Y-49277D01*
X56157Y-49292D01*
X56167Y-49322D01*
X56167Y-49367D01*
X56157Y-49397D01*
X56148Y-49412D01*
X56129Y-49427D01*
X56054Y-49427D01*
X56354Y-49577D02*
X56242Y-49577D01*
X56298Y-49577D02*
X56298Y-49262D01*
X56279Y-49307D01*
X56260Y-49337D01*
X56242Y-49352D01*
X55632Y-49662D02*
X55698Y-49977D01*
X55764Y-49662D01*
X55867Y-49662D02*
X55904Y-49662D01*
X55923Y-49677D01*
X55942Y-49707D01*
X55951Y-49767D01*
X55951Y-49872D01*
X55942Y-49932D01*
X55923Y-49962D01*
X55904Y-49977D01*
X55867Y-49977D01*
X55848Y-49962D01*
X55829Y-49932D01*
X55820Y-49872D01*
X55820Y-49767D01*
X55829Y-49707D01*
X55848Y-49677D01*
X55867Y-49662D01*
X56129Y-49977D02*
X56035Y-49977D01*
X56035Y-49662D01*
X56195Y-49662D02*
X56195Y-49917D01*
X56204Y-49947D01*
X56214Y-49962D01*
X56232Y-49977D01*
X56270Y-49977D01*
X56289Y-49962D01*
X56298Y-49947D01*
X56307Y-49917D01*
X56307Y-49662D01*
X56401Y-49977D02*
X56401Y-49662D01*
X56467Y-49887D01*
X56532Y-49662D01*
X56532Y-49977D01*
X56626Y-49977D02*
X56626Y-49662D01*
X56738Y-49977D01*
X56738Y-49662D01*
X66062Y-42699D02*
X66317Y-42699D01*
X66347Y-42690D01*
X66362Y-42681D01*
X66377Y-42662D01*
X66377Y-42624D01*
X66362Y-42606D01*
X66347Y-42596D01*
X66317Y-42587D01*
X66062Y-42587D01*
X66377Y-42390D02*
X66377Y-42503D01*
X66377Y-42446D02*
X66062Y-42446D01*
X66107Y-42465D01*
X66137Y-42484D01*
X66152Y-42503D01*
X66777Y-42771D02*
X66462Y-42771D01*
X66462Y-42696D01*
X66477Y-42678D01*
X66492Y-42668D01*
X66522Y-42659D01*
X66567Y-42659D01*
X66597Y-42668D01*
X66612Y-42678D01*
X66627Y-42696D01*
X66627Y-42771D01*
X66747Y-42462D02*
X66762Y-42471D01*
X66777Y-42499D01*
X66777Y-42518D01*
X66762Y-42546D01*
X66732Y-42565D01*
X66702Y-42574D01*
X66642Y-42584D01*
X66597Y-42584D01*
X66537Y-42574D01*
X66507Y-42565D01*
X66477Y-42546D01*
X66462Y-42518D01*
X66462Y-42499D01*
X66477Y-42471D01*
X66492Y-42462D01*
X66777Y-42378D02*
X66462Y-42378D01*
X66687Y-42312D01*
X66462Y-42246D01*
X66777Y-42246D01*
X66462Y-42059D02*
X66462Y-42153D01*
X66612Y-42162D01*
X66597Y-42153D01*
X66582Y-42134D01*
X66582Y-42087D01*
X66597Y-42068D01*
X66612Y-42059D01*
X66642Y-42049D01*
X66717Y-42049D01*
X66747Y-42059D01*
X66762Y-42068D01*
X66777Y-42087D01*
X66777Y-42134D01*
X66762Y-42153D01*
X66747Y-42162D01*
X66777Y-41862D02*
X66777Y-41975D01*
X66777Y-41918D02*
X66462Y-41918D01*
X66507Y-41937D01*
X66537Y-41956D01*
X66552Y-41975D01*
X66462Y-41740D02*
X66462Y-41721D01*
X66477Y-41703D01*
X66492Y-41693D01*
X66522Y-41684D01*
X66582Y-41675D01*
X66657Y-41675D01*
X66717Y-41684D01*
X66747Y-41693D01*
X66762Y-41703D01*
X66777Y-41721D01*
X66777Y-41740D01*
X66762Y-41759D01*
X66747Y-41768D01*
X66717Y-41778D01*
X66657Y-41787D01*
X66582Y-41787D01*
X66522Y-41778D01*
X66492Y-41768D01*
X66477Y-41759D01*
X66462Y-41740D01*
X66492Y-41600D02*
X66477Y-41590D01*
X66462Y-41571D01*
X66462Y-41525D01*
X66477Y-41506D01*
X66492Y-41496D01*
X66522Y-41487D01*
X66552Y-41487D01*
X66597Y-41496D01*
X66777Y-41609D01*
X66777Y-41487D01*
X66687Y-41412D02*
X66687Y-41318D01*
X66777Y-41431D02*
X66462Y-41365D01*
X66777Y-41300D01*
X45000Y-31462D02*
X45000Y-31717D01*
X45009Y-31747D01*
X45018Y-31762D01*
X45037Y-31777D01*
X45075Y-31777D01*
X45093Y-31762D01*
X45103Y-31747D01*
X45112Y-31717D01*
X45112Y-31462D01*
X45196Y-31492D02*
X45206Y-31477D01*
X45224Y-31462D01*
X45271Y-31462D01*
X45290Y-31477D01*
X45299Y-31492D01*
X45309Y-31522D01*
X45309Y-31552D01*
X45299Y-31597D01*
X45187Y-31777D01*
X45309Y-31777D01*
X45026Y-32177D02*
X45026Y-31862D01*
X45101Y-31862D01*
X45120Y-31877D01*
X45129Y-31892D01*
X45139Y-31922D01*
X45139Y-31967D01*
X45129Y-31997D01*
X45120Y-32012D01*
X45101Y-32027D01*
X45026Y-32027D01*
X45214Y-32087D02*
X45307Y-32087D01*
X45195Y-32177D02*
X45260Y-31862D01*
X45326Y-32177D01*
X45392Y-32177D02*
X45392Y-31862D01*
X45457Y-32087D01*
X45523Y-31862D01*
X45523Y-32177D01*
X45645Y-31997D02*
X45626Y-31982D01*
X45617Y-31967D01*
X45607Y-31937D01*
X45607Y-31922D01*
X45617Y-31892D01*
X45626Y-31877D01*
X45645Y-31862D01*
X45682Y-31862D01*
X45701Y-31877D01*
X45710Y-31892D01*
X45720Y-31922D01*
X45720Y-31937D01*
X45710Y-31967D01*
X45701Y-31982D01*
X45682Y-31997D01*
X45645Y-31997D01*
X45626Y-32012D01*
X45617Y-32027D01*
X45607Y-32057D01*
X45607Y-32117D01*
X45617Y-32147D01*
X45626Y-32162D01*
X45645Y-32177D01*
X45682Y-32177D01*
X45701Y-32162D01*
X45710Y-32147D01*
X45720Y-32117D01*
X45720Y-32057D01*
X45710Y-32027D01*
X45701Y-32012D01*
X45682Y-31997D01*
X45889Y-31967D02*
X45889Y-32177D01*
X45842Y-31847D02*
X45795Y-32072D01*
X45917Y-32072D01*
X46029Y-31862D02*
X46048Y-31862D01*
X46067Y-31877D01*
X46076Y-31892D01*
X46085Y-31922D01*
X46095Y-31982D01*
X46095Y-32057D01*
X46085Y-32117D01*
X46076Y-32147D01*
X46067Y-32162D01*
X46048Y-32177D01*
X46029Y-32177D01*
X46010Y-32162D01*
X46001Y-32147D01*
X45992Y-32117D01*
X45982Y-32057D01*
X45982Y-31982D01*
X45992Y-31922D01*
X46001Y-31892D01*
X46010Y-31877D01*
X46029Y-31862D01*
X46160Y-31862D02*
X46282Y-31862D01*
X46217Y-31982D01*
X46245Y-31982D01*
X46263Y-31997D01*
X46273Y-32012D01*
X46282Y-32042D01*
X46282Y-32117D01*
X46273Y-32147D01*
X46263Y-32162D01*
X46245Y-32177D01*
X46188Y-32177D01*
X46170Y-32162D01*
X46160Y-32147D01*
X58850Y-30912D02*
X58850Y-31167D01*
X58859Y-31197D01*
X58868Y-31212D01*
X58887Y-31227D01*
X58925Y-31227D01*
X58943Y-31212D01*
X58953Y-31197D01*
X58962Y-31167D01*
X58962Y-30912D01*
X59149Y-30912D02*
X59056Y-30912D01*
X59046Y-31062D01*
X59056Y-31047D01*
X59074Y-31032D01*
X59121Y-31032D01*
X59140Y-31047D01*
X59149Y-31062D01*
X59159Y-31092D01*
X59159Y-31167D01*
X59149Y-31197D01*
X59140Y-31212D01*
X59121Y-31227D01*
X59074Y-31227D01*
X59056Y-31212D01*
X59046Y-31197D01*
X58482Y-30112D02*
X58595Y-30112D01*
X58539Y-30427D02*
X58539Y-30112D01*
X58661Y-30427D02*
X58661Y-30112D01*
X58735Y-30112D01*
X58754Y-30127D01*
X58764Y-30142D01*
X58773Y-30172D01*
X58773Y-30217D01*
X58764Y-30247D01*
X58754Y-30262D01*
X58735Y-30277D01*
X58661Y-30277D01*
X58848Y-30412D02*
X58876Y-30427D01*
X58923Y-30427D01*
X58942Y-30412D01*
X58951Y-30397D01*
X58960Y-30367D01*
X58960Y-30337D01*
X58951Y-30307D01*
X58942Y-30292D01*
X58923Y-30277D01*
X58885Y-30262D01*
X58867Y-30247D01*
X58857Y-30232D01*
X58848Y-30202D01*
X58848Y-30172D01*
X58857Y-30142D01*
X58867Y-30127D01*
X58885Y-30112D01*
X58932Y-30112D01*
X58960Y-30127D01*
X59026Y-30112D02*
X59157Y-30112D01*
X59073Y-30427D01*
X59335Y-30427D02*
X59223Y-30427D01*
X59279Y-30427D02*
X59279Y-30112D01*
X59260Y-30157D01*
X59242Y-30187D01*
X59223Y-30202D01*
X59401Y-30112D02*
X59532Y-30112D01*
X59448Y-30427D01*
X59710Y-30427D02*
X59598Y-30427D01*
X59654Y-30427D02*
X59654Y-30112D01*
X59635Y-30157D01*
X59617Y-30187D01*
X59598Y-30202D01*
X59823Y-30247D02*
X59804Y-30232D01*
X59795Y-30217D01*
X59785Y-30187D01*
X59785Y-30172D01*
X59795Y-30142D01*
X59804Y-30127D01*
X59823Y-30112D01*
X59860Y-30112D01*
X59879Y-30127D01*
X59888Y-30142D01*
X59898Y-30172D01*
X59898Y-30187D01*
X59888Y-30217D01*
X59879Y-30232D01*
X59860Y-30247D01*
X59823Y-30247D01*
X59804Y-30262D01*
X59795Y-30277D01*
X59785Y-30307D01*
X59785Y-30367D01*
X59795Y-30397D01*
X59804Y-30412D01*
X59823Y-30427D01*
X59860Y-30427D01*
X59879Y-30412D01*
X59888Y-30397D01*
X59898Y-30367D01*
X59898Y-30307D01*
X59888Y-30277D01*
X59879Y-30262D01*
X59860Y-30247D01*
X47698Y-35902D02*
X47632Y-35752D01*
X47585Y-35902D02*
X47585Y-35587D01*
X47660Y-35587D01*
X47679Y-35602D01*
X47689Y-35617D01*
X47698Y-35647D01*
X47698Y-35692D01*
X47689Y-35722D01*
X47679Y-35737D01*
X47660Y-35752D01*
X47585Y-35752D01*
X47885Y-35902D02*
X47773Y-35902D01*
X47829Y-35902D02*
X47829Y-35587D01*
X47810Y-35632D01*
X47792Y-35662D01*
X47773Y-35677D01*
X48064Y-35587D02*
X47970Y-35587D01*
X47960Y-35737D01*
X47970Y-35722D01*
X47989Y-35707D01*
X48035Y-35707D01*
X48054Y-35722D01*
X48064Y-35737D01*
X48073Y-35767D01*
X48073Y-35842D01*
X48064Y-35872D01*
X48054Y-35887D01*
X48035Y-35902D01*
X47989Y-35902D01*
X47970Y-35887D01*
X47960Y-35872D01*
X47648Y-36092D02*
X47648Y-36302D01*
X47601Y-35972D02*
X47554Y-36197D01*
X47676Y-36197D01*
X47751Y-36272D02*
X47760Y-36287D01*
X47751Y-36302D01*
X47742Y-36287D01*
X47751Y-36272D01*
X47751Y-36302D01*
X47826Y-35987D02*
X47957Y-35987D01*
X47873Y-36302D01*
X48032Y-36302D02*
X48032Y-35987D01*
X48145Y-36302D02*
X48060Y-36122D01*
X48145Y-35987D02*
X48032Y-36167D01*
X47773Y-43227D02*
X47707Y-43077D01*
X47660Y-43227D02*
X47660Y-42912D01*
X47735Y-42912D01*
X47754Y-42927D01*
X47764Y-42942D01*
X47773Y-42972D01*
X47773Y-43017D01*
X47764Y-43047D01*
X47754Y-43062D01*
X47735Y-43077D01*
X47660Y-43077D01*
X47960Y-43227D02*
X47848Y-43227D01*
X47904Y-43227D02*
X47904Y-42912D01*
X47885Y-42957D01*
X47867Y-42987D01*
X47848Y-43002D01*
X48148Y-43227D02*
X48035Y-43227D01*
X48092Y-43227D02*
X48092Y-42912D01*
X48073Y-42957D01*
X48054Y-42987D01*
X48035Y-43002D01*
X47048Y-43017D02*
X47048Y-43227D01*
X47001Y-42897D02*
X46954Y-43122D01*
X47076Y-43122D01*
X47151Y-43197D02*
X47160Y-43212D01*
X47151Y-43227D01*
X47142Y-43212D01*
X47151Y-43197D01*
X47151Y-43227D01*
X47226Y-42912D02*
X47357Y-42912D01*
X47273Y-43227D01*
X47432Y-43227D02*
X47432Y-42912D01*
X47545Y-43227D02*
X47460Y-43047D01*
X47545Y-42912D02*
X47432Y-43092D01*
X59623Y-49927D02*
X59557Y-49777D01*
X59510Y-49927D02*
X59510Y-49612D01*
X59585Y-49612D01*
X59604Y-49627D01*
X59614Y-49642D01*
X59623Y-49672D01*
X59623Y-49717D01*
X59614Y-49747D01*
X59604Y-49762D01*
X59585Y-49777D01*
X59510Y-49777D01*
X59810Y-49927D02*
X59698Y-49927D01*
X59754Y-49927D02*
X59754Y-49612D01*
X59735Y-49657D01*
X59717Y-49687D01*
X59698Y-49702D01*
X59932Y-49612D02*
X59951Y-49612D01*
X59970Y-49627D01*
X59979Y-49642D01*
X59989Y-49672D01*
X59998Y-49732D01*
X59998Y-49807D01*
X59989Y-49867D01*
X59979Y-49897D01*
X59970Y-49912D01*
X59951Y-49927D01*
X59932Y-49927D01*
X59914Y-49912D01*
X59904Y-49897D01*
X59895Y-49867D01*
X59885Y-49807D01*
X59885Y-49732D01*
X59895Y-49672D01*
X59904Y-49642D01*
X59914Y-49627D01*
X59932Y-49612D01*
X59598Y-50117D02*
X59598Y-50327D01*
X59551Y-49997D02*
X59504Y-50222D01*
X59626Y-50222D01*
X59701Y-50297D02*
X59710Y-50312D01*
X59701Y-50327D01*
X59692Y-50312D01*
X59701Y-50297D01*
X59701Y-50327D01*
X59776Y-50012D02*
X59907Y-50012D01*
X59823Y-50327D01*
X59982Y-50327D02*
X59982Y-50012D01*
X60095Y-50327D02*
X60010Y-50147D01*
X60095Y-50012D02*
X59982Y-50192D01*
X47917Y-41527D02*
X47851Y-41377D01*
X47804Y-41527D02*
X47804Y-41212D01*
X47879Y-41212D01*
X47898Y-41227D01*
X47907Y-41242D01*
X47917Y-41272D01*
X47917Y-41317D01*
X47907Y-41347D01*
X47898Y-41362D01*
X47879Y-41377D01*
X47804Y-41377D01*
X48010Y-41527D02*
X48048Y-41527D01*
X48067Y-41512D01*
X48076Y-41497D01*
X48095Y-41452D01*
X48104Y-41392D01*
X48104Y-41272D01*
X48095Y-41242D01*
X48085Y-41227D01*
X48067Y-41212D01*
X48029Y-41212D01*
X48010Y-41227D01*
X48001Y-41242D01*
X47992Y-41272D01*
X47992Y-41347D01*
X48001Y-41377D01*
X48010Y-41392D01*
X48029Y-41407D01*
X48067Y-41407D01*
X48085Y-41392D01*
X48095Y-41377D01*
X48104Y-41347D01*
X47198Y-41317D02*
X47198Y-41527D01*
X47151Y-41197D02*
X47104Y-41422D01*
X47226Y-41422D01*
X47301Y-41497D02*
X47310Y-41512D01*
X47301Y-41527D01*
X47292Y-41512D01*
X47301Y-41497D01*
X47301Y-41527D01*
X47376Y-41212D02*
X47507Y-41212D01*
X47423Y-41527D01*
X47582Y-41527D02*
X47582Y-41212D01*
X47695Y-41527D02*
X47610Y-41347D01*
X47695Y-41212D02*
X47582Y-41392D01*
X49673Y-30077D02*
X49607Y-29927D01*
X49560Y-30077D02*
X49560Y-29762D01*
X49635Y-29762D01*
X49654Y-29777D01*
X49664Y-29792D01*
X49673Y-29822D01*
X49673Y-29867D01*
X49664Y-29897D01*
X49654Y-29912D01*
X49635Y-29927D01*
X49560Y-29927D01*
X49860Y-30077D02*
X49748Y-30077D01*
X49804Y-30077D02*
X49804Y-29762D01*
X49785Y-29807D01*
X49767Y-29837D01*
X49748Y-29852D01*
X49926Y-29762D02*
X50057Y-29762D01*
X49973Y-30077D01*
X49648Y-30267D02*
X49648Y-30477D01*
X49601Y-30147D02*
X49554Y-30372D01*
X49676Y-30372D01*
X49751Y-30447D02*
X49760Y-30462D01*
X49751Y-30477D01*
X49742Y-30462D01*
X49751Y-30447D01*
X49751Y-30477D01*
X49826Y-30162D02*
X49957Y-30162D01*
X49873Y-30477D01*
X50032Y-30477D02*
X50032Y-30162D01*
X50145Y-30477D02*
X50060Y-30297D01*
X50145Y-30162D02*
X50032Y-30342D01*
X64623Y-47377D02*
X64557Y-47227D01*
X64510Y-47377D02*
X64510Y-47062D01*
X64585Y-47062D01*
X64604Y-47077D01*
X64614Y-47092D01*
X64623Y-47122D01*
X64623Y-47167D01*
X64614Y-47197D01*
X64604Y-47212D01*
X64585Y-47227D01*
X64510Y-47227D01*
X64810Y-47377D02*
X64698Y-47377D01*
X64754Y-47377D02*
X64754Y-47062D01*
X64735Y-47107D01*
X64717Y-47137D01*
X64698Y-47152D01*
X64904Y-47377D02*
X64942Y-47377D01*
X64960Y-47362D01*
X64970Y-47347D01*
X64989Y-47302D01*
X64998Y-47242D01*
X64998Y-47122D01*
X64989Y-47092D01*
X64979Y-47077D01*
X64960Y-47062D01*
X64923Y-47062D01*
X64904Y-47077D01*
X64895Y-47092D01*
X64885Y-47122D01*
X64885Y-47197D01*
X64895Y-47227D01*
X64904Y-47242D01*
X64923Y-47257D01*
X64960Y-47257D01*
X64979Y-47242D01*
X64989Y-47227D01*
X64998Y-47197D01*
X63998Y-47517D02*
X63998Y-47727D01*
X63951Y-47397D02*
X63904Y-47622D01*
X64026Y-47622D01*
X64101Y-47697D02*
X64110Y-47712D01*
X64101Y-47727D01*
X64092Y-47712D01*
X64101Y-47697D01*
X64101Y-47727D01*
X64176Y-47412D02*
X64307Y-47412D01*
X64223Y-47727D01*
X64382Y-47727D02*
X64382Y-47412D01*
X64495Y-47727D02*
X64410Y-47547D01*
X64495Y-47412D02*
X64382Y-47592D01*
X46217Y-41227D02*
X46151Y-41077D01*
X46104Y-41227D02*
X46104Y-40912D01*
X46179Y-40912D01*
X46198Y-40927D01*
X46207Y-40942D01*
X46217Y-40972D01*
X46217Y-41017D01*
X46207Y-41047D01*
X46198Y-41062D01*
X46179Y-41077D01*
X46104Y-41077D01*
X46329Y-41047D02*
X46310Y-41032D01*
X46301Y-41017D01*
X46292Y-40987D01*
X46292Y-40972D01*
X46301Y-40942D01*
X46310Y-40927D01*
X46329Y-40912D01*
X46367Y-40912D01*
X46385Y-40927D01*
X46395Y-40942D01*
X46404Y-40972D01*
X46404Y-40987D01*
X46395Y-41017D01*
X46385Y-41032D01*
X46367Y-41047D01*
X46329Y-41047D01*
X46310Y-41062D01*
X46301Y-41077D01*
X46292Y-41107D01*
X46292Y-41167D01*
X46301Y-41197D01*
X46310Y-41212D01*
X46329Y-41227D01*
X46367Y-41227D01*
X46385Y-41212D01*
X46395Y-41197D01*
X46404Y-41167D01*
X46404Y-41107D01*
X46395Y-41077D01*
X46385Y-41062D01*
X46367Y-41047D01*
X46148Y-41417D02*
X46148Y-41627D01*
X46101Y-41297D02*
X46054Y-41522D01*
X46176Y-41522D01*
X46251Y-41597D02*
X46260Y-41612D01*
X46251Y-41627D01*
X46242Y-41612D01*
X46251Y-41597D01*
X46251Y-41627D01*
X46326Y-41312D02*
X46457Y-41312D01*
X46373Y-41627D01*
X46532Y-41627D02*
X46532Y-41312D01*
X46645Y-41627D02*
X46560Y-41447D01*
X46645Y-41312D02*
X46532Y-41492D01*
X45467Y-42677D02*
X45401Y-42527D01*
X45354Y-42677D02*
X45354Y-42362D01*
X45429Y-42362D01*
X45448Y-42377D01*
X45457Y-42392D01*
X45467Y-42422D01*
X45467Y-42467D01*
X45457Y-42497D01*
X45448Y-42512D01*
X45429Y-42527D01*
X45354Y-42527D01*
X45532Y-42362D02*
X45664Y-42362D01*
X45579Y-42677D01*
X45398Y-42867D02*
X45398Y-43077D01*
X45351Y-42747D02*
X45304Y-42972D01*
X45426Y-42972D01*
X45501Y-43047D02*
X45510Y-43062D01*
X45501Y-43077D01*
X45492Y-43062D01*
X45501Y-43047D01*
X45501Y-43077D01*
X45576Y-42762D02*
X45707Y-42762D01*
X45623Y-43077D01*
X45782Y-43077D02*
X45782Y-42762D01*
X45895Y-43077D02*
X45810Y-42897D01*
X45895Y-42762D02*
X45782Y-42942D01*
X45117Y-47477D02*
X45051Y-47327D01*
X45004Y-47477D02*
X45004Y-47162D01*
X45079Y-47162D01*
X45098Y-47177D01*
X45107Y-47192D01*
X45117Y-47222D01*
X45117Y-47267D01*
X45107Y-47297D01*
X45098Y-47312D01*
X45079Y-47327D01*
X45004Y-47327D01*
X45285Y-47162D02*
X45248Y-47162D01*
X45229Y-47177D01*
X45220Y-47192D01*
X45201Y-47237D01*
X45192Y-47297D01*
X45192Y-47417D01*
X45201Y-47447D01*
X45210Y-47462D01*
X45229Y-47477D01*
X45267Y-47477D01*
X45285Y-47462D01*
X45295Y-47447D01*
X45304Y-47417D01*
X45304Y-47342D01*
X45295Y-47312D01*
X45285Y-47297D01*
X45267Y-47282D01*
X45229Y-47282D01*
X45210Y-47297D01*
X45201Y-47312D01*
X45192Y-47342D01*
X45098Y-47617D02*
X45098Y-47827D01*
X45051Y-47497D02*
X45004Y-47722D01*
X45126Y-47722D01*
X45201Y-47797D02*
X45210Y-47812D01*
X45201Y-47827D01*
X45192Y-47812D01*
X45201Y-47797D01*
X45201Y-47827D01*
X45276Y-47512D02*
X45407Y-47512D01*
X45323Y-47827D01*
X45482Y-47827D02*
X45482Y-47512D01*
X45595Y-47827D02*
X45510Y-47647D01*
X45595Y-47512D02*
X45482Y-47692D01*
X50373Y-30077D02*
X50307Y-29927D01*
X50260Y-30077D02*
X50260Y-29762D01*
X50335Y-29762D01*
X50354Y-29777D01*
X50364Y-29792D01*
X50373Y-29822D01*
X50373Y-29867D01*
X50364Y-29897D01*
X50354Y-29912D01*
X50335Y-29927D01*
X50260Y-29927D01*
X50448Y-29792D02*
X50457Y-29777D01*
X50476Y-29762D01*
X50523Y-29762D01*
X50542Y-29777D01*
X50551Y-29792D01*
X50560Y-29822D01*
X50560Y-29852D01*
X50551Y-29897D01*
X50439Y-30077D01*
X50560Y-30077D01*
X50748Y-30077D02*
X50635Y-30077D01*
X50692Y-30077D02*
X50692Y-29762D01*
X50673Y-29807D01*
X50654Y-29837D01*
X50635Y-29852D01*
X50348Y-30267D02*
X50348Y-30477D01*
X50301Y-30147D02*
X50254Y-30372D01*
X50376Y-30372D01*
X50451Y-30447D02*
X50460Y-30462D01*
X50451Y-30477D01*
X50442Y-30462D01*
X50451Y-30447D01*
X50451Y-30477D01*
X50526Y-30162D02*
X50657Y-30162D01*
X50573Y-30477D01*
X50732Y-30477D02*
X50732Y-30162D01*
X50845Y-30477D02*
X50760Y-30297D01*
X50845Y-30162D02*
X50732Y-30342D01*
X66773Y-47377D02*
X66707Y-47227D01*
X66660Y-47377D02*
X66660Y-47062D01*
X66735Y-47062D01*
X66754Y-47077D01*
X66764Y-47092D01*
X66773Y-47122D01*
X66773Y-47167D01*
X66764Y-47197D01*
X66754Y-47212D01*
X66735Y-47227D01*
X66660Y-47227D01*
X66848Y-47092D02*
X66857Y-47077D01*
X66876Y-47062D01*
X66923Y-47062D01*
X66942Y-47077D01*
X66951Y-47092D01*
X66960Y-47122D01*
X66960Y-47152D01*
X66951Y-47197D01*
X66839Y-47377D01*
X66960Y-47377D01*
X67026Y-47062D02*
X67148Y-47062D01*
X67082Y-47182D01*
X67110Y-47182D01*
X67129Y-47197D01*
X67139Y-47212D01*
X67148Y-47242D01*
X67148Y-47317D01*
X67139Y-47347D01*
X67129Y-47362D01*
X67110Y-47377D01*
X67054Y-47377D01*
X67035Y-47362D01*
X67026Y-47347D01*
X66048Y-47167D02*
X66048Y-47377D01*
X66001Y-47047D02*
X65954Y-47272D01*
X66076Y-47272D01*
X66151Y-47347D02*
X66160Y-47362D01*
X66151Y-47377D01*
X66142Y-47362D01*
X66151Y-47347D01*
X66151Y-47377D01*
X66226Y-47062D02*
X66357Y-47062D01*
X66273Y-47377D01*
X66432Y-47377D02*
X66432Y-47062D01*
X66545Y-47377D02*
X66460Y-47197D01*
X66545Y-47062D02*
X66432Y-47242D01*
X61423Y-49777D02*
X61357Y-49627D01*
X61310Y-49777D02*
X61310Y-49462D01*
X61385Y-49462D01*
X61404Y-49477D01*
X61414Y-49492D01*
X61423Y-49522D01*
X61423Y-49567D01*
X61414Y-49597D01*
X61404Y-49612D01*
X61385Y-49627D01*
X61310Y-49627D01*
X61498Y-49492D02*
X61507Y-49477D01*
X61526Y-49462D01*
X61573Y-49462D01*
X61592Y-49477D01*
X61601Y-49492D01*
X61610Y-49522D01*
X61610Y-49552D01*
X61601Y-49597D01*
X61489Y-49777D01*
X61610Y-49777D01*
X61789Y-49462D02*
X61695Y-49462D01*
X61685Y-49612D01*
X61695Y-49597D01*
X61714Y-49582D01*
X61760Y-49582D01*
X61779Y-49597D01*
X61789Y-49612D01*
X61798Y-49642D01*
X61798Y-49717D01*
X61789Y-49747D01*
X61779Y-49762D01*
X61760Y-49777D01*
X61714Y-49777D01*
X61695Y-49762D01*
X61685Y-49747D01*
X61398Y-49967D02*
X61398Y-50177D01*
X61351Y-49847D02*
X61304Y-50072D01*
X61426Y-50072D01*
X61501Y-50147D02*
X61510Y-50162D01*
X61501Y-50177D01*
X61492Y-50162D01*
X61501Y-50147D01*
X61501Y-50177D01*
X61576Y-49862D02*
X61707Y-49862D01*
X61623Y-50177D01*
X61782Y-50177D02*
X61782Y-49862D01*
X61895Y-50177D02*
X61810Y-49997D01*
X61895Y-49862D02*
X61782Y-50042D01*
X51673Y-49977D02*
X51607Y-49827D01*
X51560Y-49977D02*
X51560Y-49662D01*
X51635Y-49662D01*
X51654Y-49677D01*
X51664Y-49692D01*
X51673Y-49722D01*
X51673Y-49767D01*
X51664Y-49797D01*
X51654Y-49812D01*
X51635Y-49827D01*
X51560Y-49827D01*
X51748Y-49692D02*
X51757Y-49677D01*
X51776Y-49662D01*
X51823Y-49662D01*
X51842Y-49677D01*
X51851Y-49692D01*
X51860Y-49722D01*
X51860Y-49752D01*
X51851Y-49797D01*
X51739Y-49977D01*
X51860Y-49977D01*
X52029Y-49662D02*
X51992Y-49662D01*
X51973Y-49677D01*
X51964Y-49692D01*
X51945Y-49737D01*
X51935Y-49797D01*
X51935Y-49917D01*
X51945Y-49947D01*
X51954Y-49962D01*
X51973Y-49977D01*
X52010Y-49977D01*
X52029Y-49962D01*
X52039Y-49947D01*
X52048Y-49917D01*
X52048Y-49842D01*
X52039Y-49812D01*
X52029Y-49797D01*
X52010Y-49782D01*
X51973Y-49782D01*
X51954Y-49797D01*
X51945Y-49812D01*
X51935Y-49842D01*
X51598Y-50117D02*
X51598Y-50327D01*
X51551Y-49997D02*
X51504Y-50222D01*
X51626Y-50222D01*
X51701Y-50297D02*
X51710Y-50312D01*
X51701Y-50327D01*
X51692Y-50312D01*
X51701Y-50297D01*
X51701Y-50327D01*
X51776Y-50012D02*
X51907Y-50012D01*
X51823Y-50327D01*
X51982Y-50327D02*
X51982Y-50012D01*
X52095Y-50327D02*
X52010Y-50147D01*
X52095Y-50012D02*
X51982Y-50192D01*
X58223Y-49927D02*
X58157Y-49777D01*
X58110Y-49927D02*
X58110Y-49612D01*
X58185Y-49612D01*
X58204Y-49627D01*
X58214Y-49642D01*
X58223Y-49672D01*
X58223Y-49717D01*
X58214Y-49747D01*
X58204Y-49762D01*
X58185Y-49777D01*
X58110Y-49777D01*
X58410Y-49927D02*
X58298Y-49927D01*
X58354Y-49927D02*
X58354Y-49612D01*
X58335Y-49657D01*
X58317Y-49687D01*
X58298Y-49702D01*
X58485Y-49642D02*
X58495Y-49627D01*
X58514Y-49612D01*
X58560Y-49612D01*
X58579Y-49627D01*
X58589Y-49642D01*
X58598Y-49672D01*
X58598Y-49702D01*
X58589Y-49747D01*
X58476Y-49927D01*
X58598Y-49927D01*
X58198Y-50117D02*
X58198Y-50327D01*
X58151Y-49997D02*
X58104Y-50222D01*
X58226Y-50222D01*
X58301Y-50297D02*
X58310Y-50312D01*
X58301Y-50327D01*
X58292Y-50312D01*
X58301Y-50297D01*
X58301Y-50327D01*
X58376Y-50012D02*
X58507Y-50012D01*
X58423Y-50327D01*
X58582Y-50327D02*
X58582Y-50012D01*
X58695Y-50327D02*
X58610Y-50147D01*
X58695Y-50012D02*
X58582Y-50192D01*
X58923Y-49927D02*
X58857Y-49777D01*
X58810Y-49927D02*
X58810Y-49612D01*
X58885Y-49612D01*
X58904Y-49627D01*
X58914Y-49642D01*
X58923Y-49672D01*
X58923Y-49717D01*
X58914Y-49747D01*
X58904Y-49762D01*
X58885Y-49777D01*
X58810Y-49777D01*
X59110Y-49927D02*
X58998Y-49927D01*
X59054Y-49927D02*
X59054Y-49612D01*
X59035Y-49657D01*
X59017Y-49687D01*
X58998Y-49702D01*
X59176Y-49612D02*
X59298Y-49612D01*
X59232Y-49732D01*
X59260Y-49732D01*
X59279Y-49747D01*
X59289Y-49762D01*
X59298Y-49792D01*
X59298Y-49867D01*
X59289Y-49897D01*
X59279Y-49912D01*
X59260Y-49927D01*
X59204Y-49927D01*
X59185Y-49912D01*
X59176Y-49897D01*
X58898Y-50117D02*
X58898Y-50327D01*
X58851Y-49997D02*
X58804Y-50222D01*
X58926Y-50222D01*
X59001Y-50297D02*
X59010Y-50312D01*
X59001Y-50327D01*
X58992Y-50312D01*
X59001Y-50297D01*
X59001Y-50327D01*
X59076Y-50012D02*
X59207Y-50012D01*
X59123Y-50327D01*
X59282Y-50327D02*
X59282Y-50012D01*
X59395Y-50327D02*
X59310Y-50147D01*
X59395Y-50012D02*
X59282Y-50192D01*
X53823Y-50727D02*
X53757Y-50577D01*
X53710Y-50727D02*
X53710Y-50412D01*
X53785Y-50412D01*
X53804Y-50427D01*
X53814Y-50442D01*
X53823Y-50472D01*
X53823Y-50517D01*
X53814Y-50547D01*
X53804Y-50562D01*
X53785Y-50577D01*
X53710Y-50577D01*
X54010Y-50727D02*
X53898Y-50727D01*
X53954Y-50727D02*
X53954Y-50412D01*
X53935Y-50457D01*
X53917Y-50487D01*
X53898Y-50502D01*
X54179Y-50517D02*
X54179Y-50727D01*
X54132Y-50397D02*
X54085Y-50622D01*
X54207Y-50622D01*
X53748Y-50867D02*
X53748Y-51077D01*
X53701Y-50747D02*
X53654Y-50972D01*
X53776Y-50972D01*
X53851Y-51047D02*
X53860Y-51062D01*
X53851Y-51077D01*
X53842Y-51062D01*
X53851Y-51047D01*
X53851Y-51077D01*
X53926Y-50762D02*
X54057Y-50762D01*
X53973Y-51077D01*
X54132Y-51077D02*
X54132Y-50762D01*
X54245Y-51077D02*
X54160Y-50897D01*
X54245Y-50762D02*
X54132Y-50942D01*
X52923Y-51327D02*
X52857Y-51177D01*
X52810Y-51327D02*
X52810Y-51012D01*
X52885Y-51012D01*
X52904Y-51027D01*
X52914Y-51042D01*
X52923Y-51072D01*
X52923Y-51117D01*
X52914Y-51147D01*
X52904Y-51162D01*
X52885Y-51177D01*
X52810Y-51177D01*
X53110Y-51327D02*
X52998Y-51327D01*
X53054Y-51327D02*
X53054Y-51012D01*
X53035Y-51057D01*
X53017Y-51087D01*
X52998Y-51102D01*
X53279Y-51012D02*
X53242Y-51012D01*
X53223Y-51027D01*
X53214Y-51042D01*
X53195Y-51087D01*
X53185Y-51147D01*
X53185Y-51267D01*
X53195Y-51297D01*
X53204Y-51312D01*
X53223Y-51327D01*
X53260Y-51327D01*
X53279Y-51312D01*
X53289Y-51297D01*
X53298Y-51267D01*
X53298Y-51192D01*
X53289Y-51162D01*
X53279Y-51147D01*
X53260Y-51132D01*
X53223Y-51132D01*
X53204Y-51147D01*
X53195Y-51162D01*
X53185Y-51192D01*
X52898Y-51517D02*
X52898Y-51727D01*
X52851Y-51397D02*
X52804Y-51622D01*
X52926Y-51622D01*
X53001Y-51697D02*
X53010Y-51712D01*
X53001Y-51727D01*
X52992Y-51712D01*
X53001Y-51697D01*
X53001Y-51727D01*
X53076Y-51412D02*
X53207Y-51412D01*
X53123Y-51727D01*
X53282Y-51727D02*
X53282Y-51412D01*
X53395Y-51727D02*
X53310Y-51547D01*
X53395Y-51412D02*
X53282Y-51592D01*
X60677Y-51226D02*
X60527Y-51292D01*
X60677Y-51339D02*
X60362Y-51339D01*
X60362Y-51264D01*
X60377Y-51245D01*
X60392Y-51235D01*
X60422Y-51226D01*
X60467Y-51226D01*
X60497Y-51235D01*
X60512Y-51245D01*
X60527Y-51264D01*
X60527Y-51339D01*
X60677Y-51039D02*
X60677Y-51151D01*
X60677Y-51095D02*
X60362Y-51095D01*
X60407Y-51114D01*
X60437Y-51132D01*
X60452Y-51151D01*
X60497Y-50926D02*
X60482Y-50945D01*
X60467Y-50954D01*
X60437Y-50964D01*
X60422Y-50964D01*
X60392Y-50954D01*
X60377Y-50945D01*
X60362Y-50926D01*
X60362Y-50889D01*
X60377Y-50870D01*
X60392Y-50860D01*
X60422Y-50851D01*
X60437Y-50851D01*
X60467Y-50860D01*
X60482Y-50870D01*
X60497Y-50889D01*
X60497Y-50926D01*
X60512Y-50945D01*
X60527Y-50954D01*
X60557Y-50964D01*
X60617Y-50964D01*
X60647Y-50954D01*
X60662Y-50945D01*
X60677Y-50926D01*
X60677Y-50889D01*
X60662Y-50870D01*
X60647Y-50860D01*
X60617Y-50851D01*
X60557Y-50851D01*
X60527Y-50860D01*
X60512Y-50870D01*
X60497Y-50889D01*
X60467Y-51951D02*
X60677Y-51951D01*
X60347Y-51998D02*
X60572Y-52045D01*
X60572Y-51923D01*
X60647Y-51848D02*
X60662Y-51839D01*
X60677Y-51848D01*
X60662Y-51857D01*
X60647Y-51848D01*
X60677Y-51848D01*
X60362Y-51773D02*
X60362Y-51642D01*
X60677Y-51726D01*
X60677Y-51567D02*
X60362Y-51567D01*
X60677Y-51454D02*
X60497Y-51539D01*
X60362Y-51454D02*
X60542Y-51567D01*
X64923Y-29727D02*
X64857Y-29577D01*
X64810Y-29727D02*
X64810Y-29412D01*
X64885Y-29412D01*
X64904Y-29427D01*
X64914Y-29442D01*
X64923Y-29472D01*
X64923Y-29517D01*
X64914Y-29547D01*
X64904Y-29562D01*
X64885Y-29577D01*
X64810Y-29577D01*
X64998Y-29442D02*
X65007Y-29427D01*
X65026Y-29412D01*
X65073Y-29412D01*
X65092Y-29427D01*
X65101Y-29442D01*
X65110Y-29472D01*
X65110Y-29502D01*
X65101Y-29547D01*
X64989Y-29727D01*
X65110Y-29727D01*
X65232Y-29412D02*
X65251Y-29412D01*
X65270Y-29427D01*
X65279Y-29442D01*
X65289Y-29472D01*
X65298Y-29532D01*
X65298Y-29607D01*
X65289Y-29667D01*
X65279Y-29697D01*
X65270Y-29712D01*
X65251Y-29727D01*
X65232Y-29727D01*
X65214Y-29712D01*
X65204Y-29697D01*
X65195Y-29667D01*
X65185Y-29607D01*
X65185Y-29532D01*
X65195Y-29472D01*
X65204Y-29442D01*
X65214Y-29427D01*
X65232Y-29412D01*
X64198Y-29517D02*
X64198Y-29727D01*
X64151Y-29397D02*
X64104Y-29622D01*
X64226Y-29622D01*
X64301Y-29697D02*
X64310Y-29712D01*
X64301Y-29727D01*
X64292Y-29712D01*
X64301Y-29697D01*
X64301Y-29727D01*
X64376Y-29412D02*
X64507Y-29412D01*
X64423Y-29727D01*
X64582Y-29727D02*
X64582Y-29412D01*
X64695Y-29727D02*
X64610Y-29547D01*
X64695Y-29412D02*
X64582Y-29592D01*
X47223Y-29427D02*
X47157Y-29277D01*
X47110Y-29427D02*
X47110Y-29112D01*
X47185Y-29112D01*
X47204Y-29127D01*
X47214Y-29142D01*
X47223Y-29172D01*
X47223Y-29217D01*
X47214Y-29247D01*
X47204Y-29262D01*
X47185Y-29277D01*
X47110Y-29277D01*
X47298Y-29142D02*
X47307Y-29127D01*
X47326Y-29112D01*
X47373Y-29112D01*
X47392Y-29127D01*
X47401Y-29142D01*
X47410Y-29172D01*
X47410Y-29202D01*
X47401Y-29247D01*
X47289Y-29427D01*
X47410Y-29427D01*
X47485Y-29142D02*
X47495Y-29127D01*
X47514Y-29112D01*
X47560Y-29112D01*
X47579Y-29127D01*
X47589Y-29142D01*
X47598Y-29172D01*
X47598Y-29202D01*
X47589Y-29247D01*
X47476Y-29427D01*
X47598Y-29427D01*
X47198Y-29617D02*
X47198Y-29827D01*
X47151Y-29497D02*
X47104Y-29722D01*
X47226Y-29722D01*
X47301Y-29797D02*
X47310Y-29812D01*
X47301Y-29827D01*
X47292Y-29812D01*
X47301Y-29797D01*
X47301Y-29827D01*
X47376Y-29512D02*
X47507Y-29512D01*
X47423Y-29827D01*
X47582Y-29827D02*
X47582Y-29512D01*
X47695Y-29827D02*
X47610Y-29647D01*
X47695Y-29512D02*
X47582Y-29692D01*
X50973Y-49977D02*
X50907Y-49827D01*
X50860Y-49977D02*
X50860Y-49662D01*
X50935Y-49662D01*
X50954Y-49677D01*
X50964Y-49692D01*
X50973Y-49722D01*
X50973Y-49767D01*
X50964Y-49797D01*
X50954Y-49812D01*
X50935Y-49827D01*
X50860Y-49827D01*
X51048Y-49692D02*
X51057Y-49677D01*
X51076Y-49662D01*
X51123Y-49662D01*
X51142Y-49677D01*
X51151Y-49692D01*
X51160Y-49722D01*
X51160Y-49752D01*
X51151Y-49797D01*
X51039Y-49977D01*
X51160Y-49977D01*
X51329Y-49767D02*
X51329Y-49977D01*
X51282Y-49647D02*
X51235Y-49872D01*
X51357Y-49872D01*
X50898Y-50117D02*
X50898Y-50327D01*
X50851Y-49997D02*
X50804Y-50222D01*
X50926Y-50222D01*
X51001Y-50297D02*
X51010Y-50312D01*
X51001Y-50327D01*
X50992Y-50312D01*
X51001Y-50297D01*
X51001Y-50327D01*
X51076Y-50012D02*
X51207Y-50012D01*
X51123Y-50327D01*
X51282Y-50327D02*
X51282Y-50012D01*
X51395Y-50327D02*
X51310Y-50147D01*
X51395Y-50012D02*
X51282Y-50192D01*
X55467Y-27677D02*
X55401Y-27527D01*
X55354Y-27677D02*
X55354Y-27362D01*
X55429Y-27362D01*
X55448Y-27377D01*
X55457Y-27392D01*
X55467Y-27422D01*
X55467Y-27467D01*
X55457Y-27497D01*
X55448Y-27512D01*
X55429Y-27527D01*
X55354Y-27527D01*
X55635Y-27467D02*
X55635Y-27677D01*
X55589Y-27347D02*
X55542Y-27572D01*
X55664Y-27572D01*
X55420Y-28077D02*
X55307Y-28077D01*
X55364Y-28077D02*
X55364Y-27762D01*
X55345Y-27807D01*
X55326Y-27837D01*
X55307Y-27852D01*
X55542Y-27762D02*
X55560Y-27762D01*
X55579Y-27777D01*
X55589Y-27792D01*
X55598Y-27822D01*
X55607Y-27882D01*
X55607Y-27957D01*
X55598Y-28017D01*
X55589Y-28047D01*
X55579Y-28062D01*
X55560Y-28077D01*
X55542Y-28077D01*
X55523Y-28062D01*
X55514Y-28047D01*
X55504Y-28017D01*
X55495Y-27957D01*
X55495Y-27882D01*
X55504Y-27822D01*
X55514Y-27792D01*
X55523Y-27777D01*
X55542Y-27762D01*
X55729Y-27762D02*
X55748Y-27762D01*
X55767Y-27777D01*
X55776Y-27792D01*
X55785Y-27822D01*
X55795Y-27882D01*
X55795Y-27957D01*
X55785Y-28017D01*
X55776Y-28047D01*
X55767Y-28062D01*
X55748Y-28077D01*
X55729Y-28077D01*
X55710Y-28062D01*
X55701Y-28047D01*
X55692Y-28017D01*
X55682Y-27957D01*
X55682Y-27882D01*
X55692Y-27822D01*
X55701Y-27792D01*
X55710Y-27777D01*
X55729Y-27762D01*
X55879Y-28077D02*
X55879Y-27762D01*
X55992Y-28077D02*
X55907Y-27897D01*
X55992Y-27762D02*
X55879Y-27942D01*
X47667Y-45227D02*
X47601Y-45077D01*
X47554Y-45227D02*
X47554Y-44912D01*
X47629Y-44912D01*
X47648Y-44927D01*
X47657Y-44942D01*
X47667Y-44972D01*
X47667Y-45017D01*
X47657Y-45047D01*
X47648Y-45062D01*
X47629Y-45077D01*
X47554Y-45077D01*
X47845Y-44912D02*
X47751Y-44912D01*
X47742Y-45062D01*
X47751Y-45047D01*
X47770Y-45032D01*
X47817Y-45032D01*
X47835Y-45047D01*
X47845Y-45062D01*
X47854Y-45092D01*
X47854Y-45167D01*
X47845Y-45197D01*
X47835Y-45212D01*
X47817Y-45227D01*
X47770Y-45227D01*
X47751Y-45212D01*
X47742Y-45197D01*
X47598Y-45417D02*
X47598Y-45627D01*
X47551Y-45297D02*
X47504Y-45522D01*
X47626Y-45522D01*
X47701Y-45597D02*
X47710Y-45612D01*
X47701Y-45627D01*
X47692Y-45612D01*
X47701Y-45597D01*
X47701Y-45627D01*
X47776Y-45312D02*
X47907Y-45312D01*
X47823Y-45627D01*
X47982Y-45627D02*
X47982Y-45312D01*
X48095Y-45627D02*
X48010Y-45447D01*
X48095Y-45312D02*
X47982Y-45492D01*
X67817Y-30927D02*
X67751Y-30777D01*
X67704Y-30927D02*
X67704Y-30612D01*
X67779Y-30612D01*
X67798Y-30627D01*
X67807Y-30642D01*
X67817Y-30672D01*
X67817Y-30717D01*
X67807Y-30747D01*
X67798Y-30762D01*
X67779Y-30777D01*
X67704Y-30777D01*
X67882Y-30612D02*
X68004Y-30612D01*
X67939Y-30732D01*
X67967Y-30732D01*
X67985Y-30747D01*
X67995Y-30762D01*
X68004Y-30792D01*
X68004Y-30867D01*
X67995Y-30897D01*
X67985Y-30912D01*
X67967Y-30927D01*
X67910Y-30927D01*
X67892Y-30912D01*
X67882Y-30897D01*
X67798Y-31117D02*
X67798Y-31327D01*
X67751Y-30997D02*
X67704Y-31222D01*
X67826Y-31222D01*
X67901Y-31297D02*
X67910Y-31312D01*
X67901Y-31327D01*
X67892Y-31312D01*
X67901Y-31297D01*
X67901Y-31327D01*
X67976Y-31012D02*
X68107Y-31012D01*
X68023Y-31327D01*
X68182Y-31327D02*
X68182Y-31012D01*
X68295Y-31327D02*
X68210Y-31147D01*
X68295Y-31012D02*
X68182Y-31192D01*
X68477Y-42557D02*
X68327Y-42623D01*
X68477Y-42670D02*
X68162Y-42670D01*
X68162Y-42595D01*
X68177Y-42576D01*
X68192Y-42567D01*
X68222Y-42557D01*
X68267Y-42557D01*
X68297Y-42567D01*
X68312Y-42576D01*
X68327Y-42595D01*
X68327Y-42670D01*
X68477Y-42370D02*
X68477Y-42482D01*
X68477Y-42426D02*
X68162Y-42426D01*
X68207Y-42445D01*
X68237Y-42464D01*
X68252Y-42482D01*
X68477Y-43160D02*
X68477Y-43273D01*
X68477Y-43217D02*
X68162Y-43217D01*
X68207Y-43235D01*
X68237Y-43254D01*
X68252Y-43273D01*
X68162Y-43039D02*
X68162Y-43020D01*
X68177Y-43001D01*
X68192Y-42992D01*
X68222Y-42982D01*
X68282Y-42973D01*
X68357Y-42973D01*
X68417Y-42982D01*
X68447Y-42992D01*
X68462Y-43001D01*
X68477Y-43020D01*
X68477Y-43039D01*
X68462Y-43057D01*
X68447Y-43067D01*
X68417Y-43076D01*
X68357Y-43085D01*
X68282Y-43085D01*
X68222Y-43076D01*
X68192Y-43067D01*
X68177Y-43057D01*
X68162Y-43039D01*
X68477Y-42889D02*
X68162Y-42889D01*
X68477Y-42776D02*
X68297Y-42860D01*
X68162Y-42776D02*
X68342Y-42889D01*
X52373Y-49977D02*
X52307Y-49827D01*
X52260Y-49977D02*
X52260Y-49662D01*
X52335Y-49662D01*
X52354Y-49677D01*
X52364Y-49692D01*
X52373Y-49722D01*
X52373Y-49767D01*
X52364Y-49797D01*
X52354Y-49812D01*
X52335Y-49827D01*
X52260Y-49827D01*
X52448Y-49692D02*
X52457Y-49677D01*
X52476Y-49662D01*
X52523Y-49662D01*
X52542Y-49677D01*
X52551Y-49692D01*
X52560Y-49722D01*
X52560Y-49752D01*
X52551Y-49797D01*
X52439Y-49977D01*
X52560Y-49977D01*
X52626Y-49662D02*
X52757Y-49662D01*
X52673Y-49977D01*
X52298Y-50117D02*
X52298Y-50327D01*
X52251Y-49997D02*
X52204Y-50222D01*
X52326Y-50222D01*
X52401Y-50297D02*
X52410Y-50312D01*
X52401Y-50327D01*
X52392Y-50312D01*
X52401Y-50297D01*
X52401Y-50327D01*
X52476Y-50012D02*
X52607Y-50012D01*
X52523Y-50327D01*
X52682Y-50327D02*
X52682Y-50012D01*
X52795Y-50327D02*
X52710Y-50147D01*
X52795Y-50012D02*
X52682Y-50192D01*
X53123Y-49977D02*
X53057Y-49827D01*
X53010Y-49977D02*
X53010Y-49662D01*
X53085Y-49662D01*
X53104Y-49677D01*
X53114Y-49692D01*
X53123Y-49722D01*
X53123Y-49767D01*
X53114Y-49797D01*
X53104Y-49812D01*
X53085Y-49827D01*
X53010Y-49827D01*
X53198Y-49692D02*
X53207Y-49677D01*
X53226Y-49662D01*
X53273Y-49662D01*
X53292Y-49677D01*
X53301Y-49692D01*
X53310Y-49722D01*
X53310Y-49752D01*
X53301Y-49797D01*
X53189Y-49977D01*
X53310Y-49977D01*
X53423Y-49797D02*
X53404Y-49782D01*
X53395Y-49767D01*
X53385Y-49737D01*
X53385Y-49722D01*
X53395Y-49692D01*
X53404Y-49677D01*
X53423Y-49662D01*
X53460Y-49662D01*
X53479Y-49677D01*
X53489Y-49692D01*
X53498Y-49722D01*
X53498Y-49737D01*
X53489Y-49767D01*
X53479Y-49782D01*
X53460Y-49797D01*
X53423Y-49797D01*
X53404Y-49812D01*
X53395Y-49827D01*
X53385Y-49857D01*
X53385Y-49917D01*
X53395Y-49947D01*
X53404Y-49962D01*
X53423Y-49977D01*
X53460Y-49977D01*
X53479Y-49962D01*
X53489Y-49947D01*
X53498Y-49917D01*
X53498Y-49857D01*
X53489Y-49827D01*
X53479Y-49812D01*
X53460Y-49797D01*
X53048Y-50117D02*
X53048Y-50327D01*
X53001Y-49997D02*
X52954Y-50222D01*
X53076Y-50222D01*
X53151Y-50297D02*
X53160Y-50312D01*
X53151Y-50327D01*
X53142Y-50312D01*
X53151Y-50297D01*
X53151Y-50327D01*
X53226Y-50012D02*
X53357Y-50012D01*
X53273Y-50327D01*
X53432Y-50327D02*
X53432Y-50012D01*
X53545Y-50327D02*
X53460Y-50147D01*
X53545Y-50012D02*
X53432Y-50192D01*
X67802Y-41607D02*
X67652Y-41673D01*
X67802Y-41720D02*
X67487Y-41720D01*
X67487Y-41645D01*
X67502Y-41626D01*
X67517Y-41617D01*
X67547Y-41607D01*
X67592Y-41607D01*
X67622Y-41617D01*
X67637Y-41626D01*
X67652Y-41645D01*
X67652Y-41720D01*
X67517Y-41532D02*
X67502Y-41523D01*
X67487Y-41504D01*
X67487Y-41457D01*
X67502Y-41439D01*
X67517Y-41429D01*
X67547Y-41420D01*
X67577Y-41420D01*
X67622Y-41429D01*
X67802Y-41542D01*
X67802Y-41420D01*
X67802Y-42210D02*
X67802Y-42323D01*
X67802Y-42267D02*
X67487Y-42267D01*
X67532Y-42285D01*
X67562Y-42304D01*
X67577Y-42323D01*
X67487Y-42089D02*
X67487Y-42070D01*
X67502Y-42051D01*
X67517Y-42042D01*
X67547Y-42032D01*
X67607Y-42023D01*
X67682Y-42023D01*
X67742Y-42032D01*
X67772Y-42042D01*
X67787Y-42051D01*
X67802Y-42070D01*
X67802Y-42089D01*
X67787Y-42107D01*
X67772Y-42117D01*
X67742Y-42126D01*
X67682Y-42135D01*
X67607Y-42135D01*
X67547Y-42126D01*
X67517Y-42117D01*
X67502Y-42107D01*
X67487Y-42089D01*
X67802Y-41939D02*
X67487Y-41939D01*
X67802Y-41826D02*
X67622Y-41910D01*
X67487Y-41826D02*
X67667Y-41939D01*
X52234Y-30912D02*
X52234Y-31137D01*
X52225Y-31182D01*
X52206Y-31212D01*
X52178Y-31227D01*
X52159Y-31227D01*
X52431Y-31227D02*
X52318Y-31227D01*
X52374Y-31227D02*
X52374Y-30912D01*
X52356Y-30957D01*
X52337Y-30987D01*
X52318Y-31002D01*
X52193Y-31312D02*
X52193Y-31537D01*
X52184Y-31582D01*
X52165Y-31612D01*
X52137Y-31627D01*
X52118Y-31627D01*
X52278Y-31537D02*
X52371Y-31537D01*
X52259Y-31627D02*
X52325Y-31312D01*
X52390Y-31627D01*
X52568Y-31597D02*
X52559Y-31612D01*
X52531Y-31627D01*
X52512Y-31627D01*
X52484Y-31612D01*
X52465Y-31582D01*
X52456Y-31552D01*
X52446Y-31492D01*
X52446Y-31447D01*
X52456Y-31387D01*
X52465Y-31357D01*
X52484Y-31327D01*
X52512Y-31312D01*
X52531Y-31312D01*
X52559Y-31327D01*
X52568Y-31342D01*
X52653Y-31627D02*
X52653Y-31312D01*
X52765Y-31627D02*
X52681Y-31447D01*
X52765Y-31312D02*
X52653Y-31492D01*
X52803Y-31657D02*
X52953Y-31657D01*
X52971Y-31312D02*
X53084Y-31312D01*
X53028Y-31627D02*
X53028Y-31312D01*
X53262Y-31627D02*
X53196Y-31477D01*
X53150Y-31627D02*
X53150Y-31312D01*
X53225Y-31312D01*
X53243Y-31327D01*
X53253Y-31342D01*
X53262Y-31372D01*
X53262Y-31417D01*
X53253Y-31447D01*
X53243Y-31462D01*
X53225Y-31477D01*
X53150Y-31477D01*
X53337Y-31612D02*
X53365Y-31627D01*
X53412Y-31627D01*
X53431Y-31612D01*
X53440Y-31597D01*
X53449Y-31567D01*
X53449Y-31537D01*
X53440Y-31507D01*
X53431Y-31492D01*
X53412Y-31477D01*
X53374Y-31462D01*
X53356Y-31447D01*
X53346Y-31432D01*
X53337Y-31402D01*
X53337Y-31372D01*
X53346Y-31342D01*
X53356Y-31327D01*
X53374Y-31312D01*
X53421Y-31312D01*
X53449Y-31327D01*
X53487Y-31657D02*
X53637Y-31657D01*
X53768Y-31312D02*
X53731Y-31312D01*
X53712Y-31327D01*
X53703Y-31342D01*
X53684Y-31387D01*
X53674Y-31447D01*
X53674Y-31567D01*
X53684Y-31597D01*
X53693Y-31612D01*
X53712Y-31627D01*
X53749Y-31627D01*
X53768Y-31612D01*
X53778Y-31597D01*
X53787Y-31567D01*
X53787Y-31492D01*
X53778Y-31462D01*
X53768Y-31447D01*
X53749Y-31432D01*
X53712Y-31432D01*
X53693Y-31447D01*
X53684Y-31462D01*
X53674Y-31492D01*
X53871Y-31627D02*
X53871Y-31312D01*
X53946Y-31312D01*
X53965Y-31327D01*
X53974Y-31342D01*
X53984Y-31372D01*
X53984Y-31417D01*
X53974Y-31447D01*
X53965Y-31462D01*
X53946Y-31477D01*
X53871Y-31477D01*
X54068Y-31627D02*
X54068Y-31312D01*
X54162Y-31627D02*
X54162Y-31312D01*
X54274Y-31627D01*
X54274Y-31312D01*
X54359Y-31612D02*
X54387Y-31627D01*
X54434Y-31627D01*
X54452Y-31612D01*
X54462Y-31597D01*
X54471Y-31567D01*
X54471Y-31537D01*
X54462Y-31507D01*
X54452Y-31492D01*
X54434Y-31477D01*
X54396Y-31462D01*
X54377Y-31447D01*
X54368Y-31432D01*
X54359Y-31402D01*
X54359Y-31372D01*
X54368Y-31342D01*
X54377Y-31327D01*
X54396Y-31312D01*
X54443Y-31312D01*
X54471Y-31327D01*
X49450Y-33312D02*
X49450Y-33567D01*
X49459Y-33597D01*
X49468Y-33612D01*
X49487Y-33627D01*
X49525Y-33627D01*
X49543Y-33612D01*
X49553Y-33597D01*
X49562Y-33567D01*
X49562Y-33312D01*
X49740Y-33417D02*
X49740Y-33627D01*
X49693Y-33297D02*
X49646Y-33522D01*
X49768Y-33522D01*
X49573Y-33997D02*
X49564Y-34012D01*
X49535Y-34027D01*
X49517Y-34027D01*
X49489Y-34012D01*
X49470Y-33982D01*
X49461Y-33952D01*
X49451Y-33892D01*
X49451Y-33847D01*
X49461Y-33787D01*
X49470Y-33757D01*
X49489Y-33727D01*
X49517Y-33712D01*
X49535Y-33712D01*
X49564Y-33727D01*
X49573Y-33742D01*
X49657Y-34027D02*
X49657Y-33712D01*
X49723Y-33937D01*
X49789Y-33712D01*
X49789Y-34027D01*
X49864Y-33712D02*
X49985Y-33712D01*
X49920Y-33832D01*
X49948Y-33832D01*
X49967Y-33847D01*
X49976Y-33862D01*
X49985Y-33892D01*
X49985Y-33967D01*
X49976Y-33997D01*
X49967Y-34012D01*
X49948Y-34027D01*
X49892Y-34027D01*
X49873Y-34012D01*
X49864Y-33997D01*
X50051Y-33712D02*
X50173Y-33712D01*
X50107Y-33832D01*
X50135Y-33832D01*
X50154Y-33847D01*
X50164Y-33862D01*
X50173Y-33892D01*
X50173Y-33967D01*
X50164Y-33997D01*
X50154Y-34012D01*
X50135Y-34027D01*
X50079Y-34027D01*
X50060Y-34012D01*
X50051Y-33997D01*
X50351Y-33712D02*
X50257Y-33712D01*
X50248Y-33862D01*
X50257Y-33847D01*
X50276Y-33832D01*
X50323Y-33832D01*
X50342Y-33847D01*
X50351Y-33862D01*
X50360Y-33892D01*
X50360Y-33967D01*
X50351Y-33997D01*
X50342Y-34012D01*
X50323Y-34027D01*
X50276Y-34027D01*
X50257Y-34012D01*
X50248Y-33997D01*
X50529Y-33817D02*
X50529Y-34027D01*
X50482Y-33697D02*
X50435Y-33922D01*
X50557Y-33922D01*
X67897Y-39982D02*
X67912Y-39992D01*
X67927Y-40020D01*
X67927Y-40039D01*
X67912Y-40067D01*
X67882Y-40085D01*
X67852Y-40095D01*
X67792Y-40104D01*
X67747Y-40104D01*
X67687Y-40095D01*
X67657Y-40085D01*
X67627Y-40067D01*
X67612Y-40039D01*
X67612Y-40020D01*
X67627Y-39992D01*
X67642Y-39982D01*
X67747Y-39870D02*
X67732Y-39889D01*
X67717Y-39898D01*
X67687Y-39907D01*
X67672Y-39907D01*
X67642Y-39898D01*
X67627Y-39889D01*
X67612Y-39870D01*
X67612Y-39832D01*
X67627Y-39814D01*
X67642Y-39804D01*
X67672Y-39795D01*
X67687Y-39795D01*
X67717Y-39804D01*
X67732Y-39814D01*
X67747Y-39832D01*
X67747Y-39870D01*
X67762Y-39889D01*
X67777Y-39898D01*
X67807Y-39907D01*
X67867Y-39907D01*
X67897Y-39898D01*
X67912Y-39889D01*
X67927Y-39870D01*
X67927Y-39832D01*
X67912Y-39814D01*
X67897Y-39804D01*
X67867Y-39795D01*
X67807Y-39795D01*
X67777Y-39804D01*
X67762Y-39814D01*
X67747Y-39832D01*
X67642Y-40970D02*
X67627Y-40960D01*
X67612Y-40942D01*
X67612Y-40895D01*
X67627Y-40876D01*
X67642Y-40867D01*
X67672Y-40857D01*
X67702Y-40857D01*
X67747Y-40867D01*
X67927Y-40979D01*
X67927Y-40857D01*
X67897Y-40773D02*
X67912Y-40764D01*
X67927Y-40773D01*
X67912Y-40782D01*
X67897Y-40773D01*
X67927Y-40773D01*
X67642Y-40689D02*
X67627Y-40679D01*
X67612Y-40660D01*
X67612Y-40614D01*
X67627Y-40595D01*
X67642Y-40585D01*
X67672Y-40576D01*
X67702Y-40576D01*
X67747Y-40585D01*
X67927Y-40698D01*
X67927Y-40576D01*
X67717Y-40492D02*
X67927Y-40492D01*
X67747Y-40492D02*
X67732Y-40482D01*
X67717Y-40464D01*
X67717Y-40435D01*
X67732Y-40417D01*
X67762Y-40407D01*
X67927Y-40407D01*
X67762Y-40248D02*
X67762Y-40314D01*
X67927Y-40314D02*
X67612Y-40314D01*
X67612Y-40220D01*
X62073Y-30947D02*
X62064Y-30962D01*
X62035Y-30977D01*
X62017Y-30977D01*
X61989Y-30962D01*
X61970Y-30932D01*
X61960Y-30902D01*
X61951Y-30842D01*
X61951Y-30797D01*
X61960Y-30737D01*
X61970Y-30707D01*
X61989Y-30677D01*
X62017Y-30662D01*
X62035Y-30662D01*
X62064Y-30677D01*
X62073Y-30692D01*
X62260Y-30977D02*
X62148Y-30977D01*
X62204Y-30977D02*
X62204Y-30662D01*
X62185Y-30707D01*
X62167Y-30737D01*
X62148Y-30752D01*
X62448Y-30977D02*
X62335Y-30977D01*
X62392Y-30977D02*
X62392Y-30662D01*
X62373Y-30707D01*
X62354Y-30737D01*
X62335Y-30752D01*
X61482Y-30977D02*
X61370Y-30977D01*
X61426Y-30977D02*
X61426Y-30662D01*
X61407Y-30707D01*
X61389Y-30737D01*
X61370Y-30752D01*
X61651Y-30767D02*
X61651Y-30977D01*
X61567Y-30767D02*
X61567Y-30932D01*
X61576Y-30962D01*
X61595Y-30977D01*
X61623Y-30977D01*
X61642Y-30962D01*
X61651Y-30947D01*
X61810Y-30812D02*
X61745Y-30812D01*
X61745Y-30977D02*
X61745Y-30662D01*
X61839Y-30662D01*
X62073Y-31747D02*
X62064Y-31762D01*
X62035Y-31777D01*
X62017Y-31777D01*
X61989Y-31762D01*
X61970Y-31732D01*
X61960Y-31702D01*
X61951Y-31642D01*
X61951Y-31597D01*
X61960Y-31537D01*
X61970Y-31507D01*
X61989Y-31477D01*
X62017Y-31462D01*
X62035Y-31462D01*
X62064Y-31477D01*
X62073Y-31492D01*
X62260Y-31777D02*
X62148Y-31777D01*
X62204Y-31777D02*
X62204Y-31462D01*
X62185Y-31507D01*
X62167Y-31537D01*
X62148Y-31552D01*
X62335Y-31492D02*
X62345Y-31477D01*
X62364Y-31462D01*
X62410Y-31462D01*
X62429Y-31477D01*
X62439Y-31492D01*
X62448Y-31522D01*
X62448Y-31552D01*
X62439Y-31597D01*
X62326Y-31777D01*
X62448Y-31777D01*
X61482Y-31777D02*
X61370Y-31777D01*
X61426Y-31777D02*
X61426Y-31462D01*
X61407Y-31507D01*
X61389Y-31537D01*
X61370Y-31552D01*
X61651Y-31567D02*
X61651Y-31777D01*
X61567Y-31567D02*
X61567Y-31732D01*
X61576Y-31762D01*
X61595Y-31777D01*
X61623Y-31777D01*
X61642Y-31762D01*
X61651Y-31747D01*
X61810Y-31612D02*
X61745Y-31612D01*
X61745Y-31777D02*
X61745Y-31462D01*
X61839Y-31462D01*
X65397Y-44282D02*
X65412Y-44292D01*
X65427Y-44320D01*
X65427Y-44339D01*
X65412Y-44367D01*
X65382Y-44385D01*
X65352Y-44395D01*
X65292Y-44404D01*
X65247Y-44404D01*
X65187Y-44395D01*
X65157Y-44385D01*
X65127Y-44367D01*
X65112Y-44339D01*
X65112Y-44320D01*
X65127Y-44292D01*
X65142Y-44282D01*
X65112Y-44114D02*
X65112Y-44151D01*
X65127Y-44170D01*
X65142Y-44179D01*
X65187Y-44198D01*
X65247Y-44207D01*
X65367Y-44207D01*
X65397Y-44198D01*
X65412Y-44189D01*
X65427Y-44170D01*
X65427Y-44132D01*
X65412Y-44114D01*
X65397Y-44104D01*
X65367Y-44095D01*
X65292Y-44095D01*
X65262Y-44104D01*
X65247Y-44114D01*
X65232Y-44132D01*
X65232Y-44170D01*
X65247Y-44189D01*
X65262Y-44198D01*
X65292Y-44207D01*
X64562Y-46123D02*
X64562Y-46104D01*
X64577Y-46085D01*
X64592Y-46076D01*
X64622Y-46067D01*
X64682Y-46057D01*
X64757Y-46057D01*
X64817Y-46067D01*
X64847Y-46076D01*
X64862Y-46085D01*
X64877Y-46104D01*
X64877Y-46123D01*
X64862Y-46142D01*
X64847Y-46151D01*
X64817Y-46160D01*
X64757Y-46170D01*
X64682Y-46170D01*
X64622Y-46160D01*
X64592Y-46151D01*
X64577Y-46142D01*
X64562Y-46123D01*
X64847Y-45973D02*
X64862Y-45964D01*
X64877Y-45973D01*
X64862Y-45982D01*
X64847Y-45973D01*
X64877Y-45973D01*
X64877Y-45776D02*
X64877Y-45889D01*
X64877Y-45832D02*
X64562Y-45832D01*
X64607Y-45851D01*
X64637Y-45870D01*
X64652Y-45889D01*
X64667Y-45607D02*
X64877Y-45607D01*
X64667Y-45692D02*
X64832Y-45692D01*
X64862Y-45682D01*
X64877Y-45664D01*
X64877Y-45635D01*
X64862Y-45617D01*
X64847Y-45607D01*
X64712Y-45448D02*
X64712Y-45514D01*
X64877Y-45514D02*
X64562Y-45514D01*
X64562Y-45420D01*
X67797Y-43282D02*
X67812Y-43292D01*
X67827Y-43320D01*
X67827Y-43339D01*
X67812Y-43367D01*
X67782Y-43385D01*
X67752Y-43395D01*
X67692Y-43404D01*
X67647Y-43404D01*
X67587Y-43395D01*
X67557Y-43385D01*
X67527Y-43367D01*
X67512Y-43339D01*
X67512Y-43320D01*
X67527Y-43292D01*
X67542Y-43282D01*
X67542Y-43207D02*
X67527Y-43198D01*
X67512Y-43179D01*
X67512Y-43132D01*
X67527Y-43114D01*
X67542Y-43104D01*
X67572Y-43095D01*
X67602Y-43095D01*
X67647Y-43104D01*
X67827Y-43217D01*
X67827Y-43095D01*
X67542Y-44270D02*
X67527Y-44260D01*
X67512Y-44242D01*
X67512Y-44195D01*
X67527Y-44176D01*
X67542Y-44167D01*
X67572Y-44157D01*
X67602Y-44157D01*
X67647Y-44167D01*
X67827Y-44279D01*
X67827Y-44157D01*
X67797Y-44073D02*
X67812Y-44064D01*
X67827Y-44073D01*
X67812Y-44082D01*
X67797Y-44073D01*
X67827Y-44073D01*
X67542Y-43989D02*
X67527Y-43979D01*
X67512Y-43960D01*
X67512Y-43914D01*
X67527Y-43895D01*
X67542Y-43885D01*
X67572Y-43876D01*
X67602Y-43876D01*
X67647Y-43885D01*
X67827Y-43998D01*
X67827Y-43876D01*
X67617Y-43707D02*
X67827Y-43707D01*
X67617Y-43792D02*
X67782Y-43792D01*
X67812Y-43782D01*
X67827Y-43764D01*
X67827Y-43735D01*
X67812Y-43717D01*
X67797Y-43707D01*
X67662Y-43548D02*
X67662Y-43614D01*
X67827Y-43614D02*
X67512Y-43614D01*
X67512Y-43520D01*
X68347Y-45432D02*
X68362Y-45442D01*
X68377Y-45470D01*
X68377Y-45489D01*
X68362Y-45517D01*
X68332Y-45535D01*
X68302Y-45545D01*
X68242Y-45554D01*
X68197Y-45554D01*
X68137Y-45545D01*
X68107Y-45535D01*
X68077Y-45517D01*
X68062Y-45489D01*
X68062Y-45470D01*
X68077Y-45442D01*
X68092Y-45432D01*
X68062Y-45367D02*
X68062Y-45245D01*
X68182Y-45310D01*
X68182Y-45282D01*
X68197Y-45264D01*
X68212Y-45254D01*
X68242Y-45245D01*
X68317Y-45245D01*
X68347Y-45254D01*
X68362Y-45264D01*
X68377Y-45282D01*
X68377Y-45339D01*
X68362Y-45357D01*
X68347Y-45367D01*
X68092Y-46420D02*
X68077Y-46410D01*
X68062Y-46392D01*
X68062Y-46345D01*
X68077Y-46326D01*
X68092Y-46317D01*
X68122Y-46307D01*
X68152Y-46307D01*
X68197Y-46317D01*
X68377Y-46429D01*
X68377Y-46307D01*
X68347Y-46223D02*
X68362Y-46214D01*
X68377Y-46223D01*
X68362Y-46232D01*
X68347Y-46223D01*
X68377Y-46223D01*
X68092Y-46139D02*
X68077Y-46129D01*
X68062Y-46110D01*
X68062Y-46064D01*
X68077Y-46045D01*
X68092Y-46035D01*
X68122Y-46026D01*
X68152Y-46026D01*
X68197Y-46035D01*
X68377Y-46148D01*
X68377Y-46026D01*
X68167Y-45857D02*
X68377Y-45857D01*
X68167Y-45942D02*
X68332Y-45942D01*
X68362Y-45932D01*
X68377Y-45914D01*
X68377Y-45885D01*
X68362Y-45867D01*
X68347Y-45857D01*
X68212Y-45698D02*
X68212Y-45764D01*
X68377Y-45764D02*
X68062Y-45764D01*
X68062Y-45670D01*
X68447Y-43932D02*
X68462Y-43942D01*
X68477Y-43970D01*
X68477Y-43989D01*
X68462Y-44017D01*
X68432Y-44035D01*
X68402Y-44045D01*
X68342Y-44054D01*
X68297Y-44054D01*
X68237Y-44045D01*
X68207Y-44035D01*
X68177Y-44017D01*
X68162Y-43989D01*
X68162Y-43970D01*
X68177Y-43942D01*
X68192Y-43932D01*
X68162Y-43867D02*
X68162Y-43735D01*
X68477Y-43820D01*
X68192Y-44920D02*
X68177Y-44910D01*
X68162Y-44892D01*
X68162Y-44845D01*
X68177Y-44826D01*
X68192Y-44817D01*
X68222Y-44807D01*
X68252Y-44807D01*
X68297Y-44817D01*
X68477Y-44929D01*
X68477Y-44807D01*
X68447Y-44723D02*
X68462Y-44714D01*
X68477Y-44723D01*
X68462Y-44732D01*
X68447Y-44723D01*
X68477Y-44723D01*
X68192Y-44639D02*
X68177Y-44629D01*
X68162Y-44610D01*
X68162Y-44564D01*
X68177Y-44545D01*
X68192Y-44535D01*
X68222Y-44526D01*
X68252Y-44526D01*
X68297Y-44535D01*
X68477Y-44648D01*
X68477Y-44526D01*
X68267Y-44442D02*
X68477Y-44442D01*
X68297Y-44442D02*
X68282Y-44432D01*
X68267Y-44414D01*
X68267Y-44385D01*
X68282Y-44367D01*
X68312Y-44357D01*
X68477Y-44357D01*
X68312Y-44198D02*
X68312Y-44264D01*
X68477Y-44264D02*
X68162Y-44264D01*
X68162Y-44170D01*
X66697Y-40107D02*
X66712Y-40117D01*
X66727Y-40145D01*
X66727Y-40164D01*
X66712Y-40192D01*
X66682Y-40210D01*
X66652Y-40220D01*
X66592Y-40229D01*
X66547Y-40229D01*
X66487Y-40220D01*
X66457Y-40210D01*
X66427Y-40192D01*
X66412Y-40164D01*
X66412Y-40145D01*
X66427Y-40117D01*
X66442Y-40107D01*
X66727Y-39920D02*
X66727Y-40032D01*
X66727Y-39976D02*
X66412Y-39976D01*
X66457Y-39995D01*
X66487Y-40014D01*
X66502Y-40032D01*
X66727Y-40885D02*
X66727Y-40998D01*
X66727Y-40942D02*
X66412Y-40942D01*
X66457Y-40960D01*
X66487Y-40979D01*
X66502Y-40998D01*
X66412Y-40764D02*
X66412Y-40745D01*
X66427Y-40726D01*
X66442Y-40717D01*
X66472Y-40707D01*
X66532Y-40698D01*
X66607Y-40698D01*
X66667Y-40707D01*
X66697Y-40717D01*
X66712Y-40726D01*
X66727Y-40745D01*
X66727Y-40764D01*
X66712Y-40782D01*
X66697Y-40792D01*
X66667Y-40801D01*
X66607Y-40810D01*
X66532Y-40810D01*
X66472Y-40801D01*
X66442Y-40792D01*
X66427Y-40782D01*
X66412Y-40764D01*
X66517Y-40529D02*
X66727Y-40529D01*
X66517Y-40614D02*
X66682Y-40614D01*
X66712Y-40604D01*
X66727Y-40585D01*
X66727Y-40557D01*
X66712Y-40539D01*
X66697Y-40529D01*
X66562Y-40370D02*
X66562Y-40435D01*
X66727Y-40435D02*
X66412Y-40435D01*
X66412Y-40342D01*
X65997Y-40057D02*
X66012Y-40067D01*
X66027Y-40095D01*
X66027Y-40114D01*
X66012Y-40142D01*
X65982Y-40160D01*
X65952Y-40170D01*
X65892Y-40179D01*
X65847Y-40179D01*
X65787Y-40170D01*
X65757Y-40160D01*
X65727Y-40142D01*
X65712Y-40114D01*
X65712Y-40095D01*
X65727Y-40067D01*
X65742Y-40057D01*
X65817Y-39889D02*
X66027Y-39889D01*
X65697Y-39935D02*
X65922Y-39982D01*
X65922Y-39860D01*
X65712Y-40998D02*
X65712Y-40979D01*
X65727Y-40960D01*
X65742Y-40951D01*
X65772Y-40942D01*
X65832Y-40932D01*
X65907Y-40932D01*
X65967Y-40942D01*
X65997Y-40951D01*
X66012Y-40960D01*
X66027Y-40979D01*
X66027Y-40998D01*
X66012Y-41017D01*
X65997Y-41026D01*
X65967Y-41035D01*
X65907Y-41045D01*
X65832Y-41045D01*
X65772Y-41035D01*
X65742Y-41026D01*
X65727Y-41017D01*
X65712Y-40998D01*
X65997Y-40848D02*
X66012Y-40839D01*
X66027Y-40848D01*
X66012Y-40857D01*
X65997Y-40848D01*
X66027Y-40848D01*
X66027Y-40651D02*
X66027Y-40764D01*
X66027Y-40707D02*
X65712Y-40707D01*
X65757Y-40726D01*
X65787Y-40745D01*
X65802Y-40764D01*
X65817Y-40482D02*
X66027Y-40482D01*
X65817Y-40567D02*
X65982Y-40567D01*
X66012Y-40557D01*
X66027Y-40539D01*
X66027Y-40510D01*
X66012Y-40492D01*
X65997Y-40482D01*
X65862Y-40323D02*
X65862Y-40389D01*
X66027Y-40389D02*
X65712Y-40389D01*
X65712Y-40295D01*
X64197Y-44276D02*
X64212Y-44285D01*
X64227Y-44314D01*
X64227Y-44332D01*
X64212Y-44360D01*
X64182Y-44379D01*
X64152Y-44389D01*
X64092Y-44398D01*
X64047Y-44398D01*
X63987Y-44389D01*
X63957Y-44379D01*
X63927Y-44360D01*
X63912Y-44332D01*
X63912Y-44314D01*
X63927Y-44285D01*
X63942Y-44276D01*
X64227Y-44089D02*
X64227Y-44201D01*
X64227Y-44145D02*
X63912Y-44145D01*
X63957Y-44164D01*
X63987Y-44182D01*
X64002Y-44201D01*
X63912Y-43967D02*
X63912Y-43948D01*
X63927Y-43929D01*
X63942Y-43920D01*
X63972Y-43910D01*
X64032Y-43901D01*
X64107Y-43901D01*
X64167Y-43910D01*
X64197Y-43920D01*
X64212Y-43929D01*
X64227Y-43948D01*
X64227Y-43967D01*
X64212Y-43985D01*
X64197Y-43995D01*
X64167Y-44004D01*
X64107Y-44014D01*
X64032Y-44014D01*
X63972Y-44004D01*
X63942Y-43995D01*
X63927Y-43985D01*
X63912Y-43967D01*
X63862Y-46523D02*
X63862Y-46504D01*
X63877Y-46485D01*
X63892Y-46476D01*
X63922Y-46467D01*
X63982Y-46457D01*
X64057Y-46457D01*
X64117Y-46467D01*
X64147Y-46476D01*
X64162Y-46485D01*
X64177Y-46504D01*
X64177Y-46523D01*
X64162Y-46542D01*
X64147Y-46551D01*
X64117Y-46560D01*
X64057Y-46570D01*
X63982Y-46570D01*
X63922Y-46560D01*
X63892Y-46551D01*
X63877Y-46542D01*
X63862Y-46523D01*
X64147Y-46373D02*
X64162Y-46364D01*
X64177Y-46373D01*
X64162Y-46382D01*
X64147Y-46373D01*
X64177Y-46373D01*
X64177Y-46176D02*
X64177Y-46289D01*
X64177Y-46232D02*
X63862Y-46232D01*
X63907Y-46251D01*
X63937Y-46270D01*
X63952Y-46289D01*
X63967Y-46007D02*
X64177Y-46007D01*
X63967Y-46092D02*
X64132Y-46092D01*
X64162Y-46082D01*
X64177Y-46064D01*
X64177Y-46035D01*
X64162Y-46017D01*
X64147Y-46007D01*
X64012Y-45848D02*
X64012Y-45914D01*
X64177Y-45914D02*
X63862Y-45914D01*
X63862Y-45820D01*
X67297Y-40007D02*
X67312Y-40017D01*
X67327Y-40045D01*
X67327Y-40064D01*
X67312Y-40092D01*
X67282Y-40110D01*
X67252Y-40120D01*
X67192Y-40129D01*
X67147Y-40129D01*
X67087Y-40120D01*
X67057Y-40110D01*
X67027Y-40092D01*
X67012Y-40064D01*
X67012Y-40045D01*
X67027Y-40017D01*
X67042Y-40007D01*
X67327Y-39914D02*
X67327Y-39876D01*
X67312Y-39857D01*
X67297Y-39848D01*
X67252Y-39829D01*
X67192Y-39820D01*
X67072Y-39820D01*
X67042Y-39829D01*
X67027Y-39839D01*
X67012Y-39857D01*
X67012Y-39895D01*
X67027Y-39914D01*
X67042Y-39923D01*
X67072Y-39932D01*
X67147Y-39932D01*
X67177Y-39923D01*
X67192Y-39914D01*
X67207Y-39895D01*
X67207Y-39857D01*
X67192Y-39839D01*
X67177Y-39829D01*
X67147Y-39820D01*
X67012Y-40948D02*
X67012Y-40929D01*
X67027Y-40910D01*
X67042Y-40901D01*
X67072Y-40892D01*
X67132Y-40882D01*
X67207Y-40882D01*
X67267Y-40892D01*
X67297Y-40901D01*
X67312Y-40910D01*
X67327Y-40929D01*
X67327Y-40948D01*
X67312Y-40967D01*
X67297Y-40976D01*
X67267Y-40985D01*
X67207Y-40995D01*
X67132Y-40995D01*
X67072Y-40985D01*
X67042Y-40976D01*
X67027Y-40967D01*
X67012Y-40948D01*
X67297Y-40798D02*
X67312Y-40789D01*
X67327Y-40798D01*
X67312Y-40807D01*
X67297Y-40798D01*
X67327Y-40798D01*
X67327Y-40601D02*
X67327Y-40714D01*
X67327Y-40657D02*
X67012Y-40657D01*
X67057Y-40676D01*
X67087Y-40695D01*
X67102Y-40714D01*
X67117Y-40432D02*
X67327Y-40432D01*
X67117Y-40517D02*
X67282Y-40517D01*
X67312Y-40507D01*
X67327Y-40489D01*
X67327Y-40460D01*
X67312Y-40442D01*
X67297Y-40432D01*
X67162Y-40273D02*
X67162Y-40339D01*
X67327Y-40339D02*
X67012Y-40339D01*
X67012Y-40245D01*
X45267Y-35497D02*
X45257Y-35512D01*
X45229Y-35527D01*
X45210Y-35527D01*
X45182Y-35512D01*
X45164Y-35482D01*
X45154Y-35452D01*
X45145Y-35392D01*
X45145Y-35347D01*
X45154Y-35287D01*
X45164Y-35257D01*
X45182Y-35227D01*
X45210Y-35212D01*
X45229Y-35212D01*
X45257Y-35227D01*
X45267Y-35242D01*
X45445Y-35212D02*
X45351Y-35212D01*
X45342Y-35362D01*
X45351Y-35347D01*
X45370Y-35332D01*
X45417Y-35332D01*
X45435Y-35347D01*
X45445Y-35362D01*
X45454Y-35392D01*
X45454Y-35467D01*
X45445Y-35497D01*
X45435Y-35512D01*
X45417Y-35527D01*
X45370Y-35527D01*
X45351Y-35512D01*
X45342Y-35497D01*
X44326Y-35212D02*
X44345Y-35212D01*
X44364Y-35227D01*
X44373Y-35242D01*
X44382Y-35272D01*
X44392Y-35332D01*
X44392Y-35407D01*
X44382Y-35467D01*
X44373Y-35497D01*
X44364Y-35512D01*
X44345Y-35527D01*
X44326Y-35527D01*
X44307Y-35512D01*
X44298Y-35497D01*
X44289Y-35467D01*
X44279Y-35407D01*
X44279Y-35332D01*
X44289Y-35272D01*
X44298Y-35242D01*
X44307Y-35227D01*
X44326Y-35212D01*
X44476Y-35497D02*
X44485Y-35512D01*
X44476Y-35527D01*
X44467Y-35512D01*
X44476Y-35497D01*
X44476Y-35527D01*
X44673Y-35527D02*
X44560Y-35527D01*
X44617Y-35527D02*
X44617Y-35212D01*
X44598Y-35257D01*
X44579Y-35287D01*
X44560Y-35302D01*
X44842Y-35317D02*
X44842Y-35527D01*
X44757Y-35317D02*
X44757Y-35482D01*
X44767Y-35512D01*
X44785Y-35527D01*
X44814Y-35527D01*
X44832Y-35512D01*
X44842Y-35497D01*
X45001Y-35362D02*
X44935Y-35362D01*
X44935Y-35527D02*
X44935Y-35212D01*
X45029Y-35212D01*
X57260Y-30637D02*
X57289Y-30652D01*
X57298Y-30667D01*
X57307Y-30697D01*
X57307Y-30742D01*
X57298Y-30772D01*
X57289Y-30787D01*
X57270Y-30802D01*
X57195Y-30802D01*
X57195Y-30487D01*
X57260Y-30487D01*
X57279Y-30502D01*
X57289Y-30517D01*
X57298Y-30547D01*
X57298Y-30577D01*
X57289Y-30607D01*
X57279Y-30622D01*
X57260Y-30637D01*
X57195Y-30637D01*
X57382Y-30712D02*
X57476Y-30712D01*
X57364Y-30802D02*
X57429Y-30487D01*
X57495Y-30802D01*
X57532Y-30487D02*
X57645Y-30487D01*
X57589Y-30802D02*
X57589Y-30487D01*
X57814Y-30802D02*
X57701Y-30802D01*
X57757Y-30802D02*
X57757Y-30487D01*
X57739Y-30532D01*
X57720Y-30562D01*
X57701Y-30577D01*
X43604Y-42377D02*
X43604Y-42062D01*
X43679Y-42062D01*
X43698Y-42077D01*
X43707Y-42092D01*
X43717Y-42122D01*
X43717Y-42167D01*
X43707Y-42197D01*
X43698Y-42212D01*
X43679Y-42227D01*
X43604Y-42227D01*
X43885Y-42062D02*
X43848Y-42062D01*
X43829Y-42077D01*
X43820Y-42092D01*
X43801Y-42137D01*
X43792Y-42197D01*
X43792Y-42317D01*
X43801Y-42347D01*
X43810Y-42362D01*
X43829Y-42377D01*
X43867Y-42377D01*
X43885Y-42362D01*
X43895Y-42347D01*
X43904Y-42317D01*
X43904Y-42242D01*
X43895Y-42212D01*
X43885Y-42197D01*
X43867Y-42182D01*
X43829Y-42182D01*
X43810Y-42197D01*
X43801Y-42212D01*
X43792Y-42242D01*
X43573Y-41662D02*
X43573Y-41917D01*
X43582Y-41947D01*
X43592Y-41962D01*
X43611Y-41977D01*
X43648Y-41977D01*
X43667Y-41962D01*
X43676Y-41947D01*
X43686Y-41917D01*
X43686Y-41662D01*
X43770Y-41887D02*
X43864Y-41887D01*
X43751Y-41977D02*
X43817Y-41662D01*
X43882Y-41977D01*
X44060Y-41977D02*
X43995Y-41827D01*
X43948Y-41977D02*
X43948Y-41662D01*
X44023Y-41662D01*
X44042Y-41677D01*
X44051Y-41692D01*
X44060Y-41722D01*
X44060Y-41767D01*
X44051Y-41797D01*
X44042Y-41812D01*
X44023Y-41827D01*
X43948Y-41827D01*
X44117Y-41662D02*
X44229Y-41662D01*
X44173Y-41977D02*
X44173Y-41662D01*
X44248Y-42007D02*
X44398Y-42007D01*
X44445Y-41977D02*
X44445Y-41662D01*
X44492Y-41662D01*
X44520Y-41677D01*
X44539Y-41707D01*
X44548Y-41737D01*
X44557Y-41797D01*
X44557Y-41842D01*
X44548Y-41902D01*
X44539Y-41932D01*
X44520Y-41962D01*
X44492Y-41977D01*
X44445Y-41977D01*
X44642Y-41812D02*
X44707Y-41812D01*
X44735Y-41977D02*
X44642Y-41977D01*
X44642Y-41662D01*
X44735Y-41662D01*
X44885Y-41812D02*
X44914Y-41827D01*
X44923Y-41842D01*
X44932Y-41872D01*
X44932Y-41917D01*
X44923Y-41947D01*
X44914Y-41962D01*
X44895Y-41977D01*
X44820Y-41977D01*
X44820Y-41662D01*
X44885Y-41662D01*
X44904Y-41677D01*
X44914Y-41692D01*
X44923Y-41722D01*
X44923Y-41752D01*
X44914Y-41782D01*
X44904Y-41797D01*
X44885Y-41812D01*
X44820Y-41812D01*
X45017Y-41662D02*
X45017Y-41917D01*
X45026Y-41947D01*
X45035Y-41962D01*
X45054Y-41977D01*
X45092Y-41977D01*
X45110Y-41962D01*
X45120Y-41947D01*
X45129Y-41917D01*
X45129Y-41662D01*
X45326Y-41677D02*
X45307Y-41662D01*
X45279Y-41662D01*
X45251Y-41677D01*
X45232Y-41707D01*
X45223Y-41737D01*
X45213Y-41797D01*
X45213Y-41842D01*
X45223Y-41902D01*
X45232Y-41932D01*
X45251Y-41962D01*
X45279Y-41977D01*
X45298Y-41977D01*
X45326Y-41962D01*
X45335Y-41947D01*
X45335Y-41842D01*
X45298Y-41842D01*
X43623Y-31477D02*
X43529Y-31477D01*
X43529Y-31162D01*
X43679Y-31462D02*
X43707Y-31477D01*
X43754Y-31477D01*
X43773Y-31462D01*
X43782Y-31447D01*
X43792Y-31417D01*
X43792Y-31387D01*
X43782Y-31357D01*
X43773Y-31342D01*
X43754Y-31327D01*
X43717Y-31312D01*
X43698Y-31297D01*
X43689Y-31282D01*
X43679Y-31252D01*
X43679Y-31222D01*
X43689Y-31192D01*
X43698Y-31177D01*
X43717Y-31162D01*
X43764Y-31162D01*
X43792Y-31177D01*
X43867Y-31192D02*
X43876Y-31177D01*
X43895Y-31162D01*
X43942Y-31162D01*
X43960Y-31177D01*
X43970Y-31192D01*
X43979Y-31222D01*
X43979Y-31252D01*
X43970Y-31297D01*
X43857Y-31477D01*
X43979Y-31477D01*
X43531Y-31062D02*
X43559Y-31077D01*
X43606Y-31077D01*
X43625Y-31062D01*
X43634Y-31047D01*
X43643Y-31017D01*
X43643Y-30987D01*
X43634Y-30957D01*
X43625Y-30942D01*
X43606Y-30927D01*
X43568Y-30912D01*
X43550Y-30897D01*
X43540Y-30882D01*
X43531Y-30852D01*
X43531Y-30822D01*
X43540Y-30792D01*
X43550Y-30777D01*
X43568Y-30762D01*
X43615Y-30762D01*
X43643Y-30777D01*
X43728Y-31077D02*
X43728Y-30762D01*
X43803Y-30762D01*
X43821Y-30777D01*
X43831Y-30792D01*
X43840Y-30822D01*
X43840Y-30867D01*
X43831Y-30897D01*
X43821Y-30912D01*
X43803Y-30927D01*
X43728Y-30927D01*
X43925Y-30912D02*
X43990Y-30912D01*
X44018Y-31077D02*
X43925Y-31077D01*
X43925Y-30762D01*
X44018Y-30762D01*
X44093Y-30987D02*
X44187Y-30987D01*
X44075Y-31077D02*
X44140Y-30762D01*
X44206Y-31077D01*
X44271Y-31077D02*
X44271Y-30762D01*
X44384Y-31077D02*
X44300Y-30897D01*
X44384Y-30762D02*
X44271Y-30942D01*
X44468Y-30912D02*
X44534Y-30912D01*
X44562Y-31077D02*
X44468Y-31077D01*
X44468Y-30762D01*
X44562Y-30762D01*
X44759Y-31077D02*
X44693Y-30927D01*
X44646Y-31077D02*
X44646Y-30762D01*
X44721Y-30762D01*
X44740Y-30777D01*
X44749Y-30792D01*
X44759Y-30822D01*
X44759Y-30867D01*
X44749Y-30897D01*
X44740Y-30912D01*
X44721Y-30927D01*
X44646Y-30927D01*
X44796Y-31107D02*
X44946Y-31107D01*
X45087Y-31077D02*
X44993Y-31077D01*
X44993Y-30762D01*
X47523Y-31477D02*
X47429Y-31477D01*
X47429Y-31162D01*
X47579Y-31462D02*
X47607Y-31477D01*
X47654Y-31477D01*
X47673Y-31462D01*
X47682Y-31447D01*
X47692Y-31417D01*
X47692Y-31387D01*
X47682Y-31357D01*
X47673Y-31342D01*
X47654Y-31327D01*
X47617Y-31312D01*
X47598Y-31297D01*
X47589Y-31282D01*
X47579Y-31252D01*
X47579Y-31222D01*
X47589Y-31192D01*
X47598Y-31177D01*
X47617Y-31162D01*
X47664Y-31162D01*
X47692Y-31177D01*
X47879Y-31477D02*
X47767Y-31477D01*
X47823Y-31477D02*
X47823Y-31162D01*
X47804Y-31207D01*
X47785Y-31237D01*
X47767Y-31252D01*
X46662Y-31062D02*
X46690Y-31077D01*
X46737Y-31077D01*
X46756Y-31062D01*
X46765Y-31047D01*
X46775Y-31017D01*
X46775Y-30987D01*
X46765Y-30957D01*
X46756Y-30942D01*
X46737Y-30927D01*
X46700Y-30912D01*
X46681Y-30897D01*
X46671Y-30882D01*
X46662Y-30852D01*
X46662Y-30822D01*
X46671Y-30792D01*
X46681Y-30777D01*
X46700Y-30762D01*
X46746Y-30762D01*
X46775Y-30777D01*
X46859Y-31077D02*
X46859Y-30762D01*
X46934Y-30762D01*
X46953Y-30777D01*
X46962Y-30792D01*
X46971Y-30822D01*
X46971Y-30867D01*
X46962Y-30897D01*
X46953Y-30912D01*
X46934Y-30927D01*
X46859Y-30927D01*
X47056Y-30912D02*
X47121Y-30912D01*
X47150Y-31077D02*
X47056Y-31077D01*
X47056Y-30762D01*
X47150Y-30762D01*
X47225Y-30987D02*
X47318Y-30987D01*
X47206Y-31077D02*
X47271Y-30762D01*
X47337Y-31077D01*
X47403Y-31077D02*
X47403Y-30762D01*
X47515Y-31077D02*
X47431Y-30897D01*
X47515Y-30762D02*
X47403Y-30942D01*
X47599Y-30912D02*
X47665Y-30912D01*
X47693Y-31077D02*
X47599Y-31077D01*
X47599Y-30762D01*
X47693Y-30762D01*
X47890Y-31077D02*
X47824Y-30927D01*
X47778Y-31077D02*
X47778Y-30762D01*
X47853Y-30762D01*
X47871Y-30777D01*
X47881Y-30792D01*
X47890Y-30822D01*
X47890Y-30867D01*
X47881Y-30897D01*
X47871Y-30912D01*
X47853Y-30927D01*
X47778Y-30927D01*
X47928Y-31107D02*
X48078Y-31107D01*
X48237Y-31077D02*
X48171Y-30927D01*
X48124Y-31077D02*
X48124Y-30762D01*
X48199Y-30762D01*
X48218Y-30777D01*
X48228Y-30792D01*
X48237Y-30822D01*
X48237Y-30867D01*
X48228Y-30897D01*
X48218Y-30912D01*
X48199Y-30927D01*
X48124Y-30927D01*
X66881Y-33207D02*
X66862Y-33192D01*
X66843Y-33162D01*
X66815Y-33117D01*
X66796Y-33102D01*
X66778Y-33102D01*
X66787Y-33177D02*
X66768Y-33162D01*
X66750Y-33132D01*
X66740Y-33072D01*
X66740Y-32967D01*
X66750Y-32907D01*
X66768Y-32877D01*
X66787Y-32862D01*
X66825Y-32862D01*
X66843Y-32877D01*
X66862Y-32907D01*
X66871Y-32967D01*
X66871Y-33072D01*
X66862Y-33132D01*
X66843Y-33162D01*
X66825Y-33177D01*
X66787Y-33177D01*
X67059Y-33177D02*
X66946Y-33177D01*
X67003Y-33177D02*
X67003Y-32862D01*
X66984Y-32907D01*
X66965Y-32937D01*
X66946Y-32952D01*
X66209Y-33177D02*
X66096Y-33177D01*
X66153Y-33177D02*
X66153Y-32862D01*
X66134Y-32907D01*
X66115Y-32937D01*
X66096Y-32952D01*
X66284Y-33087D02*
X66378Y-33087D01*
X66265Y-33177D02*
X66331Y-32862D01*
X66396Y-33177D01*
X66462Y-33177D02*
X66462Y-32862D01*
X66528Y-33087D01*
X66593Y-32862D01*
X66593Y-33177D01*
X51437Y-53562D02*
X51465Y-53577D01*
X51512Y-53577D01*
X51531Y-53562D01*
X51540Y-53547D01*
X51550Y-53517D01*
X51550Y-53487D01*
X51540Y-53457D01*
X51531Y-53442D01*
X51512Y-53427D01*
X51475Y-53412D01*
X51456Y-53397D01*
X51446Y-53382D01*
X51437Y-53352D01*
X51437Y-53322D01*
X51446Y-53292D01*
X51456Y-53277D01*
X51475Y-53262D01*
X51521Y-53262D01*
X51550Y-53277D01*
X51615Y-53262D02*
X51662Y-53577D01*
X51700Y-53352D01*
X51737Y-53577D01*
X51784Y-53262D01*
X51849Y-53292D02*
X51859Y-53277D01*
X51878Y-53262D01*
X51924Y-53262D01*
X51943Y-53277D01*
X51953Y-53292D01*
X51962Y-53322D01*
X51962Y-53352D01*
X51953Y-53397D01*
X51840Y-53577D01*
X51962Y-53577D01*
X51456Y-52427D02*
X51390Y-52277D01*
X51343Y-52427D02*
X51343Y-52112D01*
X51418Y-52112D01*
X51437Y-52127D01*
X51446Y-52142D01*
X51456Y-52172D01*
X51456Y-52217D01*
X51446Y-52247D01*
X51437Y-52262D01*
X51418Y-52277D01*
X51343Y-52277D01*
X51615Y-52412D02*
X51596Y-52427D01*
X51559Y-52427D01*
X51540Y-52412D01*
X51531Y-52382D01*
X51531Y-52262D01*
X51540Y-52232D01*
X51559Y-52217D01*
X51596Y-52217D01*
X51615Y-52232D01*
X51625Y-52262D01*
X51625Y-52292D01*
X51531Y-52322D01*
X51700Y-52412D02*
X51718Y-52427D01*
X51756Y-52427D01*
X51774Y-52412D01*
X51784Y-52382D01*
X51784Y-52367D01*
X51774Y-52337D01*
X51756Y-52322D01*
X51728Y-52322D01*
X51709Y-52307D01*
X51700Y-52277D01*
X51700Y-52262D01*
X51709Y-52232D01*
X51728Y-52217D01*
X51756Y-52217D01*
X51774Y-52232D01*
X51943Y-52412D02*
X51924Y-52427D01*
X51887Y-52427D01*
X51868Y-52412D01*
X51859Y-52382D01*
X51859Y-52262D01*
X51868Y-52232D01*
X51887Y-52217D01*
X51924Y-52217D01*
X51943Y-52232D01*
X51953Y-52262D01*
X51953Y-52292D01*
X51859Y-52322D01*
X52009Y-52217D02*
X52084Y-52217D01*
X52037Y-52112D02*
X52037Y-52382D01*
X52046Y-52412D01*
X52065Y-52427D01*
X52084Y-52427D01*
X60537Y-53612D02*
X60565Y-53627D01*
X60612Y-53627D01*
X60631Y-53612D01*
X60640Y-53597D01*
X60650Y-53567D01*
X60650Y-53537D01*
X60640Y-53507D01*
X60631Y-53492D01*
X60612Y-53477D01*
X60575Y-53462D01*
X60556Y-53447D01*
X60546Y-53432D01*
X60537Y-53402D01*
X60537Y-53372D01*
X60546Y-53342D01*
X60556Y-53327D01*
X60575Y-53312D01*
X60621Y-53312D01*
X60650Y-53327D01*
X60715Y-53312D02*
X60762Y-53627D01*
X60800Y-53402D01*
X60837Y-53627D01*
X60884Y-53312D01*
X61062Y-53627D02*
X60949Y-53627D01*
X61006Y-53627D02*
X61006Y-53312D01*
X60987Y-53357D01*
X60968Y-53387D01*
X60949Y-53402D01*
X59760Y-52377D02*
X59760Y-52062D01*
X59835Y-52062D01*
X59854Y-52077D01*
X59864Y-52092D01*
X59873Y-52122D01*
X59873Y-52167D01*
X59864Y-52197D01*
X59854Y-52212D01*
X59835Y-52227D01*
X59760Y-52227D01*
X59985Y-52377D02*
X59967Y-52362D01*
X59957Y-52347D01*
X59948Y-52317D01*
X59948Y-52227D01*
X59957Y-52197D01*
X59967Y-52182D01*
X59985Y-52167D01*
X60014Y-52167D01*
X60032Y-52182D01*
X60042Y-52197D01*
X60051Y-52227D01*
X60051Y-52317D01*
X60042Y-52347D01*
X60032Y-52362D01*
X60014Y-52377D01*
X59985Y-52377D01*
X60117Y-52167D02*
X60154Y-52377D01*
X60192Y-52227D01*
X60229Y-52377D01*
X60267Y-52167D01*
X60417Y-52362D02*
X60398Y-52377D01*
X60360Y-52377D01*
X60342Y-52362D01*
X60332Y-52332D01*
X60332Y-52212D01*
X60342Y-52182D01*
X60360Y-52167D01*
X60398Y-52167D01*
X60417Y-52182D01*
X60426Y-52212D01*
X60426Y-52242D01*
X60332Y-52272D01*
X60510Y-52377D02*
X60510Y-52167D01*
X60510Y-52227D02*
X60520Y-52197D01*
X60529Y-52182D01*
X60548Y-52167D01*
X60567Y-52167D01*
X45043Y-29812D02*
X45071Y-29827D01*
X45118Y-29827D01*
X45137Y-29812D01*
X45146Y-29797D01*
X45156Y-29767D01*
X45156Y-29737D01*
X45146Y-29707D01*
X45137Y-29692D01*
X45118Y-29677D01*
X45081Y-29662D01*
X45062Y-29647D01*
X45053Y-29632D01*
X45043Y-29602D01*
X45043Y-29572D01*
X45053Y-29542D01*
X45062Y-29527D01*
X45081Y-29512D01*
X45128Y-29512D01*
X45156Y-29527D01*
X45221Y-29512D02*
X45268Y-29827D01*
X45306Y-29602D01*
X45343Y-29827D01*
X45390Y-29512D01*
X45568Y-29827D02*
X45456Y-29827D01*
X45512Y-29827D02*
X45512Y-29512D01*
X45493Y-29557D01*
X45474Y-29587D01*
X45456Y-29602D01*
X45690Y-29512D02*
X45709Y-29512D01*
X45728Y-29527D01*
X45737Y-29542D01*
X45746Y-29572D01*
X45756Y-29632D01*
X45756Y-29707D01*
X45746Y-29767D01*
X45737Y-29797D01*
X45728Y-29812D01*
X45709Y-29827D01*
X45690Y-29827D01*
X45671Y-29812D01*
X45662Y-29797D01*
X45653Y-29767D01*
X45643Y-29707D01*
X45643Y-29632D01*
X45653Y-29572D01*
X45662Y-29542D01*
X45671Y-29527D01*
X45690Y-29512D01*
X45460Y-29427D02*
X45395Y-29277D01*
X45348Y-29427D02*
X45348Y-29112D01*
X45423Y-29112D01*
X45442Y-29127D01*
X45451Y-29142D01*
X45460Y-29172D01*
X45460Y-29217D01*
X45451Y-29247D01*
X45442Y-29262D01*
X45423Y-29277D01*
X45348Y-29277D01*
X66637Y-29812D02*
X66665Y-29827D01*
X66712Y-29827D01*
X66731Y-29812D01*
X66740Y-29797D01*
X66750Y-29767D01*
X66750Y-29737D01*
X66740Y-29707D01*
X66731Y-29692D01*
X66712Y-29677D01*
X66675Y-29662D01*
X66656Y-29647D01*
X66646Y-29632D01*
X66637Y-29602D01*
X66637Y-29572D01*
X66646Y-29542D01*
X66656Y-29527D01*
X66675Y-29512D01*
X66721Y-29512D01*
X66750Y-29527D01*
X66815Y-29512D02*
X66862Y-29827D01*
X66900Y-29602D01*
X66937Y-29827D01*
X66984Y-29512D01*
X67068Y-29827D02*
X67106Y-29827D01*
X67124Y-29812D01*
X67134Y-29797D01*
X67153Y-29752D01*
X67162Y-29692D01*
X67162Y-29572D01*
X67153Y-29542D01*
X67143Y-29527D01*
X67124Y-29512D01*
X67087Y-29512D01*
X67068Y-29527D01*
X67059Y-29542D01*
X67049Y-29572D01*
X67049Y-29647D01*
X67059Y-29677D01*
X67068Y-29692D01*
X67087Y-29707D01*
X67124Y-29707D01*
X67143Y-29692D01*
X67153Y-29677D01*
X67162Y-29647D01*
X66960Y-29427D02*
X66867Y-29427D01*
X66867Y-29112D01*
X59004Y-27077D02*
X59004Y-26762D01*
X59079Y-26762D01*
X59098Y-26777D01*
X59107Y-26792D01*
X59117Y-26822D01*
X59117Y-26867D01*
X59107Y-26897D01*
X59098Y-26912D01*
X59079Y-26927D01*
X59004Y-26927D01*
X59285Y-26867D02*
X59285Y-27077D01*
X59239Y-26747D02*
X59192Y-26972D01*
X59314Y-26972D01*
X57650Y-26762D02*
X57650Y-27017D01*
X57659Y-27047D01*
X57668Y-27062D01*
X57687Y-27077D01*
X57725Y-27077D01*
X57743Y-27062D01*
X57753Y-27047D01*
X57762Y-27017D01*
X57762Y-26762D01*
X57846Y-27062D02*
X57875Y-27077D01*
X57921Y-27077D01*
X57940Y-27062D01*
X57950Y-27047D01*
X57959Y-27017D01*
X57959Y-26987D01*
X57950Y-26957D01*
X57940Y-26942D01*
X57921Y-26927D01*
X57884Y-26912D01*
X57865Y-26897D01*
X57856Y-26882D01*
X57846Y-26852D01*
X57846Y-26822D01*
X57856Y-26792D01*
X57865Y-26777D01*
X57884Y-26762D01*
X57931Y-26762D01*
X57959Y-26777D01*
X58109Y-26912D02*
X58137Y-26927D01*
X58146Y-26942D01*
X58156Y-26972D01*
X58156Y-27017D01*
X58146Y-27047D01*
X58137Y-27062D01*
X58118Y-27077D01*
X58043Y-27077D01*
X58043Y-26762D01*
X58109Y-26762D01*
X58128Y-26777D01*
X58137Y-26792D01*
X58146Y-26822D01*
X58146Y-26852D01*
X58137Y-26882D01*
X58128Y-26897D01*
X58109Y-26912D01*
X58043Y-26912D01*
X58193Y-27107D02*
X58343Y-27107D01*
X58428Y-26762D02*
X58465Y-26762D01*
X58484Y-26777D01*
X58503Y-26807D01*
X58512Y-26867D01*
X58512Y-26972D01*
X58503Y-27032D01*
X58484Y-27062D01*
X58465Y-27077D01*
X58428Y-27077D01*
X58409Y-27062D01*
X58390Y-27032D01*
X58381Y-26972D01*
X58381Y-26867D01*
X58390Y-26807D01*
X58409Y-26777D01*
X58428Y-26762D01*
X58568Y-26762D02*
X58681Y-26762D01*
X58624Y-27077D02*
X58624Y-26762D01*
X58849Y-26777D02*
X58831Y-26762D01*
X58803Y-26762D01*
X58774Y-26777D01*
X58756Y-26807D01*
X58746Y-26837D01*
X58737Y-26897D01*
X58737Y-26942D01*
X58746Y-27002D01*
X58756Y-27032D01*
X58774Y-27062D01*
X58803Y-27077D01*
X58821Y-27077D01*
X58849Y-27062D01*
X58859Y-27047D01*
X58859Y-26942D01*
X58821Y-26942D01*
X64312Y-35099D02*
X64567Y-35099D01*
X64597Y-35090D01*
X64612Y-35081D01*
X64627Y-35062D01*
X64627Y-35024D01*
X64612Y-35006D01*
X64597Y-34996D01*
X64567Y-34987D01*
X64312Y-34987D01*
X64312Y-34912D02*
X64312Y-34790D01*
X64432Y-34856D01*
X64432Y-34828D01*
X64447Y-34809D01*
X64462Y-34800D01*
X64492Y-34790D01*
X64567Y-34790D01*
X64597Y-34800D01*
X64612Y-34809D01*
X64627Y-34828D01*
X64627Y-34884D01*
X64612Y-34903D01*
X64597Y-34912D01*
X64627Y-34571D02*
X64312Y-34571D01*
X64627Y-34477D02*
X64312Y-34477D01*
X64312Y-34402D01*
X64327Y-34384D01*
X64342Y-34374D01*
X64372Y-34365D01*
X64417Y-34365D01*
X64447Y-34374D01*
X64462Y-34384D01*
X64477Y-34402D01*
X64477Y-34477D01*
X64612Y-34290D02*
X64627Y-34262D01*
X64627Y-34215D01*
X64612Y-34196D01*
X64597Y-34187D01*
X64567Y-34177D01*
X64537Y-34177D01*
X64507Y-34187D01*
X64492Y-34196D01*
X64477Y-34215D01*
X64462Y-34252D01*
X64447Y-34271D01*
X64432Y-34281D01*
X64402Y-34290D01*
X64372Y-34290D01*
X64342Y-34281D01*
X64327Y-34271D01*
X64312Y-34252D01*
X64312Y-34206D01*
X64327Y-34177D01*
X64657Y-34140D02*
X64657Y-33990D01*
X64342Y-33952D02*
X64327Y-33943D01*
X64312Y-33924D01*
X64312Y-33877D01*
X64327Y-33859D01*
X64342Y-33849D01*
X64372Y-33840D01*
X64402Y-33840D01*
X64447Y-33849D01*
X64627Y-33962D01*
X64627Y-33840D01*
X64597Y-33756D02*
X64612Y-33746D01*
X64627Y-33756D01*
X64612Y-33765D01*
X64597Y-33756D01*
X64627Y-33756D01*
X64417Y-33578D02*
X64627Y-33578D01*
X64297Y-33624D02*
X64522Y-33671D01*
X64522Y-33549D01*
X64657Y-33521D02*
X64657Y-33371D01*
X64342Y-33334D02*
X64327Y-33324D01*
X64312Y-33306D01*
X64312Y-33259D01*
X64327Y-33240D01*
X64342Y-33231D01*
X64372Y-33221D01*
X64402Y-33221D01*
X64447Y-33231D01*
X64627Y-33343D01*
X64627Y-33221D01*
X64417Y-33053D02*
X64627Y-33053D01*
X64297Y-33099D02*
X64522Y-33146D01*
X64522Y-33024D01*
X64312Y-32912D02*
X64312Y-32893D01*
X64327Y-32874D01*
X64342Y-32865D01*
X64372Y-32856D01*
X64432Y-32846D01*
X64507Y-32846D01*
X64567Y-32856D01*
X64597Y-32865D01*
X64612Y-32874D01*
X64627Y-32893D01*
X64627Y-32912D01*
X64612Y-32931D01*
X64597Y-32940D01*
X64567Y-32949D01*
X64507Y-32959D01*
X64432Y-32959D01*
X64372Y-32949D01*
X64342Y-32940D01*
X64327Y-32931D01*
X64312Y-32912D01*
X64627Y-32781D02*
X64417Y-32678D01*
X64417Y-32781D02*
X64627Y-32678D01*
X64312Y-32621D02*
X64312Y-32500D01*
X64432Y-32565D01*
X64432Y-32537D01*
X64447Y-32518D01*
X64462Y-32509D01*
X64492Y-32500D01*
X64567Y-32500D01*
X64597Y-32509D01*
X64612Y-32518D01*
X64627Y-32537D01*
X64627Y-32593D01*
X64612Y-32612D01*
X64597Y-32621D01*
X64342Y-32425D02*
X64327Y-32415D01*
X64312Y-32396D01*
X64312Y-32350D01*
X64327Y-32331D01*
X64342Y-32321D01*
X64372Y-32312D01*
X64402Y-32312D01*
X64447Y-32321D01*
X64627Y-32434D01*
X64627Y-32312D01*
X64312Y-32190D02*
X64312Y-32171D01*
X64327Y-32153D01*
X64342Y-32143D01*
X64372Y-32134D01*
X64432Y-32125D01*
X64507Y-32125D01*
X64567Y-32134D01*
X64597Y-32143D01*
X64612Y-32153D01*
X64627Y-32171D01*
X64627Y-32190D01*
X64612Y-32209D01*
X64597Y-32218D01*
X64567Y-32228D01*
X64507Y-32237D01*
X64432Y-32237D01*
X64372Y-32228D01*
X64342Y-32218D01*
X64327Y-32209D01*
X64312Y-32190D01*
X64657Y-32087D02*
X64657Y-31937D01*
X64612Y-31900D02*
X64627Y-31871D01*
X64627Y-31825D01*
X64612Y-31806D01*
X64597Y-31796D01*
X64567Y-31787D01*
X64537Y-31787D01*
X64507Y-31796D01*
X64492Y-31806D01*
X64477Y-31825D01*
X64462Y-31862D01*
X64447Y-31881D01*
X64432Y-31890D01*
X64402Y-31900D01*
X64372Y-31900D01*
X64342Y-31890D01*
X64327Y-31881D01*
X64312Y-31862D01*
X64312Y-31815D01*
X64327Y-31787D01*
X64312Y-31731D02*
X64312Y-31618D01*
X64627Y-31675D02*
X64312Y-31675D01*
X64312Y-31572D02*
X64312Y-31440D01*
X64627Y-31525D01*
X64312Y-31384D02*
X64312Y-31253D01*
X64627Y-31337D01*
X64447Y-31150D02*
X64432Y-31168D01*
X64417Y-31178D01*
X64387Y-31187D01*
X64372Y-31187D01*
X64342Y-31178D01*
X64327Y-31168D01*
X64312Y-31150D01*
X64312Y-31112D01*
X64327Y-31093D01*
X64342Y-31084D01*
X64372Y-31075D01*
X64387Y-31075D01*
X64417Y-31084D01*
X64432Y-31093D01*
X64447Y-31112D01*
X64447Y-31150D01*
X64462Y-31168D01*
X64477Y-31178D01*
X64507Y-31187D01*
X64567Y-31187D01*
X64597Y-31178D01*
X64612Y-31168D01*
X64627Y-31150D01*
X64627Y-31112D01*
X64612Y-31093D01*
X64597Y-31084D01*
X64567Y-31075D01*
X64507Y-31075D01*
X64477Y-31084D01*
X64462Y-31093D01*
X64447Y-31112D01*
X64627Y-30981D02*
X64627Y-30943D01*
X64612Y-30925D01*
X64597Y-30915D01*
X64552Y-30897D01*
X64492Y-30887D01*
X64372Y-30887D01*
X64342Y-30897D01*
X64327Y-30906D01*
X64312Y-30925D01*
X64312Y-30962D01*
X64327Y-30981D01*
X64342Y-30990D01*
X64372Y-31000D01*
X64447Y-31000D01*
X64477Y-30990D01*
X64492Y-30981D01*
X64507Y-30962D01*
X64507Y-30925D01*
X64492Y-30906D01*
X64477Y-30897D01*
X64447Y-30887D01*
X64312Y-30831D02*
X64627Y-30765D01*
X64312Y-30700D01*
X47873Y-47227D02*
X47807Y-47077D01*
X47760Y-47227D02*
X47760Y-46912D01*
X47835Y-46912D01*
X47854Y-46927D01*
X47864Y-46942D01*
X47873Y-46972D01*
X47873Y-47017D01*
X47864Y-47047D01*
X47854Y-47062D01*
X47835Y-47077D01*
X47760Y-47077D01*
X47948Y-46942D02*
X47957Y-46927D01*
X47976Y-46912D01*
X48023Y-46912D01*
X48042Y-46927D01*
X48051Y-46942D01*
X48060Y-46972D01*
X48060Y-47002D01*
X48051Y-47047D01*
X47939Y-47227D01*
X48060Y-47227D01*
X48154Y-47227D02*
X48192Y-47227D01*
X48210Y-47212D01*
X48220Y-47197D01*
X48239Y-47152D01*
X48248Y-47092D01*
X48248Y-46972D01*
X48239Y-46942D01*
X48229Y-46927D01*
X48210Y-46912D01*
X48173Y-46912D01*
X48154Y-46927D01*
X48145Y-46942D01*
X48135Y-46972D01*
X48135Y-47047D01*
X48145Y-47077D01*
X48154Y-47092D01*
X48173Y-47107D01*
X48210Y-47107D01*
X48229Y-47092D01*
X48239Y-47077D01*
X48248Y-47047D01*
X47098Y-47017D02*
X47098Y-47227D01*
X47051Y-46897D02*
X47004Y-47122D01*
X47126Y-47122D01*
X47201Y-47197D02*
X47210Y-47212D01*
X47201Y-47227D01*
X47192Y-47212D01*
X47201Y-47197D01*
X47201Y-47227D01*
X47276Y-46912D02*
X47407Y-46912D01*
X47323Y-47227D01*
X47482Y-47227D02*
X47482Y-46912D01*
X47595Y-47227D02*
X47510Y-47047D01*
X47595Y-46912D02*
X47482Y-47092D01*
X53873Y-49977D02*
X53807Y-49827D01*
X53760Y-49977D02*
X53760Y-49662D01*
X53835Y-49662D01*
X53854Y-49677D01*
X53864Y-49692D01*
X53873Y-49722D01*
X53873Y-49767D01*
X53864Y-49797D01*
X53854Y-49812D01*
X53835Y-49827D01*
X53760Y-49827D01*
X53939Y-49662D02*
X54060Y-49662D01*
X53995Y-49782D01*
X54023Y-49782D01*
X54042Y-49797D01*
X54051Y-49812D01*
X54060Y-49842D01*
X54060Y-49917D01*
X54051Y-49947D01*
X54042Y-49962D01*
X54023Y-49977D01*
X53967Y-49977D01*
X53948Y-49962D01*
X53939Y-49947D01*
X54182Y-49662D02*
X54201Y-49662D01*
X54220Y-49677D01*
X54229Y-49692D01*
X54239Y-49722D01*
X54248Y-49782D01*
X54248Y-49857D01*
X54239Y-49917D01*
X54229Y-49947D01*
X54220Y-49962D01*
X54201Y-49977D01*
X54182Y-49977D01*
X54164Y-49962D01*
X54154Y-49947D01*
X54145Y-49917D01*
X54135Y-49857D01*
X54135Y-49782D01*
X54145Y-49722D01*
X54154Y-49692D01*
X54164Y-49677D01*
X54182Y-49662D01*
X53798Y-50117D02*
X53798Y-50327D01*
X53751Y-49997D02*
X53704Y-50222D01*
X53826Y-50222D01*
X53901Y-50297D02*
X53910Y-50312D01*
X53901Y-50327D01*
X53892Y-50312D01*
X53901Y-50297D01*
X53901Y-50327D01*
X53976Y-50012D02*
X54107Y-50012D01*
X54023Y-50327D01*
X54182Y-50327D02*
X54182Y-50012D01*
X54295Y-50327D02*
X54210Y-50147D01*
X54295Y-50012D02*
X54182Y-50192D01*
X44210Y-53372D02*
X44201Y-53387D01*
X44173Y-53402D01*
X44154Y-53402D01*
X44126Y-53387D01*
X44107Y-53357D01*
X44098Y-53327D01*
X44089Y-53267D01*
X44089Y-53222D01*
X44098Y-53162D01*
X44107Y-53132D01*
X44126Y-53102D01*
X44154Y-53087D01*
X44173Y-53087D01*
X44201Y-53102D01*
X44210Y-53117D01*
X44332Y-53087D02*
X44370Y-53087D01*
X44389Y-53102D01*
X44407Y-53132D01*
X44417Y-53192D01*
X44417Y-53297D01*
X44407Y-53357D01*
X44389Y-53387D01*
X44370Y-53402D01*
X44332Y-53402D01*
X44314Y-53387D01*
X44295Y-53357D01*
X44285Y-53297D01*
X44285Y-53192D01*
X44295Y-53132D01*
X44314Y-53102D01*
X44332Y-53087D01*
X44501Y-53402D02*
X44501Y-53087D01*
X44614Y-53402D01*
X44614Y-53087D01*
X44810Y-53402D02*
X44698Y-53402D01*
X44754Y-53402D02*
X44754Y-53087D01*
X44735Y-53132D01*
X44717Y-53162D01*
X44698Y-53177D01*
X44121Y-53767D02*
X44121Y-53452D01*
X44186Y-53677D01*
X44252Y-53452D01*
X44252Y-53767D01*
X44345Y-53767D02*
X44345Y-53557D01*
X44345Y-53452D02*
X44336Y-53467D01*
X44345Y-53482D01*
X44355Y-53467D01*
X44345Y-53452D01*
X44345Y-53482D01*
X44524Y-53752D02*
X44505Y-53767D01*
X44467Y-53767D01*
X44449Y-53752D01*
X44439Y-53737D01*
X44430Y-53707D01*
X44430Y-53617D01*
X44439Y-53587D01*
X44449Y-53572D01*
X44467Y-53557D01*
X44505Y-53557D01*
X44524Y-53572D01*
X44608Y-53767D02*
X44608Y-53557D01*
X44608Y-53617D02*
X44617Y-53587D01*
X44627Y-53572D01*
X44645Y-53557D01*
X44664Y-53557D01*
X44758Y-53767D02*
X44739Y-53752D01*
X44730Y-53737D01*
X44720Y-53707D01*
X44720Y-53617D01*
X44730Y-53587D01*
X44739Y-53572D01*
X44758Y-53557D01*
X44786Y-53557D01*
X44805Y-53572D01*
X44814Y-53587D01*
X44824Y-53617D01*
X44824Y-53707D01*
X44814Y-53737D01*
X44805Y-53752D01*
X44786Y-53767D01*
X44758Y-53767D01*
X44899Y-53752D02*
X44927Y-53767D01*
X44974Y-53767D01*
X44992Y-53752D01*
X45002Y-53737D01*
X45011Y-53707D01*
X45011Y-53677D01*
X45002Y-53647D01*
X44992Y-53632D01*
X44974Y-53617D01*
X44936Y-53602D01*
X44917Y-53587D01*
X44908Y-53572D01*
X44899Y-53542D01*
X44899Y-53512D01*
X44908Y-53482D01*
X44917Y-53467D01*
X44936Y-53452D01*
X44983Y-53452D01*
X45011Y-53467D01*
X45095Y-53767D02*
X45095Y-53452D01*
X45142Y-53452D01*
X45170Y-53467D01*
X45189Y-53497D01*
X45198Y-53527D01*
X45208Y-53587D01*
X45208Y-53632D01*
X45198Y-53692D01*
X45189Y-53722D01*
X45170Y-53752D01*
X45142Y-53767D01*
X45095Y-53767D01*
X62710Y-53347D02*
X62701Y-53362D01*
X62673Y-53377D01*
X62654Y-53377D01*
X62626Y-53362D01*
X62607Y-53332D01*
X62598Y-53302D01*
X62589Y-53242D01*
X62589Y-53197D01*
X62598Y-53137D01*
X62607Y-53107D01*
X62626Y-53077D01*
X62654Y-53062D01*
X62673Y-53062D01*
X62701Y-53077D01*
X62710Y-53092D01*
X62832Y-53062D02*
X62870Y-53062D01*
X62889Y-53077D01*
X62907Y-53107D01*
X62917Y-53167D01*
X62917Y-53272D01*
X62907Y-53332D01*
X62889Y-53362D01*
X62870Y-53377D01*
X62832Y-53377D01*
X62814Y-53362D01*
X62795Y-53332D01*
X62785Y-53272D01*
X62785Y-53167D01*
X62795Y-53107D01*
X62814Y-53077D01*
X62832Y-53062D01*
X63001Y-53377D02*
X63001Y-53062D01*
X63114Y-53377D01*
X63114Y-53062D01*
X63198Y-53092D02*
X63207Y-53077D01*
X63226Y-53062D01*
X63273Y-53062D01*
X63292Y-53077D01*
X63301Y-53092D01*
X63310Y-53122D01*
X63310Y-53152D01*
X63301Y-53197D01*
X63189Y-53377D01*
X63310Y-53377D01*
X62611Y-53777D02*
X62611Y-53462D01*
X62676Y-53687D01*
X62742Y-53462D01*
X62742Y-53777D01*
X62835Y-53777D02*
X62835Y-53567D01*
X62835Y-53462D02*
X62826Y-53477D01*
X62835Y-53492D01*
X62845Y-53477D01*
X62835Y-53462D01*
X62835Y-53492D01*
X63014Y-53762D02*
X62995Y-53777D01*
X62957Y-53777D01*
X62939Y-53762D01*
X62929Y-53747D01*
X62920Y-53717D01*
X62920Y-53627D01*
X62929Y-53597D01*
X62939Y-53582D01*
X62957Y-53567D01*
X62995Y-53567D01*
X63014Y-53582D01*
X63098Y-53777D02*
X63098Y-53567D01*
X63098Y-53627D02*
X63107Y-53597D01*
X63117Y-53582D01*
X63135Y-53567D01*
X63154Y-53567D01*
X63248Y-53777D02*
X63229Y-53762D01*
X63220Y-53747D01*
X63210Y-53717D01*
X63210Y-53627D01*
X63220Y-53597D01*
X63229Y-53582D01*
X63248Y-53567D01*
X63276Y-53567D01*
X63295Y-53582D01*
X63304Y-53597D01*
X63314Y-53627D01*
X63314Y-53717D01*
X63304Y-53747D01*
X63295Y-53762D01*
X63276Y-53777D01*
X63248Y-53777D01*
X63389Y-53762D02*
X63417Y-53777D01*
X63464Y-53777D01*
X63482Y-53762D01*
X63492Y-53747D01*
X63501Y-53717D01*
X63501Y-53687D01*
X63492Y-53657D01*
X63482Y-53642D01*
X63464Y-53627D01*
X63426Y-53612D01*
X63407Y-53597D01*
X63398Y-53582D01*
X63389Y-53552D01*
X63389Y-53522D01*
X63398Y-53492D01*
X63407Y-53477D01*
X63426Y-53462D01*
X63473Y-53462D01*
X63501Y-53477D01*
X63585Y-53777D02*
X63585Y-53462D01*
X63632Y-53462D01*
X63660Y-53477D01*
X63679Y-53507D01*
X63688Y-53537D01*
X63698Y-53597D01*
X63698Y-53642D01*
X63688Y-53702D01*
X63679Y-53732D01*
X63660Y-53762D01*
X63632Y-53777D01*
X63585Y-53777D01*
M02*
