G04 (created by PCBNEW (22-Jun-2014 BZR 4027)-stable) date Sun 17 Dec 2017 04:12:14 PM CST*
%MOIN*%
G04 Gerber Fmt 3.4, Leading zero omitted, Abs format*
%FSLAX34Y34*%
G01*
G70*
G90*
G04 APERTURE LIST*
%ADD10C,0.005*%
%ADD11C,0.00393701*%
%ADD12C,0.00787402*%
%ADD13C,0.011811*%
G04 APERTURE END LIST*
G54D10*
G54D11*
X63788Y-47675D02*
G75*
G03X63788Y-47675I-213J0D01*
G74*
G01*
X67738Y-39275D02*
G75*
G03X67738Y-39275I-213J0D01*
G74*
G01*
X61763Y-48350D02*
G75*
G03X61763Y-48350I-213J0D01*
G74*
G01*
X53813Y-50000D02*
G75*
G03X53813Y-50000I-213J0D01*
G74*
G01*
X56238Y-31175D02*
G75*
G03X56238Y-31175I-213J0D01*
G74*
G01*
X49313Y-47525D02*
G75*
G03X49313Y-47525I-213J0D01*
G74*
G01*
X60313Y-51775D02*
G75*
G03X60313Y-51775I-213J0D01*
G74*
G01*
X67388Y-33350D02*
G75*
G03X67388Y-33350I-213J0D01*
G74*
G01*
X61663Y-30150D02*
G75*
G03X61663Y-30150I-213J0D01*
G74*
G01*
X44063Y-39775D02*
G75*
G03X44063Y-39775I-213J0D01*
G74*
G01*
X51213Y-29300D02*
G75*
G03X51213Y-29300I-213J0D01*
G74*
G01*
X51563Y-50500D02*
G75*
G03X51563Y-50500I-213J0D01*
G74*
G01*
X48088Y-29300D02*
G75*
G03X48088Y-29300I-213J0D01*
G74*
G01*
X63613Y-32400D02*
G75*
G03X63613Y-32400I-213J0D01*
G74*
G01*
X67813Y-46700D02*
G75*
G03X67813Y-46700I-213J0D01*
G74*
G01*
X47438Y-44100D02*
G75*
G03X47438Y-44100I-213J0D01*
G74*
G01*
X67963Y-47775D02*
G75*
G03X67963Y-47775I-213J0D01*
G74*
G01*
X44163Y-44125D02*
G75*
G03X44163Y-44125I-213J0D01*
G74*
G01*
X47438Y-46500D02*
G75*
G03X47438Y-46500I-213J0D01*
G74*
G01*
X57413Y-26900D02*
G75*
G03X57413Y-26900I-213J0D01*
G74*
G01*
X55788Y-26925D02*
G75*
G03X55788Y-26925I-213J0D01*
G74*
G01*
X44013Y-29100D02*
G75*
G03X44013Y-29100I-213J0D01*
G74*
G01*
X44163Y-46850D02*
G75*
G03X44163Y-46850I-213J0D01*
G74*
G01*
X68913Y-29100D02*
G75*
G03X68913Y-29100I-213J0D01*
G74*
G01*
X69000Y-40000D02*
X69000Y-54200D01*
X47414Y-45300D02*
G75*
G03X47414Y-45300I-1414J0D01*
G74*
G01*
X68014Y-45300D02*
G75*
G03X68014Y-45300I-1414J0D01*
G74*
G01*
X43500Y-28800D02*
X43500Y-54200D01*
X69000Y-28800D02*
X69000Y-30600D01*
X68400Y-40000D02*
X69000Y-40000D01*
X68400Y-30600D02*
X68400Y-40000D01*
X69000Y-30600D02*
X68400Y-30600D01*
X51300Y-26600D02*
X51300Y-28800D01*
X61100Y-28800D02*
X69000Y-28800D01*
X61100Y-26600D02*
X61100Y-28800D01*
X51300Y-26600D02*
X61100Y-26600D01*
X43500Y-28800D02*
X51300Y-28800D01*
X69000Y-54200D02*
X43500Y-54200D01*
G54D12*
X43646Y-32646D02*
X43803Y-32803D01*
X43803Y-32646D02*
X43646Y-32803D01*
X43771Y-47171D02*
X43928Y-47328D01*
X43928Y-47171D02*
X43771Y-47328D01*
X43771Y-48146D02*
X43928Y-48303D01*
X43928Y-48146D02*
X43771Y-48303D01*
X44396Y-40246D02*
X44553Y-40403D01*
X44553Y-40246D02*
X44396Y-40403D01*
X44396Y-40746D02*
X44553Y-40903D01*
X44553Y-40746D02*
X44396Y-40903D01*
X44396Y-41221D02*
X44553Y-41378D01*
X44553Y-41221D02*
X44396Y-41378D01*
X44996Y-42646D02*
X45153Y-42803D01*
X45153Y-42646D02*
X44996Y-42803D01*
X44996Y-43346D02*
X45153Y-43503D01*
X45153Y-43346D02*
X44996Y-43503D01*
X45021Y-34671D02*
X45178Y-34828D01*
X45178Y-34671D02*
X45021Y-34828D01*
X45846Y-47171D02*
X46003Y-47328D01*
X46003Y-47171D02*
X45846Y-47328D01*
X46046Y-32921D02*
X46203Y-33078D01*
X46203Y-32921D02*
X46046Y-33078D01*
X46271Y-35646D02*
X46428Y-35803D01*
X46428Y-35646D02*
X46271Y-35803D01*
X46496Y-31923D02*
X46653Y-32080D01*
X46653Y-31923D02*
X46496Y-32080D01*
X46496Y-32921D02*
X46653Y-33078D01*
X46653Y-32921D02*
X46496Y-33078D01*
X46696Y-47471D02*
X46853Y-47628D01*
X46853Y-47471D02*
X46696Y-47628D01*
X47196Y-29996D02*
X47353Y-30153D01*
X47353Y-29996D02*
X47196Y-30153D01*
X47371Y-34421D02*
X47528Y-34578D01*
X47528Y-34421D02*
X47371Y-34578D01*
X47396Y-33921D02*
X47553Y-34078D01*
X47553Y-33921D02*
X47396Y-34078D01*
X47646Y-47171D02*
X47803Y-47328D01*
X47803Y-47171D02*
X47646Y-47328D01*
X47771Y-43722D02*
X47928Y-43879D01*
X47928Y-43722D02*
X47771Y-43879D01*
X48271Y-49571D02*
X48428Y-49728D01*
X48428Y-49571D02*
X48271Y-49728D01*
X48271Y-50046D02*
X48428Y-50203D01*
X48428Y-50046D02*
X48271Y-50203D01*
X48421Y-46321D02*
X48578Y-46478D01*
X48578Y-46321D02*
X48421Y-46478D01*
X48746Y-46321D02*
X48903Y-46478D01*
X48903Y-46321D02*
X48746Y-46478D01*
X49346Y-41871D02*
X49503Y-42028D01*
X49503Y-41871D02*
X49346Y-42028D01*
X49346Y-42346D02*
X49503Y-42503D01*
X49503Y-42346D02*
X49346Y-42503D01*
X49921Y-48121D02*
X50078Y-48278D01*
X50078Y-48121D02*
X49921Y-48278D01*
X49946Y-50521D02*
X50103Y-50678D01*
X50103Y-50521D02*
X49946Y-50678D01*
X50096Y-30796D02*
X50253Y-30953D01*
X50253Y-30796D02*
X50096Y-30953D01*
X50296Y-53046D02*
X50453Y-53203D01*
X50453Y-53046D02*
X50296Y-53203D01*
X50471Y-42396D02*
X50628Y-42553D01*
X50628Y-42396D02*
X50471Y-42553D01*
X50721Y-41846D02*
X50878Y-42003D01*
X50878Y-41846D02*
X50721Y-42003D01*
X51071Y-45171D02*
X51228Y-45328D01*
X51228Y-45171D02*
X51071Y-45328D01*
X51671Y-50046D02*
X51828Y-50203D01*
X51828Y-50046D02*
X51671Y-50203D01*
X51846Y-28146D02*
X52003Y-28303D01*
X52003Y-28146D02*
X51846Y-28303D01*
X51846Y-30021D02*
X52003Y-30178D01*
X52003Y-30021D02*
X51846Y-30178D01*
X51896Y-46021D02*
X52053Y-46178D01*
X52053Y-46021D02*
X51896Y-46178D01*
X51896Y-46346D02*
X52053Y-46503D01*
X52053Y-46346D02*
X51896Y-46503D01*
X52696Y-50821D02*
X52853Y-50978D01*
X52853Y-50821D02*
X52696Y-50978D01*
X52921Y-46321D02*
X53078Y-46478D01*
X53078Y-46321D02*
X52921Y-46478D01*
X53421Y-50471D02*
X53578Y-50628D01*
X53578Y-50471D02*
X53421Y-50628D01*
X54196Y-48147D02*
X54353Y-48304D01*
X54353Y-48147D02*
X54196Y-48304D01*
X54421Y-46321D02*
X54578Y-46478D01*
X54578Y-46321D02*
X54421Y-46478D01*
X54596Y-28621D02*
X54753Y-28778D01*
X54753Y-28621D02*
X54596Y-28778D01*
X55196Y-30521D02*
X55353Y-30678D01*
X55353Y-30521D02*
X55196Y-30678D01*
X55521Y-29696D02*
X55678Y-29853D01*
X55678Y-29696D02*
X55521Y-29853D01*
X55671Y-52921D02*
X55828Y-53078D01*
X55828Y-52921D02*
X55671Y-53078D01*
X55746Y-35596D02*
X55903Y-35753D01*
X55903Y-35596D02*
X55746Y-35753D01*
X56046Y-35021D02*
X56203Y-35178D01*
X56203Y-35021D02*
X56046Y-35178D01*
X56046Y-40621D02*
X56203Y-40778D01*
X56203Y-40621D02*
X56046Y-40778D01*
X56121Y-46021D02*
X56278Y-46178D01*
X56278Y-46021D02*
X56121Y-46178D01*
X56996Y-35596D02*
X57153Y-35753D01*
X57153Y-35596D02*
X56996Y-35753D01*
X57021Y-33196D02*
X57178Y-33353D01*
X57178Y-33196D02*
X57021Y-33353D01*
X57021Y-35021D02*
X57178Y-35178D01*
X57178Y-35021D02*
X57021Y-35178D01*
X57046Y-38846D02*
X57203Y-39003D01*
X57203Y-38846D02*
X57046Y-39003D01*
X57046Y-40621D02*
X57203Y-40778D01*
X57203Y-40621D02*
X57046Y-40778D01*
X57296Y-37596D02*
X57453Y-37753D01*
X57453Y-37596D02*
X57296Y-37753D01*
X57396Y-46021D02*
X57553Y-46178D01*
X57553Y-46021D02*
X57396Y-46178D01*
X57396Y-46546D02*
X57553Y-46703D01*
X57553Y-46546D02*
X57396Y-46703D01*
X57521Y-38821D02*
X57678Y-38978D01*
X57678Y-38821D02*
X57521Y-38978D01*
X57771Y-38021D02*
X57928Y-38178D01*
X57928Y-38021D02*
X57771Y-38178D01*
X57821Y-31646D02*
X57978Y-31803D01*
X57978Y-31646D02*
X57821Y-31803D01*
X57921Y-48096D02*
X58078Y-48253D01*
X58078Y-48096D02*
X57921Y-48253D01*
X57996Y-38246D02*
X58153Y-38403D01*
X58153Y-38246D02*
X57996Y-38403D01*
X58421Y-50821D02*
X58578Y-50978D01*
X58578Y-50821D02*
X58421Y-50978D01*
X59146Y-38471D02*
X59303Y-38628D01*
X59303Y-38471D02*
X59146Y-38628D01*
X59171Y-52971D02*
X59328Y-53128D01*
X59328Y-52971D02*
X59171Y-53128D01*
X59371Y-35771D02*
X59528Y-35928D01*
X59528Y-35771D02*
X59371Y-35928D01*
X59421Y-46446D02*
X59578Y-46603D01*
X59578Y-46446D02*
X59421Y-46603D01*
X59596Y-36246D02*
X59753Y-36403D01*
X59753Y-36246D02*
X59596Y-36403D01*
X59671Y-51121D02*
X59828Y-51278D01*
X59828Y-51121D02*
X59671Y-51278D01*
X59821Y-34846D02*
X59978Y-35003D01*
X59978Y-34846D02*
X59821Y-35003D01*
X59896Y-46546D02*
X60053Y-46703D01*
X60053Y-46546D02*
X59896Y-46703D01*
X59921Y-31846D02*
X60078Y-32003D01*
X60078Y-31846D02*
X59921Y-32003D01*
X60046Y-51121D02*
X60203Y-51278D01*
X60203Y-51121D02*
X60046Y-51278D01*
X60071Y-35471D02*
X60228Y-35628D01*
X60228Y-35471D02*
X60071Y-35628D01*
X60296Y-36021D02*
X60453Y-36178D01*
X60453Y-36021D02*
X60296Y-36178D01*
X60296Y-46221D02*
X60453Y-46378D01*
X60453Y-46221D02*
X60296Y-46378D01*
X60321Y-44096D02*
X60478Y-44253D01*
X60478Y-44096D02*
X60321Y-44253D01*
X60321Y-44596D02*
X60478Y-44753D01*
X60478Y-44596D02*
X60321Y-44753D01*
X60321Y-44921D02*
X60478Y-45078D01*
X60478Y-44921D02*
X60321Y-45078D01*
X60321Y-45571D02*
X60478Y-45728D01*
X60478Y-45571D02*
X60321Y-45728D01*
X60321Y-45896D02*
X60478Y-46053D01*
X60478Y-45896D02*
X60321Y-46053D01*
X60521Y-36471D02*
X60678Y-36628D01*
X60678Y-36471D02*
X60521Y-36628D01*
X60696Y-34621D02*
X60853Y-34778D01*
X60853Y-34621D02*
X60696Y-34778D01*
X60796Y-50821D02*
X60953Y-50978D01*
X60953Y-50821D02*
X60796Y-50978D01*
X60921Y-48296D02*
X61078Y-48453D01*
X61078Y-48296D02*
X60921Y-48453D01*
X60946Y-33971D02*
X61103Y-34128D01*
X61103Y-33971D02*
X60946Y-34128D01*
X61046Y-50471D02*
X61203Y-50628D01*
X61203Y-50471D02*
X61046Y-50628D01*
X61146Y-33721D02*
X61303Y-33878D01*
X61303Y-33721D02*
X61146Y-33878D01*
X61271Y-44921D02*
X61428Y-45078D01*
X61428Y-44921D02*
X61271Y-45078D01*
X61271Y-46221D02*
X61428Y-46378D01*
X61428Y-46221D02*
X61271Y-46378D01*
X61321Y-51146D02*
X61478Y-51303D01*
X61478Y-51146D02*
X61321Y-51303D01*
X61321Y-52646D02*
X61478Y-52803D01*
X61478Y-52646D02*
X61321Y-52803D01*
X61396Y-34421D02*
X61553Y-34578D01*
X61553Y-34421D02*
X61396Y-34578D01*
X61721Y-33546D02*
X61878Y-33703D01*
X61878Y-33546D02*
X61721Y-33703D01*
X61971Y-34221D02*
X62128Y-34378D01*
X62128Y-34221D02*
X61971Y-34378D01*
X62196Y-35121D02*
X62353Y-35278D01*
X62353Y-35121D02*
X62196Y-35278D01*
X62371Y-53071D02*
X62528Y-53228D01*
X62528Y-53071D02*
X62371Y-53228D01*
X62396Y-36871D02*
X62553Y-37028D01*
X62553Y-36871D02*
X62396Y-37028D01*
X62546Y-39371D02*
X62703Y-39528D01*
X62703Y-39371D02*
X62546Y-39528D01*
X63046Y-47596D02*
X63203Y-47753D01*
X63203Y-47596D02*
X63046Y-47753D01*
X63496Y-48846D02*
X63653Y-49003D01*
X63653Y-48846D02*
X63496Y-49003D01*
X63696Y-46696D02*
X63853Y-46853D01*
X63853Y-46696D02*
X63696Y-46853D01*
X63696Y-47171D02*
X63853Y-47328D01*
X63853Y-47171D02*
X63696Y-47328D01*
X63921Y-48821D02*
X64078Y-48978D01*
X64078Y-48821D02*
X63921Y-48978D01*
X64221Y-41521D02*
X64378Y-41678D01*
X64378Y-41521D02*
X64221Y-41678D01*
X64246Y-42021D02*
X64403Y-42178D01*
X64403Y-42021D02*
X64246Y-42178D01*
X64246Y-45996D02*
X64403Y-46153D01*
X64403Y-45996D02*
X64246Y-46153D01*
X64321Y-47746D02*
X64478Y-47903D01*
X64478Y-47746D02*
X64321Y-47903D01*
X64321Y-49596D02*
X64478Y-49753D01*
X64478Y-49596D02*
X64321Y-49753D01*
X64334Y-38007D02*
X64492Y-38165D01*
X64492Y-38007D02*
X64334Y-38165D01*
X64521Y-43846D02*
X64678Y-44003D01*
X64678Y-43846D02*
X64521Y-44003D01*
X64546Y-38246D02*
X64703Y-38403D01*
X64703Y-38246D02*
X64546Y-38403D01*
X64771Y-38471D02*
X64928Y-38628D01*
X64928Y-38471D02*
X64771Y-38628D01*
X64771Y-46471D02*
X64928Y-46628D01*
X64928Y-46471D02*
X64771Y-46628D01*
X65021Y-46246D02*
X65178Y-46403D01*
X65178Y-46246D02*
X65021Y-46403D01*
X65171Y-39746D02*
X65328Y-39903D01*
X65328Y-39746D02*
X65171Y-39903D01*
X65171Y-47196D02*
X65328Y-47353D01*
X65328Y-47196D02*
X65171Y-47353D01*
X65246Y-42296D02*
X65403Y-42453D01*
X65403Y-42296D02*
X65246Y-42453D01*
X65271Y-41771D02*
X65428Y-41928D01*
X65428Y-41771D02*
X65271Y-41928D01*
X65346Y-43571D02*
X65503Y-43728D01*
X65503Y-43571D02*
X65346Y-43728D01*
X65546Y-46921D02*
X65703Y-47078D01*
X65703Y-46921D02*
X65546Y-47078D01*
X65621Y-40221D02*
X65778Y-40378D01*
X65778Y-40221D02*
X65621Y-40378D01*
X65871Y-29696D02*
X66028Y-29853D01*
X66028Y-29696D02*
X65871Y-29853D01*
X65946Y-42796D02*
X66103Y-42953D01*
X66103Y-42796D02*
X65946Y-42953D01*
X66021Y-35771D02*
X66178Y-35928D01*
X66178Y-35771D02*
X66021Y-35928D01*
X66071Y-37596D02*
X66228Y-37753D01*
X66228Y-37596D02*
X66071Y-37753D01*
X66221Y-36871D02*
X66378Y-37028D01*
X66378Y-36871D02*
X66221Y-37028D01*
X66221Y-40196D02*
X66378Y-40353D01*
X66378Y-40196D02*
X66221Y-40353D01*
X66271Y-35571D02*
X66428Y-35728D01*
X66428Y-35571D02*
X66271Y-35728D01*
X66271Y-35971D02*
X66428Y-36128D01*
X66428Y-35971D02*
X66271Y-36128D01*
X66521Y-33571D02*
X66678Y-33728D01*
X66678Y-33571D02*
X66521Y-33728D01*
X66521Y-35371D02*
X66678Y-35528D01*
X66678Y-35371D02*
X66521Y-35528D01*
X66521Y-36171D02*
X66678Y-36328D01*
X66678Y-36171D02*
X66521Y-36328D01*
X66521Y-36671D02*
X66678Y-36828D01*
X66678Y-36671D02*
X66521Y-36828D01*
X66546Y-43571D02*
X66703Y-43728D01*
X66703Y-43571D02*
X66546Y-43728D01*
X66721Y-36421D02*
X66878Y-36578D01*
X66878Y-36421D02*
X66721Y-36578D01*
X66771Y-33771D02*
X66928Y-33928D01*
X66928Y-33771D02*
X66771Y-33928D01*
X66771Y-35171D02*
X66928Y-35328D01*
X66928Y-35171D02*
X66771Y-35328D01*
X67021Y-33971D02*
X67178Y-34128D01*
X67178Y-33971D02*
X67021Y-34128D01*
X67021Y-34971D02*
X67178Y-35128D01*
X67178Y-34971D02*
X67021Y-35128D01*
X67021Y-46921D02*
X67178Y-47078D01*
X67178Y-46921D02*
X67021Y-47078D01*
X67271Y-34171D02*
X67428Y-34328D01*
X67428Y-34171D02*
X67271Y-34328D01*
X67271Y-34771D02*
X67428Y-34928D01*
X67428Y-34771D02*
X67271Y-34928D01*
X67421Y-34471D02*
X67578Y-34628D01*
X67578Y-34471D02*
X67421Y-34628D01*
X67471Y-32296D02*
X67628Y-32453D01*
X67628Y-32296D02*
X67471Y-32453D01*
X67646Y-38796D02*
X67803Y-38953D01*
X67803Y-38796D02*
X67646Y-38953D01*
X67796Y-47196D02*
X67953Y-47353D01*
X67953Y-47196D02*
X67796Y-47353D01*
X67821Y-44346D02*
X67978Y-44503D01*
X67978Y-44346D02*
X67821Y-44503D01*
X67871Y-32821D02*
X68028Y-32978D01*
X68028Y-32821D02*
X67871Y-32978D01*
X68046Y-49721D02*
X68203Y-49878D01*
X68203Y-49721D02*
X68046Y-49878D01*
X68271Y-43396D02*
X68428Y-43553D01*
X68428Y-43396D02*
X68271Y-43553D01*
X68496Y-40396D02*
X68653Y-40553D01*
X68653Y-40396D02*
X68496Y-40553D01*
X58020Y-27752D02*
G75*
G03X58020Y-27752I-98J0D01*
G74*
G01*
X57863Y-27624D02*
X57863Y-27880D01*
X57981Y-27624D02*
X57981Y-27880D01*
X57863Y-27880D02*
G75*
G03X57981Y-27880I59J0D01*
G74*
G01*
X57981Y-27624D02*
G75*
G03X57863Y-27624I-59J0D01*
G74*
G01*
X60776Y-27752D02*
G75*
G03X60776Y-27752I-98J0D01*
G74*
G01*
X60619Y-27624D02*
X60619Y-27880D01*
X60737Y-27624D02*
X60737Y-27880D01*
X60619Y-27880D02*
G75*
G03X60737Y-27880I59J0D01*
G74*
G01*
X60737Y-27624D02*
G75*
G03X60619Y-27624I-59J0D01*
G74*
G01*
X58316Y-28706D02*
X58316Y-28923D01*
X58207Y-28815D02*
X58424Y-28815D01*
X58375Y-28746D02*
X58257Y-28746D01*
X58375Y-28884D02*
X58257Y-28884D01*
X58257Y-28746D02*
G75*
G03X58257Y-28884I0J-68D01*
G74*
G01*
X58375Y-28884D02*
G75*
G03X58375Y-28746I0J68D01*
G74*
G01*
X60284Y-28706D02*
X60284Y-28923D01*
X60176Y-28815D02*
X60392Y-28815D01*
X60343Y-28746D02*
X60225Y-28746D01*
X60343Y-28884D02*
X60225Y-28884D01*
X60225Y-28746D02*
G75*
G03X60225Y-28884I0J-68D01*
G74*
G01*
X60343Y-28884D02*
G75*
G03X60343Y-28746I0J68D01*
G74*
G01*
X54344Y-52790D02*
X54344Y-52578D01*
X54132Y-52578D01*
X54132Y-52790D01*
X54344Y-52790D01*
X54738Y-48853D02*
X54738Y-48641D01*
X54526Y-48641D01*
X54526Y-48853D01*
X54738Y-48853D01*
X55525Y-48853D02*
X55525Y-48641D01*
X55313Y-48641D01*
X55313Y-48853D01*
X55525Y-48853D01*
X56312Y-48853D02*
X56312Y-48641D01*
X56100Y-48641D01*
X56100Y-48853D01*
X56312Y-48853D01*
X57100Y-48853D02*
X57100Y-48641D01*
X56888Y-48641D01*
X56888Y-48853D01*
X57100Y-48853D01*
X57887Y-48853D02*
X57887Y-48641D01*
X57675Y-48641D01*
X57675Y-48853D01*
X57887Y-48853D01*
X58281Y-52790D02*
X58281Y-52578D01*
X58069Y-52578D01*
X58069Y-52790D01*
X58281Y-52790D01*
X44800Y-29496D02*
X44996Y-29300D01*
X44800Y-29103D01*
X44603Y-29300D01*
X44800Y-29496D01*
X45307Y-51787D02*
X45504Y-51590D01*
X45307Y-51393D01*
X45110Y-51590D01*
X45307Y-51787D01*
X45400Y-30396D02*
X45596Y-30200D01*
X45400Y-30003D01*
X45203Y-30200D01*
X45400Y-30396D01*
X46000Y-29496D02*
X46196Y-29300D01*
X46000Y-29103D01*
X45803Y-29300D01*
X46000Y-29496D01*
X48614Y-51787D02*
X48811Y-51590D01*
X48614Y-51393D01*
X48417Y-51590D01*
X48614Y-51787D01*
X51100Y-53996D02*
X51296Y-53800D01*
X51100Y-53603D01*
X50903Y-53800D01*
X51100Y-53996D01*
X51700Y-53096D02*
X51896Y-52900D01*
X51700Y-52703D01*
X51503Y-52900D01*
X51700Y-53096D01*
X52300Y-53996D02*
X52496Y-53800D01*
X52300Y-53603D01*
X52103Y-53800D01*
X52300Y-53996D01*
X53300Y-28103D02*
X53496Y-27907D01*
X53300Y-27710D01*
X53103Y-27907D01*
X53300Y-28103D01*
X53300Y-30859D02*
X53496Y-30662D01*
X53300Y-30466D01*
X53103Y-30662D01*
X53300Y-30859D01*
X60200Y-53996D02*
X60396Y-53800D01*
X60200Y-53603D01*
X60003Y-53800D01*
X60200Y-53996D01*
X60800Y-53096D02*
X60996Y-52900D01*
X60800Y-52703D01*
X60603Y-52900D01*
X60800Y-53096D01*
X61400Y-53996D02*
X61596Y-53800D01*
X61400Y-53603D01*
X61203Y-53800D01*
X61400Y-53996D01*
X63782Y-51787D02*
X63979Y-51590D01*
X63782Y-51393D01*
X63585Y-51590D01*
X63782Y-51787D01*
X66300Y-29496D02*
X66496Y-29300D01*
X66300Y-29103D01*
X66103Y-29300D01*
X66300Y-29496D01*
X66900Y-30396D02*
X67096Y-30200D01*
X66900Y-30003D01*
X66703Y-30200D01*
X66900Y-30396D01*
X67089Y-51787D02*
X67286Y-51590D01*
X67089Y-51393D01*
X66892Y-51590D01*
X67089Y-51787D01*
X67500Y-29496D02*
X67696Y-29300D01*
X67500Y-29103D01*
X67303Y-29300D01*
X67500Y-29496D01*
G54D13*
X44548Y-55996D02*
X44548Y-54815D01*
X44830Y-54815D01*
X44998Y-54872D01*
X45111Y-54984D01*
X45167Y-55097D01*
X45223Y-55322D01*
X45223Y-55490D01*
X45167Y-55715D01*
X45111Y-55828D01*
X44998Y-55940D01*
X44830Y-55996D01*
X44548Y-55996D01*
X45730Y-55996D02*
X45730Y-55209D01*
X45730Y-55434D02*
X45786Y-55322D01*
X45842Y-55265D01*
X45955Y-55209D01*
X46067Y-55209D01*
X46461Y-55996D02*
X46461Y-55209D01*
X46461Y-54815D02*
X46404Y-54872D01*
X46461Y-54928D01*
X46517Y-54872D01*
X46461Y-54815D01*
X46461Y-54928D01*
X47192Y-55996D02*
X47079Y-55940D01*
X47023Y-55828D01*
X47023Y-54815D01*
X47811Y-55996D02*
X47698Y-55940D01*
X47642Y-55828D01*
X47642Y-54815D01*
X49160Y-55996D02*
X49160Y-54815D01*
X49554Y-55659D01*
X49948Y-54815D01*
X49948Y-55996D01*
X51016Y-55996D02*
X51016Y-55378D01*
X50960Y-55265D01*
X50848Y-55209D01*
X50623Y-55209D01*
X50510Y-55265D01*
X51016Y-55940D02*
X50904Y-55996D01*
X50623Y-55996D01*
X50510Y-55940D01*
X50454Y-55828D01*
X50454Y-55715D01*
X50510Y-55603D01*
X50623Y-55547D01*
X50904Y-55547D01*
X51016Y-55490D01*
X51579Y-55209D02*
X51579Y-56390D01*
X51579Y-55265D02*
X51691Y-55209D01*
X51916Y-55209D01*
X52029Y-55265D01*
X52085Y-55322D01*
X52141Y-55434D01*
X52141Y-55771D01*
X52085Y-55884D01*
X52029Y-55940D01*
X51916Y-55996D01*
X51691Y-55996D01*
X51579Y-55940D01*
X52647Y-55884D02*
X52704Y-55940D01*
X52647Y-55996D01*
X52591Y-55940D01*
X52647Y-55884D01*
X52647Y-55996D01*
X52647Y-55265D02*
X52704Y-55322D01*
X52647Y-55378D01*
X52591Y-55322D01*
X52647Y-55265D01*
X52647Y-55378D01*
X43322Y-57920D02*
X43480Y-58077D01*
X43480Y-57920D02*
X43322Y-58077D01*
X44773Y-57296D02*
X44886Y-57296D01*
X44998Y-57352D01*
X45055Y-57408D01*
X45111Y-57521D01*
X45167Y-57746D01*
X45167Y-58027D01*
X45111Y-58252D01*
X45055Y-58364D01*
X44998Y-58421D01*
X44886Y-58477D01*
X44773Y-58477D01*
X44661Y-58421D01*
X44605Y-58364D01*
X44548Y-58252D01*
X44492Y-58027D01*
X44492Y-57746D01*
X44548Y-57521D01*
X44605Y-57408D01*
X44661Y-57352D01*
X44773Y-57296D01*
X45673Y-58364D02*
X45730Y-58421D01*
X45673Y-58477D01*
X45617Y-58421D01*
X45673Y-58364D01*
X45673Y-58477D01*
X46742Y-57689D02*
X46742Y-58477D01*
X46461Y-57239D02*
X46179Y-58083D01*
X46911Y-58083D01*
X47586Y-57296D02*
X47698Y-57296D01*
X47811Y-57352D01*
X47867Y-57408D01*
X47923Y-57521D01*
X47979Y-57746D01*
X47979Y-58027D01*
X47923Y-58252D01*
X47867Y-58364D01*
X47811Y-58421D01*
X47698Y-58477D01*
X47586Y-58477D01*
X47473Y-58421D01*
X47417Y-58364D01*
X47361Y-58252D01*
X47304Y-58027D01*
X47304Y-57746D01*
X47361Y-57521D01*
X47417Y-57408D01*
X47473Y-57352D01*
X47586Y-57296D01*
X48485Y-58477D02*
X48485Y-57689D01*
X48485Y-57802D02*
X48542Y-57746D01*
X48654Y-57689D01*
X48823Y-57689D01*
X48935Y-57746D01*
X48992Y-57858D01*
X48992Y-58477D01*
X48992Y-57858D02*
X49048Y-57746D01*
X49160Y-57689D01*
X49329Y-57689D01*
X49442Y-57746D01*
X49498Y-57858D01*
X49498Y-58477D01*
X50060Y-58477D02*
X50060Y-57689D01*
X50060Y-57802D02*
X50116Y-57746D01*
X50229Y-57689D01*
X50398Y-57689D01*
X50510Y-57746D01*
X50566Y-57858D01*
X50566Y-58477D01*
X50566Y-57858D02*
X50623Y-57746D01*
X50735Y-57689D01*
X50904Y-57689D01*
X51016Y-57746D01*
X51073Y-57858D01*
X51073Y-58477D01*
X53379Y-57239D02*
X52366Y-58758D01*
X54897Y-57296D02*
X55010Y-57296D01*
X55122Y-57352D01*
X55178Y-57408D01*
X55235Y-57521D01*
X55291Y-57746D01*
X55291Y-58027D01*
X55235Y-58252D01*
X55178Y-58364D01*
X55122Y-58421D01*
X55010Y-58477D01*
X54897Y-58477D01*
X54785Y-58421D01*
X54728Y-58364D01*
X54672Y-58252D01*
X54616Y-58027D01*
X54616Y-57746D01*
X54672Y-57521D01*
X54728Y-57408D01*
X54785Y-57352D01*
X54897Y-57296D01*
X55797Y-58364D02*
X55853Y-58421D01*
X55797Y-58477D01*
X55741Y-58421D01*
X55797Y-58364D01*
X55797Y-58477D01*
X56584Y-57296D02*
X56697Y-57296D01*
X56809Y-57352D01*
X56866Y-57408D01*
X56922Y-57521D01*
X56978Y-57746D01*
X56978Y-58027D01*
X56922Y-58252D01*
X56866Y-58364D01*
X56809Y-58421D01*
X56697Y-58477D01*
X56584Y-58477D01*
X56472Y-58421D01*
X56416Y-58364D01*
X56359Y-58252D01*
X56303Y-58027D01*
X56303Y-57746D01*
X56359Y-57521D01*
X56416Y-57408D01*
X56472Y-57352D01*
X56584Y-57296D01*
X58103Y-58477D02*
X57428Y-58477D01*
X57766Y-58477D02*
X57766Y-57296D01*
X57653Y-57464D01*
X57541Y-57577D01*
X57428Y-57633D01*
X59115Y-57296D02*
X58890Y-57296D01*
X58778Y-57352D01*
X58722Y-57408D01*
X58609Y-57577D01*
X58553Y-57802D01*
X58553Y-58252D01*
X58609Y-58364D01*
X58665Y-58421D01*
X58778Y-58477D01*
X59003Y-58477D01*
X59115Y-58421D01*
X59172Y-58364D01*
X59228Y-58252D01*
X59228Y-57971D01*
X59172Y-57858D01*
X59115Y-57802D01*
X59003Y-57746D01*
X58778Y-57746D01*
X58665Y-57802D01*
X58609Y-57858D01*
X58553Y-57971D01*
X59678Y-57296D02*
X59678Y-57521D01*
X60128Y-57296D02*
X60128Y-57521D01*
X61871Y-58927D02*
X61815Y-58870D01*
X61703Y-58702D01*
X61646Y-58589D01*
X61590Y-58421D01*
X61534Y-58139D01*
X61534Y-57914D01*
X61590Y-57633D01*
X61646Y-57464D01*
X61703Y-57352D01*
X61815Y-57183D01*
X61871Y-57127D01*
X62940Y-58477D02*
X62265Y-58477D01*
X62602Y-58477D02*
X62602Y-57296D01*
X62490Y-57464D01*
X62377Y-57577D01*
X62265Y-57633D01*
X64008Y-57296D02*
X63446Y-57296D01*
X63390Y-57858D01*
X63446Y-57802D01*
X63559Y-57746D01*
X63840Y-57746D01*
X63952Y-57802D01*
X64008Y-57858D01*
X64065Y-57971D01*
X64065Y-58252D01*
X64008Y-58364D01*
X63952Y-58421D01*
X63840Y-58477D01*
X63559Y-58477D01*
X63446Y-58421D01*
X63390Y-58364D01*
X65077Y-57689D02*
X65077Y-58477D01*
X64796Y-57239D02*
X64515Y-58083D01*
X65246Y-58083D01*
X66596Y-58477D02*
X66596Y-57296D01*
X67102Y-58477D02*
X67102Y-57858D01*
X67046Y-57746D01*
X66933Y-57689D01*
X66764Y-57689D01*
X66652Y-57746D01*
X66596Y-57802D01*
X67833Y-58477D02*
X67721Y-58421D01*
X67664Y-58364D01*
X67608Y-58252D01*
X67608Y-57914D01*
X67664Y-57802D01*
X67721Y-57746D01*
X67833Y-57689D01*
X68002Y-57689D01*
X68114Y-57746D01*
X68170Y-57802D01*
X68227Y-57914D01*
X68227Y-58252D01*
X68170Y-58364D01*
X68114Y-58421D01*
X68002Y-58477D01*
X67833Y-58477D01*
X68902Y-58477D02*
X68789Y-58421D01*
X68733Y-58308D01*
X68733Y-57296D01*
X69802Y-58421D02*
X69689Y-58477D01*
X69464Y-58477D01*
X69352Y-58421D01*
X69295Y-58308D01*
X69295Y-57858D01*
X69352Y-57746D01*
X69464Y-57689D01*
X69689Y-57689D01*
X69802Y-57746D01*
X69858Y-57858D01*
X69858Y-57971D01*
X69295Y-58083D01*
X70308Y-58421D02*
X70420Y-58477D01*
X70645Y-58477D01*
X70758Y-58421D01*
X70814Y-58308D01*
X70814Y-58252D01*
X70758Y-58139D01*
X70645Y-58083D01*
X70476Y-58083D01*
X70364Y-58027D01*
X70308Y-57914D01*
X70308Y-57858D01*
X70364Y-57746D01*
X70476Y-57689D01*
X70645Y-57689D01*
X70758Y-57746D01*
X71208Y-58927D02*
X71264Y-58870D01*
X71376Y-58702D01*
X71433Y-58589D01*
X71489Y-58421D01*
X71545Y-58139D01*
X71545Y-57914D01*
X71489Y-57633D01*
X71433Y-57464D01*
X71376Y-57352D01*
X71264Y-57183D01*
X71208Y-57127D01*
G54D12*
X43480Y-59558D02*
G75*
G03X43480Y-59558I-98J0D01*
G74*
G01*
G54D13*
X44773Y-58855D02*
X44886Y-58855D01*
X44998Y-58911D01*
X45055Y-58967D01*
X45111Y-59080D01*
X45167Y-59305D01*
X45167Y-59586D01*
X45111Y-59811D01*
X45055Y-59923D01*
X44998Y-59980D01*
X44886Y-60036D01*
X44773Y-60036D01*
X44661Y-59980D01*
X44605Y-59923D01*
X44548Y-59811D01*
X44492Y-59586D01*
X44492Y-59305D01*
X44548Y-59080D01*
X44605Y-58967D01*
X44661Y-58911D01*
X44773Y-58855D01*
X45673Y-59923D02*
X45730Y-59980D01*
X45673Y-60036D01*
X45617Y-59980D01*
X45673Y-59923D01*
X45673Y-60036D01*
X46798Y-58855D02*
X46236Y-58855D01*
X46179Y-59417D01*
X46236Y-59361D01*
X46348Y-59305D01*
X46629Y-59305D01*
X46742Y-59361D01*
X46798Y-59417D01*
X46854Y-59530D01*
X46854Y-59811D01*
X46798Y-59923D01*
X46742Y-59980D01*
X46629Y-60036D01*
X46348Y-60036D01*
X46236Y-59980D01*
X46179Y-59923D01*
X47586Y-58855D02*
X47698Y-58855D01*
X47811Y-58911D01*
X47867Y-58967D01*
X47923Y-59080D01*
X47979Y-59305D01*
X47979Y-59586D01*
X47923Y-59811D01*
X47867Y-59923D01*
X47811Y-59980D01*
X47698Y-60036D01*
X47586Y-60036D01*
X47473Y-59980D01*
X47417Y-59923D01*
X47361Y-59811D01*
X47304Y-59586D01*
X47304Y-59305D01*
X47361Y-59080D01*
X47417Y-58967D01*
X47473Y-58911D01*
X47586Y-58855D01*
X48485Y-60036D02*
X48485Y-59248D01*
X48485Y-59361D02*
X48542Y-59305D01*
X48654Y-59248D01*
X48823Y-59248D01*
X48935Y-59305D01*
X48992Y-59417D01*
X48992Y-60036D01*
X48992Y-59417D02*
X49048Y-59305D01*
X49160Y-59248D01*
X49329Y-59248D01*
X49442Y-59305D01*
X49498Y-59417D01*
X49498Y-60036D01*
X50060Y-60036D02*
X50060Y-59248D01*
X50060Y-59361D02*
X50116Y-59305D01*
X50229Y-59248D01*
X50398Y-59248D01*
X50510Y-59305D01*
X50566Y-59417D01*
X50566Y-60036D01*
X50566Y-59417D02*
X50623Y-59305D01*
X50735Y-59248D01*
X50904Y-59248D01*
X51016Y-59305D01*
X51073Y-59417D01*
X51073Y-60036D01*
X53379Y-58798D02*
X52366Y-60317D01*
X54897Y-58855D02*
X55010Y-58855D01*
X55122Y-58911D01*
X55178Y-58967D01*
X55235Y-59080D01*
X55291Y-59305D01*
X55291Y-59586D01*
X55235Y-59811D01*
X55178Y-59923D01*
X55122Y-59980D01*
X55010Y-60036D01*
X54897Y-60036D01*
X54785Y-59980D01*
X54728Y-59923D01*
X54672Y-59811D01*
X54616Y-59586D01*
X54616Y-59305D01*
X54672Y-59080D01*
X54728Y-58967D01*
X54785Y-58911D01*
X54897Y-58855D01*
X55797Y-59923D02*
X55853Y-59980D01*
X55797Y-60036D01*
X55741Y-59980D01*
X55797Y-59923D01*
X55797Y-60036D01*
X56584Y-58855D02*
X56697Y-58855D01*
X56809Y-58911D01*
X56866Y-58967D01*
X56922Y-59080D01*
X56978Y-59305D01*
X56978Y-59586D01*
X56922Y-59811D01*
X56866Y-59923D01*
X56809Y-59980D01*
X56697Y-60036D01*
X56584Y-60036D01*
X56472Y-59980D01*
X56416Y-59923D01*
X56359Y-59811D01*
X56303Y-59586D01*
X56303Y-59305D01*
X56359Y-59080D01*
X56416Y-58967D01*
X56472Y-58911D01*
X56584Y-58855D01*
X57428Y-58967D02*
X57484Y-58911D01*
X57597Y-58855D01*
X57878Y-58855D01*
X57991Y-58911D01*
X58047Y-58967D01*
X58103Y-59080D01*
X58103Y-59192D01*
X58047Y-59361D01*
X57372Y-60036D01*
X58103Y-60036D01*
X58834Y-58855D02*
X58947Y-58855D01*
X59059Y-58911D01*
X59115Y-58967D01*
X59172Y-59080D01*
X59228Y-59305D01*
X59228Y-59586D01*
X59172Y-59811D01*
X59115Y-59923D01*
X59059Y-59980D01*
X58947Y-60036D01*
X58834Y-60036D01*
X58722Y-59980D01*
X58665Y-59923D01*
X58609Y-59811D01*
X58553Y-59586D01*
X58553Y-59305D01*
X58609Y-59080D01*
X58665Y-58967D01*
X58722Y-58911D01*
X58834Y-58855D01*
X59678Y-58855D02*
X59678Y-59080D01*
X60128Y-58855D02*
X60128Y-59080D01*
X61871Y-60486D02*
X61815Y-60430D01*
X61703Y-60261D01*
X61646Y-60148D01*
X61590Y-59980D01*
X61534Y-59698D01*
X61534Y-59473D01*
X61590Y-59192D01*
X61646Y-59023D01*
X61703Y-58911D01*
X61815Y-58742D01*
X61871Y-58686D01*
X62546Y-58855D02*
X62659Y-58855D01*
X62771Y-58911D01*
X62827Y-58967D01*
X62884Y-59080D01*
X62940Y-59305D01*
X62940Y-59586D01*
X62884Y-59811D01*
X62827Y-59923D01*
X62771Y-59980D01*
X62659Y-60036D01*
X62546Y-60036D01*
X62434Y-59980D01*
X62377Y-59923D01*
X62321Y-59811D01*
X62265Y-59586D01*
X62265Y-59305D01*
X62321Y-59080D01*
X62377Y-58967D01*
X62434Y-58911D01*
X62546Y-58855D01*
X64346Y-60036D02*
X64346Y-58855D01*
X64852Y-60036D02*
X64852Y-59417D01*
X64796Y-59305D01*
X64683Y-59248D01*
X64515Y-59248D01*
X64402Y-59305D01*
X64346Y-59361D01*
X65583Y-60036D02*
X65471Y-59980D01*
X65415Y-59923D01*
X65358Y-59811D01*
X65358Y-59473D01*
X65415Y-59361D01*
X65471Y-59305D01*
X65583Y-59248D01*
X65752Y-59248D01*
X65865Y-59305D01*
X65921Y-59361D01*
X65977Y-59473D01*
X65977Y-59811D01*
X65921Y-59923D01*
X65865Y-59980D01*
X65752Y-60036D01*
X65583Y-60036D01*
X66652Y-60036D02*
X66539Y-59980D01*
X66483Y-59867D01*
X66483Y-58855D01*
X67552Y-59980D02*
X67439Y-60036D01*
X67214Y-60036D01*
X67102Y-59980D01*
X67046Y-59867D01*
X67046Y-59417D01*
X67102Y-59305D01*
X67214Y-59248D01*
X67439Y-59248D01*
X67552Y-59305D01*
X67608Y-59417D01*
X67608Y-59530D01*
X67046Y-59642D01*
X68058Y-59980D02*
X68170Y-60036D01*
X68395Y-60036D01*
X68508Y-59980D01*
X68564Y-59867D01*
X68564Y-59811D01*
X68508Y-59698D01*
X68395Y-59642D01*
X68227Y-59642D01*
X68114Y-59586D01*
X68058Y-59473D01*
X68058Y-59417D01*
X68114Y-59305D01*
X68227Y-59248D01*
X68395Y-59248D01*
X68508Y-59305D01*
X69970Y-59586D02*
X70870Y-59586D01*
X70420Y-60036D02*
X70420Y-59136D01*
X72276Y-58967D02*
X72332Y-58911D01*
X72445Y-58855D01*
X72726Y-58855D01*
X72839Y-58911D01*
X72895Y-58967D01*
X72951Y-59080D01*
X72951Y-59192D01*
X72895Y-59361D01*
X72220Y-60036D01*
X72951Y-60036D01*
X74301Y-59980D02*
X74413Y-60036D01*
X74638Y-60036D01*
X74751Y-59980D01*
X74807Y-59867D01*
X74807Y-59811D01*
X74751Y-59698D01*
X74638Y-59642D01*
X74470Y-59642D01*
X74357Y-59586D01*
X74301Y-59473D01*
X74301Y-59417D01*
X74357Y-59305D01*
X74470Y-59248D01*
X74638Y-59248D01*
X74751Y-59305D01*
X75482Y-60036D02*
X75370Y-59980D01*
X75313Y-59867D01*
X75313Y-58855D01*
X76101Y-60036D02*
X75988Y-59980D01*
X75932Y-59923D01*
X75876Y-59811D01*
X75876Y-59473D01*
X75932Y-59361D01*
X75988Y-59305D01*
X76101Y-59248D01*
X76269Y-59248D01*
X76382Y-59305D01*
X76438Y-59361D01*
X76494Y-59473D01*
X76494Y-59811D01*
X76438Y-59923D01*
X76382Y-59980D01*
X76269Y-60036D01*
X76101Y-60036D01*
X76832Y-59248D02*
X77282Y-59248D01*
X77001Y-58855D02*
X77001Y-59867D01*
X77057Y-59980D01*
X77169Y-60036D01*
X77282Y-60036D01*
X77619Y-59980D02*
X77732Y-60036D01*
X77957Y-60036D01*
X78069Y-59980D01*
X78125Y-59867D01*
X78125Y-59811D01*
X78069Y-59698D01*
X77957Y-59642D01*
X77788Y-59642D01*
X77676Y-59586D01*
X77619Y-59473D01*
X77619Y-59417D01*
X77676Y-59305D01*
X77788Y-59248D01*
X77957Y-59248D01*
X78069Y-59305D01*
X78519Y-60486D02*
X78575Y-60430D01*
X78688Y-60261D01*
X78744Y-60148D01*
X78800Y-59980D01*
X78857Y-59698D01*
X78857Y-59473D01*
X78800Y-59192D01*
X78744Y-59023D01*
X78688Y-58911D01*
X78575Y-58742D01*
X78519Y-58686D01*
X43372Y-61009D02*
X43372Y-61225D01*
X43263Y-61117D02*
X43480Y-61117D01*
X44773Y-60414D02*
X44886Y-60414D01*
X44998Y-60470D01*
X45055Y-60526D01*
X45111Y-60639D01*
X45167Y-60864D01*
X45167Y-61145D01*
X45111Y-61370D01*
X45055Y-61482D01*
X44998Y-61539D01*
X44886Y-61595D01*
X44773Y-61595D01*
X44661Y-61539D01*
X44605Y-61482D01*
X44548Y-61370D01*
X44492Y-61145D01*
X44492Y-60864D01*
X44548Y-60639D01*
X44605Y-60526D01*
X44661Y-60470D01*
X44773Y-60414D01*
X45673Y-61482D02*
X45730Y-61539D01*
X45673Y-61595D01*
X45617Y-61539D01*
X45673Y-61482D01*
X45673Y-61595D01*
X46798Y-60414D02*
X46236Y-60414D01*
X46179Y-60976D01*
X46236Y-60920D01*
X46348Y-60864D01*
X46629Y-60864D01*
X46742Y-60920D01*
X46798Y-60976D01*
X46854Y-61089D01*
X46854Y-61370D01*
X46798Y-61482D01*
X46742Y-61539D01*
X46629Y-61595D01*
X46348Y-61595D01*
X46236Y-61539D01*
X46179Y-61482D01*
X47923Y-60414D02*
X47361Y-60414D01*
X47304Y-60976D01*
X47361Y-60920D01*
X47473Y-60864D01*
X47754Y-60864D01*
X47867Y-60920D01*
X47923Y-60976D01*
X47979Y-61089D01*
X47979Y-61370D01*
X47923Y-61482D01*
X47867Y-61539D01*
X47754Y-61595D01*
X47473Y-61595D01*
X47361Y-61539D01*
X47304Y-61482D01*
X48485Y-61595D02*
X48485Y-60807D01*
X48485Y-60920D02*
X48542Y-60864D01*
X48654Y-60807D01*
X48823Y-60807D01*
X48935Y-60864D01*
X48992Y-60976D01*
X48992Y-61595D01*
X48992Y-60976D02*
X49048Y-60864D01*
X49160Y-60807D01*
X49329Y-60807D01*
X49442Y-60864D01*
X49498Y-60976D01*
X49498Y-61595D01*
X50060Y-61595D02*
X50060Y-60807D01*
X50060Y-60920D02*
X50116Y-60864D01*
X50229Y-60807D01*
X50398Y-60807D01*
X50510Y-60864D01*
X50566Y-60976D01*
X50566Y-61595D01*
X50566Y-60976D02*
X50623Y-60864D01*
X50735Y-60807D01*
X50904Y-60807D01*
X51016Y-60864D01*
X51073Y-60976D01*
X51073Y-61595D01*
X53379Y-60358D02*
X52366Y-61876D01*
X54897Y-60414D02*
X55010Y-60414D01*
X55122Y-60470D01*
X55178Y-60526D01*
X55235Y-60639D01*
X55291Y-60864D01*
X55291Y-61145D01*
X55235Y-61370D01*
X55178Y-61482D01*
X55122Y-61539D01*
X55010Y-61595D01*
X54897Y-61595D01*
X54785Y-61539D01*
X54728Y-61482D01*
X54672Y-61370D01*
X54616Y-61145D01*
X54616Y-60864D01*
X54672Y-60639D01*
X54728Y-60526D01*
X54785Y-60470D01*
X54897Y-60414D01*
X55797Y-61482D02*
X55853Y-61539D01*
X55797Y-61595D01*
X55741Y-61539D01*
X55797Y-61482D01*
X55797Y-61595D01*
X56584Y-60414D02*
X56697Y-60414D01*
X56809Y-60470D01*
X56866Y-60526D01*
X56922Y-60639D01*
X56978Y-60864D01*
X56978Y-61145D01*
X56922Y-61370D01*
X56866Y-61482D01*
X56809Y-61539D01*
X56697Y-61595D01*
X56584Y-61595D01*
X56472Y-61539D01*
X56416Y-61482D01*
X56359Y-61370D01*
X56303Y-61145D01*
X56303Y-60864D01*
X56359Y-60639D01*
X56416Y-60526D01*
X56472Y-60470D01*
X56584Y-60414D01*
X57428Y-60526D02*
X57484Y-60470D01*
X57597Y-60414D01*
X57878Y-60414D01*
X57991Y-60470D01*
X58047Y-60526D01*
X58103Y-60639D01*
X58103Y-60751D01*
X58047Y-60920D01*
X57372Y-61595D01*
X58103Y-61595D01*
X58553Y-60526D02*
X58609Y-60470D01*
X58722Y-60414D01*
X59003Y-60414D01*
X59115Y-60470D01*
X59172Y-60526D01*
X59228Y-60639D01*
X59228Y-60751D01*
X59172Y-60920D01*
X58497Y-61595D01*
X59228Y-61595D01*
X59678Y-60414D02*
X59678Y-60639D01*
X60128Y-60414D02*
X60128Y-60639D01*
X61871Y-62045D02*
X61815Y-61989D01*
X61703Y-61820D01*
X61646Y-61707D01*
X61590Y-61539D01*
X61534Y-61257D01*
X61534Y-61032D01*
X61590Y-60751D01*
X61646Y-60583D01*
X61703Y-60470D01*
X61815Y-60301D01*
X61871Y-60245D01*
X62546Y-60414D02*
X62659Y-60414D01*
X62771Y-60470D01*
X62827Y-60526D01*
X62884Y-60639D01*
X62940Y-60864D01*
X62940Y-61145D01*
X62884Y-61370D01*
X62827Y-61482D01*
X62771Y-61539D01*
X62659Y-61595D01*
X62546Y-61595D01*
X62434Y-61539D01*
X62377Y-61482D01*
X62321Y-61370D01*
X62265Y-61145D01*
X62265Y-60864D01*
X62321Y-60639D01*
X62377Y-60526D01*
X62434Y-60470D01*
X62546Y-60414D01*
X64346Y-61595D02*
X64346Y-60414D01*
X64852Y-61595D02*
X64852Y-60976D01*
X64796Y-60864D01*
X64683Y-60807D01*
X64515Y-60807D01*
X64402Y-60864D01*
X64346Y-60920D01*
X65583Y-61595D02*
X65471Y-61539D01*
X65415Y-61482D01*
X65358Y-61370D01*
X65358Y-61032D01*
X65415Y-60920D01*
X65471Y-60864D01*
X65583Y-60807D01*
X65752Y-60807D01*
X65865Y-60864D01*
X65921Y-60920D01*
X65977Y-61032D01*
X65977Y-61370D01*
X65921Y-61482D01*
X65865Y-61539D01*
X65752Y-61595D01*
X65583Y-61595D01*
X66652Y-61595D02*
X66539Y-61539D01*
X66483Y-61426D01*
X66483Y-60414D01*
X67552Y-61539D02*
X67439Y-61595D01*
X67214Y-61595D01*
X67102Y-61539D01*
X67046Y-61426D01*
X67046Y-60976D01*
X67102Y-60864D01*
X67214Y-60807D01*
X67439Y-60807D01*
X67552Y-60864D01*
X67608Y-60976D01*
X67608Y-61089D01*
X67046Y-61201D01*
X68058Y-61539D02*
X68170Y-61595D01*
X68395Y-61595D01*
X68508Y-61539D01*
X68564Y-61426D01*
X68564Y-61370D01*
X68508Y-61257D01*
X68395Y-61201D01*
X68227Y-61201D01*
X68114Y-61145D01*
X68058Y-61032D01*
X68058Y-60976D01*
X68114Y-60864D01*
X68227Y-60807D01*
X68395Y-60807D01*
X68508Y-60864D01*
X69970Y-61145D02*
X70870Y-61145D01*
X70420Y-61595D02*
X70420Y-60695D01*
X72276Y-60526D02*
X72332Y-60470D01*
X72445Y-60414D01*
X72726Y-60414D01*
X72839Y-60470D01*
X72895Y-60526D01*
X72951Y-60639D01*
X72951Y-60751D01*
X72895Y-60920D01*
X72220Y-61595D01*
X72951Y-61595D01*
X74301Y-61539D02*
X74413Y-61595D01*
X74638Y-61595D01*
X74751Y-61539D01*
X74807Y-61426D01*
X74807Y-61370D01*
X74751Y-61257D01*
X74638Y-61201D01*
X74470Y-61201D01*
X74357Y-61145D01*
X74301Y-61032D01*
X74301Y-60976D01*
X74357Y-60864D01*
X74470Y-60807D01*
X74638Y-60807D01*
X74751Y-60864D01*
X75482Y-61595D02*
X75370Y-61539D01*
X75313Y-61426D01*
X75313Y-60414D01*
X76101Y-61595D02*
X75988Y-61539D01*
X75932Y-61482D01*
X75876Y-61370D01*
X75876Y-61032D01*
X75932Y-60920D01*
X75988Y-60864D01*
X76101Y-60807D01*
X76269Y-60807D01*
X76382Y-60864D01*
X76438Y-60920D01*
X76494Y-61032D01*
X76494Y-61370D01*
X76438Y-61482D01*
X76382Y-61539D01*
X76269Y-61595D01*
X76101Y-61595D01*
X76832Y-60807D02*
X77282Y-60807D01*
X77001Y-60414D02*
X77001Y-61426D01*
X77057Y-61539D01*
X77169Y-61595D01*
X77282Y-61595D01*
X77619Y-61539D02*
X77732Y-61595D01*
X77957Y-61595D01*
X78069Y-61539D01*
X78125Y-61426D01*
X78125Y-61370D01*
X78069Y-61257D01*
X77957Y-61201D01*
X77788Y-61201D01*
X77676Y-61145D01*
X77619Y-61032D01*
X77619Y-60976D01*
X77676Y-60864D01*
X77788Y-60807D01*
X77957Y-60807D01*
X78069Y-60864D01*
X78519Y-62045D02*
X78575Y-61989D01*
X78688Y-61820D01*
X78744Y-61707D01*
X78800Y-61539D01*
X78857Y-61257D01*
X78857Y-61032D01*
X78800Y-60751D01*
X78744Y-60583D01*
X78688Y-60470D01*
X78575Y-60301D01*
X78519Y-60245D01*
G54D12*
X43436Y-62782D02*
X43436Y-62570D01*
X43224Y-62570D01*
X43224Y-62782D01*
X43436Y-62782D01*
G54D13*
X44773Y-61973D02*
X44886Y-61973D01*
X44998Y-62029D01*
X45055Y-62085D01*
X45111Y-62198D01*
X45167Y-62423D01*
X45167Y-62704D01*
X45111Y-62929D01*
X45055Y-63041D01*
X44998Y-63098D01*
X44886Y-63154D01*
X44773Y-63154D01*
X44661Y-63098D01*
X44605Y-63041D01*
X44548Y-62929D01*
X44492Y-62704D01*
X44492Y-62423D01*
X44548Y-62198D01*
X44605Y-62085D01*
X44661Y-62029D01*
X44773Y-61973D01*
X45673Y-63041D02*
X45730Y-63098D01*
X45673Y-63154D01*
X45617Y-63098D01*
X45673Y-63041D01*
X45673Y-63154D01*
X46123Y-61973D02*
X46911Y-61973D01*
X46404Y-63154D01*
X47867Y-61973D02*
X47642Y-61973D01*
X47529Y-62029D01*
X47473Y-62085D01*
X47361Y-62254D01*
X47304Y-62479D01*
X47304Y-62929D01*
X47361Y-63041D01*
X47417Y-63098D01*
X47529Y-63154D01*
X47754Y-63154D01*
X47867Y-63098D01*
X47923Y-63041D01*
X47979Y-62929D01*
X47979Y-62648D01*
X47923Y-62535D01*
X47867Y-62479D01*
X47754Y-62423D01*
X47529Y-62423D01*
X47417Y-62479D01*
X47361Y-62535D01*
X47304Y-62648D01*
X48485Y-63154D02*
X48485Y-62367D01*
X48485Y-62479D02*
X48542Y-62423D01*
X48654Y-62367D01*
X48823Y-62367D01*
X48935Y-62423D01*
X48992Y-62535D01*
X48992Y-63154D01*
X48992Y-62535D02*
X49048Y-62423D01*
X49160Y-62367D01*
X49329Y-62367D01*
X49442Y-62423D01*
X49498Y-62535D01*
X49498Y-63154D01*
X50060Y-63154D02*
X50060Y-62367D01*
X50060Y-62479D02*
X50116Y-62423D01*
X50229Y-62367D01*
X50398Y-62367D01*
X50510Y-62423D01*
X50566Y-62535D01*
X50566Y-63154D01*
X50566Y-62535D02*
X50623Y-62423D01*
X50735Y-62367D01*
X50904Y-62367D01*
X51016Y-62423D01*
X51073Y-62535D01*
X51073Y-63154D01*
X53379Y-61917D02*
X52366Y-63435D01*
X54897Y-61973D02*
X55010Y-61973D01*
X55122Y-62029D01*
X55178Y-62085D01*
X55235Y-62198D01*
X55291Y-62423D01*
X55291Y-62704D01*
X55235Y-62929D01*
X55178Y-63041D01*
X55122Y-63098D01*
X55010Y-63154D01*
X54897Y-63154D01*
X54785Y-63098D01*
X54728Y-63041D01*
X54672Y-62929D01*
X54616Y-62704D01*
X54616Y-62423D01*
X54672Y-62198D01*
X54728Y-62085D01*
X54785Y-62029D01*
X54897Y-61973D01*
X55797Y-63041D02*
X55853Y-63098D01*
X55797Y-63154D01*
X55741Y-63098D01*
X55797Y-63041D01*
X55797Y-63154D01*
X56584Y-61973D02*
X56697Y-61973D01*
X56809Y-62029D01*
X56866Y-62085D01*
X56922Y-62198D01*
X56978Y-62423D01*
X56978Y-62704D01*
X56922Y-62929D01*
X56866Y-63041D01*
X56809Y-63098D01*
X56697Y-63154D01*
X56584Y-63154D01*
X56472Y-63098D01*
X56416Y-63041D01*
X56359Y-62929D01*
X56303Y-62704D01*
X56303Y-62423D01*
X56359Y-62198D01*
X56416Y-62085D01*
X56472Y-62029D01*
X56584Y-61973D01*
X57372Y-61973D02*
X58103Y-61973D01*
X57709Y-62423D01*
X57878Y-62423D01*
X57991Y-62479D01*
X58047Y-62535D01*
X58103Y-62648D01*
X58103Y-62929D01*
X58047Y-63041D01*
X57991Y-63098D01*
X57878Y-63154D01*
X57541Y-63154D01*
X57428Y-63098D01*
X57372Y-63041D01*
X58834Y-61973D02*
X58947Y-61973D01*
X59059Y-62029D01*
X59115Y-62085D01*
X59172Y-62198D01*
X59228Y-62423D01*
X59228Y-62704D01*
X59172Y-62929D01*
X59115Y-63041D01*
X59059Y-63098D01*
X58947Y-63154D01*
X58834Y-63154D01*
X58722Y-63098D01*
X58665Y-63041D01*
X58609Y-62929D01*
X58553Y-62704D01*
X58553Y-62423D01*
X58609Y-62198D01*
X58665Y-62085D01*
X58722Y-62029D01*
X58834Y-61973D01*
X59678Y-61973D02*
X59678Y-62198D01*
X60128Y-61973D02*
X60128Y-62198D01*
X61871Y-63604D02*
X61815Y-63548D01*
X61703Y-63379D01*
X61646Y-63266D01*
X61590Y-63098D01*
X61534Y-62816D01*
X61534Y-62592D01*
X61590Y-62310D01*
X61646Y-62142D01*
X61703Y-62029D01*
X61815Y-61860D01*
X61871Y-61804D01*
X62209Y-61973D02*
X62996Y-61973D01*
X62490Y-63154D01*
X64346Y-63154D02*
X64346Y-61973D01*
X64852Y-63154D02*
X64852Y-62535D01*
X64796Y-62423D01*
X64683Y-62367D01*
X64515Y-62367D01*
X64402Y-62423D01*
X64346Y-62479D01*
X65583Y-63154D02*
X65471Y-63098D01*
X65415Y-63041D01*
X65358Y-62929D01*
X65358Y-62592D01*
X65415Y-62479D01*
X65471Y-62423D01*
X65583Y-62367D01*
X65752Y-62367D01*
X65865Y-62423D01*
X65921Y-62479D01*
X65977Y-62592D01*
X65977Y-62929D01*
X65921Y-63041D01*
X65865Y-63098D01*
X65752Y-63154D01*
X65583Y-63154D01*
X66652Y-63154D02*
X66539Y-63098D01*
X66483Y-62985D01*
X66483Y-61973D01*
X67552Y-63098D02*
X67439Y-63154D01*
X67214Y-63154D01*
X67102Y-63098D01*
X67046Y-62985D01*
X67046Y-62535D01*
X67102Y-62423D01*
X67214Y-62367D01*
X67439Y-62367D01*
X67552Y-62423D01*
X67608Y-62535D01*
X67608Y-62648D01*
X67046Y-62760D01*
X68058Y-63098D02*
X68170Y-63154D01*
X68395Y-63154D01*
X68508Y-63098D01*
X68564Y-62985D01*
X68564Y-62929D01*
X68508Y-62816D01*
X68395Y-62760D01*
X68227Y-62760D01*
X68114Y-62704D01*
X68058Y-62592D01*
X68058Y-62535D01*
X68114Y-62423D01*
X68227Y-62367D01*
X68395Y-62367D01*
X68508Y-62423D01*
X68958Y-63604D02*
X69014Y-63548D01*
X69127Y-63379D01*
X69183Y-63266D01*
X69239Y-63098D01*
X69295Y-62816D01*
X69295Y-62592D01*
X69239Y-62310D01*
X69183Y-62142D01*
X69127Y-62029D01*
X69014Y-61860D01*
X68958Y-61804D01*
G54D12*
X43283Y-64432D02*
X43480Y-64235D01*
X43283Y-64038D01*
X43086Y-64235D01*
X43283Y-64432D01*
G54D13*
X45167Y-64713D02*
X44492Y-64713D01*
X44830Y-64713D02*
X44830Y-63532D01*
X44717Y-63701D01*
X44605Y-63813D01*
X44492Y-63869D01*
X45673Y-64601D02*
X45730Y-64657D01*
X45673Y-64713D01*
X45617Y-64657D01*
X45673Y-64601D01*
X45673Y-64713D01*
X46461Y-63532D02*
X46573Y-63532D01*
X46686Y-63588D01*
X46742Y-63644D01*
X46798Y-63757D01*
X46854Y-63982D01*
X46854Y-64263D01*
X46798Y-64488D01*
X46742Y-64601D01*
X46686Y-64657D01*
X46573Y-64713D01*
X46461Y-64713D01*
X46348Y-64657D01*
X46292Y-64601D01*
X46236Y-64488D01*
X46179Y-64263D01*
X46179Y-63982D01*
X46236Y-63757D01*
X46292Y-63644D01*
X46348Y-63588D01*
X46461Y-63532D01*
X47586Y-63532D02*
X47698Y-63532D01*
X47811Y-63588D01*
X47867Y-63644D01*
X47923Y-63757D01*
X47979Y-63982D01*
X47979Y-64263D01*
X47923Y-64488D01*
X47867Y-64601D01*
X47811Y-64657D01*
X47698Y-64713D01*
X47586Y-64713D01*
X47473Y-64657D01*
X47417Y-64601D01*
X47361Y-64488D01*
X47304Y-64263D01*
X47304Y-63982D01*
X47361Y-63757D01*
X47417Y-63644D01*
X47473Y-63588D01*
X47586Y-63532D01*
X48485Y-64713D02*
X48485Y-63926D01*
X48485Y-64038D02*
X48542Y-63982D01*
X48654Y-63926D01*
X48823Y-63926D01*
X48935Y-63982D01*
X48992Y-64094D01*
X48992Y-64713D01*
X48992Y-64094D02*
X49048Y-63982D01*
X49160Y-63926D01*
X49329Y-63926D01*
X49442Y-63982D01*
X49498Y-64094D01*
X49498Y-64713D01*
X50060Y-64713D02*
X50060Y-63926D01*
X50060Y-64038D02*
X50116Y-63982D01*
X50229Y-63926D01*
X50398Y-63926D01*
X50510Y-63982D01*
X50566Y-64094D01*
X50566Y-64713D01*
X50566Y-64094D02*
X50623Y-63982D01*
X50735Y-63926D01*
X50904Y-63926D01*
X51016Y-63982D01*
X51073Y-64094D01*
X51073Y-64713D01*
X53379Y-63476D02*
X52366Y-64994D01*
X54897Y-63532D02*
X55010Y-63532D01*
X55122Y-63588D01*
X55178Y-63644D01*
X55235Y-63757D01*
X55291Y-63982D01*
X55291Y-64263D01*
X55235Y-64488D01*
X55178Y-64601D01*
X55122Y-64657D01*
X55010Y-64713D01*
X54897Y-64713D01*
X54785Y-64657D01*
X54728Y-64601D01*
X54672Y-64488D01*
X54616Y-64263D01*
X54616Y-63982D01*
X54672Y-63757D01*
X54728Y-63644D01*
X54785Y-63588D01*
X54897Y-63532D01*
X55797Y-64601D02*
X55853Y-64657D01*
X55797Y-64713D01*
X55741Y-64657D01*
X55797Y-64601D01*
X55797Y-64713D01*
X56584Y-63532D02*
X56697Y-63532D01*
X56809Y-63588D01*
X56866Y-63644D01*
X56922Y-63757D01*
X56978Y-63982D01*
X56978Y-64263D01*
X56922Y-64488D01*
X56866Y-64601D01*
X56809Y-64657D01*
X56697Y-64713D01*
X56584Y-64713D01*
X56472Y-64657D01*
X56416Y-64601D01*
X56359Y-64488D01*
X56303Y-64263D01*
X56303Y-63982D01*
X56359Y-63757D01*
X56416Y-63644D01*
X56472Y-63588D01*
X56584Y-63532D01*
X57372Y-63532D02*
X58103Y-63532D01*
X57709Y-63982D01*
X57878Y-63982D01*
X57991Y-64038D01*
X58047Y-64094D01*
X58103Y-64207D01*
X58103Y-64488D01*
X58047Y-64601D01*
X57991Y-64657D01*
X57878Y-64713D01*
X57541Y-64713D01*
X57428Y-64657D01*
X57372Y-64601D01*
X58665Y-64713D02*
X58890Y-64713D01*
X59003Y-64657D01*
X59059Y-64601D01*
X59172Y-64432D01*
X59228Y-64207D01*
X59228Y-63757D01*
X59172Y-63644D01*
X59115Y-63588D01*
X59003Y-63532D01*
X58778Y-63532D01*
X58665Y-63588D01*
X58609Y-63644D01*
X58553Y-63757D01*
X58553Y-64038D01*
X58609Y-64151D01*
X58665Y-64207D01*
X58778Y-64263D01*
X59003Y-64263D01*
X59115Y-64207D01*
X59172Y-64151D01*
X59228Y-64038D01*
X59678Y-63532D02*
X59678Y-63757D01*
X60128Y-63532D02*
X60128Y-63757D01*
X61871Y-65163D02*
X61815Y-65107D01*
X61703Y-64938D01*
X61646Y-64825D01*
X61590Y-64657D01*
X61534Y-64376D01*
X61534Y-64151D01*
X61590Y-63869D01*
X61646Y-63701D01*
X61703Y-63588D01*
X61815Y-63419D01*
X61871Y-63363D01*
X62940Y-64713D02*
X62265Y-64713D01*
X62602Y-64713D02*
X62602Y-63532D01*
X62490Y-63701D01*
X62377Y-63813D01*
X62265Y-63869D01*
X63615Y-64038D02*
X63502Y-63982D01*
X63446Y-63926D01*
X63390Y-63813D01*
X63390Y-63757D01*
X63446Y-63644D01*
X63502Y-63588D01*
X63615Y-63532D01*
X63840Y-63532D01*
X63952Y-63588D01*
X64008Y-63644D01*
X64065Y-63757D01*
X64065Y-63813D01*
X64008Y-63926D01*
X63952Y-63982D01*
X63840Y-64038D01*
X63615Y-64038D01*
X63502Y-64094D01*
X63446Y-64151D01*
X63390Y-64263D01*
X63390Y-64488D01*
X63446Y-64601D01*
X63502Y-64657D01*
X63615Y-64713D01*
X63840Y-64713D01*
X63952Y-64657D01*
X64008Y-64601D01*
X64065Y-64488D01*
X64065Y-64263D01*
X64008Y-64151D01*
X63952Y-64094D01*
X63840Y-64038D01*
X65471Y-64713D02*
X65471Y-63532D01*
X65977Y-64713D02*
X65977Y-64094D01*
X65921Y-63982D01*
X65808Y-63926D01*
X65640Y-63926D01*
X65527Y-63982D01*
X65471Y-64038D01*
X66708Y-64713D02*
X66596Y-64657D01*
X66539Y-64601D01*
X66483Y-64488D01*
X66483Y-64151D01*
X66539Y-64038D01*
X66596Y-63982D01*
X66708Y-63926D01*
X66877Y-63926D01*
X66989Y-63982D01*
X67046Y-64038D01*
X67102Y-64151D01*
X67102Y-64488D01*
X67046Y-64601D01*
X66989Y-64657D01*
X66877Y-64713D01*
X66708Y-64713D01*
X67777Y-64713D02*
X67664Y-64657D01*
X67608Y-64544D01*
X67608Y-63532D01*
X68677Y-64657D02*
X68564Y-64713D01*
X68339Y-64713D01*
X68227Y-64657D01*
X68170Y-64544D01*
X68170Y-64094D01*
X68227Y-63982D01*
X68339Y-63926D01*
X68564Y-63926D01*
X68677Y-63982D01*
X68733Y-64094D01*
X68733Y-64207D01*
X68170Y-64319D01*
X69183Y-64657D02*
X69295Y-64713D01*
X69520Y-64713D01*
X69633Y-64657D01*
X69689Y-64544D01*
X69689Y-64488D01*
X69633Y-64376D01*
X69520Y-64319D01*
X69352Y-64319D01*
X69239Y-64263D01*
X69183Y-64151D01*
X69183Y-64094D01*
X69239Y-63982D01*
X69352Y-63926D01*
X69520Y-63926D01*
X69633Y-63982D01*
X70083Y-65163D02*
X70139Y-65107D01*
X70251Y-64938D01*
X70308Y-64825D01*
X70364Y-64657D01*
X70420Y-64376D01*
X70420Y-64151D01*
X70364Y-63869D01*
X70308Y-63701D01*
X70251Y-63588D01*
X70139Y-63419D01*
X70083Y-63363D01*
M02*
