M48
;DRILL file {Pcbnew (22-Jun-2014 BZR 4027)-stable} date Sun 17 Dec 2017 04:12:13 PM CST
;FORMAT={-:-/ absolute / inch / decimal}
FMAT,2
INCH,TZ
T1C0.016
T2C0.020
T3C0.022
T4C0.030
T5C0.039
%
G90
G05
M72
T1
X4.3725Y-3.2725
X4.385Y-4.725
X4.385Y-4.8225
X4.4475Y-4.0325
X4.4475Y-4.0825
X4.4475Y-4.13
X4.5075Y-4.2725
X4.5075Y-4.3425
X4.51Y-3.475
X4.5925Y-4.725
X4.6125Y-3.3
X4.635Y-3.5725
X4.6575Y-3.2002
X4.6575Y-3.3
X4.6775Y-4.755
X4.7275Y-3.0075
X4.745Y-3.45
X4.7475Y-3.4
X4.7725Y-4.725
X4.785Y-4.3801
X4.835Y-4.965
X4.835Y-5.0125
X4.85Y-4.64
X4.8825Y-4.64
X4.9425Y-4.195
X4.9425Y-4.2425
X5.Y-4.82
X5.0025Y-5.06
X5.0175Y-3.0875
X5.0375Y-5.3125
X5.055Y-4.2475
X5.08Y-4.1925
X5.115Y-4.525
X5.175Y-5.0125
X5.1925Y-2.8225
X5.1925Y-3.01
X5.1975Y-4.61
X5.1975Y-4.6425
X5.2775Y-5.09
X5.3Y-4.64
X5.35Y-5.055
X5.4275Y-4.8226
X5.45Y-4.64
X5.4675Y-2.87
X5.5275Y-3.06
X5.56Y-2.9775
X5.575Y-5.3
X5.5825Y-3.5675
X5.6125Y-3.51
X5.6125Y-4.07
X5.62Y-4.61
X5.7075Y-3.5675
X5.71Y-3.3275
X5.71Y-3.51
X5.7125Y-3.8925
X5.7125Y-4.07
X5.7375Y-3.7675
X5.7475Y-4.61
X5.7475Y-4.6625
X5.76Y-3.89
X5.785Y-3.81
X5.79Y-3.1725
X5.8Y-4.8175
X5.8075Y-3.8325
X5.85Y-5.09
X5.9225Y-3.855
X5.925Y-5.305
X5.945Y-3.585
X5.95Y-4.6525
X5.9675Y-3.6325
X5.975Y-5.12
X5.99Y-3.4925
X5.9975Y-4.6625
X6.Y-3.1925
X6.0125Y-5.12
X6.015Y-3.555
X6.0375Y-3.61
X6.0375Y-4.63
X6.04Y-4.4175
X6.04Y-4.4675
X6.04Y-4.5
X6.04Y-4.565
X6.04Y-4.5975
X6.06Y-3.655
X6.0775Y-3.47
X6.0875Y-5.09
X6.1Y-4.8375
X6.1025Y-3.405
X6.1125Y-5.055
X6.1225Y-3.38
X6.135Y-4.5
X6.135Y-4.63
X6.14Y-5.1225
X6.14Y-5.2725
X6.1475Y-3.45
X6.18Y-3.3625
X6.205Y-3.43
X6.2275Y-3.52
X6.245Y-5.315
X6.2475Y-3.695
X6.2625Y-3.945
X6.3125Y-4.7675
X6.3575Y-4.8925
X6.3775Y-4.6775
X6.3775Y-4.725
X6.4Y-4.89
X6.43Y-4.16
X6.4325Y-4.21
X6.4325Y-4.6075
X6.44Y-4.7825
X6.44Y-4.9675
X6.4413Y-3.8087
X6.46Y-4.3925
X6.4625Y-3.8325
X6.485Y-3.855
X6.485Y-4.655
X6.51Y-4.6325
X6.525Y-3.9825
X6.525Y-4.7275
X6.5325Y-4.2375
X6.535Y-4.185
X6.5425Y-4.365
X6.5625Y-4.7
X6.57Y-4.03
X6.595Y-2.9775
X6.6025Y-4.2875
X6.61Y-3.585
X6.615Y-3.7675
X6.63Y-3.695
X6.63Y-4.0275
X6.635Y-3.565
X6.635Y-3.605
X6.66Y-3.365
X6.66Y-3.545
X6.66Y-3.625
X6.66Y-3.675
X6.6625Y-4.365
X6.68Y-3.65
X6.685Y-3.385
X6.685Y-3.525
X6.71Y-3.405
X6.71Y-3.505
X6.71Y-4.7
X6.735Y-3.425
X6.735Y-3.485
X6.75Y-3.455
X6.755Y-3.2375
X6.7725Y-3.8875
X6.7875Y-4.7275
X6.79Y-4.4425
X6.795Y-3.29
X6.8125Y-4.98
X6.835Y-4.3475
X6.8575Y-4.0475
T4
X5.4238Y-5.2684
X5.4632Y-4.8747
X5.5419Y-4.8747
X5.6207Y-4.8747
X5.6994Y-4.8747
X5.7782Y-4.8747
X5.8175Y-5.2684
T5
X4.48Y-2.93
X4.5307Y-5.1591
X4.54Y-3.02
X4.6Y-2.93
X4.8614Y-5.1591
X5.11Y-5.38
X5.17Y-5.29
X5.23Y-5.38
X5.33Y-2.7907
X5.33Y-3.0663
X6.02Y-5.38
X6.08Y-5.29
X6.14Y-5.38
X6.3782Y-5.1591
X6.63Y-2.93
X6.69Y-3.02
X6.7089Y-5.1591
X6.75Y-2.93
T2
X5.7922Y-2.7624G85X5.7922Y-2.788
G05
X6.0678Y-2.7624G85X6.0678Y-2.788
G05
T3
X5.8375Y-2.8815G85X5.8257Y-2.8815
G05
X6.0344Y-2.8815G85X6.0226Y-2.8815
G05
T0
M30
